<svg xmlns="http://www.w3.org/2000/svg" xmlns:xlink="http://www.w3.org/1999/xlink" width="600.854" height="467.836" viewBox="0 0 600.854 467.836">
  <defs>
    <clipPath id="clip-path">
      <rect id="Rectangle_3" data-name="Rectangle 3" width="209.939" height="209.939" rx="9.755" transform="translate(237.539 113.292)" fill="#263238" stroke="#263238" stroke-linecap="round" stroke-linejoin="round" stroke-width="0.75"/>
    </clipPath>
    <clipPath id="clip-path-2">
      <rect id="Rectangle_9" data-name="Rectangle 9" width="11.566" height="11.566" rx="2.086" transform="translate(430.663 121.3)" fill="#640000" stroke="#263238" stroke-linecap="round" stroke-linejoin="round" stroke-width="0.75"/>
    </clipPath>
    <clipPath id="clip-path-3">
      <rect id="Rectangle_14" data-name="Rectangle 14" width="11.566" height="11.566" rx="2.086" transform="translate(402.169 121.3)" fill="#640000" stroke="#263238" stroke-linecap="round" stroke-linejoin="round" stroke-width="0.75"/>
    </clipPath>
    <clipPath id="clip-path-4">
      <path id="Path_61" data-name="Path 61" d="M502.667,389.514s-2.514-42.764-7.454-83.92c-2.964-24.694-7.922-49.158-9.057-67.436-1.484-23.913,27.711-17.267,53.13-18.331s50.115-4.361,51.879,17.867,4.188,150.411,4.188,150.411S547.193,401.017,502.667,389.514Z" fill="#640000" stroke="#263238" stroke-linecap="round" stroke-linejoin="round" stroke-width="0.75"/>
    </clipPath>
    <clipPath id="clip-path-5">
      <path id="Path_69" data-name="Path 69" d="M567.174,219.086s24.759,1.471,24.616,9.084c0,0,12.4,5.279,13.058,11.242S657.8,301.4,648.739,317.671c-7.915,14.2-39.862,40.616-39.862,40.616s-3.053-6.859-6.5-14.87c0,0,14.015-30.571,20.424-33.711l-33.642-42.728" fill="#640000" stroke="#263238" stroke-linecap="round" stroke-linejoin="round" stroke-width="0.75"/>
    </clipPath>
    <clipPath id="clip-path-6">
      <path id="Path_85" data-name="Path 85" d="M496.878,221.7s-9.374-.4-15.348,16.46c0,0-7.062,4.124-21.429,35.484,0,0-2.473-3.31-7.784-12.38-4.635-7.917-11.713-18.151-17.559-33.12,0,0-4.7,5.792-14.78,5.458,0,0,21.836,73.754,37.124,73.754,16.856,0,35.421-39.2,35.421-39.2" fill="#640000"/>
    </clipPath>
    <clipPath id="clip-path-7">
      <path id="Path_92" data-name="Path 92" d="M543.913,192.835s2.564,25.472,8.248,28.541c0,0-.907,9.734-17.505,9.734s-16.6-13.72-16.6-13.72Z" fill="#fff" stroke="#263238" stroke-linecap="round" stroke-linejoin="round" stroke-width="0.75"/>
    </clipPath>
    <clipPath id="clip-path-8">
      <path id="Path_96" data-name="Path 96" d="M504.21,165.543s-15.1-1.457-11.793-13.647,15.929-13.515,15.929-13.515-2.546,8.745,12.426,7.023,31.137-3.18,31.8,11.922a31.851,31.851,0,0,1-3.975,28.49c-9.8,14.045-18.815,2.672-18.815,2.672l-7.818-16.717-14.407-3.048Z" fill="#263238" stroke="#263238" stroke-miterlimit="10" stroke-width="0.75"/>
    </clipPath>
    <clipPath id="clip-path-9">
      <path id="Path_123" data-name="Path 123" d="M488.954,331.38s-8.337-5.294-20.225-.993a261.031,261.031,0,0,0-30.761,3.471s1.35-3.567-3.48-2.755c0,0-1.8-37.207-7.931-49.763,0,0-.728,3.59-22.113,4.476,0,0-1.52,66.534,6.3,76.288s73.386,2.183,73.386,2.183S495.824,342.773,488.954,331.38Z" fill="#263238" stroke="#263238" stroke-linecap="round" stroke-linejoin="round" stroke-width="0.75"/>
    </clipPath>
    <clipPath id="clip-path-10">
      <path id="Path_128" data-name="Path 128" d="M483.747,446.2s1.942-37.724,0-66.572-16.92-39.11,0-47.709,72.674-6.38,90.149,2.219,6.38,48.264,7.212,65.739,3.883,46.323,3.883,46.323Z" fill="#263238" stroke="#263238" stroke-linecap="round" stroke-linejoin="round" stroke-width="0.75"/>
    </clipPath>
    <clipPath id="clip-path-11">
      <path id="Path_137" data-name="Path 137" d="M502.517,332.1s12.759,28.776,17.937,27.923,8.876-12.667,14.054-18.539,5.69-11.065,5.341-14.293L538.392,312.5l-11.65-1.294-16.643,12.2Z" fill="#fff" stroke="#263238" stroke-linecap="round" stroke-linejoin="round" stroke-width="0.75"/>
    </clipPath>
    <clipPath id="clip-path-12">
      <rect id="Rectangle_20" data-name="Rectangle 20" width="126.365" height="18.145" rx="4.417" transform="translate(266.311 235.269)" fill="#640000" stroke="#263238" stroke-linecap="round" stroke-linejoin="round" stroke-width="0.75"/>
    </clipPath>
    <clipPath id="clip-path-13">
      <path id="Path_181" data-name="Path 181" d="M92.558,234.085s-10.264,5.073-12.593,15.267c0,0-2.913-2.912-4.078,9.611,0,0-25.921,48.057-26.212,68.735s48.638,54.173,48.638,54.173,5.243-6.99,4.078-13.4c0,0-18.932-35.824-28.543-40.192,0,0,10.776-26.213,18.058-31.164S92.558,234.085,92.558,234.085Z" fill="#263238" stroke="#263238" stroke-linecap="round" stroke-linejoin="round" stroke-width="0.75"/>
    </clipPath>
    <clipPath id="clip-path-14">
      <path id="Path_198" data-name="Path 198" d="M96.566,389.443s-.583-20.97-3.5-53.59-19.223-97.86,3.5-103.685,68.043-9.485,83.3,5.243c16.893,16.31,4.078,107.18,3.495,122.907s2.33,33.785,2.33,33.785S125.4,407.209,96.566,389.443Z" fill="#263238" stroke="#263238" stroke-linecap="round" stroke-linejoin="round" stroke-width="0.75"/>
    </clipPath>
    <clipPath id="clip-path-15">
      <path id="Path_210" data-name="Path 210" d="M158.857,228.584s21.508.089,29.7,6.788c0,0,.041-3.495,6.448,0,0,0,19.514-2.33,28.543,0,0,0,11.067-27.377,17.766-34.659,0,0,9.611.583,12.232,4.952,1.246,2.076-1.7,13.5-4.443,25.126-3.029,12.84-6.065,25.938-8.663,27.007-4.951,2.039-57.085,6.7-57.085,6.7l-24.5-12.815Z" fill="#263238" stroke="#263238" stroke-linecap="round" stroke-linejoin="round" stroke-width="0.75"/>
    </clipPath>
    <clipPath id="clip-path-16">
      <path id="Path_230" data-name="Path 230" d="M192.243,360.569s34.876.887,39.892,4.576c0,0-3.139-5.048,2.492-3.4,0,0,.388-42.814,7.961-43.4l2.52-9.744a1.118,1.118,0,0,1,1.667-.681c2.093,1.292,6.426,3.629,10.454,3.676a1.108,1.108,0,0,1,1.086,1.117v8.351s3.883.971,3.689,6.6-3.744,56.141-10.152,61.606-51.454,2.747-51.454,2.747S189.331,381.344,192.243,360.569Z" fill="#640000" stroke="#263238" stroke-linecap="round" stroke-linejoin="round" stroke-width="0.75"/>
    </clipPath>
    <clipPath id="clip-path-17">
      <path id="Path_237" data-name="Path 237" d="M129.027,446.194s-27-56.956-6.288-75.078,64.353-13.314,71.749-11.1,14.794,23.67,15.164,35.135,7.641,11.306-2.714,51.038Z" fill="#640000" stroke="#263238" stroke-linecap="round" stroke-linejoin="round" stroke-width="0.75"/>
    </clipPath>
    <clipPath id="clip-path-18">
      <path id="Path_247" data-name="Path 247" d="M163.237,338.2l-5.363,15.718s11.465,12.2,21.451,13.13l4.068,4.782,4.439-5.337-1.11-6.842-1.793-2.89-1.536-.5,3.144-8.63L176.5,333.947H166.75Z" fill="#fff" stroke="#263238" stroke-linecap="round" stroke-linejoin="round" stroke-width="0.75"/>
    </clipPath>
    <clipPath id="clip-path-19">
      <rect id="Rectangle_26" data-name="Rectangle 26" width="126.365" height="18.144" rx="4.417" transform="translate(272.444 269.583)" fill="#fff" stroke="#263238" stroke-linecap="round" stroke-linejoin="round" stroke-width="0.75"/>
    </clipPath>
  </defs>
  <g id="Group_101" data-name="Group 101" transform="translate(-49.299 -16.55)">
    <g id="Background_Simple" data-name="Background Simple">
      <g id="Group_1" data-name="Group 1">
        <path id="Path_1" data-name="Path 1" d="M532.56,446.194c33.088-63.687,103.216-209.506,73.264-257.058-29.154-46.284-72.844-17.21-127.332-45.507S454.562,20.406,358.751,19.046c-94.085-1.337-106.481,154.68-143.469,170.09s-124.5-46.81-143.353,42.827c-14.665,69.736,59.6,172.176,93.3,214.231Z" fill="#640000"/>
        <path id="Path_2" data-name="Path 2" d="M532.56,446.194c33.088-63.687,103.216-209.506,73.264-257.058-29.154-46.284-72.844-17.21-127.332-45.507S454.562,20.406,358.751,19.046c-94.085-1.337-106.481,154.68-143.469,170.09s-124.5-46.81-143.353,42.827c-14.665,69.736,59.6,172.176,93.3,214.231Z" fill="#fff" opacity="0.7"/>
      </g>
    </g>
    <g id="Shadow">
      <g id="Group_2" data-name="Group 2">
        <path id="Path_3" data-name="Path 3" d="M596.775,446.194H85.861c-6.533,2.925-11.908,6.592-7.152,9.523,9.474,5.84,72.421-3.893,58.142,19.465s142.741-5.19,159.611-4.542,29.2,13.746,55.152,13.746,28.072-16.771,44.856-16.771,136,20.332,186.7,0C605.54,458.641,604.7,451.44,596.775,446.194Z" fill="#858585"/>
        <path id="Path_4" data-name="Path 4" d="M596.775,446.194H85.861c-6.533,2.925-11.908,6.592-7.152,9.523,9.474,5.84,72.421-3.893,58.142,19.465s142.741-5.19,159.611-4.542,29.2,13.746,55.152,13.746,28.072-16.771,44.856-16.771,136,20.332,186.7,0C605.54,458.641,604.7,451.44,596.775,446.194Z" fill="#fff" opacity="0.6"/>
      </g>
    </g>
    <g id="Table">
      <line id="Line_1" data-name="Line 1" x2="528.502" transform="translate(71.965 446.194)" fill="#263238" stroke="#263238" stroke-linecap="round" stroke-linejoin="round" stroke-width="0.75"/>
    </g>
    <g id="Cloud">
      <g id="Group_6" data-name="Group 6">
        <g id="Group_3" data-name="Group 3">
          <path id="Path_5" data-name="Path 5" d="M426.822,84.706h31.469" fill="none" stroke="#263238" stroke-linecap="round" stroke-linejoin="round" stroke-width="0.75"/>
          <path id="Path_6" data-name="Path 6" d="M421.09,84.706H423.9" fill="none" stroke="#263238" stroke-linecap="round" stroke-linejoin="round" stroke-width="0.75"/>
          <path id="Path_7" data-name="Path 7" d="M416.618,37.142a23.782,23.782,0,1,0,0,47.564" fill="none" stroke="#263238" stroke-linecap="round" stroke-linejoin="round" stroke-width="0.75"/>
          <path id="Path_8" data-name="Path 8" d="M445.613,16.925a23.773,23.773,0,0,0-23.585,20.859" fill="none" stroke="#263238" stroke-linecap="round" stroke-linejoin="round" stroke-width="0.75"/>
          <path id="Path_9" data-name="Path 9" d="M468,84.706a21.018,21.018,0,0,0,1.3-42c.055-.662.1-1.326.1-2a23.791,23.791,0,0,0-17.968-23.066" fill="none" stroke="#263238" stroke-linecap="round" stroke-linejoin="round" stroke-width="0.75"/>
        </g>
        <g id="Group_4" data-name="Group 4">
          <path id="Path_10" data-name="Path 10" d="M509.381,114.529a15.662,15.662,0,0,0,1.391-2.4l3.107.052a18.441,18.441,0,0,0,1.012-3.773l-2.72-1.511c.04-.457.064-.919.064-1.387s-.024-.931-.064-1.388l2.72-1.511a18.441,18.441,0,0,0-1.012-3.773l-3.107.052a15.71,15.71,0,0,0-1.391-2.4l1.6-2.665a18.7,18.7,0,0,0-2.763-2.763l-2.665,1.6a15.66,15.66,0,0,0-2.4-1.391l.052-3.107a18.438,18.438,0,0,0-3.773-1.012l-1.511,2.721" fill="none" stroke="#263238" stroke-linecap="round" stroke-linejoin="round" stroke-width="0.75"/>
          <path id="Path_11" data-name="Path 11" d="M482.859,113.243c.251.442.524.871.815,1.286l-1.6,2.665a18.7,18.7,0,0,0,2.763,2.763l2.665-1.6a15.66,15.66,0,0,0,2.4,1.391l-.052,3.107a18.438,18.438,0,0,0,3.773,1.012l1.511-2.72c.457.04.92.064,1.388.064s.93-.024,1.387-.064l1.511,2.72a18.438,18.438,0,0,0,3.773-1.012l-.052-3.107a15.66,15.66,0,0,0,2.4-1.391l2.665,1.6a18.7,18.7,0,0,0,2.763-2.763" fill="none" stroke="#263238" stroke-linecap="round" stroke-linejoin="round" stroke-width="0.75"/>
          <path id="Path_12" data-name="Path 12" d="M480.4,98.855l-1.224-.021a18.437,18.437,0,0,0-1.012,3.773l2.721,1.511c-.041.457-.065.92-.065,1.388s.024.93.065,1.387l-2.721,1.511a18.437,18.437,0,0,0,1.012,3.773l3.107-.052" fill="none" stroke="#263238" stroke-linecap="round" stroke-linejoin="round" stroke-width="0.75"/>
          <path id="Path_13" data-name="Path 13" d="M495.14,89.863l-1.511-2.721a18.438,18.438,0,0,0-3.773,1.012l.052,3.107a15.66,15.66,0,0,0-2.4,1.391l-2.665-1.6a18.7,18.7,0,0,0-2.763,2.763l1.6,2.665a15.708,15.708,0,0,0-1.391,2.4" fill="none" stroke="#263238" stroke-linecap="round" stroke-linejoin="round" stroke-width="0.75"/>
          <path id="Path_14" data-name="Path 14" d="M494.488,115.422a10.123,10.123,0,0,1,2.04-20.038" fill="none" stroke="#263238" stroke-linecap="round" stroke-linejoin="round" stroke-width="0.75"/>
          <path id="Path_15" data-name="Path 15" d="M506.37,107.877a10.126,10.126,0,0,1-9.842,7.75" fill="none" stroke="#263238" stroke-linecap="round" stroke-linejoin="round" stroke-width="0.75"/>
          <path id="Path_16" data-name="Path 16" d="M506.611,106.388c-.02.239-.05.477-.087.712" fill="none" stroke="#263238" stroke-linecap="round" stroke-linejoin="round" stroke-width="0.75"/>
          <path id="Path_17" data-name="Path 17" d="M500.221,96.079a10.125,10.125,0,0,1,6.428,9.427" fill="none" stroke="#263238" stroke-linecap="round" stroke-linejoin="round" stroke-width="0.75"/>
        </g>
        <g id="Group_5" data-name="Group 5">
          <path id="Path_18" data-name="Path 18" d="M523.772,83.822a8.648,8.648,0,0,0,.769-1.33l1.719.028a10.177,10.177,0,0,0,.56-2.087l-1.505-.836c.022-.253.036-.509.036-.768s-.014-.514-.036-.767l1.505-.836a10.177,10.177,0,0,0-.56-2.087l-1.719.028a8.6,8.6,0,0,0-.769-1.33l.884-1.474a10.329,10.329,0,0,0-1.529-1.529l-1.474.884a8.648,8.648,0,0,0-1.33-.769l.028-1.719a10.175,10.175,0,0,0-2.087-.56l-.836,1.505" fill="none" stroke="#263238" stroke-linecap="round" stroke-linejoin="round" stroke-width="0.75"/>
          <path id="Path_19" data-name="Path 19" d="M509.1,83.11c.139.245.29.482.451.712l-.884,1.474a10.326,10.326,0,0,0,1.529,1.529l1.474-.884a8.729,8.729,0,0,0,1.33.769l-.028,1.719a10.175,10.175,0,0,0,2.087.56l.836-1.5c.253.022.509.036.767.036s.515-.014.768-.036l.836,1.5a10.175,10.175,0,0,0,2.087-.56l-.028-1.719a8.73,8.73,0,0,0,1.33-.769l1.474.884a10.328,10.328,0,0,0,1.529-1.529" fill="none" stroke="#263238" stroke-linecap="round" stroke-linejoin="round" stroke-width="0.75"/>
          <path id="Path_20" data-name="Path 20" d="M507.738,75.15l-.677-.011a10.174,10.174,0,0,0-.56,2.087l1.505.836c-.022.253-.036.508-.036.767s.014.515.036.768l-1.505.836a10.173,10.173,0,0,0,.56,2.087l1.719-.028" fill="none" stroke="#263238" stroke-linecap="round" stroke-linejoin="round" stroke-width="0.75"/>
          <path id="Path_21" data-name="Path 21" d="M515.893,70.175l-.836-1.505a10.175,10.175,0,0,0-2.087.56L513,70.949a8.646,8.646,0,0,0-1.33.769l-1.474-.884a10.327,10.327,0,0,0-1.529,1.529l.884,1.474a8.6,8.6,0,0,0-.769,1.33" fill="none" stroke="#263238" stroke-linecap="round" stroke-linejoin="round" stroke-width="0.75"/>
        </g>
      </g>
      <g id="Group_10" data-name="Group 10">
        <g id="Group_7" data-name="Group 7">
          <path id="Path_22" data-name="Path 22" d="M245.783,83.8h23.065" fill="none" stroke="#263238" stroke-linecap="round" stroke-linejoin="round" stroke-width="0.75"/>
          <path id="Path_23" data-name="Path 23" d="M241.583,83.8h2.061" fill="none" stroke="#263238" stroke-linecap="round" stroke-linejoin="round" stroke-width="0.75"/>
          <path id="Path_24" data-name="Path 24" d="M238.3,48.938a17.431,17.431,0,1,0,0,34.861" fill="none" stroke="#263238" stroke-linecap="round" stroke-linejoin="round" stroke-width="0.75"/>
          <path id="Path_25" data-name="Path 25" d="M259.556,34.12A17.424,17.424,0,0,0,242.27,49.408" fill="none" stroke="#263238" stroke-linecap="round" stroke-linejoin="round" stroke-width="0.75"/>
          <path id="Path_26" data-name="Path 26" d="M275.961,83.8a15.4,15.4,0,0,0,.951-30.781c.041-.485.074-.972.074-1.467a17.437,17.437,0,0,0-13.169-16.906" fill="none" stroke="#263238" stroke-linecap="round" stroke-linejoin="round" stroke-width="0.75"/>
        </g>
        <g id="Group_8" data-name="Group 8">
          <path id="Path_27" data-name="Path 27" d="M217.4,115.112a16.687,16.687,0,0,0,1.48-2.558l3.307.054a19.589,19.589,0,0,0,1.078-4.015l-2.9-1.609c.043-.486.069-.978.069-1.477s-.026-.99-.069-1.477l2.9-1.608a19.615,19.615,0,0,0-1.078-4.016l-3.307.055A16.687,16.687,0,0,0,217.4,95.9l1.7-2.837a19.848,19.848,0,0,0-2.941-2.941l-2.837,1.7a16.737,16.737,0,0,0-2.559-1.481l.055-3.307a19.6,19.6,0,0,0-4.015-1.077l-1.609,2.9" fill="none" stroke="#263238" stroke-linecap="round" stroke-linejoin="round" stroke-width="0.75"/>
          <path id="Path_28" data-name="Path 28" d="M189.173,113.743q.4.707.868,1.369l-1.7,2.837a19.889,19.889,0,0,0,2.94,2.941l2.838-1.7a16.68,16.68,0,0,0,2.558,1.481l-.055,3.307a19.669,19.669,0,0,0,4.015,1.077l1.609-2.9c.487.043.979.069,1.477.069s.99-.026,1.477-.069l1.609,2.9a19.669,19.669,0,0,0,4.015-1.077l-.055-3.307a16.737,16.737,0,0,0,2.559-1.481l2.837,1.7a19.944,19.944,0,0,0,2.941-2.941" fill="none" stroke="#263238" stroke-linecap="round" stroke-linejoin="round" stroke-width="0.75"/>
          <path id="Path_29" data-name="Path 29" d="M186.556,98.428l-1.3-.022a19.613,19.613,0,0,0-1.077,4.016l2.9,1.608c-.042.487-.068.979-.068,1.477s.026.991.068,1.477l-2.9,1.609a19.587,19.587,0,0,0,1.077,4.015l3.307-.054" fill="none" stroke="#263238" stroke-linecap="round" stroke-linejoin="round" stroke-width="0.75"/>
          <path id="Path_30" data-name="Path 30" d="M202.245,88.856l-1.609-2.9a19.6,19.6,0,0,0-4.015,1.077l.055,3.307a16.68,16.68,0,0,0-2.558,1.481l-2.838-1.7a19.794,19.794,0,0,0-2.94,2.941l1.7,2.837a16.693,16.693,0,0,0-1.481,2.558" fill="none" stroke="#263238" stroke-linecap="round" stroke-linejoin="round" stroke-width="0.75"/>
          <path id="Path_31" data-name="Path 31" d="M201.551,116.062a10.775,10.775,0,0,1,2.171-21.328" fill="none" stroke="#263238" stroke-linecap="round" stroke-linejoin="round" stroke-width="0.75"/>
          <path id="Path_32" data-name="Path 32" d="M214.2,108.032a10.779,10.779,0,0,1-10.477,8.249" fill="none" stroke="#263238" stroke-linecap="round" stroke-linejoin="round" stroke-width="0.75"/>
          <path id="Path_33" data-name="Path 33" d="M214.456,106.446c-.022.256-.053.508-.093.758" fill="none" stroke="#263238" stroke-linecap="round" stroke-linejoin="round" stroke-width="0.75"/>
          <path id="Path_34" data-name="Path 34" d="M207.654,95.474a10.776,10.776,0,0,1,6.842,10.033" fill="none" stroke="#263238" stroke-linecap="round" stroke-linejoin="round" stroke-width="0.75"/>
        </g>
        <g id="Group_9" data-name="Group 9">
          <path id="Path_35" data-name="Path 35" d="M176.189,104.579a12.463,12.463,0,0,0,1.112-1.922l2.485.041a14.774,14.774,0,0,0,.809-3.017l-2.175-1.208c.032-.366.051-.736.051-1.11s-.019-.744-.051-1.11l2.175-1.209a14.774,14.774,0,0,0-.809-3.017l-2.485.042a12.472,12.472,0,0,0-1.112-1.923l1.278-2.131a14.9,14.9,0,0,0-2.21-2.21l-2.131,1.278a12.473,12.473,0,0,0-1.923-1.112l.041-2.485a14.742,14.742,0,0,0-3.017-.81l-1.208,2.176" fill="none" stroke="#263238" stroke-linecap="round" stroke-linejoin="round" stroke-width="0.75"/>
          <path id="Path_36" data-name="Path 36" d="M154.978,103.551q.3.531.652,1.028l-1.279,2.132a14.984,14.984,0,0,0,2.21,2.209l2.132-1.278a12.549,12.549,0,0,0,1.922,1.113l-.041,2.485a14.758,14.758,0,0,0,3.017.809l1.208-2.176c.366.032.736.052,1.11.052s.744-.02,1.11-.052l1.208,2.176a14.74,14.74,0,0,0,3.017-.809l-.041-2.485a12.56,12.56,0,0,0,1.923-1.113l2.131,1.278a14.936,14.936,0,0,0,2.21-2.209" fill="none" stroke="#263238" stroke-linecap="round" stroke-linejoin="round" stroke-width="0.75"/>
          <path id="Path_37" data-name="Path 37" d="M153.011,92.044l-.979-.017a14.774,14.774,0,0,0-.809,3.017l2.176,1.209c-.032.366-.052.735-.052,1.11s.02.744.052,1.11l-2.176,1.208a14.774,14.774,0,0,0,.809,3.017l2.485-.041" fill="none" stroke="#263238" stroke-linecap="round" stroke-linejoin="round" stroke-width="0.75"/>
          <path id="Path_38" data-name="Path 38" d="M164.8,84.852l-1.208-2.176a14.759,14.759,0,0,0-3.017.81l.041,2.485a12.463,12.463,0,0,0-1.922,1.112l-2.132-1.278a14.943,14.943,0,0,0-2.21,2.21l1.279,2.131a12.56,12.56,0,0,0-1.113,1.923" fill="none" stroke="#263238" stroke-linecap="round" stroke-linejoin="round" stroke-width="0.75"/>
          <path id="Path_39" data-name="Path 39" d="M164.8,102.775a5.525,5.525,0,0,1,1.113-10.937" fill="none" stroke="#263238" stroke-linecap="round" stroke-linejoin="round" stroke-width="0.75"/>
          <path id="Path_40" data-name="Path 40" d="M171.281,98.657a5.526,5.526,0,0,1-5.372,4.23" fill="none" stroke="#263238" stroke-linecap="round" stroke-linejoin="round" stroke-width="0.75"/>
          <path id="Path_41" data-name="Path 41" d="M167.925,92.218a5.526,5.526,0,0,1,3.509,5.145" fill="none" stroke="#263238" stroke-linecap="round" stroke-linejoin="round" stroke-width="0.75"/>
        </g>
      </g>
    </g>
    <g id="Plant">
      <g id="Group_13" data-name="Group 13">
        <g id="Group_11" data-name="Group 11">
          <path id="Path_42" data-name="Path 42" d="M349.938,408.677s-32.769-18.944-28.4-24.218,19.389,9.472,19.389,9.472-28.947-36.318-23.758-40.006S337.1,374.269,337.1,374.269s-17.751-40.054-10.924-41.191,17.751,34.637,17.751,34.637-4.643-25.4,0-25.943,7.919,40.235,7.919,40.235-.23-19.188,3.845-19.061S361.408,405.946,349.938,408.677Z" fill="#640000"/>
          <path id="Path_43" data-name="Path 43" d="M349.938,408.677s-32.769-18.944-28.4-24.218,19.389,9.472,19.389,9.472-28.947-36.318-23.758-40.006S337.1,374.269,337.1,374.269s-17.751-40.054-10.924-41.191,17.751,34.637,17.751,34.637-4.643-25.4,0-25.943,7.919,40.235,7.919,40.235-.23-19.188,3.845-19.061S361.408,405.946,349.938,408.677Z" fill="#fff" opacity="0.4"/>
        </g>
        <g id="Group_12" data-name="Group 12">
          <path id="Path_44" data-name="Path 44" d="M355.074,407.085s25.954-15,22.494-19.181-15.356,7.5-15.356,7.5,22.925-28.764,18.816-31.685-15.788,16.112-15.788,16.112,14.058-31.723,8.651-32.623-14.059,27.433-14.059,27.433,3.677-20.114,0-20.547-6.272,31.866-6.272,31.866.182-15.2-3.045-15.1S345.991,404.922,355.074,407.085Z" fill="#640000"/>
          <path id="Path_45" data-name="Path 45" d="M355.074,407.085s25.954-15,22.494-19.181-15.356,7.5-15.356,7.5,22.925-28.764,18.816-31.685-15.788,16.112-15.788,16.112,14.058-31.723,8.651-32.623-14.059,27.433-14.059,27.433,3.677-20.114,0-20.547-6.272,31.866-6.272,31.866.182-15.2-3.045-15.1S345.991,404.922,355.074,407.085Z" opacity="0.2"/>
        </g>
        <path id="Path_46" data-name="Path 46" d="M327.09,401.981v2.008a3.9,3.9,0,0,0,2.784,3.732l2.964,31.489a8.074,8.074,0,0,0,8.039,7.318h21.941a8.075,8.075,0,0,0,8.039-7.318l2.963-31.489a3.9,3.9,0,0,0,2.785-3.732v-2.008Z" fill="#263238"/>
        <path id="Path_47" data-name="Path 47" d="M330.371,413.01a3.255,3.255,0,0,0,2.777-.908l2.582-2.6a3.252,3.252,0,0,1,4.581,0l2.582,2.6a3.25,3.25,0,0,0,4.581,0l2.6-2.6a3.235,3.235,0,0,1,4.567,0l2.6,2.6a3.234,3.234,0,0,0,4.568,0l2.6-2.6a3.252,3.252,0,0,1,4.581,0l2.582,2.6a3.082,3.082,0,0,0,1.765.9" fill="none" stroke="#7f7f7f" stroke-linecap="round" stroke-linejoin="round" stroke-width="0.75"/>
      </g>
    </g>
    <g id="Interface">
      <g id="Group_22" data-name="Group 22">
        <g id="Group_15" data-name="Group 15">
          <rect id="Rectangle_1" data-name="Rectangle 1" width="209.939" height="209.939" rx="9.755" transform="translate(237.539 113.292)" fill="#263238"/>
          <g id="Group_14" data-name="Group 14" clip-path="url(#clip-path)">
            <rect id="Rectangle_2" data-name="Rectangle 2" width="209.939" height="209.939" rx="9.755" transform="translate(237.539 113.292)" fill="#fff" opacity="0.8"/>
          </g>
          <rect id="Rectangle_4" data-name="Rectangle 4" width="209.939" height="209.939" rx="9.755" transform="translate(237.539 113.292)" fill="none" stroke="#263238" stroke-linecap="round" stroke-linejoin="round" stroke-width="0.75"/>
        </g>
        <g id="Group_16" data-name="Group 16">
          <rect id="Rectangle_5" data-name="Rectangle 5" width="199.442" height="179.471" rx="9.755" transform="translate(242.788 138.511)" fill="#263238"/>
          <rect id="Rectangle_6" data-name="Rectangle 6" width="199.442" height="179.471" rx="9.755" transform="translate(242.788 138.511)" fill="none" stroke="#263238" stroke-linecap="round" stroke-linejoin="round" stroke-width="0.75"/>
        </g>
        <g id="Group_18" data-name="Group 18">
          <rect id="Rectangle_7" data-name="Rectangle 7" width="11.566" height="11.566" rx="2.086" transform="translate(430.663 121.3)" fill="#640000"/>
          <g id="Group_17" data-name="Group 17" clip-path="url(#clip-path-2)">
            <rect id="Rectangle_8" data-name="Rectangle 8" width="11.566" height="11.566" rx="2.086" transform="translate(430.663 121.3)" opacity="0.3"/>
          </g>
          <rect id="Rectangle_10" data-name="Rectangle 10" width="11.566" height="11.566" rx="2.086" transform="translate(430.663 121.3)" fill="none" stroke="#263238" stroke-linecap="round" stroke-linejoin="round" stroke-width="0.75"/>
        </g>
        <rect id="Rectangle_11" data-name="Rectangle 11" width="11.566" height="11.566" rx="2.086" transform="translate(416.416 121.3)" fill="#640000" stroke="#263238" stroke-linecap="round" stroke-linejoin="round" stroke-width="0.75"/>
        <g id="Group_20" data-name="Group 20">
          <rect id="Rectangle_12" data-name="Rectangle 12" width="11.566" height="11.566" rx="2.086" transform="translate(402.169 121.3)" fill="#640000"/>
          <g id="Group_19" data-name="Group 19" clip-path="url(#clip-path-3)">
            <rect id="Rectangle_13" data-name="Rectangle 13" width="11.566" height="11.566" rx="2.086" transform="translate(402.169 121.3)" fill="#fff" opacity="0.7"/>
          </g>
          <rect id="Rectangle_15" data-name="Rectangle 15" width="11.566" height="11.566" rx="2.086" transform="translate(402.169 121.3)" fill="none" stroke="#263238" stroke-linecap="round" stroke-linejoin="round" stroke-width="0.75"/>
        </g>
        <g id="Group_21" data-name="Group 21">
          <path id="Path_48" data-name="Path 48" d="M243.227,129.168v-4.9a2.225,2.225,0,1,1,4.444,0v4.9a2.225,2.225,0,1,1-4.444,0Zm2.981.094v-5.083c0-.665-.293-.919-.759-.919s-.758.254-.758.919v5.083c0,.665.293.919.758.919S246.208,129.927,246.208,129.262Z" fill="#263238"/>
          <path id="Path_49" data-name="Path 49" d="M248.659,122.063h2.156c1.463,0,2.182.811,2.182,2.3v.918c0,1.491-.719,2.3-2.182,2.3h-.692v3.792h-1.464Zm2.156,4.192c.466,0,.719-.214.719-.879v-1.1c0-.665-.253-.879-.719-.879h-.692v2.862Z" fill="#263238"/>
          <path id="Path_50" data-name="Path 50" d="M253.8,122.063h3.992v1.33h-2.528v2.462h2.009v1.331h-2.009v2.861h2.528v1.331H253.8Z" fill="#263238"/>
          <path id="Path_51" data-name="Path 51" d="M258.631,122.063h1.837l1.423,5.576h.027v-5.576h1.3v9.315h-1.5l-1.757-6.8h-.027v6.8h-1.3Z" fill="#263238"/>
          <path id="Path_52" data-name="Path 52" d="M266.194,129.168v-.531h1.384v.639c0,.665.292.9.758.9s.759-.24.759-.932c0-.772-.293-1.265-1.251-2.1-1.225-1.078-1.624-1.837-1.624-2.9a2.036,2.036,0,0,1,2.183-2.315c1.424,0,2.129.851,2.129,2.342v.386h-1.384v-.479c0-.665-.266-.919-.732-.919s-.732.254-.732.892c0,.679.306,1.171,1.264,2.01,1.225,1.078,1.611,1.822,1.611,2.98a2.068,2.068,0,0,1-2.21,2.369C266.912,131.511,266.194,130.659,266.194,129.168Z" fill="#263238"/>
          <path id="Path_53" data-name="Path 53" d="M271.293,129.168v-4.9a2.225,2.225,0,1,1,4.444,0v4.9a2.225,2.225,0,1,1-4.444,0Zm2.981.094v-5.083c0-.665-.293-.919-.759-.919s-.759.254-.759.919v5.083c0,.665.293.919.759.919S274.274,129.927,274.274,129.262Z" fill="#263238"/>
          <path id="Path_54" data-name="Path 54" d="M276.672,129.168v-7.1h1.464v7.213c0,.665.279.9.745.9s.745-.24.745-.9v-7.213h1.41v7.1c0,1.491-.745,2.343-2.182,2.343S276.672,130.659,276.672,129.168Z" fill="#263238"/>
          <path id="Path_55" data-name="Path 55" d="M282.077,122.063h2.169c1.517,0,2.169.7,2.169,2.142v.572c0,.959-.306,1.571-.958,1.837v.027c.732.226.971.917.971,1.969v1.637a2.75,2.75,0,0,0,.16,1.131H285.1a2.855,2.855,0,0,1-.134-1.144v-1.7c0-.864-.253-1.144-.918-1.144h-.505v3.992h-1.464Zm2,3.993c.545,0,.878-.241.878-.985v-.719c0-.666-.226-.959-.745-.959h-.665v2.663Z" fill="#263238"/>
          <path id="Path_56" data-name="Path 56" d="M287.349,129.222v-5a2.16,2.16,0,1,1,4.312,0v.985h-1.384v-1.078c0-.612-.293-.866-.732-.866s-.732.254-.732.866v5.2c0,.612.293.852.732.852s.732-.24.732-.852V127.9h1.384v1.317a2.16,2.16,0,1,1-4.312,0Z" fill="#263238"/>
          <path id="Path_57" data-name="Path 57" d="M292.542,122.063h3.992v1.33h-2.529v2.462h2.01v1.331h-2.01v2.861h2.529v1.331h-3.992Z" fill="#263238"/>
        </g>
      </g>
    </g>
    <g id="Character_4" data-name="Character 4">
      <g id="Group_43" data-name="Group 43">
        <g id="Group_41" data-name="Group 41">
          <path id="Path_58" data-name="Path 58" d="M503.26,383.263s1.668,10.991,1.273,14.645c-1.325,12.27-7.612,24.443-10.273,48.284H596.435s.926-43.481-3.087-62.929Z" fill="#858585" stroke="#263238" stroke-linecap="round" stroke-linejoin="round" stroke-width="1"/>
          <g id="Group_25" data-name="Group 25">
            <path id="Path_59" data-name="Path 59" d="M502.667,389.514s-2.514-42.764-7.454-83.92c-2.964-24.694-7.922-49.158-9.057-67.436-1.484-23.913,27.711-17.267,53.13-18.331s50.115-4.361,51.879,17.867,4.188,150.411,4.188,150.411S547.193,401.017,502.667,389.514Z" fill="#640000"/>
            <g id="Group_24" data-name="Group 24" clip-path="url(#clip-path-4)">
              <g id="Group_23" data-name="Group 23" opacity="0.2">
                <path id="Path_60" data-name="Path 60" d="M494.882,252.186a83.712,83.712,0,0,1-28.247,35.151l2.384,5.458c-2.757,2.325-7.817.192-8.078-3.4l-2.866,14.736-9.159-.288c4.48,4.548,12.354,3.861,17.634.273s8.617-9.323,11.909-14.793,6.947-11.088,12.54-14.167l20.169,94.7c1.085,5.1,2.243,10.356,5.3,14.572,6.346,8.746,18.619,10.334,29.424,10.235a189.8,189.8,0,0,0,47.457-6.484l-1.193-116.189,30.8,38.314-15.041,20.784a37.344,37.344,0,0,1,28.77-16.387,7.675,7.675,0,0,0-7.294-2.018l9.517-3.046-7.438-.647q2.076-3.363,4.151-6.726c-.975,1.921-3.615,2.465-5.652,1.764s-3.606-2.312-5.094-3.871c-6.787-7.111-13.645-14.317-18.495-22.867s-7.561-18.723-5.394-28.311l-3.463,8.637-5.291-14.764a13.78,13.78,0,0,1-4.147,13.045c-1.411,1.265-3.145,2.3-3.887,4.069a4.411,4.411,0,0,0-.192,2.509c13.282,71.03-29.9,71.413-45.041,67.507-13.562-3.5-25.994-20.6-26.508-34.419a2.261,2.261,0,0,1,3.361-2.026c25.51,14.09,47.394,17.688,39.8,11.859-13.5-2.887-49.48-17.636-55.481-49.784a4.325,4.325,0,0,0-5.255-3.417Z"/>
              </g>
            </g>
            <path id="Path_62" data-name="Path 62" d="M502.667,389.514s-2.514-42.764-7.454-83.92c-2.964-24.694-7.922-49.158-9.057-67.436-1.484-23.913,27.711-17.267,53.13-18.331s50.115-4.361,51.879,17.867,4.188,150.411,4.188,150.411S547.193,401.017,502.667,389.514Z" fill="none" stroke="#263238" stroke-linecap="round" stroke-linejoin="round" stroke-width="0.75"/>
          </g>
          <path id="Path_63" data-name="Path 63" d="M544.217,446.192a47.76,47.76,0,0,0-3.313-6.735c-6.248-8.3-5.465-15.383-7.755-23.128-.7-2.372-5.488-8.232-5.488-8.232" fill="none" stroke="#263238" stroke-linecap="round" stroke-linejoin="round" stroke-width="0.75"/>
          <path id="Path_64" data-name="Path 64" d="M606.453,340.036l-7.431,8.82,2.286,15.464,11.319-11.913Z" fill="#fff" stroke="#263238" stroke-linecap="round" stroke-linejoin="round" stroke-width="0.75"/>
          <g id="Group_26" data-name="Group 26">
            <path id="Path_65" data-name="Path 65" d="M600.382,349.5c-.312-1.5-.48-5.326-1.931-5.828-2.663-.921-7.781,3.916-9.4,6.223-.76,1.084-2.4,3.4-2.384,4.729.006.677.6,2.287,1.266,2.393,1.163.185,2.487-2.513,3.386-3.273a45.7,45.7,0,0,1,5.352-3.058s-3.148,4.572-4.434,5.625c-1.914,1.568-9.877,6-4.819,8.642,0,0-1.952,2.865,1.1,3.622s7.916-3.466,7.916-3.466a18.546,18.546,0,0,1-3.1,3.353c-1.935,1.726-4.8,1.349-4.121,2.568,1.052,1.891,3.649,2.065,6.422,1.135a10.652,10.652,0,0,0,6.623-5.292C604.764,362.724,601.272,353.776,600.382,349.5Z" fill="#fff" stroke="#1a2e35" stroke-linecap="round" stroke-linejoin="round" stroke-width="0.75"/>
            <path id="Path_66" data-name="Path 66" d="M589.507,364.32a55.934,55.934,0,0,0,6.287-3.689,11.869,11.869,0,0,0,3.227-3.8" fill="none" stroke="#1a2e35" stroke-linecap="round" stroke-linejoin="round" stroke-width="0.75"/>
          </g>
          <g id="Group_29" data-name="Group 29">
            <path id="Path_67" data-name="Path 67" d="M567.174,219.086s24.759,1.471,24.616,9.084c0,0,12.4,5.279,13.058,11.242S657.8,301.4,648.739,317.671c-7.915,14.2-39.862,40.616-39.862,40.616s-3.053-6.859-6.5-14.87c0,0,14.015-30.571,20.424-33.711l-33.642-42.728" fill="#640000"/>
            <g id="Group_28" data-name="Group 28" clip-path="url(#clip-path-5)">
              <g id="Group_27" data-name="Group 27" opacity="0.2">
                <path id="Path_68" data-name="Path 68" d="M495.379,252.023a83.693,83.693,0,0,1-28.246,35.15q1.193,2.73,2.383,5.459c-2.756,2.325-7.817.192-8.077-3.4q-1.434,7.368-2.866,14.735l-9.159-.287c4.48,4.547,12.354,3.861,17.634.273s8.617-9.324,11.909-14.793,6.947-11.088,12.54-14.167l20.169,94.7c1.085,5.1,2.242,10.356,5.3,14.573,6.345,8.745,18.619,10.333,29.424,10.235a189.854,189.854,0,0,0,47.457-6.484q-.6-58.095-1.193-116.189,15.4,19.156,30.8,38.314l-15.041,20.784a37.345,37.345,0,0,1,28.769-16.388,7.673,7.673,0,0,0-7.293-2.017l9.517-3.046-7.438-.647q2.074-3.363,4.151-6.726c-.975,1.921-3.615,2.465-5.652,1.764s-3.607-2.313-5.094-3.871c-6.787-7.112-13.645-14.318-18.495-22.868s-7.561-18.722-5.4-28.31l-3.462,8.636-5.292-14.764a13.78,13.78,0,0,1-4.146,13.045c-1.356,1.216-3.01,2.223-3.8,3.865-1.059,2.213-.213,4.812.491,7.162,4.391,14.659,2.312,31.479-6.881,43.712s-25.736,18.981-40.553,15.159-26.349-18.87-24.762-34.09a171.534,171.534,0,0,0,49.293,10.155c-14.121-3.019-28.33-7.1-40.233-15.275s-21.291-21.078-22.138-35.492Z"/>
              </g>
            </g>
            <path id="Path_70" data-name="Path 70" d="M567.174,219.086s24.759,1.471,24.616,9.084c0,0,12.4,5.279,13.058,11.242S657.8,301.4,648.739,317.671c-7.915,14.2-39.862,40.616-39.862,40.616s-3.053-6.859-6.5-14.87c0,0,14.015-30.571,20.424-33.711l-33.642-42.728" fill="none" stroke="#263238" stroke-linecap="round" stroke-linejoin="round" stroke-width="0.75"/>
          </g>
          <path id="Path_71" data-name="Path 71" d="M639.773,308.53c-5.515-3.88-13.328.2-13.328-2.352s9.407-2.78,8.624-5.408" fill="none" stroke="#263238" stroke-linecap="round" stroke-linejoin="round" stroke-width="0.75"/>
          <g id="Group_30" data-name="Group 30">
            <path id="Path_72" data-name="Path 72" d="M596.587,255.706a43.989,43.989,0,0,0,2.614-14.992" fill="none" stroke="#263238" stroke-linecap="round" stroke-linejoin="round" stroke-width="0.75"/>
            <path id="Path_73" data-name="Path 73" d="M592.566,237.437c.293,5.813.586,14.072.319,20.375a1.349,1.349,0,0,0,2.575.621" fill="none" stroke="#263238" stroke-linecap="round" stroke-linejoin="round" stroke-width="0.75"/>
            <path id="Path_74" data-name="Path 74" d="M592.145,230.326s.089,1.244.211,3.274" fill="none" stroke="#263238" stroke-linecap="round" stroke-linejoin="round" stroke-width="0.75"/>
          </g>
          <path id="Path_75" data-name="Path 75" d="M479.147,246.986s-1.474,10.294,0,17.642" fill="none" stroke="#263238" stroke-linecap="round" stroke-linejoin="round" stroke-width="0.75"/>
          <g id="Group_31" data-name="Group 31">
            <path id="Path_76" data-name="Path 76" d="M435.891,236.7l-5.673-16.317s-1.764-11.172-3.234-13.377a33.6,33.6,0,0,0-5.292-5.292,39.308,39.308,0,0,0-4.683-5.439c-1.932-1.617-13.251-7.5-14.133-7.056s-2.278,3.087,5.072,7.2a18.7,18.7,0,0,0-7.277,1.029c-3.234,1.323-5.438,1.69-4.042,3.087s2.573,2.058,7.791.661a40.923,40.923,0,0,0,6.615.221l1.617,1.911a3.178,3.178,0,0,0-3.969,1.249c-1.47,2.352-3.161,5.292-2.426,6.983,0,0-5.659-2.94-7.2-.515s3.234,4.631,5.145,6.1,6.542,5.439,6.542,5.439,3.307,7.423,10.216,10.143c0,0,2.677,3.087,1.911,5.953Z" fill="#fff" stroke="#263238" stroke-linecap="round" stroke-linejoin="round" stroke-width="0.75"/>
            <path id="Path_77" data-name="Path 77" d="M411.549,198.408l2.426,1.984,2.72,4.7,1.837,6.174" fill="none" stroke="#263238" stroke-linecap="round" stroke-linejoin="round" stroke-width="0.75"/>
            <path id="Path_78" data-name="Path 78" d="M420.075,211.271s-3.854,4.63-6.594,5.292a25.82,25.82,0,0,1-3.475-1.764c-.487-.426-1.226-1.256-2.718-2.447" fill="none" stroke="#263238" stroke-linecap="round" stroke-linejoin="round" stroke-width="0.75"/>
            <path id="Path_79" data-name="Path 79" d="M415.812,210.9l-.354-1.249a8.181,8.181,0,0,1-3.468,0l-.882,1.249A16.421,16.421,0,0,1,415.812,210.9Z" fill="none" stroke="#263238" stroke-linecap="round" stroke-linejoin="round" stroke-width="0.75"/>
            <path id="Path_80" data-name="Path 80" d="M411.917,205.685a6.254,6.254,0,0,1,.514,3.16" fill="none" stroke="#263238" stroke-linecap="round" stroke-linejoin="round" stroke-width="0.75"/>
            <path id="Path_81" data-name="Path 81" d="M409.638,209.654a7.382,7.382,0,0,1,2.546,6.323" fill="none" stroke="#263238" stroke-linecap="round" stroke-linejoin="round" stroke-width="0.75"/>
            <path id="Path_82" data-name="Path 82" d="M414.2,204.509l1.617,1.764v1.984" fill="none" stroke="#263238" stroke-linecap="round" stroke-linejoin="round" stroke-width="0.75"/>
          </g>
          <g id="Group_34" data-name="Group 34">
            <path id="Path_83" data-name="Path 83" d="M496.878,221.7s-9.374-.4-15.348,16.46c0,0-7.062,4.124-21.429,35.484,0,0-2.473-3.31-7.784-12.38-4.635-7.917-11.713-18.151-17.559-33.12,0,0-4.7,5.792-14.78,5.458,0,0,21.836,73.754,37.124,73.754,16.856,0,35.421-39.2,35.421-39.2" fill="#640000"/>
            <g id="Group_33" data-name="Group 33" clip-path="url(#clip-path-6)">
              <g id="Group_32" data-name="Group 32" opacity="0.2">
                <path id="Path_84" data-name="Path 84" d="M495.379,252.023a83.693,83.693,0,0,1-28.246,35.15q1.193,2.73,2.383,5.459c-2.756,2.325-7.817.192-8.077-3.4q-1.434,7.368-2.866,14.735l-9.159-.287c4.48,4.547,12.354,3.861,17.634.273s8.617-9.324,11.909-14.793,6.947-11.088,12.54-14.167l20.169,94.7c1.085,5.1,2.242,10.356,5.3,14.573,6.345,8.745,18.619,10.333,29.424,10.235a189.854,189.854,0,0,0,47.457-6.484q-.6-58.095-1.193-116.189,15.4,19.156,30.8,38.314l-15.041,20.784a37.345,37.345,0,0,1,28.769-16.388,7.673,7.673,0,0,0-7.293-2.017l9.517-3.046-7.438-.647q2.074-3.363,4.151-6.726c-.975,1.921-3.615,2.465-5.652,1.764s-3.607-2.313-5.094-3.871c-6.787-7.112-13.645-14.318-18.495-22.868s-7.561-18.722-5.4-28.31l-3.462,8.636-5.292-14.764a13.78,13.78,0,0,1-4.146,13.045c-1.356,1.216-3.01,2.223-3.8,3.865-1.059,2.213-.213,4.812.491,7.162,4.391,14.659,2.312,31.479-6.881,43.712s-25.736,18.981-40.553,15.159-26.349-18.87-24.762-34.09a171.534,171.534,0,0,0,49.293,10.155c-14.121-3.019-28.33-7.1-40.233-15.275s-21.291-21.078-22.138-35.492Z"/>
              </g>
            </g>
          </g>
          <path id="Path_86" data-name="Path 86" d="M496.878,221.7s-9.374-.4-15.348,16.46c0,0-7.062,4.124-21.429,35.484,0,0-2.473-3.31-7.784-12.38-4.635-7.917-11.713-18.151-17.559-33.12,0,0-4.7,5.792-14.78,5.458,0,0,21.836,73.754,37.124,73.754,16.856,0,35.421-39.2,35.421-39.2" fill="none" stroke="#263238" stroke-linecap="round" stroke-linejoin="round" stroke-width="0.75"/>
          <g id="Group_35" data-name="Group 35">
            <path id="Path_87" data-name="Path 87" d="M486.4,241.869q-.146-1.782-.241-3.711" fill="none" stroke="#263238" stroke-linecap="round" stroke-linejoin="round" stroke-width="0.75"/>
            <path id="Path_88" data-name="Path 88" d="M488.031,264.211c2.734-.3.346-5.911-1.1-17.22" fill="none" stroke="#263238" stroke-linecap="round" stroke-linejoin="round" stroke-width="0.75"/>
            <path id="Path_89" data-name="Path 89" d="M481.014,243.262s2.278,13.322,4.9,18.721" fill="none" stroke="#263238" stroke-linecap="round" stroke-linejoin="round" stroke-width="0.75"/>
          </g>
          <g id="Group_37" data-name="Group 37">
            <path id="Path_90" data-name="Path 90" d="M543.913,192.835s2.564,25.472,8.248,28.541c0,0-.907,9.734-17.505,9.734s-16.6-13.72-16.6-13.72Z" fill="#fff"/>
            <g id="Group_36" data-name="Group 36" clip-path="url(#clip-path-7)">
              <path id="Path_91" data-name="Path 91" d="M508.051,165.277s-2.694,16.043-2.251,19.37-.382,6.823.3,12.258,4.821,20.572,14.7,22.885c5.15,1.206,16.32-3.813,20.945-14.1.314-.7,2.169-8.609,2.169-8.609s4.579,3.1,6.051-1.912,3.946-9.587.769-12.578c-3.318-3.123-7.477,3.491-8.075,5.887s-2.944-.321-2.944-.321-1.469-11.032-4.913-13.96,2.979-8.6-.282-12.438S516.75,158.773,508.051,165.277Z" fill="#263238" stroke="#263238" stroke-linecap="round" stroke-linejoin="round" stroke-width="0.75"/>
            </g>
            <path id="Path_93" data-name="Path 93" d="M543.913,192.835s2.564,25.472,8.248,28.541c0,0-.907,9.734-17.505,9.734s-16.6-13.72-16.6-13.72Z" fill="none" stroke="#263238" stroke-linecap="round" stroke-linejoin="round" stroke-width="0.75"/>
          </g>
          <g id="Group_39" data-name="Group 39">
            <path id="Path_94" data-name="Path 94" d="M504.21,165.543s-15.1-1.457-11.793-13.647,15.929-13.515,15.929-13.515-2.546,8.745,12.426,7.023,31.137-3.18,31.8,11.922a31.851,31.851,0,0,1-3.975,28.49c-9.8,14.045-18.815,2.672-18.815,2.672l-7.818-16.717-14.407-3.048Z" fill="#263238"/>
            <g id="Group_38" data-name="Group 38" clip-path="url(#clip-path-8)">
              <path id="Path_95" data-name="Path 95" d="M525.949,157.372s17.878,2.071,26.623-.046,11.129,21.6,11.129,21.6l-2.119,14.441-23.85,4.108-11-9.8-4.505-13.648Z" fill="#858585" stroke="#263238" stroke-miterlimit="10" stroke-width="0.75"/>
            </g>
            <path id="Path_97" data-name="Path 97" d="M504.21,165.543s-15.1-1.457-11.793-13.647,15.929-13.515,15.929-13.515-2.546,8.745,12.426,7.023,31.137-3.18,31.8,11.922a31.851,31.851,0,0,1-3.975,28.49c-9.8,14.045-18.815,2.672-18.815,2.672l-7.818-16.717-14.407-3.048Z" fill="none" stroke="#263238" stroke-miterlimit="10" stroke-width="0.75"/>
          </g>
          <path id="Path_98" data-name="Path 98" d="M502.037,163.569s-3.486,16.148-3.043,19.475-.594,6.852.08,12.287,3.025,25.8,14.762,24.234c11.561-1.539,27.464-11,28.877-20.392.115-.764.8-2.986.8-2.986a5.336,5.336,0,0,0,6.655-3.559c1.822-5.055,4.8-9.7,1.17-12.632-3.793-3.059-8.78,3.664-9.527,6.081s-3.421-.258-3.421-.258-1.469-11.032-5.414-13.893,3.656-8.685-.056-12.468S512.3,156.856,502.037,163.569Z" fill="#fff" stroke="#263238" stroke-linecap="round" stroke-linejoin="round" stroke-width="0.75"/>
          <path id="Path_99" data-name="Path 99" d="M508.069,182.8c0,2.97-5.6,8.156-4.94,10.807.364,1.455,4.135,2.162,4.914,3.445a2.762,2.762,0,0,1,.3,1.216" fill="#fff" stroke="#263238" stroke-linecap="round" stroke-linejoin="round" stroke-width="0.75"/>
          <path id="Path_100" data-name="Path 100" d="M502.721,184.559c-.082,1.156-.613,2.06-1.187,2.02s-.972-1.011-.89-2.167.614-2.061,1.187-2.02S502.8,183.4,502.721,184.559Z" fill="#263238"/>
          <path id="Path_101" data-name="Path 101" d="M515.765,182.658c-.086,1.209-.641,2.154-1.241,2.112s-1.016-1.057-.93-2.266.641-2.154,1.241-2.112S515.851,181.449,515.765,182.658Z" fill="#263238"/>
          <path id="Path_102" data-name="Path 102" d="M509.861,177.308s4.989-4.031,11.619.255" fill="none" stroke="#263238" stroke-linecap="round" stroke-linejoin="round" stroke-width="0.75"/>
          <path id="Path_103" data-name="Path 103" d="M524.069,200.777s-11.016,9.76-15.733,1.266" fill="#fff" stroke="#263238" stroke-linecap="round" stroke-linejoin="round" stroke-width="0.75"/>
          <path id="Path_104" data-name="Path 104" d="M496.505,180.138s3.317-4.541,8.932-1.189" fill="none" stroke="#263238" stroke-linecap="round" stroke-linejoin="round" stroke-width="0.75"/>
          <path id="Path_105" data-name="Path 105" d="M505.711,161.363s-16.3,1.061-8.135,11.236C497.576,172.6,497.4,165.266,505.711,161.363Z" fill="#263238"/>
          <path id="Path_106" data-name="Path 106" d="M505.711,184.485c0,2.781-1.977,5.035-4.416,5.035s-4.417-2.254-4.417-5.035,1.977-3.975,4.417-3.975S505.711,181.705,505.711,184.485Z" fill="none" stroke="#263238" stroke-linecap="round" stroke-linejoin="round" stroke-width="0.75"/>
          <path id="Path_107" data-name="Path 107" d="M521.216,182.581a5.546,5.546,0,0,1-11.044,0c0-2.781,2.472-3.975,5.522-3.975S521.216,179.8,521.216,182.581Z" fill="none" stroke="#263238" stroke-linecap="round" stroke-linejoin="round" stroke-width="0.75"/>
          <path id="Path_108" data-name="Path 108" d="M505.383,182.581c0-1.208,4.789-1.833,4.789-.625" fill="none" stroke="#263238" stroke-linecap="round" stroke-linejoin="round" stroke-width="0.75"/>
          <line id="Line_2" data-name="Line 2" x2="23.044" y2="1.962" transform="translate(520.868 180.619)" fill="none" stroke="#263238" stroke-linecap="round" stroke-linejoin="round" stroke-width="0.75"/>
          <g id="Group_40" data-name="Group 40">
            <path id="Path_109" data-name="Path 109" d="M507.68,315.548c9.633,17.071,34.051,52.92,70.131,54.968" fill="none" stroke="#263238" stroke-linecap="round" stroke-linejoin="round" stroke-width="0.75"/>
            <path id="Path_110" data-name="Path 110" d="M503.075,306.65s.7,1.574,2.076,4.228" fill="none" stroke="#263238" stroke-linecap="round" stroke-linejoin="round" stroke-width="0.75"/>
          </g>
          <path id="Path_111" data-name="Path 111" d="M556.116,219.086q-2.393.066-4.853.176c-.887,7.425-9.564,9.581-17.582,9.581-7.823,0-12.257-2.055-12.882-9.053q-2.459-.042-4.849-.053c.636,9.913,7.168,13.815,17.731,13.815C544.469,233.552,555.456,229.475,556.116,219.086Z" fill="#640000" stroke="#263238" stroke-miterlimit="10" stroke-width="1"/>
          <path id="Path_112" data-name="Path 112" d="M459.314,292.556s-.448-12.348,1.316-12.936,1.764,6.762,6.468,6.468" fill="none" stroke="#263238" stroke-linecap="round" stroke-linejoin="round" stroke-width="0.75"/>
        </g>
        <rect id="Rectangle_16" data-name="Rectangle 16" width="126.365" height="18.145" rx="4.417" transform="translate(280.4 187.615) rotate(1.961)" fill="#fff" stroke="#263238" stroke-linecap="round" stroke-linejoin="round" stroke-width="0.75"/>
        <g id="Group_42" data-name="Group 42">
          <path id="Path_113" data-name="Path 113" d="M335.851,199.819v-.986l4.072-1.757v1.065l-2.807,1.185,2.807,1.185v1.064Z" fill="#263238"/>
          <path id="Path_114" data-name="Path 114" d="M344.436,194.668H345.7l-3.673,9.315h-1.265Z" fill="#263238"/>
          <path id="Path_115" data-name="Path 115" d="M346.542,200.511l2.808-1.185-2.808-1.185v-1.065l4.072,1.757v.986l-4.072,1.756Z" fill="#263238"/>
        </g>
      </g>
      <line id="Line_3" data-name="Line 3" x1="2.866" transform="translate(271.077 193.98)" fill="none" stroke="#263238" stroke-linecap="round" stroke-linejoin="round" stroke-width="0.75"/>
    </g>
    <g id="Character_3" data-name="Character 3">
      <g id="Group_63" data-name="Group 63">
        <g id="Group_44" data-name="Group 44">
          <path id="Path_116" data-name="Path 116" d="M425.015,288.642l-3.351-14.489-6.588-24.694-6.944-7.441-9.19-6.947s-10.164-4.292-10.5-2.08a2.561,2.561,0,0,0,1.532,2.892s-2.893-1.021-3.573.766,4,3.062,6.635,5.359a39.693,39.693,0,0,1,4.256,4.274s-3.687,4.594-3.206,7.092l.311,1.138s-7.364-4-8.063-.768,4.345,3.894,7.225,7.01a44.831,44.831,0,0,0,5.566,5.1s2.848,7.2,9.012,9.75l.38,15.822S417.955,293.341,425.015,288.642Z" fill="#fff" stroke="#263238" stroke-linecap="round" stroke-linejoin="round" stroke-width="0.75"/>
          <path id="Path_117" data-name="Path 117" d="M390.734,236.734a57.519,57.519,0,0,0,6.909,4.082s4.3,4.525,5.849,6.132a33.026,33.026,0,0,1,3.659,5.8" fill="#fff" stroke="#263238" stroke-linecap="round" stroke-linejoin="round" stroke-width="0.75"/>
          <path id="Path_118" data-name="Path 118" d="M398.3,247.28a49.577,49.577,0,0,0,3.4,5.035c1.362,1.6,1.215,2.537.268,3.643" fill="none" stroke="#263238" stroke-linecap="round" stroke-linejoin="round" stroke-width="0.75"/>
          <path id="Path_119" data-name="Path 119" d="M396.1,255.512A13.416,13.416,0,0,1,398.3,257.5c.936,1.1,3.34,1.87,4.73.889s5.137-3.645,4.627-4.642" fill="none" stroke="#263238" stroke-linecap="round" stroke-linejoin="round" stroke-width="0.75"/>
          <path id="Path_120" data-name="Path 120" d="M398.943,250.722s-.006,1.5-.965,2.025,1.43-.579,2.4.34" fill="none" stroke="#263238" stroke-linecap="round" stroke-linejoin="round" stroke-width="0.75"/>
        </g>
        <g id="Group_58" data-name="Group 58">
          <g id="Group_46" data-name="Group 46">
            <path id="Path_121" data-name="Path 121" d="M488.954,331.38s-8.337-5.294-20.225-.993a261.031,261.031,0,0,0-30.761,3.471s1.35-3.567-3.48-2.755c0,0-1.8-37.207-7.931-49.763,0,0-.728,3.59-22.113,4.476,0,0-1.52,66.534,6.3,76.288s73.386,2.183,73.386,2.183S495.824,342.773,488.954,331.38Z" fill="#263238"/>
            <g id="Group_45" data-name="Group 45" clip-path="url(#clip-path-9)">
              <path id="Path_122" data-name="Path 122" d="M404.325,348.835s9.659,14.982,26.343,13.269,54.644-17.373,56.006-3.256S469.913,370.3,469.913,370.3l-44.323,6.833s-4.647,8.034-18.81-4.171l-14.163-12.2Z" opacity="0.2"/>
            </g>
            <path id="Path_124" data-name="Path 124" d="M488.954,331.38s-8.337-5.294-20.225-.993a261.031,261.031,0,0,0-30.761,3.471s1.35-3.567-3.48-2.755c0,0-1.8-37.207-7.931-49.763,0,0-.728,3.59-22.113,4.476,0,0-1.52,66.534,6.3,76.288s73.386,2.183,73.386,2.183S495.824,342.773,488.954,331.38Z" fill="none" stroke="#263238" stroke-linecap="round" stroke-linejoin="round" stroke-width="0.75"/>
          </g>
          <path id="Path_125" data-name="Path 125" d="M419.673,344.674s13.036-13.865,15.256-10.816-3.53,3.327-6.9,16.641" fill="none" stroke="#7f7f7f" stroke-linecap="round" stroke-linejoin="round" stroke-width="0.75"/>
          <g id="Group_48" data-name="Group 48">
            <path id="Path_126" data-name="Path 126" d="M483.747,446.2s1.942-37.724,0-66.572-16.92-39.11,0-47.709,72.674-6.38,90.149,2.219,6.38,48.264,7.212,65.739,3.883,46.323,3.883,46.323Z" fill="#263238"/>
            <g id="Group_47" data-name="Group 47" clip-path="url(#clip-path-10)">
              <path id="Path_127" data-name="Path 127" d="M526.372,388.408s-11.593-8.043-17.938,1.942,28.051,59.777,33.968,60.029,34.268,0,34.268,0l15.269-33.655s-6.635-70.754-19.21-72.05-21.083,25.807-22.931,41.658-.127,22.241-.127,22.241Z" opacity="0.2"/>
            </g>
            <path id="Path_129" data-name="Path 129" d="M483.747,446.2s1.942-37.724,0-66.572-16.92-39.11,0-47.709,72.674-6.38,90.149,2.219,6.38,48.264,7.212,65.739,3.883,46.323,3.883,46.323Z" fill="none" stroke="#263238" stroke-linecap="round" stroke-linejoin="round" stroke-width="0.75"/>
          </g>
          <path id="Path_130" data-name="Path 130" d="M518.143,410.515a1.942,1.942,0,1,1-1.942-1.942A1.942,1.942,0,0,1,518.143,410.515Z" fill="#858585"/>
          <path id="Path_131" data-name="Path 131" d="M518.143,432.622a1.942,1.942,0,1,1-1.942-1.942A1.942,1.942,0,0,1,518.143,432.622Z" fill="#858585"/>
          <path id="Path_132" data-name="Path 132" d="M519.345,362.1c3.354,0,5.735,6.84,8.912,6.795s11.244-22.159,14.758-28.37,1.921-13.861-3.357-15.27-36.234,0-36.234,0a13.117,13.117,0,0,0-.907,12.2c2.959,6.658,4.068,28.478,8.321,29.218S515.092,362.1,519.345,362.1Z" fill="#858585" stroke="#263238" stroke-linecap="round" stroke-linejoin="round" stroke-width="1"/>
          <path id="Path_133" data-name="Path 133" d="M411.946,296.554a1.942,1.942,0,1,1-1.16-2.49A1.942,1.942,0,0,1,411.946,296.554Z" fill="#858585"/>
          <path id="Path_134" data-name="Path 134" d="M411.946,305.218a1.942,1.942,0,1,1-1.16-2.489A1.941,1.941,0,0,1,411.946,305.218Z" fill="#858585"/>
          <g id="Group_50" data-name="Group 50">
            <path id="Path_135" data-name="Path 135" d="M502.517,332.1s12.759,28.776,17.937,27.923,8.876-12.667,14.054-18.539,5.69-11.065,5.341-14.293L538.392,312.5l-11.65-1.294-16.643,12.2Z" fill="#fff"/>
            <g id="Group_49" data-name="Group 49" clip-path="url(#clip-path-11)">
              <path id="Path_136" data-name="Path 136" d="M489.461,285.121s-1.277,16.9-.36,20.221.358,7.047,1.807,12.477,6.7,25.794,18.4,22.559c11.535-3.187,28.4-16.311,27.418-26.005l-.531-1.922a5.474,5.474,0,0,0,6.264-4.552c1.143-5.393,3.52-10.534-.584-13-4.285-2.577-8.409,4.956-8.83,7.517s-3.512.218-3.512.218-3.042-11.007-7.453-13.361,2.5-9.34-1.807-12.665S498.955,276.856,489.461,285.121Z" fill="#263238" stroke="#263238" stroke-linecap="round" stroke-linejoin="round" stroke-width="0.75"/>
            </g>
            <path id="Path_138" data-name="Path 138" d="M502.517,332.1s12.759,28.776,17.937,27.923,8.876-12.667,14.054-18.539,5.69-11.065,5.341-14.293L538.392,312.5l-11.65-1.294-16.643,12.2Z" fill="none" stroke="#263238" stroke-linecap="round" stroke-linejoin="round" stroke-width="0.75"/>
          </g>
          <path id="Path_139" data-name="Path 139" d="M496.715,275.329s-5.848,16.273-5.848,19.787-1.563,7.027-1.613,12.759-.425,27.183,11.969,27.183c12.207,0,32.361-8.321,34.025-18.122V314.9a5.586,5.586,0,0,0,7.4-2.774c2.589-4.992,6.323-9.4,2.958-12.944-3.513-3.7-9.615,2.589-10.725,4.993s-3.513-.74-3.513-.74,0-11.65-3.7-15.163,4.993-8.507,1.664-12.945S508.3,269.781,496.715,275.329Z" fill="#fff" stroke="#263238" stroke-linecap="round" stroke-linejoin="round" stroke-width="0.75"/>
          <path id="Path_140" data-name="Path 140" d="M542.83,303.316s7.027-9.865,2.219-21.515c0,0-3.884-19.6-27.738-21.635,0,0,6.1-4.623,2.219-6.473-5.882-2.8-16.219,6.658-16.219,6.658s4.846-7.329,2.488-7.456-18.954,18.556-9.084,25.211,24.511.922,24.511.922l7.18,24.288,1.109,3.08,10.42.74Z" fill="#263238" stroke="#263238" stroke-linecap="round" stroke-linejoin="round" stroke-width="0.75"/>
          <path id="Path_141" data-name="Path 141" d="M529.367,268.119c6.672,3.873,10.952,10.922,9.209,26.442" fill="none" stroke="#7f7f7f" stroke-linecap="round" stroke-linejoin="round" stroke-width="0.75"/>
          <path id="Path_142" data-name="Path 142" d="M509.745,266.708c4.341-.428,10.76-2.547,16.627-.07" fill="none" stroke="#7f7f7f" stroke-linecap="round" stroke-linejoin="round" stroke-width="0.75"/>
          <path id="Path_143" data-name="Path 143" d="M515.831,256.467S502.54,262.94,505.58,265.9" fill="none" stroke="#7f7f7f" stroke-linecap="round" stroke-linejoin="round" stroke-width="0.75"/>
          <path id="Path_144" data-name="Path 144" d="M497.8,268.487c3.052,2.4,6.75-.185,13.222,0" fill="none" stroke="#7f7f7f" stroke-linecap="round" stroke-linejoin="round" stroke-width="0.75"/>
          <path id="Path_145" data-name="Path 145" d="M501.592,258.5s-3.274,3.629-4.283,6.662" fill="none" stroke="#7f7f7f" stroke-linecap="round" stroke-linejoin="round" stroke-width="0.75"/>
          <path id="Path_146" data-name="Path 146" d="M496.715,275.329s-5.848,16.273-5.848,19.787-1.563,7.027-1.613,12.759-.425,27.183,11.969,27.183c12.207,0,32.361-8.321,34.025-18.122V314.9a5.586,5.586,0,0,0,7.4-2.774c2.589-4.992,6.323-9.4,2.958-12.944-3.513-3.7-9.615,2.589-10.725,4.993s-3.513-.74-3.513-.74,0-11.65-3.7-15.163,4.993-8.507,1.664-12.945S508.3,269.781,496.715,275.329Z" fill="#fff" stroke="#263238" stroke-linecap="round" stroke-linejoin="round" stroke-width="0.75"/>
          <path id="Path_147" data-name="Path 147" d="M502.517,296.41s-6.794,6.59-6.472,9.431c.177,1.56,3.992,2.815,4.623,4.253a7.806,7.806,0,0,1,0,2.4" fill="#fff" stroke="#263238" stroke-linecap="round" stroke-linejoin="round" stroke-width="0.75"/>
          <path id="Path_148" data-name="Path 148" d="M497.5,296.932c-.433,1.309-1.49,2.136-2.361,1.848s-1.224-1.583-.791-2.892,1.491-2.136,2.361-1.848S497.93,295.623,497.5,296.932Z" fill="#263238"/>
          <path id="Path_149" data-name="Path 149" d="M514.264,296.932c-.434,1.309-1.491,2.136-2.361,1.848s-1.225-1.583-.792-2.892,1.491-2.136,2.361-1.848S514.7,295.623,514.264,296.932Z" fill="#263238"/>
          <path id="Path_150" data-name="Path 150" d="M508.434,291.4s5.733-3.493,12.02,1.869" fill="#fff" stroke="#263238" stroke-linecap="round" stroke-linejoin="round" stroke-width="0.75"/>
          <path id="Path_151" data-name="Path 151" d="M496.715,313.978s8.946,3.143,17.729.924C514.444,314.9,500.714,324.148,496.715,313.978Z" fill="#fff" stroke="#263238" stroke-linecap="round" stroke-linejoin="round" stroke-width="0.75"/>
          <path id="Path_152" data-name="Path 152" d="M493.086,292.342s4.068-4.253,9.431,0" fill="#fff" stroke="#263238" stroke-linecap="round" stroke-linejoin="round" stroke-width="0.75"/>
          <g id="Group_51" data-name="Group 51">
            <path id="Path_153" data-name="Path 153" d="M528.295,336.646c-1.721,5.105-4.317,11.968-7.069,16.215" fill="#fff" stroke="#263238" stroke-linecap="round" stroke-linejoin="round" stroke-width="0.75"/>
            <path id="Path_154" data-name="Path 154" d="M530.384,329.973s-.39,1.39-1.067,3.537" fill="#fff" stroke="#263238" stroke-linecap="round" stroke-linejoin="round" stroke-width="0.75"/>
          </g>
          <g id="Group_57" data-name="Group 57">
            <g id="Group_52" data-name="Group 52">
              <path id="Path_155" data-name="Path 155" d="M525.236,373.629l-5.784-6.975s-6.975-10.208-9.7-18.2-3.063-12.249-7.316-12.249-19.224-1.02-18.714,4.083a8.365,8.365,0,0,0-.012,5.785,15.226,15.226,0,0,0,2.394,6.464c2.042,2.893,3.232,2.341,3.232,2.341s1.361,2.253,2.723,2.253c0,0,1.19,6.125,10.377,11.4L508.9,375.5l6.8,12.589,12.708-10.123Z" fill="#fff" stroke="#263238" stroke-linecap="round" stroke-linejoin="round" stroke-width="0.75"/>
              <path id="Path_156" data-name="Path 156" d="M504.141,343.134a31.389,31.389,0,0,1-4.721,1.659c-2.17.51-9.57,1.658-10.081,3.828s2.425,7.655,3.956,7.91,7.018,0,7.273-1.148a10.6,10.6,0,0,1,0,3.062c-.255,1.532-1.4,3.956.51,7.911" fill="#fff" stroke="#263238" stroke-linecap="round" stroke-linejoin="round" stroke-width="0.75"/>
              <path id="Path_157" data-name="Path 157" d="M483.713,346.069a4.942,4.942,0,0,1,2.947-2.042c1.914-.383,9.57-2.3,10.782-3.19" fill="#fff" stroke="#263238" stroke-linecap="round" stroke-linejoin="round" stroke-width="0.75"/>
              <path id="Path_158" data-name="Path 158" d="M483.725,340.284a11.418,11.418,0,0,1,2.935-.978c1.531-.255,9.385-2.485,12.029-2.2" fill="#fff" stroke="#263238" stroke-linecap="round" stroke-linejoin="round" stroke-width="0.75"/>
              <path id="Path_159" data-name="Path 159" d="M499.547,353.575s-1.845-1.467-2.836-1.042-1.332,1.532-2.608,2.212" fill="#fff" stroke="#263238" stroke-linecap="round" stroke-linejoin="round" stroke-width="0.75"/>
              <path id="Path_160" data-name="Path 160" d="M496.711,352.533a12.407,12.407,0,0,0,4.367-2.211" fill="#fff" stroke="#263238" stroke-linecap="round" stroke-linejoin="round" stroke-width="0.75"/>
            </g>
            <path id="Path_161" data-name="Path 161" d="M577.5,335.8c-9.512-5.211-22.468,13.869-22.745,36.892s-.555,27.183-.555,27.183l-28.57-30.789s-1.942,8.044-15.533,14.424a171.026,171.026,0,0,0,17.752,35.5c11.65,17.475,23.023,33.009,30.234,33.009S578.7,435.1,583.6,412.91C594.145,365.2,597.249,346.616,577.5,335.8Z" fill="#263238" stroke="#263238" stroke-linecap="round" stroke-linejoin="round" stroke-width="0.75"/>
            <g id="Group_53" data-name="Group 53">
              <path id="Path_162" data-name="Path 162" d="M559.507,403.939a.611.611,0,0,1,.577-1.054c4.214,1.428,11.766,5.285,16.586,15.295" fill="none" stroke="#7f7f7f" stroke-linecap="round" stroke-linejoin="round" stroke-width="0.75"/>
              <path id="Path_163" data-name="Path 163" d="M570.29,422.063a35.258,35.258,0,0,0-8.314-15.816" fill="none" stroke="#7f7f7f" stroke-linecap="round" stroke-linejoin="round" stroke-width="0.75"/>
            </g>
            <g id="Group_54" data-name="Group 54">
              <path id="Path_164" data-name="Path 164" d="M579.361,404.733q1.08,1.044,2.163,2.3" fill="none" stroke="#7f7f7f" stroke-linecap="round" stroke-linejoin="round" stroke-width="0.75"/>
              <path id="Path_165" data-name="Path 165" d="M559.279,399.041s8.514-3.627,17.929,3.805" fill="none" stroke="#7f7f7f" stroke-linecap="round" stroke-linejoin="round" stroke-width="0.75"/>
            </g>
            <g id="Group_55" data-name="Group 55">
              <path id="Path_166" data-name="Path 166" d="M556.783,374.925c-.27,1.421-.487,2.9-.639,4.422" fill="none" stroke="#7f7f7f" stroke-linecap="round" stroke-linejoin="round" stroke-width="0.75"/>
              <path id="Path_167" data-name="Path 167" d="M570.4,348.835a49.26,49.26,0,0,0-12.372,20.981" fill="none" stroke="#7f7f7f" stroke-linecap="round" stroke-linejoin="round" stroke-width="0.75"/>
            </g>
            <path id="Path_168" data-name="Path 168" d="M520.084,390.35a1.941,1.941,0,1,1-1.941-1.942A1.941,1.941,0,0,1,520.084,390.35Z" fill="#858585"/>
            <path id="Path_169" data-name="Path 169" d="M523.968,398.156a1.942,1.942,0,1,1-1.942-1.942A1.943,1.943,0,0,1,523.968,398.156Z" fill="#858585"/>
            <line id="Line_4" data-name="Line 4" x1="24.039" y1="25.906" transform="translate(525.632 369.084)" fill="none" stroke="#7f7f7f" stroke-linecap="round" stroke-linejoin="round" stroke-width="0.75"/>
            <g id="Group_56" data-name="Group 56">
              <path id="Path_170" data-name="Path 170" d="M564.763,340.734c-5.486,6.759-9.846,18.7-10.006,31.956-.277,23.022-.555,27.183-.555,27.183" fill="none" stroke="#7f7f7f" stroke-linecap="round" stroke-linejoin="round" stroke-width="0.75"/>
              <path id="Path_171" data-name="Path 171" d="M571.013,335.619a13.917,13.917,0,0,0-3.839,2.547" fill="none" stroke="#7f7f7f" stroke-linecap="round" stroke-linejoin="round" stroke-width="0.75"/>
            </g>
            <path id="Path_172" data-name="Path 172" d="M568.963,444.414c4.772-5.751,9.595-14.378,12.784-24.544" fill="none" stroke="#7f7f7f" stroke-linecap="round" stroke-linejoin="round" stroke-width="0.75"/>
            <path id="Path_173" data-name="Path 173" d="M510.1,383.508a171.026,171.026,0,0,0,17.752,35.5c6.741,10.111,13.389,19.573,19.192,25.751" fill="none" stroke="#7f7f7f" stroke-linecap="round" stroke-linejoin="round" stroke-width="0.75"/>
          </g>
        </g>
        <g id="Group_59" data-name="Group 59">
          <path id="Rectangle_17" data-name="Rectangle 17" d="M1.68,0H46.145a0,0,0,0,1,0,0V4.068a0,0,0,0,1,0,0H1.319A1.319,1.319,0,0,1,0,2.75V1.68A1.68,1.68,0,0,1,1.68,0Z" transform="translate(526.372 451.183) rotate(180)" fill="#cbf2d6" stroke="#263238" stroke-linecap="round" stroke-linejoin="round" stroke-width="1"/>
          <path id="Path_174" data-name="Path 174" d="M458.628,379.8h5.63a3.986,3.986,0,0,1,3.826,2.872l18.429,63.412a3.984,3.984,0,0,1-3.826,5.1H477.8Z" fill="#263238" stroke="#263238" stroke-linecap="round" stroke-linejoin="round" stroke-width="0.75"/>
          <path id="Path_175" data-name="Path 175" d="M399.02,451.183h81.725a3.983,3.983,0,0,0,3.826-5.1l-18.429-63.412a3.984,3.984,0,0,0-3.826-2.872H380.591a3.984,3.984,0,0,0-3.825,5.1L395.2,448.311A3.982,3.982,0,0,0,399.02,451.183Z" fill="#640000" stroke="#263238" stroke-linecap="round" stroke-linejoin="round" stroke-width="0.75"/>
        </g>
        <g id="Group_61" data-name="Group 61">
          <rect id="Rectangle_18" data-name="Rectangle 18" width="126.365" height="18.145" rx="4.417" transform="translate(266.311 235.269)" fill="#640000"/>
          <g id="Group_60" data-name="Group 60" clip-path="url(#clip-path-12)">
            <rect id="Rectangle_19" data-name="Rectangle 19" width="126.365" height="18.145" rx="4.417" transform="translate(266.311 235.269)" fill="#fff" opacity="0.5"/>
          </g>
          <rect id="Rectangle_21" data-name="Rectangle 21" width="126.365" height="18.145" rx="4.417" transform="translate(266.311 235.269)" fill="none" stroke="#263238" stroke-linecap="round" stroke-linejoin="round" stroke-width="0.75"/>
        </g>
        <g id="Group_62" data-name="Group 62">
          <path id="Path_176" data-name="Path 176" d="M324.4,246.1v-5a2.159,2.159,0,1,1,4.311,0v.984h-1.384v-1.077c0-.613-.293-.865-.732-.865s-.731.252-.731.865v5.2c0,.612.292.852.731.852s.732-.24.732-.852v-1.423h1.384V246.1a2.159,2.159,0,1,1-4.311,0Z" fill="#263238"/>
          <path id="Path_177" data-name="Path 177" d="M331.187,244.118H329.4v-1.037h1.783v-1.8h1.038v1.8h1.783v1.037h-1.783v1.823h-1.038Z" fill="#263238"/>
          <path id="Path_178" data-name="Path 178" d="M336.513,244.118H334.73v-1.037h1.783v-1.8h1.038v1.8h1.783v1.037h-1.783v1.823h-1.038Z" fill="#263238"/>
        </g>
      </g>
    </g>
    <g id="Character_1" data-name="Character 1">
      <g id="Group_81" data-name="Group 81">
        <rect id="Rectangle_22" data-name="Rectangle 22" width="126.365" height="18.144" rx="4.417" transform="matrix(0.989, -0.15, 0.15, 0.989, 259.63, 168.996)" fill="#640000" stroke="#263238" stroke-linecap="round" stroke-linejoin="round" stroke-width="0.75"/>
        <g id="Group_79" data-name="Group 79">
          <g id="Group_66" data-name="Group 66">
            <g id="Group_65" data-name="Group 65">
              <path id="Path_179" data-name="Path 179" d="M92.558,234.085s-10.264,5.073-12.593,15.267c0,0-2.913-2.912-4.078,9.611,0,0-25.921,48.057-26.212,68.735s48.638,54.173,48.638,54.173,5.243-6.99,4.078-13.4c0,0-18.932-35.824-28.543-40.192,0,0,10.776-26.213,18.058-31.164S92.558,234.085,92.558,234.085Z" fill="#263238"/>
              <g id="Group_64" data-name="Group 64" clip-path="url(#clip-path-13)">
                <path id="Path_180" data-name="Path 180" d="M91.528,306.1s-11.4-32.771-15.412-25.519-14.369,44.432-8.451,49.881-3.7,5.755.739,13,33.286,34.36,36.245,33.562-10.71-46.561-10.71-46.561Z" opacity="0.2"/>
              </g>
              <path id="Path_182" data-name="Path 182" d="M92.558,234.085s-10.264,5.073-12.593,15.267c0,0-2.913-2.912-4.078,9.611,0,0-25.921,48.057-26.212,68.735s48.638,54.173,48.638,54.173,5.243-6.99,4.078-13.4c0,0-18.932-35.824-28.543-40.192,0,0,10.776-26.213,18.058-31.164S92.558,234.085,92.558,234.085Z" fill="none" stroke="#263238" stroke-linecap="round" stroke-linejoin="round" stroke-width="0.75"/>
            </g>
            <path id="Path_183" data-name="Path 183" d="M79.079,260.891s.966,15.023,4.449,23.564" fill="none" stroke="#7f7f7f" stroke-linecap="round" stroke-linejoin="round" stroke-width="0.75"/>
            <path id="Path_184" data-name="Path 184" d="M71.929,331.245s-5.46,5.856-13.031,5.062" fill="none" stroke="#7f7f7f" stroke-linecap="round" stroke-linejoin="round" stroke-width="0.75"/>
            <line id="Line_5" data-name="Line 5" x2="0.555" y2="17.752" transform="translate(93.384 357.71)" fill="none" stroke="#7f7f7f" stroke-linecap="round" stroke-linejoin="round" stroke-width="0.75"/>
          </g>
          <g id="Group_67" data-name="Group 67">
            <path id="Path_185" data-name="Path 185" d="M180.737,388.861s12.232,38.358,14.562,57.333H95.692s-.876-45.012,2.912-59.372Z" fill="#640000" stroke="#263238" stroke-linecap="round" stroke-linejoin="round" stroke-width="0.75"/>
            <path id="Path_186" data-name="Path 186" d="M138.849,436.043c2.238,2.039,6.6,10.151,6.6,10.151" fill="none" stroke="#263238" stroke-linecap="round" stroke-linejoin="round" stroke-width="0.75"/>
            <path id="Path_187" data-name="Path 187" d="M117.827,410.122a170.76,170.76,0,0,0,16.93,21.884" fill="none" stroke="#263238" stroke-linecap="round" stroke-linejoin="round" stroke-width="0.75"/>
          </g>
          <path id="Path_188" data-name="Path 188" d="M144.913,158.191s7.573-6.8,5.825-11.068c-2.28-5.573-8.155,2.719-8.155,2.719s2.33-8.543-2.65-10.679c-5.33-2.286-9.776,7.766-9.776,7.766s-1.379-8.626-8.932-6.8c-6.408,1.554-1.165,8.738-6.408,11.068s-22.523,8.349-19.222,20c0,0-4.66-9.132-6.408-5.439s4.272,8.74,6.6,9.322c0,0-3.689,7.767-.777,9.9s2.33-5.631,2.33-5.631,1.9,21.4,22.524,32.62,20.067-26.018,20.067-26.018l5.174-16.7Z" fill="#263238" stroke="#263238" stroke-linecap="round" stroke-linejoin="round" stroke-width="0.75"/>
          <g id="Group_68" data-name="Group 68">
            <path id="Path_189" data-name="Path 189" d="M118.644,156.638c-8.681,2.718-21.74,6.019-16.084,23.3" fill="none" stroke="#7f7f7f" stroke-linecap="round" stroke-linejoin="round" stroke-width="0.75"/>
            <path id="Path_190" data-name="Path 190" d="M122.39,143.629s3.237,6.751-.146,10.762" fill="none" stroke="#7f7f7f" stroke-linecap="round" stroke-linejoin="round" stroke-width="0.75"/>
          </g>
          <g id="Group_70" data-name="Group 70">
            <g id="Group_69" data-name="Group 69">
              <path id="Path_191" data-name="Path 191" d="M112.485,190.617q.691,1.653,1.556,3.427" fill="none" stroke="#7f7f7f" stroke-linecap="round" stroke-linejoin="round" stroke-width="0.75"/>
              <path id="Path_192" data-name="Path 192" d="M135.528,150.644a17.452,17.452,0,0,1-7.507,6.576c-8.977,4.316-23.171,9.292-17.206,28.809" fill="none" stroke="#7f7f7f" stroke-linecap="round" stroke-linejoin="round" stroke-width="0.75"/>
            </g>
            <path id="Path_193" data-name="Path 193" d="M137.923,142.852a13.935,13.935,0,0,1-.651,3.909" fill="none" stroke="#7f7f7f" stroke-linecap="round" stroke-linejoin="round" stroke-width="0.75"/>
          </g>
          <g id="Group_71" data-name="Group 71">
            <path id="Path_194" data-name="Path 194" d="M122.3,166.542c-4.606,3.533,2.048,8.233,4.746,14.172" fill="none" stroke="#7f7f7f" stroke-linecap="round" stroke-linejoin="round" stroke-width="0.75"/>
            <path id="Path_195" data-name="Path 195" d="M148.02,149.065s-8.544,11.65-20.97,15.339" fill="none" stroke="#7f7f7f" stroke-linecap="round" stroke-linejoin="round" stroke-width="0.75"/>
          </g>
          <g id="Group_73" data-name="Group 73">
            <path id="Path_196" data-name="Path 196" d="M96.566,389.443s-.583-20.97-3.5-53.59-19.223-97.86,3.5-103.685,68.043-9.485,83.3,5.243c16.893,16.31,4.078,107.18,3.495,122.907s2.33,33.785,2.33,33.785S125.4,407.209,96.566,389.443Z" fill="#263238"/>
            <g id="Group_72" data-name="Group 72" clip-path="url(#clip-path-14)">
              <path id="Path_197" data-name="Path 197" d="M88.114,326.055s-8.737-56.839,21.281-60.1,69.582-1.893,73.741,23.185,13.329,85.1,13.329,85.1l6.206,27.135-48.7,9.236-65.1-6.981Z" opacity="0.2"/>
            </g>
            <path id="Path_199" data-name="Path 199" d="M96.566,389.443s-.583-20.97-3.5-53.59-19.223-97.86,3.5-103.685,68.043-9.485,83.3,5.243c16.893,16.31,4.078,107.18,3.495,122.907s2.33,33.785,2.33,33.785S125.4,407.209,96.566,389.443Z" fill="none" stroke="#263238" stroke-linecap="round" stroke-linejoin="round" stroke-width="0.75"/>
          </g>
          <path id="Path_200" data-name="Path 200" d="M143.942,223.431v-6.6s11.281,1.748,12.825-1.165-.981-14.951-.981-14.951,5.437.2,5.437-2.33-6.407-13.2-6.407-13.2.776-8.543,0-11.261-8.738-18.058-8.738-18.058-11.65,6.4-11.262,9.9,3.69,6.8.971,9.711-6.407,10.772-5.242,14.512L128.8,191.2s-.97-6.99-4.854-8.155-6.99,6.6-4.271,12.039,5.825,4.465,5.825,4.465-1.554,9.32-5.631,12.427l-1.222,9.708Z" fill="#fff" stroke="#263238" stroke-linecap="round" stroke-linejoin="round" stroke-width="0.75"/>
          <ellipse id="Ellipse_1" data-name="Ellipse 1" cx="1.262" cy="2.33" rx="1.262" ry="2.33" transform="translate(150.156 180.714)" fill="#263238"/>
          <path id="Path_201" data-name="Path 201" d="M142.777,198.966s.912,2.524,8.223,2.912" fill="none" stroke="#263238" stroke-linecap="round" stroke-linejoin="round" stroke-width="0.75"/>
          <path id="Path_202" data-name="Path 202" d="M151.418,176.453a4.942,4.942,0,0,0-5.34,3.485" fill="none" stroke="#263238" stroke-linecap="round" stroke-linejoin="round" stroke-width="0.75"/>
          <path id="Path_203" data-name="Path 203" d="M110.934,232.6s-7.767-10.533,0-11.7,39.61-3.884,44.658,0-7.766,2.718-8.543,9.32S110.934,232.6,110.934,232.6Z" fill="#263238" stroke="#263238" stroke-linecap="round" stroke-linejoin="round" stroke-width="0.75"/>
          <g id="Group_74" data-name="Group 74">
            <path id="Path_204" data-name="Path 204" d="M158.857,184.961c0,3.744-1.092,6.78-2.439,6.78s-2.439-3.036-2.439-6.78,1.092-6.781,2.439-6.781S158.857,181.216,158.857,184.961Z" fill="none" stroke="#263238" stroke-linecap="round" stroke-linejoin="round" stroke-width="0.75"/>
            <path id="Path_205" data-name="Path 205" d="M158.318,180.714l-26.841,1.959a9.618,9.618,0,0,0-5.232,2.022" fill="none" stroke="#263238" stroke-linecap="round" stroke-linejoin="round" stroke-width="1"/>
          </g>
          <g id="Group_77" data-name="Group 77">
            <path id="Path_206" data-name="Path 206" d="M239.3,206.492l6.339-14.118s3.7-15.31,6.63-18.648,7.687-9.346,9.2-7.679c1.1,1.2-.265,5.3-2.683,8.455-2.621,3.421-.492,6.625.47,7.979s6.664,4.177,11.126,4.758,13.358-5.06,16.411-3.077-3.182,4.161-3.182,4.161,4.81-.643,5.821,2.06c.6,1.6-4.346,1.566-6.752,1.811s-7.31.956-7.31.956,8.787,1.121,8.674,3.52-6.584.149-11.508.341c0,0,7.057,1.818,6.664,4.134s-4.115-.122-10.042-1.145L255.5,198.271l-4.311,15.936Z" fill="#fff" stroke="#263238" stroke-linecap="round" stroke-linejoin="round" stroke-width="0.75"/>
            <path id="Path_207" data-name="Path 207" d="M280.053,189.136a13.373,13.373,0,0,1-10.267,1.311s.581,1.893,0,2.694-.509,2.4-1.966,3.422a20.771,20.771,0,0,1-2.33,1.457" fill="none" stroke="#263238" stroke-linecap="round" stroke-linejoin="round" stroke-width="0.75"/>
            <g id="Group_76" data-name="Group 76">
              <path id="Path_208" data-name="Path 208" d="M158.857,228.584s21.508.089,29.7,6.788c0,0,.041-3.495,6.448,0,0,0,19.514-2.33,28.543,0,0,0,11.067-27.377,17.766-34.659,0,0,9.611.583,12.232,4.952,1.246,2.076-1.7,13.5-4.443,25.126-3.029,12.84-6.065,25.938-8.663,27.007-4.951,2.039-57.085,6.7-57.085,6.7l-24.5-12.815Z" fill="#263238"/>
              <g id="Group_75" data-name="Group 75" clip-path="url(#clip-path-15)">
                <path id="Path_209" data-name="Path 209" d="M188.56,266.852s-4.865-17.409,2.951-15.78,38.878,4.814,44.614-.108,9.394-46.653,16.81-44.649,2.273,38.507,2.273,38.507,4.639,10.1-9.9,17.863l-14.542,7.767-25.7,2.221Z" opacity="0.2"/>
              </g>
              <path id="Path_211" data-name="Path 211" d="M158.857,228.584s21.508.089,29.7,6.788c0,0,.041-3.495,6.448,0,0,0,19.514-2.33,28.543,0,0,0,11.067-27.377,17.766-34.659,0,0,9.611.583,12.232,4.952,1.246,2.076-1.7,13.5-4.443,25.126-3.029,12.84-6.065,25.938-8.663,27.007-4.951,2.039-57.085,6.7-57.085,6.7l-24.5-12.815Z" fill="none" stroke="#263238" stroke-linecap="round" stroke-linejoin="round" stroke-width="0.75"/>
            </g>
            <path id="Path_212" data-name="Path 212" d="M226.172,236.537s4.369.874,9.611,7.864" fill="none" stroke="#7f7f7f" stroke-linecap="round" stroke-linejoin="round" stroke-width="0.75"/>
            <path id="Path_213" data-name="Path 213" d="M190.931,240.469a45.5,45.5,0,0,1,0,20.242" fill="none" stroke="#7f7f7f" stroke-linecap="round" stroke-linejoin="round" stroke-width="0.75"/>
            <path id="Path_214" data-name="Path 214" d="M172.594,232.6s13.958,7.384,14.96,28.106" fill="none" stroke="#7f7f7f" stroke-linecap="round" stroke-linejoin="round" stroke-width="0.75"/>
          </g>
          <g id="Group_78" data-name="Group 78">
            <path id="Path_215" data-name="Path 215" d="M173.47,367a16.285,16.285,0,0,0,2.316-3.963" fill="none" stroke="#7f7f7f" stroke-linecap="round" stroke-linejoin="round" stroke-width="0.75"/>
            <path id="Path_216" data-name="Path 216" d="M106.662,378.182s46.179,6.082,63.706-8.073" fill="none" stroke="#7f7f7f" stroke-linecap="round" stroke-linejoin="round" stroke-width="0.75"/>
          </g>
        </g>
        <g id="Group_80" data-name="Group 80">
          <path id="Path_217" data-name="Path 217" d="M316.773,171.556l-.815-4.936a2.16,2.16,0,1,1,4.254-.7l.16.97-1.365.225-.176-1.062c-.1-.6-.429-.806-.862-.735s-.681.368-.582.974l.847,5.132c.1.6.427.792.86.721s.683-.355.584-.959l-.231-1.4,1.364-.224.215,1.3a2.159,2.159,0,1,1-4.253.7Z" fill="#263238"/>
          <path id="Path_218" data-name="Path 218" d="M321.664,170.7l-.086-.525,1.365-.225.1.631c.108.657.436.844.9.768s.709-.358.6-1.041c-.126-.762-.495-1.2-1.577-1.871-1.383-.866-1.9-1.549-2.074-2.6a2.036,2.036,0,0,1,1.777-2.639c1.405-.231,2.239.494,2.481,1.964l.063.382-1.365.225-.078-.473c-.108-.658-.412-.863-.872-.787s-.681.367-.577,1c.111.671.493,1.107,1.575,1.778a3.6,3.6,0,0,1,2.073,2.679,2.067,2.067,0,0,1-1.794,2.7C322.754,172.889,321.906,172.166,321.664,170.7Z" fill="#263238"/>
          <path id="Path_219" data-name="Path 219" d="M326.551,169.89l-.087-.526,1.365-.225.1.631c.108.657.436.845.9.769s.709-.359.6-1.042c-.126-.762-.494-1.2-1.576-1.871-1.383-.865-1.9-1.548-2.074-2.6a2.035,2.035,0,0,1,1.776-2.638c1.4-.232,2.239.494,2.482,1.964l.063.381-1.366.225-.078-.473c-.108-.657-.411-.863-.871-.787s-.681.368-.577,1c.11.67.493,1.106,1.574,1.777a3.6,3.6,0,0,1,2.074,2.68,2.067,2.067,0,0,1-1.795,2.7C327.64,172.083,326.793,171.361,326.551,169.89Z" fill="#263238"/>
        </g>
      </g>
    </g>
    <g id="Character_2" data-name="Character 2">
      <g id="Group_100" data-name="Group 100">
        <g id="Group_96" data-name="Group 96">
          <path id="Path_220" data-name="Path 220" d="M163.052,284.748s-23.115,6.667-22.191,23.865,5.363,16.21-4.438,21.882-.554,16.4-3.328,21.205-20.341,18.122-12.76,24.964,45.676-6.842,58.99,0,23.822-7.675,27.359-11.435-6.833-9.091-6.463-16.673,7.027-49.466-1.479-55.06S170.4,281.688,163.052,284.748Z" fill="#263238" stroke="#263238" stroke-linecap="round" stroke-linejoin="round" stroke-width="0.75"/>
          <g id="Group_85" data-name="Group 85">
            <g id="Group_82" data-name="Group 82">
              <path id="Path_221" data-name="Path 221" d="M245.306,312.5l4.242-15.394s1.665-10.541,3.052-12.621a31.687,31.687,0,0,1,4.992-4.993,37.117,37.117,0,0,1,4.419-5.132c1.822-1.525,12.5-7.073,13.334-6.657s2.149,2.913-4.785,6.8a17.644,17.644,0,0,1,6.865.971c3.051,1.248,5.132,1.6,3.814,2.913s-2.427,1.941-7.351.624a38.578,38.578,0,0,1-6.241.208l-1.525,1.8a3,3,0,0,1,3.745,1.178c1.386,2.22,2.981,4.993,2.288,6.588,0,0,5.339-2.774,6.8-.485s-3.052,4.369-4.854,5.756-6.172,5.131-6.172,5.131-3.121,7-9.639,9.57a9.228,9.228,0,0,0-.694,5.617Z" fill="#fff" stroke="#263238" stroke-linecap="round" stroke-linejoin="round" stroke-width="0.75"/>
              <path id="Path_222" data-name="Path 222" d="M267.162,276.368l-2.288,1.872-2.566,4.438-1.734,5.825" fill="none" stroke="#263238" stroke-linecap="round" stroke-linejoin="round" stroke-width="0.75"/>
              <path id="Path_223" data-name="Path 223" d="M259.118,288.5s3.637,4.369,6.222,4.993a24.3,24.3,0,0,0,3.278-1.664c.46-.4,1.157-1.185,2.565-2.308" fill="none" stroke="#263238" stroke-linecap="round" stroke-linejoin="round" stroke-width="0.75"/>
              <path id="Path_224" data-name="Path 224" d="M263.14,288.156l.334-1.179a7.7,7.7,0,0,0,3.272,0l.832,1.179A15.457,15.457,0,0,0,263.14,288.156Z" fill="none" stroke="#263238" stroke-linecap="round" stroke-linejoin="round" stroke-width="0.75"/>
              <path id="Path_225" data-name="Path 225" d="M266.815,283.233a5.9,5.9,0,0,0-.485,2.982" fill="none" stroke="#263238" stroke-linecap="round" stroke-linejoin="round" stroke-width="0.75"/>
              <path id="Path_226" data-name="Path 226" d="M268.965,286.977a6.967,6.967,0,0,0-2.4,5.966" fill="none" stroke="#263238" stroke-linecap="round" stroke-linejoin="round" stroke-width="0.75"/>
              <path id="Path_227" data-name="Path 227" d="M264.666,282.123l-1.526,1.664v1.872" fill="none" stroke="#263238" stroke-linecap="round" stroke-linejoin="round" stroke-width="0.75"/>
            </g>
            <g id="Group_84" data-name="Group 84">
              <path id="Path_228" data-name="Path 228" d="M192.243,360.569s34.876.887,39.892,4.576c0,0-3.139-5.048,2.492-3.4,0,0,.388-42.814,7.961-43.4l2.52-9.744a1.118,1.118,0,0,1,1.667-.681c2.093,1.292,6.426,3.629,10.454,3.676a1.108,1.108,0,0,1,1.086,1.117v8.351s3.883.971,3.689,6.6-3.744,56.141-10.152,61.606-51.454,2.747-51.454,2.747S189.331,381.344,192.243,360.569Z" fill="#640000"/>
              <g id="Group_83" data-name="Group 83" clip-path="url(#clip-path-16)">
                <path id="Path_229" data-name="Path 229" d="M203.1,371.83s10.711,16.936,27.631,15.335,11.949-7.981,14.573-10.477,10.992,1.21,15.268-30.323,13.181,22.165,13.181,22.165l-2.572,26.188-15.975,11.65L240.2,409.3l-35.136,2.869-10.619-29.937Z" opacity="0.2"/>
              </g>
              <path id="Path_231" data-name="Path 231" d="M192.243,360.569s34.876.887,39.892,4.576c0,0-3.139-5.048,2.492-3.4,0,0,.388-42.814,7.961-43.4l2.52-9.744a1.118,1.118,0,0,1,1.667-.681c2.093,1.292,6.426,3.629,10.454,3.676a1.108,1.108,0,0,1,1.086,1.117v8.351s3.883.971,3.689,6.6-3.744,56.141-10.152,61.606-51.454,2.747-51.454,2.747S189.331,381.344,192.243,360.569Z" fill="none" stroke="#263238" stroke-linecap="round" stroke-linejoin="round" stroke-width="0.75"/>
            </g>
            <path id="Path_232" data-name="Path 232" d="M236.125,369.889s2.524,1.941,4.077,7.961" fill="none" stroke="#263238" stroke-linecap="round" stroke-linejoin="round" stroke-width="0.75"/>
            <path id="Path_233" data-name="Path 233" d="M238.163,365.229a23.535,23.535,0,0,1,8.252,6.6" fill="none" stroke="#263238" stroke-linecap="round" stroke-linejoin="round" stroke-width="0.75"/>
            <path id="Path_234" data-name="Path 234" d="M245.306,319.711s3.3,2.33,9.9,3.106" fill="none" stroke="#263238" stroke-linecap="round" stroke-linejoin="round" stroke-width="0.75"/>
          </g>
          <g id="Group_87" data-name="Group 87">
            <path id="Path_235" data-name="Path 235" d="M129.027,446.194s-27-56.956-6.288-75.078,64.353-13.314,71.749-11.1,14.794,23.67,15.164,35.135,7.641,11.306-2.714,51.038Z" fill="#640000"/>
            <g id="Group_86" data-name="Group 86" clip-path="url(#clip-path-17)">
              <path id="Path_236" data-name="Path 236" d="M137.81,403.823s13.974-15.295,14.893-10.259-16.28,34.162,1.473,41.928,30.336-.832,40.271,0,14.272,6.834,24.447,7.439,7.989,15.029,7.989,15.029l-28.326,6.1H139.752l-21.3-5.271-5.882-10.379v-23.3Z" opacity="0.2"/>
            </g>
            <path id="Path_238" data-name="Path 238" d="M129.027,446.194s-27-56.956-6.288-75.078,64.353-13.314,71.749-11.1,14.794,23.67,15.164,35.135,7.641,11.306-2.714,51.038Z" fill="none" stroke="#263238" stroke-linecap="round" stroke-linejoin="round" stroke-width="0.75"/>
          </g>
          <g id="Group_88" data-name="Group 88">
            <path id="Path_239" data-name="Path 239" d="M155.655,409.395l16.458-5.386s6.842-10.887,10.355-13.661,5.727-3.695,9.247-2.034l5.917-.828s2.5-3.175,5.363-2.5,13.314,3.883,12.2,6.1-9.985-1.849-11.28-.739c0,0,2.913,5.224,2.913,8.414s.832,8.044-.971,8.044-3.329-2.015-3.19-4.614c0,0-.555,5.723-2.358,5.446s-3.051-1.8-2.773-4.161c0,0-4.161,12.9-14.7,12.76L163.7,424S159.816,423.079,155.655,409.395Z" fill="#fff" stroke="#263238" stroke-linecap="round" stroke-linejoin="round" stroke-width="0.75"/>
            <path id="Path_240" data-name="Path 240" d="M186.583,403.477s2.5-4.993,1.8-7.35l3.606-1.387s1.526,2.08,2.635,1.525l-.555,2.844s-2.774,3.4-1.248,5.338,3.745-2.495,4.993-3.744,1.525-6.749.555-8.506-4.548-1.572-5.6-2.728" fill="none" stroke="#263238" stroke-linecap="round" stroke-linejoin="round" stroke-width="0.75"/>
            <path id="Path_241" data-name="Path 241" d="M198,388.314s3.143-.37,4.068,1.155a15.085,15.085,0,0,1,1.664,6.981,46.18,46.18,0,0,1-.832,4.623" fill="none" stroke="#263238" stroke-linecap="round" stroke-linejoin="round" stroke-width="0.75"/>
            <line id="Line_6" data-name="Line 6" y1="3.086" x2="0.561" transform="translate(198.002 399.107)" fill="none" stroke="#263238" stroke-linecap="round" stroke-linejoin="round" stroke-width="0.75"/>
            <path id="Path_242" data-name="Path 242" d="M200.88,388.585s1.786-.782,3.039,1.763" fill="none" stroke="#263238" stroke-linecap="round" stroke-linejoin="round" stroke-width="0.75"/>
            <path id="Path_243" data-name="Path 243" d="M194.355,397.662l-1.585.637.793,1.523.51-.714Z" fill="none" stroke="#263238" stroke-linecap="round" stroke-linejoin="round" stroke-width="0.75"/>
            <path id="Path_244" data-name="Path 244" d="M177.106,411.429s.74,1.849,4.068,3.7" fill="none" stroke="#263238" stroke-linecap="round" stroke-linejoin="round" stroke-width="0.75"/>
          </g>
          <g id="Group_90" data-name="Group 90">
            <path id="Path_245" data-name="Path 245" d="M163.237,338.2l-5.363,15.718s11.465,12.2,21.451,13.13l4.068,4.782,4.439-5.337-1.11-6.842-1.793-2.89-1.536-.5,3.144-8.63L176.5,333.947H166.75Z" fill="#fff"/>
            <g id="Group_89" data-name="Group 89" clip-path="url(#clip-path-18)">
              <path id="Path_246" data-name="Path 246" d="M186.537,347.631,176.5,333.947H166.75l-1.144,1.385c.675,3.121,2.1,8.435,4.473,11.559,2.529,3.328,9.652,7.133,13.447,9.006Z" fill="#263238" stroke="#263238" stroke-linecap="round" stroke-linejoin="round" stroke-width="0.75"/>
            </g>
            <path id="Path_248" data-name="Path 248" d="M163.237,338.2l-5.363,15.718s11.465,12.2,21.451,13.13l4.068,4.782,4.439-5.337-1.11-6.842-1.793-2.89-1.536-.5,3.144-8.63L176.5,333.947H166.75Z" fill="none" stroke="#263238" stroke-linecap="round" stroke-linejoin="round" stroke-width="0.75"/>
          </g>
          <path id="Path_249" data-name="Path 249" d="M166.011,330.495s1.85,11.4,6.842,15.1,22.93,10.515,26.258,7.292,6.657-13.579,7.4-18.942-1.109-14.192-.74-19.578.74-14.447-6.657-17.221-34.4,10.612-34.4,10.612l-1.66,10.284Z" fill="#fff" stroke="#263238" stroke-linecap="round" stroke-linejoin="round" stroke-width="0.75"/>
          <path id="Path_250" data-name="Path 250" d="M200.868,314.369s-1.109,4.507,0,6.171c.751,1.127,2.711,3.844,3.9,5.481a1.583,1.583,0,0,1-.375,2.223c-1.422,1.008-3.538,2.63-4.016,3.669a4.323,4.323,0,0,0,0,1.387" fill="none" stroke="#263238" stroke-linecap="round" stroke-linejoin="round" stroke-width="0.75"/>
          <path id="Path_251" data-name="Path 251" d="M200.483,336.105s-4.967,3.991-10.025-1.116" fill="none" stroke="#263238" stroke-linecap="round" stroke-linejoin="round" stroke-width="0.75"/>
          <path id="Path_252" data-name="Path 252" d="M186.537,316.1s2.2-4.854,9.928-2.357" fill="none" stroke="#263238" stroke-linecap="round" stroke-linejoin="round" stroke-width="0.75"/>
          <path id="Path_253" data-name="Path 253" d="M201.175,313.031a2.726,2.726,0,0,1,3.854,0" fill="none" stroke="#263238" stroke-linecap="round" stroke-linejoin="round" stroke-width="0.75"/>
          <path id="Path_254" data-name="Path 254" d="M194.41,317.921c.308,1.148.1,2.2-.474,2.356s-1.281-.655-1.589-1.8-.1-2.2.475-2.355S194.1,316.773,194.41,317.921Z" fill="#263238"/>
          <path id="Path_255" data-name="Path 255" d="M204.927,316.75c.223,1.046-.018,1.984-.537,2.094s-1.121-.648-1.343-1.7.018-1.984.537-2.094S204.705,315.7,204.927,316.75Z" fill="#263238"/>
          <path id="Path_256" data-name="Path 256" d="M191.755,283.892s9.42-5.4,23.58,7.131c12.791,11.318-2.85,4.83-2.85,4.83s6.5,12.146-.429,14.645c-7.027,2.533-3.144-4.844-18.677-8.357,0,0,6.932,5.619,2.177,8.9-6.1,4.2-10.129-2.982-14.937-1.318,0,0-2.587,14.239-7.766,16.643,0,0-5.04,19.09-11.674,17.866s1.5-3.812-2.2-15.462-11.65-22.652-5.548-35.273S181.439,279.511,191.755,283.892Z" fill="#263238" stroke="#263238" stroke-linecap="round" stroke-linejoin="round" stroke-width="0.75"/>
          <g id="Group_91" data-name="Group 91">
            <path id="Path_257" data-name="Path 257" d="M132.724,367.958c-5.223.083-9.95,2.015-12.2,5.377-8.243,12.3-18.492,35.135-25.149,50.3s-3.329,24.41,0,25.52,15.163,4.807,38.094-6.288,20.711-13.314,20.711-13.314l13.152-6.07a.744.744,0,0,0,.118-1.283c-2.088-1.5-6.306-5.74-6.6-15.6a.747.747,0,0,0-1.021-.683l-12.309,4.962s-1.85-2.038-12.575,2.03c0,0,10.725-7.767,15.533-13.684,2.265-2.787,2.97-8.034,2.195-13.348" fill="#640000" stroke="#263238" stroke-linecap="round" stroke-linejoin="round" stroke-width="0.75"/>
            <path id="Path_258" data-name="Path 258" d="M112.569,420.49c3.548-2.937,18.492-4.438,18.677-6.657s-12.575,3.143-12.39,0" fill="none" stroke="#263238" stroke-linecap="round" stroke-linejoin="round" stroke-width="0.75"/>
            <path id="Path_259" data-name="Path 259" d="M142.526,391.087s3.707,5.9,3.7,9.247,4.438-5.363,4.438-9.247" fill="none" stroke="#263238" stroke-linecap="round" stroke-linejoin="round" stroke-width="0.75"/>
            <path id="Path_260" data-name="Path 260" d="M148.258,413.278s-.37,4.438,3.7,11.835" fill="none" stroke="#263238" stroke-linecap="round" stroke-linejoin="round" stroke-width="0.75"/>
          </g>
          <path id="Path_261" data-name="Path 261" d="M146.03,359.824s3.8-11.248,8.238-9.594,26.074,11.034,29.125,21.6c0,0-4.438-5.85-8.321,0S167.472,372.478,146.03,359.824Z" fill="#640000" stroke="#263238" stroke-linecap="round" stroke-linejoin="round" stroke-width="0.75"/>
          <path id="Path_262" data-name="Path 262" d="M184.929,356.761a22.966,22.966,0,0,1-1.536,15.069s3.329-4.274,7.212-1.361,0-9.252-1.8-11.551a19.077,19.077,0,0,0-3.455-2.432A.267.267,0,0,0,184.929,356.761Z" fill="#640000" stroke="#263238" stroke-linecap="round" stroke-linejoin="round" stroke-width="0.75"/>
          <path id="Path_263" data-name="Path 263" d="M183.393,356.261s-1.156,3.683,0,5.883" fill="none" stroke="#263238" stroke-linecap="round" stroke-linejoin="round" stroke-width="0.75"/>
          <g id="Group_92" data-name="Group 92">
            <path id="Rectangle_23" data-name="Rectangle 23" d="M1.319,0H46.145a0,0,0,0,1,0,0V4.068a0,0,0,0,1,0,0H1.68A1.68,1.68,0,0,1,0,2.389V1.319A1.319,1.319,0,0,1,1.319,0Z" transform="translate(167.76 447.115)" fill="#858585" stroke="#263238" stroke-linecap="round" stroke-linejoin="round" stroke-width="1"/>
            <path id="Path_264" data-name="Path 264" d="M235.5,379.8h-5.63a3.986,3.986,0,0,0-3.826,2.872l-18.429,63.412a3.984,3.984,0,0,0,3.826,5.1h4.883Z" fill="#263238" stroke="#263238" stroke-linecap="round" stroke-linejoin="round" stroke-width="0.75"/>
            <path id="Path_265" data-name="Path 265" d="M307.316,451.183H213.387a3.983,3.983,0,0,1-3.826-5.1l18.429-63.412a3.985,3.985,0,0,1,3.826-2.872h93.929a3.984,3.984,0,0,1,3.826,5.1l-18.429,63.411A3.984,3.984,0,0,1,307.316,451.183Z" fill="#858585" stroke="#263238" stroke-linecap="round" stroke-linejoin="round" stroke-width="1"/>
          </g>
          <path id="Path_266" data-name="Path 266" d="M165.606,335.332s-7.547,11.79-3.109,22.413.555,16.124-4.623,12.144-7.582-8.353-30.882-4.66l15.534-15.165,10.54-14.129,9.87-4.646Z" fill="#263238" stroke="#263238" stroke-linecap="round" stroke-linejoin="round" stroke-width="0.75"/>
          <g id="Group_93" data-name="Group 93">
            <path id="Path_267" data-name="Path 267" d="M211.55,302.144a6.61,6.61,0,0,1,.926,3.534" fill="none" stroke="#7f7f7f" stroke-linecap="round" stroke-linejoin="round" stroke-width="0.75"/>
            <path id="Path_268" data-name="Path 268" d="M181.174,289.96c14-.228,22.807,3.986,27.4,8.377" fill="none" stroke="#7f7f7f" stroke-linecap="round" stroke-linejoin="round" stroke-width="0.75"/>
            <path id="Path_269" data-name="Path 269" d="M141.873,350.333a22.1,22.1,0,0,0,.653-8.041c-1.11-12.482,8.876-8.246,11.1-24.094,2.009-14.345,4.4-25.553,21.629-27.825" fill="none" stroke="#7f7f7f" stroke-linecap="round" stroke-linejoin="round" stroke-width="0.75"/>
            <path id="Path_270" data-name="Path 270" d="M135.591,359.2a13.056,13.056,0,0,0,3.856-3.734" fill="none" stroke="#7f7f7f" stroke-linecap="round" stroke-linejoin="round" stroke-width="0.75"/>
          </g>
          <g id="Group_95" data-name="Group 95">
            <path id="Path_271" data-name="Path 271" d="M155.387,358.665a26.6,26.6,0,0,0,1.562,3.479" fill="none" stroke="#7f7f7f" stroke-linecap="round" stroke-linejoin="round" stroke-width="0.75"/>
            <g id="Group_94" data-name="Group 94">
              <path id="Path_272" data-name="Path 272" d="M167.744,300.232c-6.811,5.987-.808,17.751-4.045,25.018-2.991,6.717-11,16.554-9.554,28.278" fill="none" stroke="#7f7f7f" stroke-linecap="round" stroke-linejoin="round" stroke-width="0.75"/>
              <path id="Path_273" data-name="Path 273" d="M193.379,306.926s-9.385-13.591-21.867-8.876" fill="none" stroke="#7f7f7f" stroke-linecap="round" stroke-linejoin="round" stroke-width="0.75"/>
            </g>
          </g>
        </g>
        <g id="Group_98" data-name="Group 98">
          <rect id="Rectangle_24" data-name="Rectangle 24" width="126.365" height="18.144" rx="4.417" transform="translate(272.444 269.583)" fill="#fff"/>
          <g id="Group_97" data-name="Group 97" clip-path="url(#clip-path-19)">
            <rect id="Rectangle_25" data-name="Rectangle 25" width="126.365" height="18.144" rx="4.417" transform="translate(272.444 269.583)" opacity="0.3"/>
          </g>
          <rect id="Rectangle_27" data-name="Rectangle 27" width="126.365" height="18.144" rx="4.417" transform="translate(272.444 269.583)" fill="none" stroke="#263238" stroke-linecap="round" stroke-linejoin="round" stroke-width="0.75"/>
        </g>
        <g id="Group_99" data-name="Group 99">
          <path id="Path_274" data-name="Path 274" d="M326.78,273.573h2.156c1.464,0,2.182.811,2.182,2.3v.918c0,1.491-.718,2.3-2.182,2.3h-.692v3.792H326.78Zm2.156,4.192c.466,0,.718-.212.718-.879v-1.1c0-.665-.252-.878-.718-.878h-.692v2.861Z" fill="#263238"/>
          <path id="Path_275" data-name="Path 275" d="M331.92,273.573h1.463v3.792h1.571v-3.792h1.463v9.315h-1.463V278.7h-1.571v4.192H331.92Z" fill="#263238"/>
          <path id="Path_276" data-name="Path 276" d="M337.512,273.573h2.155c1.464,0,2.182.811,2.182,2.3v.918c0,1.491-.718,2.3-2.182,2.3h-.692v3.792h-1.463Zm2.155,4.192c.465,0,.719-.212.719-.879v-1.1c0-.665-.254-.878-.719-.878h-.692v2.861Z" fill="#263238"/>
        </g>
      </g>
    </g>
  </g>
</svg>
