<svg xmlns="http://www.w3.org/2000/svg" width="500" height="377.524" viewBox="0 0 500 377.524">
  <g id="Group_42" data-name="Group 42" transform="translate(0 -54.953)">
    <g id="Background_Complete" data-name="Background Complete">
      <g id="Group_1" data-name="Group 1">
        <rect id="Rectangle_1" data-name="Rectangle 1" width="500" height="0.25" transform="translate(0 382.398)" fill="#ebebeb"/>
        <rect id="Rectangle_2" data-name="Rectangle 2" width="33.122" height="0.25" transform="translate(416.779 398.494)" fill="#ebebeb"/>
        <rect id="Rectangle_3" data-name="Rectangle 3" width="8.693" height="0.25" transform="translate(322.527 401.208)" fill="#ebebeb"/>
        <rect id="Rectangle_4" data-name="Rectangle 4" width="19.192" height="0.25" transform="translate(396.586 389.208)" fill="#ebebeb"/>
        <rect id="Rectangle_5" data-name="Rectangle 5" width="43.193" height="0.25" transform="translate(52.459 390.888)" fill="#ebebeb"/>
        <rect id="Rectangle_6" data-name="Rectangle 6" width="6.333" height="0.25" transform="translate(104.556 390.888)" fill="#ebebeb"/>
        <rect id="Rectangle_7" data-name="Rectangle 7" width="93.676" height="0.25" transform="translate(131.471 395.111)" fill="#ebebeb"/>
        <path id="Path_1" data-name="Path 1" d="M237.014,337.8H43.915a5.715,5.715,0,0,1-5.708-5.708V60.66a5.714,5.714,0,0,1,5.708-5.707h193.1a5.714,5.714,0,0,1,5.707,5.707V332.092A5.715,5.715,0,0,1,237.014,337.8ZM43.915,55.2a5.463,5.463,0,0,0-5.458,5.457V332.092a5.464,5.464,0,0,0,5.458,5.458h193.1a5.463,5.463,0,0,0,5.457-5.458V60.66a5.463,5.463,0,0,0-5.457-5.457Z" fill="#ebebeb"/>
        <path id="Path_2" data-name="Path 2" d="M453.31,337.8h-193.1a5.714,5.714,0,0,1-5.707-5.708V60.66a5.713,5.713,0,0,1,5.707-5.707h193.1a5.714,5.714,0,0,1,5.709,5.707V332.092A5.715,5.715,0,0,1,453.31,337.8ZM260.212,55.2a5.463,5.463,0,0,0-5.457,5.457V332.092a5.463,5.463,0,0,0,5.457,5.458h193.1a5.464,5.464,0,0,0,5.459-5.458V60.66A5.464,5.464,0,0,0,453.31,55.2Z" fill="#ebebeb"/>
      </g>
      <g id="Group_6" data-name="Group 6">
        <g id="Group_3" data-name="Group 3">
          <g id="Group_2" data-name="Group 2">
            <path id="Path_3" data-name="Path 3" d="M443.183,78.371V74.077l-2.211-.208a11.482,11.482,0,0,0-1.649-3.967l1.42-1.715-3.036-3.037-1.716,1.42a11.484,11.484,0,0,0-3.966-1.648l-.209-2.212h-4.294l-.208,2.212a11.481,11.481,0,0,0-3.967,1.648l-1.715-1.42L418.6,68.187l1.421,1.715a11.464,11.464,0,0,0-1.649,3.967l-2.212.208v4.294l2.211.209a11.488,11.488,0,0,0,1.65,3.966L418.6,84.262l3.037,3.036,1.715-1.42a11.464,11.464,0,0,0,3.967,1.649l.208,2.211h4.294l.209-2.211a11.486,11.486,0,0,0,3.966-1.649l1.716,1.42,3.036-3.036-1.42-1.716a11.486,11.486,0,0,0,1.649-3.966Zm-13.514,3.667a5.813,5.813,0,1,1,5.813-5.814A5.814,5.814,0,0,1,429.669,82.038Z" fill="#e0e0e0"/>
            <path id="Path_4" data-name="Path 4" d="M460.587,90.493V87.127l-1.732-.163a9,9,0,0,0-1.292-3.108l1.113-1.344-2.38-2.38-1.344,1.113a9,9,0,0,0-3.108-1.292l-.163-1.733h-3.366l-.163,1.733a9,9,0,0,0-3.108,1.292L443.7,80.132l-2.38,2.38,1.113,1.344a9,9,0,0,0-1.292,3.108l-1.733.163v3.366l1.733.163a9,9,0,0,0,1.292,3.108l-1.113,1.344,2.38,2.38,1.344-1.113a9,9,0,0,0,3.108,1.292l.163,1.732h3.366l.163-1.732a9,9,0,0,0,3.108-1.292l1.344,1.113,2.38-2.38-1.113-1.344a9,9,0,0,0,1.292-3.108ZM450,93.365a4.555,4.555,0,1,1,4.555-4.555A4.555,4.555,0,0,1,450,93.365Z" fill="#e0e0e0"/>
            <path id="Path_5" data-name="Path 5" d="M443.183,100.046V97.219l-1.455-.137a7.547,7.547,0,0,0-1.086-2.61l.935-1.13-2-2-1.129.935a7.548,7.548,0,0,0-2.61-1.086l-.137-1.455h-2.827l-.137,1.455a7.548,7.548,0,0,0-2.61,1.086L429,91.344l-2,2,.935,1.13a7.547,7.547,0,0,0-1.086,2.61l-1.455.137v2.827l1.455.137a7.547,7.547,0,0,0,1.086,2.61l-.935,1.13,2,2,1.13-.935a7.528,7.528,0,0,0,2.61,1.086l.137,1.455H435.7l.137-1.455a7.548,7.548,0,0,0,2.61-1.086l1.129.935,2-2-.935-1.13a7.547,7.547,0,0,0,1.086-2.61Zm-8.894,2.413a3.826,3.826,0,1,1,3.826-3.826A3.826,3.826,0,0,1,434.289,102.459Z" fill="#e0e0e0"/>
          </g>
        </g>
        <g id="Group_5" data-name="Group 5">
          <path id="Path_6" data-name="Path 6" d="M50.466,381.474,72.815,232.98V381.474h6V232.053l22.371,149.422h6.429l-28-187.036-.8.118v-6.082h-6v6.061l-.822-.1L43.916,381.474Z" fill="#e0e0e0"/>
          <g id="Group_4" data-name="Group 4">
            <path id="Path_7" data-name="Path 7" d="M106.562,215.182H44.744l5-51.656h51.812Z" fill="#ebebeb"/>
          </g>
        </g>
        <text id="_1011100010101000101010101010101010000000111111001011110101" data-name="1011100010101000101010101010101010000000111111001011110101" transform="translate(64.113 78.4)" fill="#e0e0e0" font-size="12" font-family="SegoeUI, Segoe UI"><tspan x="0" y="0">1011100010101000101010101010101010000000111111001011110101</tspan></text>
        <text id="_1011100010101000101010101000111110101010000111010100000" data-name="1011100010101000101010101000111110101010000111010100000" transform="translate(142.562 319.291)" fill="#e0e0e0" font-size="12" font-family="SegoeUI, Segoe UI"><tspan x="0" y="0">1011100010101000101010101000111110101010000111010100000</tspan></text>
        <text id="_01010100010101010000000111111001011110101" data-name="01010100010101010000000111111001011110101" transform="translate(85.451 115.433)" fill="#e0e0e0" font-size="12" font-family="SegoeUI, Segoe UI"><tspan x="0" y="0">01010100010101010000000111111001011110101</tspan></text>
        <text id="_01010100010101010000000111111001011110101-2" data-name="01010100010101010000000111111001011110101" transform="translate(163.241 361.492)" fill="#e0e0e0" font-size="12" font-family="SegoeUI, Segoe UI"><tspan x="0" y="0">01010100010101010000000111111001011110101</tspan></text>
        <text id="_01010100010101010000000111111001011110101-3" data-name="01010100010101010000000111111001011110101" transform="translate(227.309 339.159)" fill="#e0e0e0" font-size="12" font-family="SegoeUI, Segoe UI"><tspan x="0" y="0">01010100010101010000000111111001011110101</tspan></text>
        <text id="_010101000101010101010101010000000111111001011110101" data-name="010101000101010101010101010000000111111001011110101" transform="translate(85.451 134)" fill="#e0e0e0" font-size="12" font-family="SegoeUI, Segoe UI"><tspan x="0" y="0">010101000101010101010101010000000111111001011110101</tspan></text>
      </g>
    </g>
    <g id="Shadow">
      <ellipse id="_Path_" data-name="&lt;Path&gt;" cx="193.889" cy="11.323" rx="193.889" ry="11.323" transform="translate(56.111 404.915)" fill="#f5f5f5"/>
    </g>
    <g id="Window">
      <g id="Group_8" data-name="Group 8">
        <path id="Path_10" data-name="Path 10" d="M444,92.61V293.86a9.358,9.358,0,0,1-9.03,9.14H145.39c-4.81,0-8.39-4.32-8.39-9.14V92.61A8.358,8.358,0,0,1,145.39,84H434.97A8.9,8.9,0,0,1,444,92.61Z" fill="#640000"/>
        <path id="Path_11" data-name="Path 11" d="M444,117.69V293.86a9.358,9.358,0,0,1-9.03,9.14H145.39c-4.81,0-8.39-4.32-8.39-9.14V225.29c25.481-48.957,86.218-56.94,157.333-28.29C395,237.555,437.928,182.507,444,117.69Z" fill="#fff" opacity="0.1" style="isolation: isolate"/>
      </g>
    </g>
    <g id="Bar">
      <g id="Group_9" data-name="Group 9">
        <path id="Path_12" data-name="Path 12" d="M364.921,280.035H218.036A5.036,5.036,0,0,1,213,275h0a5.036,5.036,0,0,1,5.036-5.036H364.921A5.036,5.036,0,0,1,369.957,275h0A5.036,5.036,0,0,1,364.921,280.035Z" opacity="0.2" style="isolation: isolate"/>
        <path id="Path_13" data-name="Path 13" d="M218.036,279a4,4,0,1,1,0-8h86.847a4,4,0,1,1,0,8Z" fill="#640000"/>
        <path id="Path_14" data-name="Path 14" d="M218.036,279a4,4,0,1,1,0-8h86.847a4,4,0,1,1,0,8Z" fill="#fff" opacity="0.7" style="isolation: isolate"/>
      </g>
    </g>
    <g id="Character">
      <g id="_Group_" data-name="&lt;Group&gt;">
        <g id="Group_10" data-name="Group 10">
          <path id="Path_15" data-name="Path 15" d="M159.931,287.261C169.25,294.75,166,330.5,167.75,336S177,346.017,177,346.017l-10.464,12.249s-8.749-1.516-15.393-15.766S159.931,287.261,159.931,287.261Z" fill="#263238"/>
          <path id="Path_16" data-name="Path 16" d="M159.931,287.261C169.25,294.75,166,330.5,167.75,336S177,346.017,177,346.017l-10.464,12.249s-8.749-1.516-15.393-15.766S159.931,287.261,159.931,287.261Z" opacity="0.2" style="isolation: isolate"/>
        </g>
        <g id="Group_11" data-name="Group 11">
          <path id="Path_17" data-name="Path 17" d="M150.031,365.754s66.97-18.689,75.382,4.814-52.388,42.242-86.04,43.389-47.379-22.45-37.456-44.876Z" fill="#640000"/>
          <path id="Path_18" data-name="Path 18" d="M150.031,365.754s66.97-18.689,75.382,4.814-52.388,42.242-86.04,43.389-47.379-22.45-37.456-44.876Z" opacity="0.2" style="isolation: isolate"/>
        </g>
        <path id="Path_19" data-name="Path 19" d="M215.668,403.8a.215.215,0,0,1-.247-.013.17.17,0,0,1-.059-.208c.11-.374,1.224-3.61,2.351-3.95a.7.7,0,0,1,.672.2,1.148,1.148,0,0,1,.4,1.085,3,3,0,0,1-1.055,1.52A12.182,12.182,0,0,1,215.668,403.8Zm.289-.621a4.814,4.814,0,0,0,2.4-2.31.736.736,0,0,0-.286-.741.241.241,0,0,0-.264-.077.751.751,0,0,0-.259.151A9.38,9.38,0,0,0,215.957,403.174Z" fill="#640000"/>
        <path id="Path_20" data-name="Path 20" d="M215.608,403.837a.184.184,0,0,1-.21-.061c-.1-.091-1.658-2.051-1.4-3.375a1.249,1.249,0,0,1,.536-.811.722.722,0,0,1,.9-.084c.813.572.714,3.2.315,4.192l-.029.1A.206.206,0,0,1,215.608,403.837Zm-.883-3.844a.826.826,0,0,0-.27.471c-.161.837.619,2.093,1.041,2.7.256-1.12.173-2.961-.3-3.292-.052-.027-.149-.1-.39.065l-.077.061Z" fill="#640000"/>
        <path id="Path_21" data-name="Path 21" d="M147.4,415.693a.217.217,0,0,1,.182-.168.173.173,0,0,1,.19.1c.191.34,1.722,3.4,1.176,4.443a.7.7,0,0,1-.61.343,1.147,1.147,0,0,1-1.055-.474,2.992,2.992,0,0,1-.348-1.817A12.18,12.18,0,0,1,147.4,415.693Zm.241.641a4.813,4.813,0,0,0-.027,3.329.733.733,0,0,0,.729.315.24.24,0,0,0,.24-.135.735.735,0,0,0,.073-.291A9.357,9.357,0,0,0,147.644,416.334Z" fill="#640000"/>
        <path id="Path_22" data-name="Path 22" d="M163.628,393.069l-11.851,8.69-5.692,4.172,3.718,6.484,5.776-3.159,14.108-7.716Z" fill="#ebb376"/>
        <path id="Path_23" data-name="Path 23" d="M151.638,412.225l-3.575-7.891a.857.857,0,0,0-1.157-.416l-3.855,1.888s-5.367,2.171-6.042,3.914c-1.969,5.1,5.492,22.753,7.821,22.757.852,0,1.358-1.32,1.477-2.161.377-2.675.441-9.4.784-11.624.4-2.6,3.031-4.607,4.246-5.4A.849.849,0,0,0,151.638,412.225Z" fill="#263238"/>
        <path id="Path_24" data-name="Path 24" d="M147.415,415.62a.183.183,0,0,1,.19-.106c.138-.012,2.626.25,3.393,1.359a1.253,1.253,0,0,1,.2.951.724.724,0,0,1-.568.7c-.977.179-2.783-1.728-3.215-2.709l-.05-.09A.207.207,0,0,1,147.415,415.62Zm3.364,2.06a.827.827,0,0,0-.148-.523c-.485-.7-1.928-1.023-2.653-1.142.621.967,1.994,2.2,2.564,2.087.056-.018.179-.034.226-.324l.011-.1Z" fill="#640000"/>
        <path id="Path_25" data-name="Path 25" d="M163.628,393.069l-11.851,8.69,3.8,7.5,14.108-7.716Z" opacity="0.2" style="isolation: isolate"/>
        <g id="Group_12" data-name="Group 12">
          <path id="Path_26" data-name="Path 26" d="M158.285,409.746l3.9-.866-6.477-12.361-3.612,3.688Z" fill="#640000"/>
          <path id="Path_27" data-name="Path 27" d="M158.285,409.746l3.9-.866-6.477-12.361-3.612,3.688Z" fill="#fff" opacity="0.6" style="isolation: isolate"/>
        </g>
        <path id="Path_28" data-name="Path 28" d="M188.152,408.034l14.5,2.386,6.964,1.147,2.031-7.193-6.3-1.916-15.384-4.68Z" fill="#ebb376"/>
        <path id="Path_29" data-name="Path 29" d="M210.227,403.2l-3.136,8.076a.856.856,0,0,0,.513,1.117l4.046,1.433s5.306,2.316,7.024,1.577c5.019-2.158,12.412-19.843,10.785-21.51-.6-.609-1.893-.047-2.577.457-2.175,1.6-7.023,6.26-8.853,7.574-2.14,1.536-5.412,1.057-6.832.748A.847.847,0,0,0,210.227,403.2Z" fill="#263238"/>
        <path id="Path_30" data-name="Path 30" d="M188.152,408.034l14.5,2.386,2.7-7.962-15.384-4.68Z" opacity="0.2" style="isolation: isolate"/>
        <path id="Path_31" data-name="Path 31" d="M202.852,400.955s-60.28-35.554-80.679-34.608-22.184,21.25-13.767,32.506,23.958,14,23.958,14-10.581-14.955-9.051-19.161,7.361,9.942,7.361,9.942,37.348,4.891,69.883,7.648Z" fill="#640000"/>
        <g id="Group_13" data-name="Group 13">
          <path id="Path_32" data-name="Path 32" d="M203.8,400.042l-3.346-2.249L196.16,411h5.162Z" fill="#640000"/>
          <path id="Path_33" data-name="Path 33" d="M203.8,400.042l-3.346-2.249L196.16,411h5.162Z" fill="#fff" opacity="0.6" style="isolation: isolate"/>
        </g>
        <path id="Path_34" data-name="Path 34" d="M157.886,372c-10.9-21-7.434-52.947,2.045-84.739-6.6-5.512-32.934-9.233-53.041-3.39,0,0-12.742,47.214-11.238,98.777Z" fill="#263238"/>
        <path id="Path_35" data-name="Path 35" d="M134.73,292.42c-8.77,0-14.48-9.2-14.48-9.2,11.5-4.03,11.54-16.17,11.54-16.17l4.43,4.33,6.31,6.18c-5.25,3.72-2.77,6.94-1.1,8.37a7.68,7.68,0,0,0,1.1.82S143.5,292.42,134.73,292.42Z" fill="#ebb376"/>
        <path id="Path_36" data-name="Path 36" d="M141.43,285.93c-10.76,1.21-10.03-14.9-10.03-14.9a27.394,27.394,0,0,1,4.82.35l6.31,6.18C137.28,281.28,139.76,284.5,141.43,285.93Z" opacity="0.2" style="isolation: isolate"/>
        <g id="Group_14" data-name="Group 14">
          <path id="Path_37" data-name="Path 37" d="M149.835,254.966c-4.077,1.687-3.3,6.136,3.464,14.239,4.163-3.584,6.417-11.743,4.234-14.362S153.385,253.509,149.835,254.966Z" fill="#263238"/>
          <path id="Path_38" data-name="Path 38" d="M155.85,273a.077.077,0,0,1-.01.03,28.432,28.432,0,0,1-1.3,3.18c-4.02,8.19-15.58,9.78-20.7,1.68-.02-.03-.04-.05-.06-.08-3.38-5.45-2.11-10.54-.7-19.36a12.2,12.2,0,0,1,19.04-8.18C158.83,254.93,158.43,265.47,155.85,273Z" fill="#ebb376"/>
          <path id="Path_39" data-name="Path 39" d="M145.537,263.751c-.159.708.091,1.367.553,1.468s.958-.383,1.117-1.09-.082-1.363-.54-1.473S145.741,263.065,145.537,263.751Z" fill="#263238"/>
          <path id="Path_40" data-name="Path 40" d="M153.582,265.566c-.159.708.091,1.367.553,1.468s.968-.378,1.13-1.1-.091-1.366-.553-1.468S153.74,264.859,153.582,265.566Z" fill="#263238"/>
          <path id="Path_41" data-name="Path 41" d="M150.881,265.311a25.888,25.888,0,0,0,2.027,6.815c-1.541.882-3.529-.13-3.529-.13Z" fill="#d58745"/>
          <path id="Path_42" data-name="Path 42" d="M143.907,260.72a.414.414,0,0,1-.251-.117.431.431,0,0,1,.041-.6,4.214,4.214,0,0,1,3.773-.957.412.412,0,0,1,.295.5l-.009.029a.441.441,0,0,1-.529.287h0a3.359,3.359,0,0,0-2.968.786A.442.442,0,0,1,143.907,260.72Z" fill="#263238"/>
          <path id="Path_43" data-name="Path 43" d="M157.854,263.675a.44.44,0,0,1-.326-.321,3.39,3.39,0,0,0-1.919-2.406.428.428,0,0,1,.284-.808,4.251,4.251,0,0,1,2.461,3.019.422.422,0,0,1-.31.509l-.006,0A.494.494,0,0,1,157.854,263.675Z" fill="#263238"/>
          <path id="Path_44" data-name="Path 44" d="M138.276,251.521c3.754,2.306,2.272,6.578-5.689,13.5-3.543-4.2-4.473-12.625-1.892-14.847S134.995,249.514,138.276,251.521Z" fill="#263238"/>
          <path id="Path_45" data-name="Path 45" d="M127.378,264.482a8.5,8.5,0,0,0,2.83,5.84c2.241,1.955,4.635.257,5.086-2.522.4-2.508-.282-6.55-3.042-7.433S127.228,261.729,127.378,264.482Z" fill="#ebb376"/>
          <path id="Path_46" data-name="Path 46" d="M142.526,272.091s.925,3.178,5.183,3.915" fill="none" stroke="#263238" stroke-linecap="round" stroke-linejoin="round" stroke-width="0.557"/>
          <path id="Path_47" data-name="Path 47" d="M150.187,265.37a3.031,3.031,0,1,1-3.031-3.031A3.031,3.031,0,0,1,150.187,265.37Z" fill="none" stroke="#263238" stroke-linecap="round" stroke-linejoin="round" stroke-width="0.557"/>
          <path id="Path_48" data-name="Path 48" d="M158.36,267.048a3.031,3.031,0,1,1-3.031-3.031A3.031,3.031,0,0,1,158.36,267.048Z" fill="none" stroke="#263238" stroke-linecap="round" stroke-linejoin="round" stroke-width="0.557"/>
          <path id="Path_49" data-name="Path 49" d="M150.187,266.188a1.6,1.6,0,0,1,2.111.562" fill="none" stroke="#263238" stroke-linecap="round" stroke-linejoin="round" stroke-width="0.557"/>
          <path id="Path_50" data-name="Path 50" d="M144.189,264.75s-8.691-3.657-10.314-4.02" fill="none" stroke="#263238" stroke-linecap="round" stroke-linejoin="round" stroke-width="0.557"/>
          <path id="Path_51" data-name="Path 51" d="M130.612,250.288s-.9-7.062,6.306-8.229,16.645.637,19.561-.613a4.616,4.616,0,0,1-2.065,3.069s5.5,2.027,9.831.277c0,0-1.883,5.208-4.314,7.208H162s-4.1,3.917-9.092,4-9.689-6.79-14.632-4.479S130.612,250.288,130.612,250.288Z" fill="#263238"/>
          <path id="Path_52" data-name="Path 52" d="M155.85,273a.077.077,0,0,1-.01.03,28.432,28.432,0,0,1-1.3,3.18c-4.02,8.19-15.58,9.78-20.7,1.68-.02-.03-.04-.05-.06-.08-2.64-4.69-.53-9.81-.53-9.81l1.54-4.99,1.12-1.11s.26,5.07,1.05,6.5,5.29,1.85,6.21,2.1,3.1,2.85,4.18,3.55,5.04.12,5.51.7S155.85,273,155.85,273Z" opacity="0.4" style="isolation: isolate"/>
        </g>
        <path id="Path_53" data-name="Path 53" d="M110.889,353.5l20.736,22.993s22.927-.51,50.765,13.1c0,0,29.872-12.34,32.616-22.59s-62.708-3-62.708-3Z" opacity="0.2" style="isolation: isolate"/>
        <path id="Path_54" data-name="Path 54" d="M116.75,346.75,150,357.625S161.875,355,164,355s10.328,6.671,5.686,9-17.311,2.625-18.686,1.875-38.25-9.379-38.25-9.379Z" fill="#ebb376"/>
        <g id="Group_15" data-name="Group 15">
          <path id="Path_55" data-name="Path 55" d="M106.89,283.871c7.524-1.459-5.529,44.379-2.334,51.129s15.694,11.017,15.694,11.017l-5.75,12.692s-17-3.209-26.25-14.959S94.613,286.253,106.89,283.871Z" fill="#263238"/>
          <path id="Path_56" data-name="Path 56" d="M106.89,283.871c7.524-1.459-5.529,44.379-2.334,51.129s15.694,11.017,15.694,11.017l-5.75,12.692s-17-3.209-26.25-14.959S94.613,286.253,106.89,283.871Z" opacity="0.2" style="isolation: isolate"/>
        </g>
        <g id="Group_16" data-name="Group 16">
          <path id="Path_57" data-name="Path 57" d="M120.25,345l-7,13.709,6,1.291,5.5-12.625Z" fill="#263238"/>
          <path id="Path_58" data-name="Path 58" d="M120.25,345l-7,13.709,6,1.291,5.5-12.625Z" fill="#fff" opacity="0.2" style="isolation: isolate"/>
        </g>
        <g id="Group_19" data-name="Group 19">
          <g id="Group_17" data-name="Group 17">
            <path id="Path_59" data-name="Path 59" d="M134,364v2.18a2.83,2.83,0,0,0,2.7,2.82h80.39A3.013,3.013,0,0,0,220,366.18V364Z" fill="#263238"/>
            <path id="Path_60" data-name="Path 60" d="M134,364v2.18a2.83,2.83,0,0,0,2.7,2.82h80.39A3.013,3.013,0,0,0,220,366.18V364Z" fill="#fff" opacity="0.2" style="isolation: isolate"/>
            <path id="Path_61" data-name="Path 61" d="M164,364v2.18a2.845,2.845,0,0,0,2.713,2.82h50.38A3.013,3.013,0,0,0,220,366.18V364Z" fill="#fff" opacity="0.2" style="isolation: isolate"/>
          </g>
          <g id="Group_18" data-name="Group 18">
            <path id="Path_62" data-name="Path 62" d="M166.713,367h53.11a4.33,4.33,0,0,0,3.86-2.85l12.18-38.2a2.113,2.113,0,0,0-2.04-2.945h-53.11a4.426,4.426,0,0,0-3.86,2.945L164.673,364.1A2.078,2.078,0,0,0,166.713,367Z" fill="#263238"/>
            <path id="Path_63" data-name="Path 63" d="M166.713,367h53.11a4.33,4.33,0,0,0,3.86-2.85l12.18-38.2a2.113,2.113,0,0,0-2.04-2.945h-53.11a4.426,4.426,0,0,0-3.86,2.945L164.673,364.1A2.078,2.078,0,0,0,166.713,367Z" fill="#fff" opacity="0.2" style="isolation: isolate"/>
            <path id="Path_64" data-name="Path 64" d="M168.713,367h51.11a4.33,4.33,0,0,0,3.86-2.85l12.18-38.2a2.113,2.113,0,0,0-2.04-2.945h-51.11a4.426,4.426,0,0,0-3.86,2.945L166.673,364.1A2.078,2.078,0,0,0,168.713,367Z" fill="#fff" opacity="0.2" style="isolation: isolate"/>
          </g>
          <path id="Path_65" data-name="Path 65" d="M205.321,340.81l-7.353,5.207,3.179,5.207,7.353-5.207Z" fill="#fff" opacity="0.2" style="isolation: isolate"/>
        </g>
      </g>
    </g>
    <g id="Tab5">
      <g id="Group_23" data-name="Group 23">
        <rect id="Rectangle_8" data-name="Rectangle 8" width="84.733" height="84.733" rx="8.743" transform="translate(166.118 93.699)" opacity="0.2" style="isolation: isolate"/>
        <rect id="Rectangle_9" data-name="Rectangle 9" width="71" height="71" rx="7.326" transform="translate(189.88 84.398)" fill="#640000" style="isolation: isolate"/>
        <g id="Group_22" data-name="Group 22">
          <rect id="Rectangle_10" data-name="Rectangle 10" width="71" height="71" rx="7.326" transform="translate(189.88 84.398)" fill="#fff" opacity="0.3" style="isolation: isolate"/>
          <g id="Group_21" data-name="Group 21">
            <g id="Group_20" data-name="Group 20">
              <path id="Path_66" data-name="Path 66" d="M230.85,111.705V107.41l-2.211-.208a11.461,11.461,0,0,0-1.65-3.966l1.421-1.716-3.037-3.036-1.715,1.42a11.464,11.464,0,0,0-3.967-1.649l-.208-2.211h-4.294l-.209,2.211a11.467,11.467,0,0,0-3.966,1.649l-1.716-1.42-3.036,3.036,1.42,1.716a11.478,11.478,0,0,0-1.649,3.966l-2.211.208v4.295l2.211.208a11.491,11.491,0,0,0,1.649,3.967l-1.42,1.715,3.036,3.037,1.716-1.421a11.467,11.467,0,0,0,3.966,1.649l.209,2.211h4.294l.208-2.211a11.464,11.464,0,0,0,3.967-1.649l1.715,1.421,3.037-3.037-1.421-1.715a11.474,11.474,0,0,0,1.65-3.967Zm-13.514,3.666a5.813,5.813,0,1,1,5.813-5.813A5.813,5.813,0,0,1,217.336,115.371Z" fill="#fff"/>
              <path id="Path_67" data-name="Path 67" d="M248.254,123.826v-3.365l-1.733-.163a8.965,8.965,0,0,0-1.292-3.109l1.113-1.344-2.379-2.379-1.345,1.113a8.973,8.973,0,0,0-3.108-1.293l-.163-1.732h-3.365l-.163,1.732a8.973,8.973,0,0,0-3.108,1.293l-1.345-1.113-2.379,2.379,1.113,1.344a9,9,0,0,0-1.292,3.109l-1.733.163v3.365l1.733.163A8.991,8.991,0,0,0,230.1,127.1l-1.113,1.345,2.379,2.379,1.345-1.113A8.99,8.99,0,0,0,235.819,131l.163,1.733h3.365L239.51,131a9,9,0,0,0,3.109-1.292l1.344,1.113,2.379-2.379-1.113-1.345a8.952,8.952,0,0,0,1.292-3.108ZM237.665,126.7a4.556,4.556,0,1,1,4.555-4.556A4.556,4.556,0,0,1,237.665,126.7Z" fill="#fff"/>
              <path id="Path_68" data-name="Path 68" d="M230.85,133.379v-2.826l-1.456-.137a7.543,7.543,0,0,0-1.085-2.611l.935-1.129-2-2-1.129.935a7.543,7.543,0,0,0-2.611-1.085l-.137-1.456h-2.826l-.137,1.456a7.551,7.551,0,0,0-2.611,1.085l-1.129-.935-2,2,.935,1.129a7.543,7.543,0,0,0-1.085,2.611l-1.455.137v2.826l1.455.137a7.543,7.543,0,0,0,1.085,2.611l-.935,1.129,2,2,1.129-.935A7.551,7.551,0,0,0,220.4,139.4l.137,1.455h2.826l.137-1.455a7.543,7.543,0,0,0,2.611-1.085l1.129.935,2-2-.935-1.129a7.543,7.543,0,0,0,1.085-2.611Zm-8.9,2.413a3.826,3.826,0,1,1,3.826-3.826A3.826,3.826,0,0,1,221.955,135.792Z" fill="#fff"/>
            </g>
          </g>
        </g>
        <rect id="Rectangle_11" data-name="Rectangle 11" width="71" height="71" rx="7.326" transform="translate(192.882 84.398)" fill="#fff" opacity="0.2" style="isolation: isolate"/>
      </g>
    </g>
    <g id="Tab4">
      <g id="Group_26" data-name="Group 26">
        <rect id="Rectangle_12" data-name="Rectangle 12" width="78.33" height="78.33" rx="8.082" transform="translate(294 175.944)" opacity="0.2" style="isolation: isolate"/>
        <rect id="Rectangle_13" data-name="Rectangle 13" width="65.635" height="65.635" rx="6.772" transform="translate(313.675 171.753)" fill="#640000" style="isolation: isolate"/>
        <g id="Group_25" data-name="Group 25">
          <rect id="Rectangle_14" data-name="Rectangle 14" width="65.635" height="65.635" rx="6.772" transform="translate(313.675 171.753)" fill="#fff" opacity="0.2" style="isolation: isolate"/>
          <g id="Group_24" data-name="Group 24">
            <path id="Path_69" data-name="Path 69" d="M348.995,215.109a2.369,2.369,0,1,1-2.369-2.369A2.369,2.369,0,0,1,348.995,215.109Z" fill="#fff"/>
            <path id="Path_70" data-name="Path 70" d="M346.426,191.47A23.527,23.527,0,0,0,322.9,215h18.792a4.432,4.432,0,0,1,4.738-4.64,4.98,4.98,0,0,1,1.414.272l8.81-10.227-6.221,12.1a4.455,4.455,0,0,1,.735,2.5h18.793A23.527,23.527,0,0,0,346.426,191.47Z" fill="#fff"/>
          </g>
        </g>
        <rect id="Rectangle_15" data-name="Rectangle 15" width="65.635" height="65.635" rx="6.772" transform="translate(316.451 171.753)" fill="#fff" opacity="0.2" style="isolation: isolate"/>
      </g>
    </g>
    <g id="Tab3">
      <g id="Group_29" data-name="Group 29">
        <rect id="Rectangle_16" data-name="Rectangle 16" width="68.727" height="68.727" rx="7.091" transform="translate(321.703 113.335)" opacity="0.2" style="isolation: isolate"/>
        <rect id="Rectangle_17" data-name="Rectangle 17" width="57.588" height="57.588" rx="5.942" transform="translate(340.132 107.279)" fill="#640000" style="isolation: isolate"/>
        <g id="Group_28" data-name="Group 28">
          <rect id="Rectangle_18" data-name="Rectangle 18" width="57.588" height="57.588" rx="5.942" transform="translate(340.132 107.279)" fill="#fff" opacity="0.1" style="isolation: isolate"/>
          <g id="Group_27" data-name="Group 27">
            <path id="Path_71" data-name="Path 71" d="M385,121.892A1.892,1.892,0,0,0,383.108,120H354.892A1.892,1.892,0,0,0,353,121.892v6.216A1.892,1.892,0,0,0,354.892,130h28.216A1.892,1.892,0,0,0,385,128.108Zm-9.315,3.366h-1.622v-1.622h1.622Zm4.325.811a1.622,1.622,0,1,1,1.623-1.622A1.622,1.622,0,0,1,380.01,126.069Z" fill="#fff"/>
            <path id="Path_72" data-name="Path 72" d="M385,132.893A1.892,1.892,0,0,0,383.108,131H354.892A1.892,1.892,0,0,0,353,132.893v6.214A1.892,1.892,0,0,0,354.892,141h28.216A1.892,1.892,0,0,0,385,139.107Zm-9.315,3.991h-1.622v-1.623h1.622Zm4.325.811a1.623,1.623,0,1,1,1.623-1.622A1.623,1.623,0,0,1,380.01,137.7Z" fill="#fff"/>
            <path id="Path_73" data-name="Path 73" d="M385,143.892A1.892,1.892,0,0,0,383.108,142H354.892A1.892,1.892,0,0,0,353,143.892v6.216A1.892,1.892,0,0,0,354.892,152h28.216A1.892,1.892,0,0,0,385,150.108Zm-9.315,4.617h-1.622v-1.622h1.622Zm4.325.811a1.622,1.622,0,1,1,1.623-1.622A1.622,1.622,0,0,1,380.01,149.32Z" fill="#fff"/>
          </g>
        </g>
        <rect id="Rectangle_19" data-name="Rectangle 19" width="57.588" height="57.588" rx="5.942" transform="translate(342.566 107.279)" fill="#fff" opacity="0.2" style="isolation: isolate"/>
      </g>
    </g>
    <g id="Tab2">
      <g id="Group_33" data-name="Group 33">
        <rect id="Rectangle_20" data-name="Rectangle 20" width="84.733" height="84.733" rx="8.743" transform="translate(209.612 166.564)" opacity="0.2" style="isolation: isolate"/>
        <rect id="Rectangle_21" data-name="Rectangle 21" width="71" height="71" rx="7.326" transform="translate(229.491 160.567)" fill="#640000" style="isolation: isolate"/>
        <g id="Group_32" data-name="Group 32">
          <rect id="Rectangle_22" data-name="Rectangle 22" width="71" height="71" rx="7.326" transform="translate(229.491 160.567)" fill="#fff" opacity="0.5" style="isolation: isolate"/>
          <g id="Group_31" data-name="Group 31">
            <g id="Group_30" data-name="Group 30">
              <path id="Path_74" data-name="Path 74" d="M245.348,215.56h0a5.549,5.549,0,0,1,0-7.846L258.3,194.765a3.131,3.131,0,0,1,4.427,0l3.42,3.42a3.13,3.13,0,0,1,0,4.426L253.2,215.56A5.548,5.548,0,0,1,245.348,215.56Z" fill="#fff"/>
              <path id="Path_75" data-name="Path 75" d="M269.206,194.247l-2.545-2.545,14.631-14.632,3.182-.637-.637,3.182Z" fill="#fff"/>
              <path id="Path_76" data-name="Path 76" d="M267.774,197.641l-4.506-4.506a1.03,1.03,0,0,1,0-1.458h0a1.03,1.03,0,0,1,1.458,0l4.506,4.506a1.032,1.032,0,0,1,0,1.458h0A1.03,1.03,0,0,1,267.774,197.641Z" fill="#fff"/>
            </g>
            <path id="Path_77" data-name="Path 77" d="M261.708,189.012l-6.172-6.188c1.155-3.091-1.172-6.892-3.7-7.9l-.05,4.764a2.039,2.039,0,0,1-2.025,2.019,2,2,0,0,1-2.02-1.981l.007-4.72a6.579,6.579,0,0,0-4.107,5.755,6.119,6.119,0,0,0,5.339,5.964,5.305,5.305,0,0,0,2.979-.416l6.217,6.234Z" fill="#fff"/>
            <path id="Path_78" data-name="Path 78" d="M282.249,212.484l-.009,4.722a6.574,6.574,0,0,0,4.105-5.753,6.136,6.136,0,0,0-5.206-6.1,4.8,4.8,0,0,0-2.847.285l-6.463-6.48-3.536,3.535,6.417,6.435c-1.863,3.8,1.04,7.023,3.571,8.027l-.016-4.7a1.992,1.992,0,1,1,3.984.022Z" fill="#fff"/>
          </g>
        </g>
        <rect id="Rectangle_23" data-name="Rectangle 23" width="71" height="71" rx="7.326" transform="translate(232.493 160.567)" fill="#fff" opacity="0.2" style="isolation: isolate"/>
      </g>
    </g>
    <g id="Tab1">
      <g id="Group_35" data-name="Group 35">
        <rect id="Rectangle_24" data-name="Rectangle 24" width="85.581" height="85.581" rx="8.83" transform="translate(354.993 147.716) rotate(180)" fill="#640000" style="isolation: isolate"/>
        <rect id="Rectangle_25" data-name="Rectangle 25" width="102.135" height="102.135" rx="10.538" transform="translate(249.665 75.73)" opacity="0.2" style="isolation: isolate"/>
        <g id="Group_34" data-name="Group 34">
          <rect id="Rectangle_26" data-name="Rectangle 26" width="85.581" height="85.581" rx="8.83" transform="translate(354.993 147.716) rotate(180)" fill="#fff" opacity="0.5" style="isolation: isolate"/>
          <path id="Path_79" data-name="Path 79" d="M312.184,78.407,285.967,88.693s3.315,36,26.217,42.751c22.9-6.75,26.217-42.751,26.217-42.751Zm-.669,34.859a1.825,1.825,0,0,1-1.44.734h-.019a1.812,1.812,0,0,1-1.445-.763l-9.191-12.665a1.81,1.81,0,0,1,2.927-2.131l7.759,10.683L322.8,92.382a1.808,1.808,0,0,1,2.533-.348,1.939,1.939,0,0,1,.348,2.641Z" fill="#fff"/>
        </g>
        <rect id="Rectangle_27" data-name="Rectangle 27" width="85.581" height="85.581" rx="8.83" transform="translate(358.612 147.716) rotate(180)" fill="#fff" opacity="0.2" style="isolation: isolate"/>
      </g>
    </g>
    <g id="Promt2">
      <g id="Group_38" data-name="Group 38">
        <g id="Group_36" data-name="Group 36">
          <rect id="Rectangle_28" data-name="Rectangle 28" width="85.248" height="57.529" transform="translate(347.806 284.927)" fill="#640000"/>
          <rect id="Rectangle_29" data-name="Rectangle 29" width="85.248" height="57.529" transform="translate(347.806 284.927)" fill="#fff" opacity="0.7" style="isolation: isolate"/>
        </g>
        <rect id="Rectangle_30" data-name="Rectangle 30" width="81.868" height="51.177" transform="translate(349.389 289.364)" fill="#263238"/>
        <g id="Group_37" data-name="Group 37">
          <rect id="Rectangle_31" data-name="Rectangle 31" width="67.309" height="1.5" transform="translate(353.139 297.291)" fill="#e0e0e0"/>
          <rect id="Rectangle_32" data-name="Rectangle 32" width="57.303" height="1.5" transform="translate(353.139 301.541)" fill="#e0e0e0"/>
          <rect id="Rectangle_33" data-name="Rectangle 33" width="67.309" height="1.5" transform="translate(353.139 305.791)" fill="#e0e0e0"/>
          <rect id="Rectangle_34" data-name="Rectangle 34" width="57.303" height="1.5" transform="translate(353.139 310.041)" fill="#e0e0e0"/>
          <rect id="Rectangle_35" data-name="Rectangle 35" width="7.272" height="1.5" transform="translate(353.139 314.291)" fill="#e0e0e0"/>
          <rect id="Rectangle_36" data-name="Rectangle 36" width="37.291" height="1.5" transform="translate(353.139 318.541)" fill="#e0e0e0"/>
          <rect id="Rectangle_37" data-name="Rectangle 37" width="57.303" height="1.5" transform="translate(353.139 322.791)" fill="#e0e0e0"/>
          <rect id="Rectangle_38" data-name="Rectangle 38" width="7.272" height="1.5" transform="translate(353.139 327.041)" fill="#e0e0e0"/>
          <rect id="Rectangle_39" data-name="Rectangle 39" width="7.272" height="1.5" transform="translate(353.139 331.291)" fill="#e0e0e0"/>
        </g>
      </g>
    </g>
    <g id="Promt1">
      <g id="Group_41" data-name="Group 41">
        <g id="Group_39" data-name="Group 39">
          <rect id="Rectangle_40" data-name="Rectangle 40" width="85.248" height="57.529" transform="translate(101.982 165.235)" fill="#640000"/>
          <rect id="Rectangle_41" data-name="Rectangle 41" width="85.248" height="57.529" transform="translate(101.982 165.235)" fill="#fff" opacity="0.7" style="isolation: isolate"/>
        </g>
        <rect id="Rectangle_42" data-name="Rectangle 42" width="81.868" height="51.177" transform="translate(103.565 169.672)" fill="#263238"/>
        <g id="Group_40" data-name="Group 40">
          <rect id="Rectangle_43" data-name="Rectangle 43" width="67.31" height="1.5" transform="translate(107.315 177.599)" fill="#e0e0e0"/>
          <rect id="Rectangle_44" data-name="Rectangle 44" width="57.303" height="1.5" transform="translate(107.315 181.849)" fill="#e0e0e0"/>
          <rect id="Rectangle_45" data-name="Rectangle 45" width="67.31" height="1.5" transform="translate(107.315 186.099)" fill="#e0e0e0"/>
          <rect id="Rectangle_46" data-name="Rectangle 46" width="57.303" height="1.5" transform="translate(107.315 190.349)" fill="#e0e0e0"/>
          <rect id="Rectangle_47" data-name="Rectangle 47" width="7.272" height="1.5" transform="translate(107.315 194.599)" fill="#e0e0e0"/>
          <rect id="Rectangle_48" data-name="Rectangle 48" width="37.291" height="1.5" transform="translate(107.315 198.849)" fill="#e0e0e0"/>
          <rect id="Rectangle_49" data-name="Rectangle 49" width="57.303" height="1.5" transform="translate(107.315 203.099)" fill="#e0e0e0"/>
          <rect id="Rectangle_50" data-name="Rectangle 50" width="7.272" height="1.5" transform="translate(107.315 207.349)" fill="#e0e0e0"/>
          <rect id="Rectangle_51" data-name="Rectangle 51" width="7.272" height="1.5" transform="translate(107.315 211.599)" fill="#e0e0e0"/>
        </g>
      </g>
    </g>
  </g>
</svg>
