<svg xmlns="http://www.w3.org/2000/svg" width="442.333" height="393.667" viewBox="0 0 442.333 393.667">
  <g id="Group_72" data-name="Group 72" transform="translate(-28.834 -47.639)">
    <g id="Background_Complete" data-name="Background Complete">
      <g id="Group_5" data-name="Group 5">
        <g id="Group_2" data-name="Group 2">
          <rect id="Rectangle_1" data-name="Rectangle 1" width="302.106" height="184.695" transform="translate(60.564 104.037)" fill="#fff" stroke="#e0e0e0" stroke-miterlimit="10" stroke-width="1"/>
          <line id="Line_1" data-name="Line 1" x2="302.106" transform="translate(60.564 127.969)" fill="none" stroke="#e0e0e0" stroke-miterlimit="10" stroke-width="1"/>
          <g id="Group_1" data-name="Group 1">
            <path id="Path_1" data-name="Path 1" d="M81.911,116.764a5.724,5.724,0,1,1-5.723-5.724A5.723,5.723,0,0,1,81.911,116.764Z" fill="#e0e0e0"/>
            <path id="Path_2" data-name="Path 2" d="M105.283,116.764a5.723,5.723,0,1,1-5.724-5.724A5.723,5.723,0,0,1,105.283,116.764Z" fill="#f0f0f0"/>
            <path id="Path_3" data-name="Path 3" d="M128.654,116.764a5.724,5.724,0,1,1-5.724-5.724A5.724,5.724,0,0,1,128.654,116.764Z" fill="#f5f5f5"/>
          </g>
        </g>
        <g id="Group_4" data-name="Group 4">
          <g id="Group_3" data-name="Group 3">
            <rect id="Rectangle_2" data-name="Rectangle 2" width="16.101" height="4.441" transform="translate(77.96 174.208)" fill="#e6e6e6"/>
            <rect id="Rectangle_3" data-name="Rectangle 3" width="109.336" height="4.441" transform="translate(105.796 174.208)" fill="#e6e6e6"/>
            <rect id="Rectangle_4" data-name="Rectangle 4" width="30.584" height="4.441" transform="translate(225.026 174.208)" fill="#e6e6e6"/>
            <rect id="Rectangle_5" data-name="Rectangle 5" width="30.584" height="4.441" transform="translate(294.979 233.638)" fill="#e6e6e6"/>
            <rect id="Rectangle_6" data-name="Rectangle 6" width="52.87" height="4.441" transform="translate(262.259 174.208)" fill="#e6e6e6"/>
            <rect id="Rectangle_7" data-name="Rectangle 7" width="16.101" height="4.441" transform="translate(94.062 186.094)" fill="#e6e6e6"/>
            <rect id="Rectangle_8" data-name="Rectangle 8" width="70.969" height="4.441" transform="translate(121.494 186.094)" fill="#e6e6e6"/>
            <rect id="Rectangle_9" data-name="Rectangle 9" width="70.969" height="4.441" transform="translate(216.746 233.638)" fill="#e6e6e6"/>
            <rect id="Rectangle_10" data-name="Rectangle 10" width="65.533" height="4.441" transform="translate(105.796 221.752)" fill="#e6e6e6"/>
            <rect id="Rectangle_11" data-name="Rectangle 11" width="30.979" height="4.441" transform="translate(121.494 197.98)" fill="#e6e6e6"/>
            <rect id="Rectangle_12" data-name="Rectangle 12" width="30.979" height="4.441" transform="translate(245.478 209.866)" fill="#e6e6e6"/>
            <rect id="Rectangle_13" data-name="Rectangle 13" width="104.581" height="4.441" transform="translate(161.484 197.98)" fill="#e6e6e6"/>
            <rect id="Rectangle_14" data-name="Rectangle 14" width="104.581" height="4.441" transform="translate(105.796 233.638)" fill="#e6e6e6"/>
            <rect id="Rectangle_15" data-name="Rectangle 15" width="83.903" height="4.441" transform="translate(258.849 186.094)" fill="#e6e6e6"/>
            <rect id="Rectangle_16" data-name="Rectangle 16" width="52.127" height="4.441" transform="translate(200.073 186.094)" fill="#e6e6e6"/>
            <rect id="Rectangle_17" data-name="Rectangle 17" width="52.127" height="4.441" transform="translate(272.161 197.98)" fill="#e6e6e6"/>
            <rect id="Rectangle_18" data-name="Rectangle 18" width="16.101" height="4.441" transform="translate(94.062 197.98)" fill="#e6e6e6"/>
            <rect id="Rectangle_19" data-name="Rectangle 19" width="16.101" height="4.441" transform="translate(77.96 209.866)" fill="#e6e6e6"/>
            <rect id="Rectangle_20" data-name="Rectangle 20" width="44.919" height="4.441" transform="translate(105.796 209.866)" fill="#e6e6e6"/>
            <rect id="Rectangle_21" data-name="Rectangle 21" width="44.919" height="4.441" transform="translate(121.494 245.524)" fill="#e6e6e6"/>
            <rect id="Rectangle_22" data-name="Rectangle 22" width="72.345" height="4.441" transform="translate(223.571 257.409)" fill="#e6e6e6"/>
            <rect id="Rectangle_23" data-name="Rectangle 23" width="70.307" height="4.441" transform="translate(174.137 245.524)" fill="#e6e6e6"/>
            <rect id="Rectangle_24" data-name="Rectangle 24" width="57.945" height="4.441" transform="translate(157.306 257.409)" fill="#e6e6e6"/>
            <rect id="Rectangle_25" data-name="Rectangle 25" width="90.051" height="4.441" transform="translate(252.701 245.524)" fill="#e6e6e6"/>
            <rect id="Rectangle_26" data-name="Rectangle 26" width="27.553" height="4.441" transform="translate(121.494 257.409)" fill="#e6e6e6"/>
            <rect id="Rectangle_27" data-name="Rectangle 27" width="77.729" height="4.441" transform="translate(177.881 221.752)" fill="#e6e6e6"/>
            <rect id="Rectangle_28" data-name="Rectangle 28" width="65.44" height="4.441" transform="translate(262.259 221.752)" fill="#e6e6e6"/>
            <rect id="Rectangle_29" data-name="Rectangle 29" width="77.605" height="4.441" transform="translate(160.389 209.866)" fill="#e6e6e6"/>
            <rect id="Rectangle_30" data-name="Rectangle 30" width="16.101" height="4.441" transform="translate(77.96 221.752)" fill="#e6e6e6"/>
            <rect id="Rectangle_31" data-name="Rectangle 31" width="16.101" height="4.441" transform="translate(77.96 233.638)" fill="#e6e6e6"/>
            <rect id="Rectangle_32" data-name="Rectangle 32" width="16.101" height="4.441" transform="translate(94.062 245.524)" fill="#e6e6e6"/>
            <rect id="Rectangle_33" data-name="Rectangle 33" width="16.101" height="4.441" transform="translate(94.062 257.409)" fill="#e6e6e6"/>
          </g>
          <text id="_" data-name="&lt;/&gt;" transform="translate(77.232 165.146)" fill="#e0e0e0" font-size="22.109" font-family="SegoeUI, Segoe UI"><tspan x="0" y="0">&lt;/&gt;</tspan></text>
        </g>
      </g>
      <g id="Group_7" data-name="Group 7">
        <path id="Path_4" data-name="Path 4" d="M39.922,269.821H75.2a8.16,8.16,0,0,1,8.16,8.16V313.2l-8.3-7.618H39.922a8.16,8.16,0,0,1-8.16-8.16V277.981A8.161,8.161,0,0,1,39.922,269.821Z" fill="#fff" stroke="#eaeaea" stroke-miterlimit="10" stroke-width="1"/>
        <g id="Group_6" data-name="Group 6">
          <path id="Path_5" data-name="Path 5" d="M65.631,288.348a3.548,3.548,0,1,0,3.548-3.548A3.548,3.548,0,0,0,65.631,288.348Z" fill="#eaeaea"/>
          <circle id="Ellipse_1" data-name="Ellipse 1" cx="3.548" cy="3.548" r="3.548" transform="translate(53.289 284.8)" fill="#eaeaea"/>
          <circle id="Ellipse_2" data-name="Ellipse 2" cx="3.548" cy="3.548" r="3.548" transform="translate(40.947 284.8)" fill="#eaeaea"/>
        </g>
      </g>
      <path id="Path_6" data-name="Path 6" d="M408.127,76.549a7.88,7.88,0,0,1-7.293,7.857v.022h-44.62a9.261,9.261,0,0,1-.866-18.481,15.6,15.6,0,0,1,30.237-4.879,9.147,9.147,0,0,1,4.14-.979,9.257,9.257,0,0,1,9.243,8.687,7.7,7.7,0,0,1,1.281-.105A7.879,7.879,0,0,1,408.127,76.549Z" fill="#f0f0f0"/>
      <g id="Group_8" data-name="Group 8">
        <rect id="Rectangle_34" data-name="Rectangle 34" width="52.415" height="36.076" rx="7.026" transform="translate(390.197 249.846)" fill="#f0f0f0"/>
        <text id="_2" data-name="&lt;/&gt;" transform="translate(398.833 272.757)" fill="#fff" font-size="19.509" font-family="SegoeUI, Segoe UI"><tspan x="0" y="0">&lt;/&gt;</tspan></text>
      </g>
      <text id="_3" data-name="{}" transform="translate(369.722 229.366)" fill="#e6e6e6" font-size="23.333" font-family="SegoeUI, Segoe UI"><tspan x="0" y="0">{}</tspan></text>
      <text id="_4" data-name="{}" transform="translate(71.523 67.639)" fill="#e6e6e6" font-size="18.319" font-family="SegoeUI, Segoe UI"><tspan x="0" y="0">{}</tspan></text>
    </g>
    <g id="Screens">
      <g id="Group_10" data-name="Group 10">
        <path id="Rectangle_35" data-name="Rectangle 35" d="M8.31,0H115.165a8.31,8.31,0,0,1,8.31,8.31V85.953a8.309,8.309,0,0,1-8.309,8.309H8.31A8.31,8.31,0,0,1,0,85.953V8.31A8.31,8.31,0,0,1,8.31,0Z" transform="translate(127.905 64.342)" fill="#4d5a64"/>
        <text id="_5" data-name="&lt;/&gt;" transform="translate(210.298 89.243)" fill="#fafafa" font-size="14.851" font-family="SegoeUI, Segoe UI"><tspan x="0" y="0">&lt;/&gt;</tspan></text>
        <g id="Group_9" data-name="Group 9">
          <line id="Line_2" data-name="Line 2" x2="32.869" transform="translate(165.233 85.356)" fill="none" stroke="#fafafa" stroke-miterlimit="10" stroke-width="0.5"/>
          <line id="Line_3" data-name="Line 3" x2="95.217" transform="translate(139.353 98.224)" fill="none" stroke="#fafafa" stroke-miterlimit="10" stroke-width="0.5"/>
          <line id="Line_4" data-name="Line 4" x2="10.816" transform="translate(223.754 113.374)" fill="none" stroke="#fafafa" stroke-miterlimit="10" stroke-width="0.5"/>
          <line id="Line_5" data-name="Line 5" x2="45.581" transform="translate(166.392 113.374)" fill="none" stroke="#fafafa" stroke-miterlimit="10" stroke-width="0.5"/>
          <line id="Line_6" data-name="Line 6" x2="95.217" transform="translate(139.353 125.917)" fill="none" stroke="#fafafa" stroke-miterlimit="10" stroke-width="0.5"/>
          <line id="Line_7" data-name="Line 7" x2="27.812" transform="translate(206.758 139.763)" fill="none" stroke="#fafafa" stroke-miterlimit="10" stroke-width="0.5"/>
          <line id="Line_8" data-name="Line 8" x2="31.71" transform="translate(166.392 139.763)" fill="none" stroke="#fafafa" stroke-miterlimit="10" stroke-width="0.5"/>
        </g>
      </g>
      <g id="Group_15" data-name="Group 15">
        <g id="Group_14" data-name="Group 14">
          <g id="Group_12" data-name="Group 12">
            <g id="Group_11" data-name="Group 11">
              <path id="Path_8" data-name="Path 8" d="M252.684,212.907H180.645v40.538h72.039Z" fill="#fafafa" stroke="#640000" stroke-miterlimit="10" stroke-width="1"/>
            </g>
          </g>
          <g id="Group_13" data-name="Group 13">
            <path id="Path_9" data-name="Path 9" d="M187.5,216.61a1.837,1.837,0,1,1-1.837-1.837A1.837,1.837,0,0,1,187.5,216.61Z" fill="#640000"/>
            <path id="Path_10" data-name="Path 10" d="M195,216.61a1.837,1.837,0,1,1-1.837-1.837A1.838,1.838,0,0,1,195,216.61Z" fill="#640000"/>
            <path id="Path_11" data-name="Path 11" d="M202.5,216.61a1.837,1.837,0,1,1-1.837-1.837A1.837,1.837,0,0,1,202.5,216.61Z" fill="#640000"/>
          </g>
        </g>
        <text id="HTML" transform="translate(190.812 240.974)" fill="#640000" font-size="22.313" font-family="SegoeUI, Segoe UI"><tspan x="0" y="0">HTML</tspan></text>
        <line id="Line_9" data-name="Line 9" x2="72.04" transform="translate(180.645 220.206)" fill="none" stroke="#640000" stroke-miterlimit="10" stroke-width="1"/>
      </g>
      <g id="Group_20" data-name="Group 20" transform="translate(0 1)">
        <g id="Group_19" data-name="Group 19">
          <g id="Group_17" data-name="Group 17">
            <g id="Group_16" data-name="Group 16">
              <path id="Path_12" data-name="Path 12" d="M139.549,79.414H90.134v33.334h49.415Z" fill="#fafafa" stroke="#640000" stroke-miterlimit="10" stroke-width="1"/>
            </g>
          </g>
          <g id="Group_18" data-name="Group 18">
            <circle id="Ellipse_4" data-name="Ellipse 4" cx="1.511" cy="1.511" r="1.511" transform="translate(92.747 80.948)" fill="#640000"/>
            <path id="Path_13" data-name="Path 13" d="M101.936,82.459a1.51,1.51,0,1,1-1.51-1.511A1.51,1.51,0,0,1,101.936,82.459Z" fill="#640000"/>
            <path id="Path_14" data-name="Path 14" d="M108.105,82.459a1.511,1.511,0,1,1-1.511-1.511A1.511,1.511,0,0,1,108.105,82.459Z" fill="#640000"/>
          </g>
        </g>
        <text id="JS" transform="translate(105.494 105.137)" fill="#640000" font-size="20.35" font-family="SegoeUI, Segoe UI"><tspan x="0" y="0">JS</tspan></text>
        <line id="Line_10" data-name="Line 10" x2="49.416" transform="translate(90.134 85.416)" fill="none" stroke="#640000" stroke-miterlimit="10" stroke-width="1"/>
      </g>
      <g id="Group_27" data-name="Group 27">
        <g id="Group_26" data-name="Group 26">
          <g id="Group_24" data-name="Group 24">
            <g id="Group_21" data-name="Group 21">
              <path id="Path_15" data-name="Path 15" d="M468.087,128.426H372.521v60.358h95.566" fill="#640000"/>
            </g>
            <g id="Group_23" data-name="Group 23">
              <rect id="Rectangle_36" data-name="Rectangle 36" width="95.565" height="11.529" transform="translate(372.521 128.426)" fill="#640000"/>
              <g id="Group_22" data-name="Group 22" opacity="0.2">
                <rect id="Rectangle_37" data-name="Rectangle 37" width="95.565" height="11.529" transform="translate(372.521 128.426)"/>
              </g>
            </g>
          </g>
          <g id="Group_25" data-name="Group 25">
            <path id="Path_16" data-name="Path 16" d="M383.344,134.275a2.9,2.9,0,1,1-2.9-2.9A2.9,2.9,0,0,1,383.344,134.275Z" fill="#e0e0e0"/>
            <path id="Path_17" data-name="Path 17" d="M395.192,134.275a2.9,2.9,0,1,1-2.9-2.9A2.9,2.9,0,0,1,395.192,134.275Z" fill="#f0f0f0"/>
            <path id="Path_18" data-name="Path 18" d="M407.04,134.275a2.9,2.9,0,1,1-2.9-2.9A2.9,2.9,0,0,1,407.04,134.275Z" fill="#fafafa"/>
          </g>
        </g>
        <text id="React" transform="translate(386.581 172.756)" fill="#fafafa" font-size="30.24" font-family="SegoeUI, Segoe UI"><tspan x="0" y="0">React</tspan></text>
      </g>
      <g id="Group_34" data-name="Group 34">
        <g id="Group_33" data-name="Group 33">
          <g id="Group_31" data-name="Group 31">
            <g id="Group_28" data-name="Group 28">
              <path id="Path_19" data-name="Path 19" d="M122.059,169.675H42.947v49.966h79.112" fill="#640000"/>
            </g>
            <g id="Group_30" data-name="Group 30">
              <rect id="Rectangle_38" data-name="Rectangle 38" width="79.112" height="9.544" transform="translate(42.947 169.675)" fill="#640000"/>
              <g id="Group_29" data-name="Group 29" opacity="0.2">
                <rect id="Rectangle_39" data-name="Rectangle 39" width="79.112" height="9.544" transform="translate(42.947 169.675)"/>
              </g>
            </g>
          </g>
          <g id="Group_32" data-name="Group 32">
            <path id="Path_20" data-name="Path 20" d="M51.906,174.517a2.4,2.4,0,1,1-2.4-2.4A2.4,2.4,0,0,1,51.906,174.517Z" fill="#e0e0e0"/>
            <path id="Path_21" data-name="Path 21" d="M61.714,174.517a2.4,2.4,0,1,1-2.4-2.4A2.4,2.4,0,0,1,61.714,174.517Z" fill="#f0f0f0"/>
            <path id="Path_22" data-name="Path 22" d="M71.523,174.517a2.4,2.4,0,1,1-2.4-2.4A2.4,2.4,0,0,1,71.523,174.517Z" fill="#fafafa"/>
          </g>
        </g>
        <text id="CSS" transform="translate(56.241 206.373)" fill="#fafafa" font-size="29.175" font-family="SegoeUI, Segoe UI"><tspan x="0" y="0">CSS</tspan></text>
      </g>
    </g>
    <g id="Desk">
      <line id="Line_11" data-name="Line 11" x2="442.333" transform="translate(28.834 407.202)" fill="none" stroke="#263238" stroke-miterlimit="10" stroke-width="1"/>
    </g>
    <g id="Character">
      <g id="Group_62" data-name="Group 62">
        <g id="Group_41" data-name="Group 41">
          <g id="Group_36" data-name="Group 36">
            <path id="Path_23" data-name="Path 23" d="M197.8,267.721c-1.995-3.215-3.325-9.419-2.66-15.405s.886-15.073-6.651-15.517-10.086,14.742-10.529,17.956-13.855,5.209-24.607,1.862-30.812-7.182-39.649-4.966-5.559,9.931-5.559,9.931l.017.008c-6.1,4.288.6,9.717.6,9.717-6.207,5.615.69,11.547,5.074,12.128h0a4.44,4.44,0,0,0-.049,1.763c1.182,6.5,28.078,4.138,43.448,10.936s26.01,35.469,26.01,35.469l32.07-38.5S199.8,270.937,197.8,267.721Z" fill="#fff"/>
            <g id="Group_35" data-name="Group 35">
              <path id="Path_24" data-name="Path 24" d="M145.711,268.351s-30.739-2.66-36.946,2.956.69,11.547,5.074,12.128" fill="none" stroke="#263238" stroke-miterlimit="10" stroke-width="1"/>
              <path id="Path_25" data-name="Path 25" d="M145.711,261.553s-23.2-6.207-34.729-1.478c-10.7,4.388-2.217,11.232-2.217,11.232" fill="none" stroke="#263238" stroke-miterlimit="10" stroke-width="1"/>
              <path id="Path_26" data-name="Path 26" d="M108.15,261.582s-3.279-7.714,5.558-9.931,28.9,1.618,39.651,4.965,24.162,1.353,24.606-1.861,2.992-18.4,10.529-17.956,7.316,9.532,6.651,15.517.665,12.19,2.66,15.405,17.512,25.384,17.512,25.384l-32.069,38.5s-10.64-28.67-26.01-35.468S114.972,291.7,113.79,285.2s10.64-9.458,28.67-7.389" fill="none" stroke="#263238" stroke-miterlimit="10" stroke-width="1"/>
            </g>
          </g>
          <g id="Group_38" data-name="Group 38">
            <path id="Path_27" data-name="Path 27" d="M170.518,318.023l48.327-27.857s41.866,75.62,95.856,95.112l-64.31,24.278-51.609-3.313S178.259,362.953,170.518,318.023Z" fill="#640000"/>
            <g id="Group_37" data-name="Group 37" opacity="0.3">
              <path id="Path_28" data-name="Path 28" d="M170.518,318.023l48.327-27.857s41.866,75.62,95.856,95.112l-64.31,24.278-51.609-3.313S178.259,362.953,170.518,318.023Z" fill="#fff"/>
            </g>
          </g>
          <g id="Group_39" data-name="Group 39">
            <path id="Path_29" data-name="Path 29" d="M314.242,385.1c-.334-.123-.667-.251-1-.378v1.1l1-.378Z" fill="#fafafa"/>
            <path id="Path_30" data-name="Path 30" d="M293.272,377.892v15.476l1-.378v-15.1h4.665c-.575-.33-1.15-.66-1.721-1h-2.944v-1.814q-.5-.316-1-.638v2.452H274.3v-17q-.5-.445-1-.894v17.9h-18.97v-19.9H271.11q-.538-.5-1.072-1H254.332V339.683c-.334-.38-.67-.76-1-1.14v17.451h-18.97V336.1h16.869c-.284-.334-.564-.667-.844-1H234.362V315.2h.632q-.837-1.174-1.632-2.31v1.31h-18.97V294.3h6.862c-.214-.356-.41-.686-.6-1h-6.266v-.567l-2.718,1.567h1.718v19.9h-18.97v-9.954l-1,.576V314.2H177.155l-1.735,1h18v19.9H174.453v-19.34l-1,.576v16.232q.486,2.118,1,4.216V336.1h18.969v19.9H179.761q.153.5.308,1h13.353v19.9h-6.638q.185.5.367,1h6.271v16.064q.521,1.256,1,2.4V377.892h18.97v19.9h-18.36q.218.514.427,1h17.933v8.392l1,.064v-8.456h18.97v9.674l1,.064v-9.738h18.97v9.657l1-.377v-9.28H273.3v2.118l1-.378v-1.74h4.609l2.649-1H274.3v-19.9Zm-79.88-1h-18.97v-19.9h18.97Zm0-20.9h-18.97V336.1h18.97Zm0-20.9h-18.97V315.2h18.97Zm19.97,62.694h-18.97v-19.9h18.97Zm0-20.9h-18.97v-19.9h18.97Zm0-20.9h-18.97V336.1h18.97Zm0-20.9h-18.97V315.2h18.97Zm19.97,62.694h-18.97v-19.9h18.97Zm0-20.9h-18.97v-19.9h18.97Zm19.97,20.9h-18.97v-19.9H273.3Z" fill="#fafafa"/>
          </g>
          <g id="Group_40" data-name="Group 40">
            <path id="Path_31" data-name="Path 31" d="M170.518,318.023l48.327-27.857s41.866,75.62,95.856,95.112l-64.31,24.278-51.609-3.313S178.259,362.953,170.518,318.023Z" fill="none" stroke="#263238" stroke-miterlimit="10" stroke-width="1"/>
          </g>
          <line id="Line_12" data-name="Line 12" y1="29.03" x2="55.017" transform="translate(174.785 308.369)" fill="none" stroke="#263238" stroke-miterlimit="10" stroke-width="1"/>
          <path id="Path_32" data-name="Path 32" d="M220.783,303.881a4.118,4.118,0,1,1-4.119-4.118A4.119,4.119,0,0,1,220.783,303.881Z" fill="#263238"/>
        </g>
        <g id="Group_61" data-name="Group 61">
          <g id="Group_44" data-name="Group 44">
            <g id="Group_43" data-name="Group 43">
              <path id="Path_33" data-name="Path 33" d="M375.014,334.416s12.892,34-34.418,46.031-103,9.933-103,9.933-5.659.078-5.319-14.752-.332-44.123,18.721-76.492,30.9-44.21,40.563-47.9c3.361-1.284,26.682-3.229,39.568,4.232C355.274,269.448,373.92,302.261,375.014,334.416Z" fill="#640000"/>
              <g id="Group_42" data-name="Group 42" opacity="0.3">
                <path id="Path_34" data-name="Path 34" d="M375.014,334.416s12.892,34-34.418,46.031-103,9.933-103,9.933-5.659.078-5.319-14.752-.332-44.123,18.721-76.492,30.9-44.21,40.563-47.9c3.361-1.284,26.682-3.229,39.568,4.232C355.274,269.448,373.92,302.261,375.014,334.416Z" fill="#fff"/>
              </g>
            </g>
            <path id="Path_35" data-name="Path 35" d="M360.237,353.027h15.279c.091-.335.177-.669.255-1H360.237v-19.9H374.9c-.02-.333-.037-.666-.06-1h-14.6v-19.9H371.3c-.094-.334-.186-.668-.283-1H360.237v-19.9h2.672c-.178-.335-.361-.667-.541-1h-2.131V285.57c-.327-.547-.665-1.083-1-1.623v5.385h-18.97v-19.9h7.979c-.312-.338-.63-.668-.946-1h-7.033v-6.569c-.331-.274-.665-.54-1-.806v7.375H320.3V251.548c-.332-.072-.665-.139-1-.2v17.09H300.328V250.11c-.34.016-.674.033-1,.053v18.271h-18.97v-9.759c-.33.306-.663.619-1,.945v8.814h-7.9c-.263.328-.527.66-.793,1h8.7v19.9H260.387v-5.4c-.332.509-.662,1.013-1,1.537v3.866h-2.45c-.208.334-.415.661-.626,1h3.076v19.9H245.15c-.156.333-.319.668-.471,1h14.708v19.9H240.418v-9.41q-.522,1.464-1,2.909v6.5h-1.966c-.092.336-.175.667-.263,1h2.229v19.9h-5.939c-.037.334-.076.669-.111,1h6.05v19.9h-7.093q-.009.51-.018,1h7.111v16.508l1,.021V373.924h18.969v16.447l1-.027v-16.42h18.971v15.54l1-.068V373.924h18.97V387.7l1-.113V373.924H319.3V384.9l1-.169v-10.81h18.97v6.854c.334-.083.667-.165,1-.249v-6.6h17.456q1.313-.725,2.514-1.48Zm-100.85,19.9H240.418v-19.9h18.969Zm0-20.9H240.418v-19.9h18.969Zm19.971,20.9H260.387v-19.9h18.971Zm0-20.9H260.387v-19.9h18.971Zm0-20.9H260.387v-19.9h18.971Zm0-20.9H260.387v-19.9h18.971Zm19.97,62.694h-18.97v-19.9h18.97Zm0-20.9h-18.97v-19.9h18.97Zm0-20.9h-18.97v-19.9h18.97Zm0-20.9h-18.97v-19.9h18.97Zm0-20.9h-18.97v-19.9h18.97ZM319.3,372.924H300.328v-19.9H319.3Zm0-20.9H300.328v-19.9H319.3Zm0-20.9H300.328v-19.9H319.3Zm0-20.9H300.328v-19.9H319.3Zm0-20.9H300.328v-19.9H319.3Zm19.97,83.592H320.3v-19.9h18.97Zm0-20.9H320.3v-19.9h18.97Zm0-20.9H320.3v-19.9h18.97Zm0-20.9H320.3v-19.9h18.97Zm0-20.9H320.3v-19.9h18.97Zm19.97,83.592h-18.97v-19.9h18.97Zm0-20.9h-18.97v-19.9h18.97Zm0-20.9h-18.97v-19.9h18.97Zm0-20.9h-18.97v-19.9h18.97Z" fill="#fafafa"/>
            <path id="Path_36" data-name="Path 36" d="M288.09,251.234S223.005,306.429,233.4,388.1" fill="none" stroke="#263238" stroke-miterlimit="10" stroke-width="1"/>
          </g>
          <g id="Group_45" data-name="Group 45">
            <path id="Path_37" data-name="Path 37" d="M332.825,369.831l3.711,51.747-61.63-6.157a11.272,11.272,0,0,0-10.641,2.753c-4.686,4.593-4.6,7.063-4.969,8.633s-1.749,7.414-4.48,10.483-5,2.957-6.966.963l-1.961-1.995s-.773-.4-1.822.63-3.76,2.231-5.252.18-1.553-1.813-1.553-1.813-.469-.868-1.321-.027-4.59,2.276-6.526-.034a22.432,22.432,0,0,1-2.708-3.854,2.772,2.772,0,0,0-1.728.26c-1.156.454-5.907,1.6-8.513-4.025s-1.032-14.148,0-19.74,5.816-17.721,10.156-22.625,12.545-10.583,21.122-12.007,32.446-2.382,42.515-2.625S332.825,369.831,332.825,369.831Z" fill="#fff"/>
            <path id="Path_38" data-name="Path 38" d="M254.827,400.2s-9.036,15.933-10.674,24.686,3.306,15.024,6.165,14.835,6.9-3.137,8.67-11.632,7.539-12.844,11.766-12.933,68.975,6.756,68.975,6.756" fill="none" stroke="#263238" stroke-miterlimit="10" stroke-width="1"/>
            <path id="Path_39" data-name="Path 39" d="M243.528,398.1s-7.451,17.071-8.175,26,3.347,13.853,5.305,14.137,4.891-2.575,4.891-2.575" fill="none" stroke="#263238" stroke-miterlimit="10" stroke-width="1"/>
            <path id="Path_40" data-name="Path 40" d="M233.637,391.8s-8.121,16.109-8.642,25.424,1.308,15.912,4.872,18.31S237,434.406,237,434.406" fill="none" stroke="#263238" stroke-miterlimit="10" stroke-width="1"/>
            <path id="Path_41" data-name="Path 41" d="M334.494,369.817s-61.555.469-81.484,2.577-28.484,13.022-33,24.112-6.033,25.685-3.392,30.714c4.532,8.627,9.682,3.451,9.682,3.451" fill="none" stroke="#263238" stroke-miterlimit="10" stroke-width="1"/>
          </g>
          <g id="Group_49" data-name="Group 49">
            <g id="Group_48" data-name="Group 48">
              <g id="Group_47" data-name="Group 47">
                <path id="Path_42" data-name="Path 42" d="M339.359,299.763s34.632,30.418,29.795,50.1-83.9,17.78-83.9,17.78V423.6s34.682-.778,64.4,3.144c34.761,4.588,89.484-8.316,95.006-49.5S416.415,261.52,325.018,249.2Z" fill="#640000"/>
                <g id="Group_46" data-name="Group 46" opacity="0.3">
                  <path id="Path_43" data-name="Path 43" d="M339.359,299.763s34.632,30.418,29.795,50.1-83.9,17.78-83.9,17.78V423.6s34.682-.778,64.4,3.144c34.761,4.588,89.484-8.316,95.006-49.5S416.415,261.52,325.018,249.2Z" fill="#fff"/>
                </g>
              </g>
              <path id="Path_44" data-name="Path 44" d="M440.117,372.924v-19.9h3.721q-.089-.5-.184-1h-3.537V338.306q-.477-1.455-1-2.916v16.637h-18.97v-19.9H437.9c-.131-.333-.266-.666-.4-1H420.147v-19.9h7.145q-.315-.5-.637-1h-6.508v-9.165c-.332-.426-.661-.853-1-1.276V310.23H400.176v-19.9H410.8q-.489-.5-.987-1h-9.635v-8.76c-.332-.273-.664-.546-1-.816v9.576H380.207v-19.9h4.2c-.555-.335-1.108-.671-1.671-1h-2.526v-1.442c-.331-.184-.667-.363-1-.544v1.986h-18.97v-10.6c-.33-.122-.668-.237-1-.357v10.958h-18.97v-16.49q-.5-.112-1-.221v16.711h-8.793l.283,1h8.51v19.9H336.4l.283,1h2.583v9.108l.092.323s.327.288.908.82V290.332h18.97v19.9h-9.355c.3.328.6.66.91,1h8.445v10.348q.506.7,1,1.4V311.23h18.97v19.9H365.258q.263.5.512,1h13.437v19.9h-10.94a9.953,9.953,0,0,1-.653,1h11.593v19.9h-18.97V358.513c-.327.156-.659.31-1,.461v13.95h-18.97v-8.753c-.332.058-.666.113-1,.169v8.584H320.3v-6.346c-.333.027-.667.053-1,.078v6.268H300.328v-5.348l-1,.023v5.325H285.25v1h14.078v19.9H285.25v1h14.078v19.9H285.25v1h14.078v7.858l1,.013v-7.871H319.3v8.446l1,.05v-8.5h18.97v9.853l1,.1v-9.951h18.97V427.54q.5.02,1,.035V415.721h18.97v10.913c.333-.042.666-.082,1-.127V415.721h18.969v6.662c.335-.1.667-.211,1-.317v-6.345H415.4q.92-.489,1.82-1H400.176v-19.9h18.971v18.771q.5-.3,1-.616V394.823h18.4q.832-1.391,1.569-2.847V373.924h4.891c.027-.332.053-.664.075-1Zm-80.88-83.592h-18.97v-19.9h18.97ZM319.3,414.721H300.328v-19.9H319.3Zm0-20.9H300.328v-19.9H319.3Zm19.97,20.9H320.3v-19.9h18.97Zm0-20.9H320.3v-19.9h18.97Zm19.97,20.9h-18.97v-19.9h18.97Zm0-20.9h-18.97v-19.9h18.97Zm19.97,20.9h-18.97v-19.9h18.97Zm0-20.9h-18.97v-19.9h18.97Zm0-83.593h-18.97v-19.9h18.97Zm0-20.9h-18.97v-19.9h18.97Zm19.969,125.389H380.207v-19.9h18.969Zm0-20.9H380.207v-19.9h18.969Zm0-20.9H380.207v-19.9h18.969Zm0-20.9H380.207v-19.9h18.969Zm0-20.9H380.207v-19.9h18.969Zm0-20.9H380.207v-19.9h18.969Zm19.971,83.593H400.176v-19.9h18.971Zm0-20.9H400.176v-19.9h18.971Zm0-20.9H400.176v-19.9h18.971Zm0-20.9H400.176v-19.9h18.971Zm19.97,62.7h-18.97v-19.9h18.97Zm0-20.9h-18.97v-19.9h18.97Z" fill="#fafafa"/>
              <path id="Path_45" data-name="Path 45" d="M339.359,299.763s34.632,30.418,29.795,50.1-83.9,17.78-83.9,17.78V423.6s34.682-.778,64.4,3.144c34.761,4.588,89.484-8.316,95.006-49.5S416.415,261.52,325.018,249.2" fill="none" stroke="#263238" stroke-miterlimit="10" stroke-width="1"/>
              <path id="Path_46" data-name="Path 46" d="M299.8,412.986a4.113,4.113,0,1,1-4.113-4.113A4.113,4.113,0,0,1,299.8,412.986Z" fill="#263238"/>
              <line id="Line_13" data-name="Line 13" y2="56.172" transform="translate(305.445 367.422)" fill="none" stroke="#263238" stroke-miterlimit="10" stroke-width="1"/>
            </g>
          </g>
          <g id="Group_60" data-name="Group 60">
            <path id="Path_47" data-name="Path 47" d="M336.994,203.463a11.976,11.976,0,1,1-11.976-11.879A11.928,11.928,0,0,1,336.994,203.463Z" fill="none" stroke="#000" stroke-miterlimit="10" stroke-width="2"/>
            <g id="Group_59" data-name="Group 59">
              <path id="Path_48" data-name="Path 48" d="M284.818,166.6h15.043c10,0,18.184,9.317,18.184,20.7v23.319c0,.657-.034,1.3-.088,1.947a9.245,9.245,0,0,1,.258,2.136V243.89a9.393,9.393,0,0,1-9.366,9.365h-5.967a9.392,9.392,0,0,1-9.365-9.365V231.327h-8.7c-10,0-18.183-9.316-18.183-20.7V187.306C266.635,175.92,274.817,166.6,284.818,166.6Z" fill="#fff" stroke="#263238" stroke-miterlimit="10" stroke-width="1"/>
              <g id="Group_50" data-name="Group 50">
                <path id="Path_49" data-name="Path 49" d="M314.1,203.08l-2.776-18.265s-50.534,6.335-66.915-18.212.833-34.264,9.163-32.876,18.068,13.328,18.068,13.328-7.753-10.552,0-12.217,16.318,6.386,20.782,14.715c0,0,33.309-3.1,44.569,17.05s2.135,34.455-18.461,55.279l-1.375-11.647Z" fill="#263238"/>
              </g>
              <g id="Group_55" data-name="Group 55">
                <g id="Group_51" data-name="Group 51">
                  <path id="Path_50" data-name="Path 50" d="M309.569,206.667a8.636,8.636,0,1,1-8.636-8.636A8.636,8.636,0,0,1,309.569,206.667Z" fill="#640000"/>
                  <path id="Path_51" data-name="Path 51" d="M268.742,199.761a6.55,6.55,0,0,0-1.525.185V208.9a18.641,18.641,0,0,0,.13,3.9,10.517,10.517,0,0,0,1.4.1,6.573,6.573,0,0,0,0-13.146Z" fill="#640000"/>
                </g>
                <g id="Group_54" data-name="Group 54">
                  <g id="Group_52" data-name="Group 52">
                    <path id="Path_52" data-name="Path 52" d="M293.981,194.606a3.072,3.072,0,1,1-3.072-3.072A3.072,3.072,0,0,1,293.981,194.606Z" fill="#263238"/>
                    <path id="Path_53" data-name="Path 53" d="M273.87,194.156a2.622,2.622,0,1,1-2.622-2.622A2.622,2.622,0,0,1,273.87,194.156Z" fill="#263238"/>
                  </g>
                  <path id="Path_54" data-name="Path 54" d="M276.8,206.724s1.543,4.5,4.807,4.807,5.822-3.308,6-6.13Z" fill="#fff" stroke="#263238" stroke-miterlimit="10" stroke-width="0.223"/>
                  <g id="Group_53" data-name="Group 53">
                    <path id="Path_55" data-name="Path 55" d="M306.459,192.807c0,6.62-4.8,11.986-10.724,11.986s-10.722-5.366-10.722-11.986,4.8-11.985,10.722-11.985S306.459,186.188,306.459,192.807Z" fill="none" stroke="#4d5a64" stroke-miterlimit="10" stroke-width="1"/>
                    <path id="Path_56" data-name="Path 56" d="M277.84,191.306c0,5.919-3.953,10.719-8.829,10.719s-8.829-4.8-8.829-10.719,3.953-10.72,8.829-10.72S277.84,185.385,277.84,191.306Z" fill="none" stroke="#4d5a64" stroke-miterlimit="10" stroke-width="1"/>
                    <path id="Path_57" data-name="Path 57" d="M280.961,191.573v10.41l-5.457-3.325Z" fill="#640000"/>
                    <path id="Path_58" data-name="Path 58" d="M277.562,194.511s4.564-1.728,7.7.86" fill="none" stroke="#4d5a64" stroke-miterlimit="10" stroke-width="1"/>
                  </g>
                </g>
              </g>
              <line id="Line_14" data-name="Line 14" x2="14.546" y2="3.04" transform="translate(306.445 193.247)" fill="none" stroke="#4d5a64" stroke-miterlimit="10" stroke-width="1"/>
              <g id="Group_56" data-name="Group 56">
                <path id="Path_59" data-name="Path 59" d="M336.994,203.463a11.976,11.976,0,1,1-11.976-11.879A11.928,11.928,0,0,1,336.994,203.463Z" fill="#fff"/>
                <path id="Path_60" data-name="Path 60" d="M318.54,205.032s-.527-8.069,7.759-7.172" fill="none" stroke="#263238" stroke-miterlimit="10" stroke-width="0.275"/>
              </g>
              <g id="Group_58" data-name="Group 58">
                <g id="Group_57" data-name="Group 57">
                  <rect id="Rectangle_40" data-name="Rectangle 40" width="48.814" height="13.068" rx="2.832" transform="translate(282.311 245.23)" fill="#640000"/>
                  <rect id="Rectangle_41" data-name="Rectangle 41" width="48.814" height="13.068" rx="2.832" transform="translate(282.311 245.23)" fill="#fff" opacity="0.3"/>
                </g>
                <path id="Path_61" data-name="Path 61" d="M292.425,251.49a2.294,2.294,0,1,1-2.294-2.293A2.294,2.294,0,0,1,292.425,251.49Z" fill="#263238"/>
                <path id="Path_62" data-name="Path 62" d="M320.3,258.3v-9.762h10.828v-.473a2.771,2.771,0,0,0-.054-.527H320.3V245.23h-1v2.306H300.328V245.23h-1v2.306H282.364a2.852,2.852,0,0,0-.053.527v.473h17.017V258.3h1v-9.762H319.3V258.3Z" fill="#fafafa"/>
                <rect id="Rectangle_42" data-name="Rectangle 42" width="48.814" height="13.068" rx="2.832" transform="translate(282.311 245.23)" fill="none" stroke="#263238" stroke-miterlimit="10" stroke-width="1"/>
              </g>
            </g>
          </g>
        </g>
      </g>
    </g>
    <g id="Mug">
      <g id="Group_68" data-name="Group 68">
        <g id="Group_66" data-name="Group 66">
          <path id="Path_63" data-name="Path 63" d="M429.652,392.814A18.348,18.348,0,1,0,448,411.161,18.347,18.347,0,0,0,429.652,392.814Zm0,29.941a11.594,11.594,0,1,1,11.594-11.594A11.594,11.594,0,0,1,429.652,422.755Z" fill="#fff" stroke="#263238" stroke-miterlimit="10" stroke-width="1"/>
          <rect id="Rectangle_43" data-name="Rectangle 43" width="50.567" height="58.245" rx="5.873" transform="translate(379.859 382.362)" fill="#fff" stroke="#263238" stroke-miterlimit="10" stroke-width="1"/>
          <rect id="Rectangle_44" data-name="Rectangle 44" width="24.991" height="16.981" rx="8.045" transform="translate(392.647 411.161)" fill="#640000"/>
          <rect id="Rectangle_45" data-name="Rectangle 45" width="5.864" height="10.491" rx="2.49" transform="translate(393.75 422.006)" fill="#640000"/>
          <rect id="Rectangle_46" data-name="Rectangle 46" width="5.864" height="10.491" rx="2.49" transform="translate(410.633 422.329)" fill="#640000"/>
          <g id="Group_63" data-name="Group 63">
            <path id="Path_64" data-name="Path 64" d="M398.6,415.833a79.72,79.72,0,0,1-1.776-11.056c-.529-6.858,2.871-10.069,10.031-9.07,3.777.527,5.409-5.254,1.6-5.786-7.131-.995-15.624.708-17.453,8.842-1.314,5.841.548,12.934,1.817,18.666.835,3.768,6.621,2.173,5.786-1.6Z" fill="#640000"/>
          </g>
          <path id="Path_65" data-name="Path 65" d="M412.483,416.441c.232-.291,1.438.129,1.792.244,2.39.775,11.653,2.89,11,10.89-.438,5.327-3.369,7.408-5.922,8.256a.892.892,0,0,1-.892-1.5,9.762,9.762,0,0,0,2.334-3.144c1.353-3.122-1.449-5.593-8.968-9.177-.512-.243-.158-3.655.2-4.1Z" fill="#640000"/>
          <path id="Path_66" data-name="Path 66" d="M406.445,391.477a.652.652,0,1,1-.651-.651A.651.651,0,0,1,406.445,391.477Z" fill="#263238"/>
          <path id="Path_67" data-name="Path 67" d="M405.794,393.823s.4,1.586,2.835,1.636" fill="none" stroke="#263238" stroke-miterlimit="10" stroke-width="0.05"/>
          <g id="Group_65" data-name="Group 65">
            <path id="Path_68" data-name="Path 68" d="M404.013,414.975c0,.585-.768,1.059-1.715,1.059s-1.714-.474-1.714-1.059.767-1.059,1.714-1.059S404.013,414.39,404.013,414.975Z" fill="#640000"/>
            <path id="Path_69" data-name="Path 69" d="M407.108,416.947c0,.335-.44.607-.983.607s-.983-.272-.983-.607.44-.607.983-.607S407.108,416.612,407.108,416.947Z" fill="#640000"/>
            <path id="Path_70" data-name="Path 70" d="M410.257,413.536c0,.45-.851.814-1.9.814s-1.9-.364-1.9-.814.851-.815,1.9-.815S410.257,413.086,410.257,413.536Z" fill="#640000"/>
            <ellipse id="Ellipse_5" data-name="Ellipse 5" cx="0.888" cy="0.533" rx="0.888" ry="0.533" transform="translate(411.305 415.273)" fill="#640000"/>
            <g id="Group_64" data-name="Group 64" opacity="0.6">
              <path id="Path_71" data-name="Path 71" d="M404.013,414.975c0,.585-.768,1.059-1.715,1.059s-1.714-.474-1.714-1.059.767-1.059,1.714-1.059S404.013,414.39,404.013,414.975Z" fill="#fff"/>
              <path id="Path_72" data-name="Path 72" d="M407.108,416.947c0,.335-.44.607-.983.607s-.983-.272-.983-.607.44-.607.983-.607S407.108,416.612,407.108,416.947Z" fill="#fff"/>
              <path id="Path_73" data-name="Path 73" d="M410.257,413.536c0,.45-.851.814-1.9.814s-1.9-.364-1.9-.814.851-.815,1.9-.815S410.257,413.086,410.257,413.536Z" fill="#fff"/>
              <ellipse id="Ellipse_6" data-name="Ellipse 6" cx="0.888" cy="0.533" rx="0.888" ry="0.533" transform="translate(411.305 415.273)" fill="#fff"/>
            </g>
          </g>
        </g>
        <g id="Group_67" data-name="Group 67">
          <circle id="Ellipse_7" data-name="Ellipse 7" cx="10.154" cy="10.154" r="10.154" transform="translate(406.25 353.616)" fill="none" stroke="#e0e0e0" stroke-miterlimit="10" stroke-width="0.75"/>
          <ellipse id="Ellipse_8" data-name="Ellipse 8" cx="25.501" cy="24.617" rx="25.501" ry="24.617" transform="translate(419.736 303.793)" fill="none" stroke="#e0e0e0" stroke-miterlimit="10" stroke-width="0.75"/>
        </g>
      </g>
    </g>
    <g id="Device">
      <g id="Group_71" data-name="Group 71">
        <g id="Group_70" data-name="Group 70">
          <g id="Group_69" data-name="Group 69">
            <path id="Path_74" data-name="Path 74" d="M99.148,440.972l105.937.194c11,.02,16.683-8.514,12.7-19.061L190.015,348.58c-3.983-10.547-16.128-19.113-27.125-19.134l-105.937-.193c-11-.02-16.683,8.513-12.7,19.061l27.769,73.525C76.006,432.386,88.15,440.952,99.148,440.972Z" fill="#263238"/>
            <path id="Path_75" data-name="Path 75" d="M115.138,379.381c1.242,4.669,6.031,8.461,10.7,8.469s7.444-3.769,6.2-8.438-6.032-8.462-10.7-8.47S113.9,374.712,115.138,379.381Z" fill="#fff"/>
            <path id="Rectangle_47" data-name="Rectangle 47" d="M2.536,0H109.266A2.536,2.536,0,0,1,111.8,2.536V13.31a2.535,2.535,0,0,1-2.535,2.535H2.535A2.535,2.535,0,0,1,0,13.31V2.536A2.536,2.536,0,0,1,2.536,0Z" transform="matrix(-1, -0.002, 0.002, -1, 281.866, 441.306)" fill="#263238"/>
          </g>
        </g>
      </g>
    </g>
  </g>
</svg>
