<svg xmlns="http://www.w3.org/2000/svg" width="477.392" height="454.768" viewBox="0 0 477.392 454.768">
  <g id="hero3" transform="translate(-17.608 -20.517)">
    <g id="hero3-2" data-name="hero3">
      <g id="Floor">
        <ellipse id="Floor-2" data-name="Floor" cx="232.983" cy="134.513" rx="232.983" ry="134.513" transform="translate(17.608 206.26)" fill="#f5f5f5"/>
      </g>
      <g id="Shadows">
        <path id="Shadow" d="M37.45,349.551l152.18,87.9a5.226,5.226,0,0,0,4.729,0L448.142,290.93c1.306-.754,1.306-1.976,0-2.73L295.963,200.3a5.226,5.226,0,0,0-4.729,0L37.45,346.821C36.145,347.575,36.145,348.8,37.45,349.551Z" fill="#e6e6e6"/>
        <ellipse id="Shadow-2" data-name="Shadow" cx="71.608" cy="41.343" rx="71.608" ry="41.343" transform="translate(299.123 338.858)" fill="#e6e6e6"/>
      </g>
      <g id="Desk">
        <g id="Table">
          <g id="Group_222" data-name="Group 222">
            <path id="Path_466" data-name="Path 466" d="M178.517,310.591V410.784a2.871,2.871,0,0,0,1.3,2.25l2.763,1.6a2.875,2.875,0,0,0,2.6,0l2.762-1.6a2.871,2.871,0,0,0,1.3-2.25V310.591c0-.829-.582-1.165-1.3-.75l-2.763,1.594a2.869,2.869,0,0,1-2.6,0l-2.763-1.594C179.1,309.426,178.517,309.762,178.517,310.591Z" fill="#37474f"/>
            <path id="Path_467" data-name="Path 467" d="M185.178,414.629l2.762-1.6a2.871,2.871,0,0,0,1.3-2.25V310.591c0-.829-.582-1.165-1.3-.75l-2.763,1.594a2.874,2.874,0,0,0-1.3,2.25V413.879C183.878,414.707,184.46,415.043,185.178,414.629Z" fill="#455a64"/>
          </g>
          <g id="Group_223" data-name="Group 223">
            <path id="Path_468" data-name="Path 468" d="M60.717,242.538V342.731a2.869,2.869,0,0,0,1.3,2.25l2.763,1.6a2.875,2.875,0,0,0,2.6,0l2.762-1.6a2.871,2.871,0,0,0,1.3-2.25V242.538c0-.828-.582-1.164-1.3-.75l-2.763,1.6a2.872,2.872,0,0,1-2.6,0l-2.763-1.6C61.3,241.374,60.717,241.71,60.717,242.538Z" fill="#37474f"/>
            <path id="Path_469" data-name="Path 469" d="M67.378,346.576l2.762-1.6a2.871,2.871,0,0,0,1.3-2.25V242.538c0-.828-.582-1.164-1.3-.75l-2.763,1.6a2.871,2.871,0,0,0-1.3,2.25V345.826C66.078,346.654,66.66,346.99,67.378,346.576Z" fill="#455a64"/>
          </g>
          <g id="Group_224" data-name="Group 224">
            <path id="Path_470" data-name="Path 470" d="M397.866,183.949V284.142a2.869,2.869,0,0,0,1.3,2.25l2.763,1.6a2.872,2.872,0,0,0,2.6,0l2.763-1.6a2.871,2.871,0,0,0,1.3-2.25V183.949c0-.829-.582-1.164-1.3-.75l-2.763,1.594a2.866,2.866,0,0,1-2.6,0l-2.763-1.594C398.447,182.785,397.866,183.12,397.866,183.949Z" fill="#37474f"/>
            <path id="Path_471" data-name="Path 471" d="M404.526,287.987l2.763-1.6a2.871,2.871,0,0,0,1.3-2.25V183.949c0-.829-.582-1.164-1.3-.75l-2.763,1.594a2.872,2.872,0,0,0-1.3,2.25V287.237C403.227,288.065,403.809,288.4,404.526,287.987Z" fill="#455a64"/>
          </g>
          <g id="Desk-2" data-name="Desk">
            <g id="Group_231" data-name="Group 231">
              <g id="Group_225" data-name="Group 225">
                <path id="Path_472" data-name="Path 472" d="M35.086,251.7v-.943a5.227,5.227,0,0,1,2.364-4.1L291.234,100.136a5.226,5.226,0,0,1,4.729,0l127.8,73.808a5.227,5.227,0,0,1,2.364,4.1v.943a5.231,5.231,0,0,1-2.364,4.1L169.976,329.6a5.226,5.226,0,0,1-4.729,0l-127.8-73.808A5.227,5.227,0,0,1,35.086,251.7Z" fill="#640000"/>
              </g>
              <g id="Group_226" data-name="Group 226" opacity="0.7">
                <path id="Path_473" data-name="Path 473" d="M35.086,251.7v-.943a5.227,5.227,0,0,1,2.364-4.1L291.234,100.136a5.226,5.226,0,0,1,4.729,0l127.8,73.808a5.227,5.227,0,0,1,2.364,4.1v.943a5.231,5.231,0,0,1-2.364,4.1L169.976,329.6a5.226,5.226,0,0,1-4.729,0l-127.8-73.808A5.227,5.227,0,0,1,35.086,251.7Z" fill="#fff"/>
              </g>
              <g id="Group_227" data-name="Group 227">
                <path id="Path_474" data-name="Path 474" d="M167.611,323.765v6.407a5,5,0,0,1-2.367-.564L37.454,255.8a5.23,5.23,0,0,1-2.366-4.1v-.947a5.223,5.223,0,0,1,1.929-3.786c-.855.728-.71,1.747.437,2.421L165.244,323.2A4.8,4.8,0,0,0,167.611,323.765Z" fill="#640000"/>
              </g>
              <g id="Group_228" data-name="Group 228" opacity="0.6">
                <path id="Path_475" data-name="Path 475" d="M167.611,323.765v6.407a5,5,0,0,1-2.367-.564L37.454,255.8a5.23,5.23,0,0,1-2.366-4.1v-.947a5.223,5.223,0,0,1,1.929-3.786c-.855.728-.71,1.747.437,2.421L165.244,323.2A4.8,4.8,0,0,0,167.611,323.765Z" fill="#fff"/>
              </g>
              <g id="Group_229" data-name="Group 229">
                <path id="Path_476" data-name="Path 476" d="M37.45,249.388l127.8,73.808a5.226,5.226,0,0,0,4.729,0L423.759,176.674c1.3-.754,1.3-1.976,0-2.73l-127.8-73.808a5.226,5.226,0,0,0-4.729,0L37.45,246.658C36.145,247.412,36.145,248.634,37.45,249.388Z" fill="#640000"/>
              </g>
              <g id="Group_230" data-name="Group 230" opacity="0.8">
                <path id="Path_477" data-name="Path 477" d="M37.45,249.388l127.8,73.808a5.226,5.226,0,0,0,4.729,0L423.759,176.674c1.3-.754,1.3-1.976,0-2.73l-127.8-73.808a5.226,5.226,0,0,0-4.729,0L37.45,246.658C36.145,247.412,36.145,248.634,37.45,249.388Z" fill="#fff"/>
              </g>
            </g>
          </g>
        </g>
        <g id="Keyboard">
          <path id="Shadow-3" data-name="Shadow" d="M185.465,243.091l23.182,13.422a2.872,2.872,0,0,0,2.6,0l68.486-39.487a.792.792,0,0,0,0-1.5L256.55,202.106a2.867,2.867,0,0,0-2.6,0L185.467,241.59A.792.792,0,0,0,185.465,243.091Z" opacity="0.05"/>
          <g id="Keyboard-2" data-name="Keyboard">
            <g id="Group_232" data-name="Group 232">
              <path id="Path_478" data-name="Path 478" d="M278.327,213.148a.913.913,0,0,0-.538-.75L256.01,199.826a2.87,2.87,0,0,0-2.6,0l-66.454,38.43a.912.912,0,0,0-.537.75v2.283a.912.912,0,0,0,.539.751l21.768,12.57a2.878,2.878,0,0,0,2.6,0l66.461-38.369a.916.916,0,0,0,.538-.747C278.328,215.221,278.327,213.419,278.327,213.148Z" fill="#ebebeb"/>
              <path id="Path_479" data-name="Path 479" d="M208.729,252.269l-21.768-12.513a.791.791,0,0,1,0-1.5l66.454-38.43a2.87,2.87,0,0,1,2.6,0L277.789,212.4a.792.792,0,0,1,0,1.5l-66.461,38.368A2.875,2.875,0,0,1,208.729,252.269Z" fill="#fff"/>
              <path id="Path_480" data-name="Path 480" d="M209.944,252.578v2.335a2.689,2.689,0,0,1-1.22-.3l-21.76-12.57a.921.921,0,0,1-.54-.75V239a.921.921,0,0,0,.54.75l21.76,12.52A2.692,2.692,0,0,0,209.944,252.578Z" fill="#e0e0e0"/>
            </g>
            <path id="Path_481" data-name="Path 481" d="M210.038,250.368a.113.113,0,0,1-.047-.009l-2.155-1.244,2.924-1.689,2.227,1.252-2.921,1.687Zm-3.373-1.948a.111.111,0,0,1-.048-.009l-2.155-1.244,2.3-1.326,2.228,1.252-2.294,1.325Zm7.459-.411a.13.13,0,0,1-.047-.008l-2.156-1.245,2.3-1.326,2.228,1.253-2.293,1.324Zm-10.833-1.538a.108.108,0,0,1-.05-.009l-2.154-1.244,3.71-2.141,2.229,1.252-3.708,2.14Zm6.831-.048a.116.116,0,0,1-.048-.008l-2.156-1.244,1.824-1.054,2.229,1.253-1.822,1.052Zm7.459-.41a.144.144,0,0,1-.048-.008l-2.155-1.245,2.3-1.326,2.227,1.253-2.293,1.323Zm-4.473-1.312a.128.128,0,0,1-.051-.01l-2.154-1.244,1.825-1.053,2.228,1.252-1.821,1.052Zm-13.191-.178a.124.124,0,0,1-.05-.009l-2.154-1.244,2.924-1.688,2.229,1.253-2.922,1.686Zm21.121-.506a.115.115,0,0,1-.048-.009l-2.155-1.244,16.594-9.581,2.228,1.254-16.592,9.578Zm-12.876-.358a.128.128,0,0,1-.05-.009l-2.154-1.244,1.824-1.053,2.229,1.252-1.822,1.052Zm7.931-.683a.123.123,0,0,1-.05-.009l-2.154-1.244,1.825-1.052,2.227,1.251-1.821,1.052Zm-19.55-.4a.123.123,0,0,1-.05-.009l-2.155-1.244,1.825-1.053,2.229,1.252-1.822,1.052Zm7.459-.41a.111.111,0,0,1-.048-.009l-2.156-1.244,1.825-1.054,2.228,1.253-1.822,1.052Zm7.145-.23a.128.128,0,0,1-.05-.009l-2.154-1.244,1.824-1.052,2.23,1.252-1.822,1.051Zm7.931-.682a.128.128,0,0,1-.05-.009L216.874,240l1.825-1.053,2.229,1.253-1.823,1.051Zm-19.55-.4a.128.128,0,0,1-.05-.009l-2.154-1.244,1.824-1.052,2.229,1.251-1.821,1.052Zm7.459-.41a.115.115,0,0,1-.048-.009l-2.155-1.244,1.824-1.054,2.229,1.253-1.822,1.052Zm7.147-.229a.121.121,0,0,1-.049-.009l-2.156-1.244,1.824-1.053,2.229,1.253-1.822,1.051Zm-21.686,0a.117.117,0,0,1-.049-.009l-2.156-1.244,2.3-1.326,2.228,1.253-2.294,1.324Zm29.615-.682a.117.117,0,0,1-.049-.009l-2.155-1.244,1.825-1.053,2.228,1.252-1.821,1.052Zm-19.549-.4a.123.123,0,0,1-.05-.009l-2.155-1.244,1.825-1.053,2.228,1.252-1.821,1.052Zm7.46-.411a.119.119,0,0,1-.049-.008l-2.157-1.244,1.826-1.054,2.228,1.253L210,238.716Zm7.144-.229a.115.115,0,0,1-.048-.009l-2.156-1.244,1.825-1.053,2.229,1.253-1.823,1.051Zm7.931-.683a.154.154,0,0,1-.05-.008l-2.154-1.245,1.825-1.052,2.227,1.252-1.821,1.051Zm-27.846-.339a.115.115,0,0,1-.048-.009L195,236.212l1.825-1.053,2.229,1.253-1.823,1.051Zm8.3-.061a.124.124,0,0,1-.051-.01l-2.154-1.244,1.824-1.053,2.23,1.253-1.823,1.051Zm7.459-.411a.113.113,0,0,1-.049-.009l-2.156-1.244,1.825-1.054,2.228,1.253-1.822,1.052Zm7.145-.229a.145.145,0,0,1-.05-.009l-2.155-1.245,1.825-1.052,2.229,1.253-1.822,1.05Zm7.931-.682a.121.121,0,0,1-.049-.01l-2.156-1.244,1.825-1.053,2.229,1.253-1.823,1.051Zm-27.846-.341a.119.119,0,0,1-.05-.009l-2.154-1.244,1.824-1.054,2.229,1.253-1.822,1.052Zm8.294-.061a.109.109,0,0,1-.047-.009l-2.156-1.245,1.825-1.052,2.229,1.253-1.822,1.05Zm7.461-.411a.117.117,0,0,1-.049-.009l-2.155-1.244,1.824-1.054,2.229,1.253-1.822,1.052Zm7.145-.228a.111.111,0,0,1-.048-.009l-2.156-1.245,1.825-1.053,2.228,1.253-1.822,1.051Zm7.93-.684a.115.115,0,0,1-.048-.009l-2.156-1.244,1.825-1.053,2.228,1.252-1.821,1.052Zm-27.845-.34a.124.124,0,0,1-.05-.009l-2.153-1.244,1.824-1.053,2.228,1.253-1.822,1.051Zm8.3-.061a.123.123,0,0,1-.05-.009l-2.155-1.244,1.826-1.053,2.228,1.253-1.822,1.051Zm27.324-.191a.113.113,0,0,1-.049-.009l-2.156-1.244,2.3-1.325,2.229,1.253-2.293,1.323Zm-19.864-.219a.113.113,0,0,1-.049-.009l-2.157-1.244,1.826-1.054,2.228,1.253-1.822,1.052Zm7.143-.229a.109.109,0,0,1-.047-.009l-2.156-1.245,1.825-1.053,2.229,1.253-1.823,1.051Zm7.932-.684a.154.154,0,0,1-.05-.008l-2.154-1.244,1.825-1.053,2.228,1.253-1.822,1.05Zm-27.846-.339a.115.115,0,0,1-.048-.009l-2.155-1.244,1.824-1.054,2.229,1.253-1.823,1.052Zm8.3-.061a.128.128,0,0,1-.051-.01l-2.154-1.244,1.825-1.053,2.229,1.253-1.823,1.051Zm7.459-.411a.117.117,0,0,1-.049-.009l-2.156-1.244,1.825-1.054,2.229,1.253-1.823,1.052Zm20.336-.052a.124.124,0,0,1-.051-.01l-2.154-1.244,2.3-1.325,2.229,1.252-2.294,1.324Zm-13.191-.177a.145.145,0,0,1-.05-.009l-2.155-1.244,1.826-1.053,2.228,1.253-1.822,1.05Zm7.931-.682a.128.128,0,0,1-.051-.01l-2.154-1.244,1.825-1.053,2.228,1.252-1.822,1.052Zm-19.551-.4a.121.121,0,0,1-.048-.008l-2.156-1.245,1.824-1.053,2.23,1.253-1.822,1.05Zm7.459-.411a.144.144,0,0,1-.048-.008l-2.156-1.245,1.825-1.052,2.228,1.252-1.821,1.051Zm7.146-.228a.111.111,0,0,1-.048-.009l-2.156-1.245,1.825-1.053,2.228,1.253-1.822,1.051Zm-21.6-.05a.115.115,0,0,1-.048-.009l-2.156-1.244,1.825-1.054,2.229,1.253-1.822,1.052Zm35.264-.046a.128.128,0,0,1-.05-.009l-2.154-1.244,2.3-1.326,2.228,1.253-2.293,1.324Zm-5.733-.587a.1.1,0,0,1-.046-.009l-2.157-1.245,1.825-1.052,2.229,1.252L240,229.185Zm-19.548-.4a.123.123,0,0,1-.051-.01l-2.153-1.243,1.824-1.054,2.229,1.253-1.822,1.051Zm7.459-.411a.111.111,0,0,1-.048-.009l-2.156-1.244,1.825-1.054,2.228,1.253-1.822,1.052Zm7.145-.229a.115.115,0,0,1-.048-.009l-2.156-1.245,1.825-1.052,2.229,1.252-1.823,1.051Zm-21.6-.05a.111.111,0,0,1-.048-.009l-2.156-1.244,1.825-1.053,2.228,1.253-1.822,1.051Zm35.735-.318a.117.117,0,0,1-.049-.009l-2.156-1.244,2.925-1.689,2.228,1.254-2.921,1.686Zm-6.2-.314a.116.116,0,0,1-.049-.01l-2.156-1.244,5.753-3.322,2.228,1.253-5.75,3.32Zm-19.552-.4a.126.126,0,0,1-.049-.009l-2.154-1.245,1.825-1.052,2.229,1.252-1.823,1.051Zm7.461-.411a.117.117,0,0,1-.049-.009l-2.155-1.244,1.824-1.054,2.229,1.253L230.9,226.65Zm7.144-.229a.11.11,0,0,1-.047-.008l-2.157-1.245,1.826-1.053,2.228,1.253-1.822,1.051Zm-21.6-.049a.117.117,0,0,1-.049-.009l-2.156-1.244,1.825-1.054,2.229,1.253-1.823,1.052Zm9.98-1.034a.126.126,0,0,1-.049-.009l-2.154-1.245,1.825-1.053,2.229,1.253-1.822,1.051Zm27.482-.282a.1.1,0,0,1-.046-.009l-2.158-1.245,1.825-1.052,2.228,1.253-1.822,1.05Zm-20.021-.13a.146.146,0,0,1-.049-.008l-2.156-1.245,1.825-1.052,2.228,1.252-1.821,1.051ZM241,224.7a.1.1,0,0,1-.046-.009l-2.157-1.245,1.667-.962a.354.354,0,0,0,.186-.3.366.366,0,0,0-.2-.318l-2.831-1.634,2.14-1.234,5.6,3.2-4.337,2.5Zm-21.6-.05a.115.115,0,0,1-.048-.009L217.2,223.4l1.825-1.054,2.229,1.253-1.822,1.052Zm9.983-1.034a.111.111,0,0,1-.048-.009l-2.155-1.244L229,221.309l2.228,1.253-1.822,1.051Zm27.481-.282a.117.117,0,0,1-.049-.009l-2.156-1.244,1.825-1.053,2.229,1.253-1.823,1.051Zm-20.021-.129a.113.113,0,0,1-.049-.009l-2.156-1.244,1.825-1.053,2.228,1.253-1.821,1.051Zm-13.158-1.029a.113.113,0,0,1-.048-.008l-2.156-1.245,1.825-1.053,2.228,1.253-1.822,1.051Zm8.682-.284a.126.126,0,0,1-.049-.009l-2.153-1.244,1.824-1.053,2.229,1.252-1.823,1.051Zm27.483-.281a.109.109,0,0,1-.051-.01l-2.155-1.244,1.826-1.053,2.228,1.253-1.822,1.051Zm-6.361-.225a.134.134,0,0,1-.05-.008l-2.154-1.246,1.825-1.052,2.229,1.253-1.823,1.051Zm-26.818-.933a.113.113,0,0,1-.049-.009l-2.156-1.244,1.825-1.053,2.228,1.252-1.821,1.052Zm8.681-.284a.115.115,0,0,1-.048-.009l-2.154-1.244,3.238-1.87,2.229,1.252-3.236,1.868Zm28.111-.645a.111.111,0,0,1-.048-.009l-2.156-1.244,4.81-2.777,2.229,1.253-4.808,2.775Zm-19.707-.311a.13.13,0,0,1-.05-.008l-2.154-1.244,1.825-1.054,2.228,1.252-1.822,1.053Zm-14.1-.484a.117.117,0,0,1-.049-.009l-2.156-1.244,1.825-1.053,2.229,1.252-1.822,1.052Zm30.433-1.153a.123.123,0,0,1-.05-.009l-2.154-1.244,1.825-1.054,2.228,1.252-1.822,1.053Zm-13.348-.086a.128.128,0,0,1-.05-.009l-2.153-1.244,1.823-1.054,2.23,1.253-1.823,1.052Zm-6.359-.225a.146.146,0,0,1-.049-.008l-2.156-1.245L240,214.959l2.228,1.253-1.821,1.051Zm-7.741-.259a.107.107,0,0,1-.048-.009l-2.157-1.244,1.826-1.053,2.228,1.252L232.668,217Zm36.792-.929a.121.121,0,0,1-.049-.009l-2.154-1.244,1.825-1.054,2.228,1.253-1.822,1.052Zm-6.359-.225a.128.128,0,0,1-.05-.009l-2.154-1.244,1.824-1.053,2.229,1.252L263.1,215.85Zm-13.348-.086a.122.122,0,0,1-.049-.009l-2.155-1.244,1.825-1.053,2.229,1.252-1.822,1.052Zm6.989-.138a.113.113,0,0,1-.049-.009l-2.156-1.244,1.825-1.053,2.228,1.252-1.821,1.052Zm-13.348-.086a.128.128,0,0,1-.05-.009l-2.154-1.244,1.824-1.054,2.229,1.253-1.822,1.052Zm-7.08-.641a.117.117,0,0,1-.049-.009l-2.156-1.244,1.825-1.054,2.229,1.253-1.822,1.052Zm36.132-.548a.123.123,0,0,1-.05-.009l-5.528-3.192,1.824-1.054,5.6,3.2-1.823,1.053Zm-6.36-.225a.123.123,0,0,1-.049-.008l-2.155-1.244,1.825-1.054,2.229,1.253-1.822,1.052ZM259.7,213.9a.117.117,0,0,1-.049-.009l-2.156-1.244,1.825-1.053,2.229,1.252-1.822,1.052Zm-13.348-.086a.117.117,0,0,1-.049-.009l-2.155-1.244,1.824-1.054,2.229,1.253-1.821,1.052Zm6.989-.138a.13.13,0,0,1-.047-.008l-2.158-1.246,1.825-1.052,2.228,1.253-1.821,1.05Zm-14.069-.5a.123.123,0,0,1-.049-.008l-2.156-1.245,1.825-1.053,2.229,1.253-1.821,1.051Zm23.413-1a.133.133,0,0,1-.048-.008l-2.157-1.245,1.826-1.052,2.229,1.252-1.822,1.051Zm-6.359-.223a.109.109,0,0,1-.047-.009L254.12,210.7l1.825-1.053,2.229,1.253-1.822,1.051Zm-6.36-.225a.111.111,0,0,1-.048-.009l-2.155-1.244,1.824-1.054,2.228,1.253-1.822,1.051Zm-7.708-.278a.113.113,0,0,1-.049-.009l-2.156-1.244,1.825-1.054L244.1,210.4l-1.822,1.052Zm23.413-1a.123.123,0,0,1-.05-.009l-5.529-3.192,1.825-1.053,5.6,3.2-1.823,1.053Zm-6.361-.224a.1.1,0,0,1-.045-.009l-2.159-1.245,1.826-1.053,2.228,1.253-1.822,1.051Zm-6.359-.225A.112.112,0,0,1,252.9,210l-2.157-1.244,1.824-1.054,2.229,1.253-1.823,1.051ZM245,208.867a.113.113,0,0,1-.049-.009l-.936-.528,1.825-1.054,1,.541-1.814,1.048Zm10.931-.582a.1.1,0,0,1-.047-.009l-2.156-1.244,1.825-1.054,2.228,1.253-1.822,1.051Zm-7.946-1.142a.128.128,0,0,1-.05-.009l-.934-.528,1.824-1.054,1,.541-1.814,1.048Zm10.932-.582a.111.111,0,0,1-.048-.009l-2.155-1.244,1.824-1.053,2.228,1.252-1.821,1.051Zm-7.947-1.141a.121.121,0,0,1-.049-.009l-.935-.529,1.824-1.053,1,.541L251,205.418Zm2.987-1.723a.124.124,0,0,1-.051-.01l-.936-.528L254.8,202.1l1,.541-1.815,1.048Z" fill="#640000"/>
            <path id="Path_482" data-name="Path 482" d="M210.038,250.368a.113.113,0,0,1-.047-.009l-2.155-1.244,2.924-1.689,2.227,1.252-2.921,1.687Zm-3.373-1.948a.111.111,0,0,1-.048-.009l-2.155-1.244,2.3-1.326,2.228,1.252-2.294,1.325Zm7.459-.411a.13.13,0,0,1-.047-.008l-2.156-1.245,2.3-1.326,2.228,1.253-2.293,1.324Zm-10.833-1.538a.108.108,0,0,1-.05-.009l-2.154-1.244,3.71-2.141,2.229,1.252-3.708,2.14Zm6.831-.048a.116.116,0,0,1-.048-.008l-2.156-1.244,1.824-1.054,2.229,1.253-1.822,1.052Zm7.459-.41a.144.144,0,0,1-.048-.008l-2.155-1.245,2.3-1.326,2.227,1.253-2.293,1.323Zm-4.473-1.312a.128.128,0,0,1-.051-.01l-2.154-1.244,1.825-1.053,2.228,1.252-1.821,1.052Zm-13.191-.178a.124.124,0,0,1-.05-.009l-2.154-1.244,2.924-1.688,2.229,1.253-2.922,1.686Zm21.121-.506a.115.115,0,0,1-.048-.009l-2.155-1.244,16.594-9.581,2.228,1.254-16.592,9.578Zm-12.876-.358a.128.128,0,0,1-.05-.009l-2.154-1.244,1.824-1.053,2.229,1.252-1.822,1.052Zm7.931-.683a.123.123,0,0,1-.05-.009l-2.154-1.244,1.825-1.052,2.227,1.251-1.821,1.052Zm-19.55-.4a.123.123,0,0,1-.05-.009l-2.155-1.244,1.825-1.053,2.229,1.252-1.822,1.052Zm7.459-.41a.111.111,0,0,1-.048-.009l-2.156-1.244,1.825-1.054,2.228,1.253-1.822,1.052Zm7.145-.23a.128.128,0,0,1-.05-.009l-2.154-1.244,1.824-1.052,2.23,1.252-1.822,1.051Zm7.931-.682a.128.128,0,0,1-.05-.009L216.874,240l1.825-1.053,2.229,1.253-1.823,1.051Zm-19.55-.4a.128.128,0,0,1-.05-.009l-2.154-1.244,1.824-1.052,2.229,1.251-1.821,1.052Zm7.459-.41a.115.115,0,0,1-.048-.009l-2.155-1.244,1.824-1.054,2.229,1.253-1.822,1.052Zm7.147-.229a.121.121,0,0,1-.049-.009l-2.156-1.244,1.824-1.053,2.229,1.253-1.822,1.051Zm-21.686,0a.117.117,0,0,1-.049-.009l-2.156-1.244,2.3-1.326,2.228,1.253-2.294,1.324Zm29.615-.682a.117.117,0,0,1-.049-.009l-2.155-1.244,1.825-1.053,2.228,1.252-1.821,1.052Zm-19.549-.4a.123.123,0,0,1-.05-.009l-2.155-1.244,1.825-1.053,2.228,1.252-1.821,1.052Zm7.46-.411a.119.119,0,0,1-.049-.008l-2.157-1.244,1.826-1.054,2.228,1.253L210,238.716Zm7.144-.229a.115.115,0,0,1-.048-.009l-2.156-1.244,1.825-1.053,2.229,1.253-1.823,1.051Zm7.931-.683a.154.154,0,0,1-.05-.008l-2.154-1.245,1.825-1.052,2.227,1.252-1.821,1.051Zm-27.846-.339a.115.115,0,0,1-.048-.009L195,236.212l1.825-1.053,2.229,1.253-1.823,1.051Zm8.3-.061a.124.124,0,0,1-.051-.01l-2.154-1.244,1.824-1.053,2.23,1.253-1.823,1.051Zm7.459-.411a.113.113,0,0,1-.049-.009l-2.156-1.244,1.825-1.054,2.228,1.253-1.822,1.052Zm7.145-.229a.145.145,0,0,1-.05-.009l-2.155-1.245,1.825-1.052,2.229,1.253-1.822,1.05Zm7.931-.682a.121.121,0,0,1-.049-.01l-2.156-1.244,1.825-1.053,2.229,1.253-1.823,1.051Zm-27.846-.341a.119.119,0,0,1-.05-.009l-2.154-1.244,1.824-1.054,2.229,1.253-1.822,1.052Zm8.294-.061a.109.109,0,0,1-.047-.009l-2.156-1.245,1.825-1.052,2.229,1.253-1.822,1.05Zm7.461-.411a.117.117,0,0,1-.049-.009l-2.155-1.244,1.824-1.054,2.229,1.253-1.822,1.052Zm7.145-.228a.111.111,0,0,1-.048-.009l-2.156-1.245,1.825-1.053,2.228,1.253-1.822,1.051Zm7.93-.684a.115.115,0,0,1-.048-.009l-2.156-1.244,1.825-1.053,2.228,1.252-1.821,1.052Zm-27.845-.34a.124.124,0,0,1-.05-.009l-2.153-1.244,1.824-1.053,2.228,1.253-1.822,1.051Zm8.3-.061a.123.123,0,0,1-.05-.009l-2.155-1.244,1.826-1.053,2.228,1.253-1.822,1.051Zm27.324-.191a.113.113,0,0,1-.049-.009l-2.156-1.244,2.3-1.325,2.229,1.253-2.293,1.323Zm-19.864-.219a.113.113,0,0,1-.049-.009l-2.157-1.244,1.826-1.054,2.228,1.253-1.822,1.052Zm7.143-.229a.109.109,0,0,1-.047-.009l-2.156-1.245,1.825-1.053,2.229,1.253-1.823,1.051Zm7.932-.684a.154.154,0,0,1-.05-.008l-2.154-1.244,1.825-1.053,2.228,1.253-1.822,1.05Zm-27.846-.339a.115.115,0,0,1-.048-.009l-2.155-1.244,1.824-1.054,2.229,1.253-1.823,1.052Zm8.3-.061a.128.128,0,0,1-.051-.01l-2.154-1.244,1.825-1.053,2.229,1.253-1.823,1.051Zm7.459-.411a.117.117,0,0,1-.049-.009l-2.156-1.244,1.825-1.054,2.229,1.253-1.823,1.052Zm20.336-.052a.124.124,0,0,1-.051-.01l-2.154-1.244,2.3-1.325,2.229,1.252-2.294,1.324Zm-13.191-.177a.145.145,0,0,1-.05-.009l-2.155-1.244,1.826-1.053,2.228,1.253-1.822,1.05Zm7.931-.682a.128.128,0,0,1-.051-.01l-2.154-1.244,1.825-1.053,2.228,1.252-1.822,1.052Zm-19.551-.4a.121.121,0,0,1-.048-.008l-2.156-1.245,1.824-1.053,2.23,1.253-1.822,1.05Zm7.459-.411a.144.144,0,0,1-.048-.008l-2.156-1.245,1.825-1.052,2.228,1.252-1.821,1.051Zm7.146-.228a.111.111,0,0,1-.048-.009l-2.156-1.245,1.825-1.053,2.228,1.253-1.822,1.051Zm-21.6-.05a.115.115,0,0,1-.048-.009l-2.156-1.244,1.825-1.054,2.229,1.253-1.822,1.052Zm35.264-.046a.128.128,0,0,1-.05-.009l-2.154-1.244,2.3-1.326,2.228,1.253-2.293,1.324Zm-5.733-.587a.1.1,0,0,1-.046-.009l-2.157-1.245,1.825-1.052,2.229,1.252L240,229.185Zm-19.548-.4a.123.123,0,0,1-.051-.01l-2.153-1.243,1.824-1.054,2.229,1.253-1.822,1.051Zm7.459-.411a.111.111,0,0,1-.048-.009l-2.156-1.244,1.825-1.054,2.228,1.253-1.822,1.052Zm7.145-.229a.115.115,0,0,1-.048-.009l-2.156-1.245,1.825-1.052,2.229,1.252-1.823,1.051Zm-21.6-.05a.111.111,0,0,1-.048-.009l-2.156-1.244,1.825-1.053,2.228,1.253-1.822,1.051Zm35.735-.318a.117.117,0,0,1-.049-.009l-2.156-1.244,2.925-1.689,2.228,1.254-2.921,1.686Zm-6.2-.314a.116.116,0,0,1-.049-.01l-2.156-1.244,5.753-3.322,2.228,1.253-5.75,3.32Zm-19.552-.4a.126.126,0,0,1-.049-.009l-2.154-1.245,1.825-1.052,2.229,1.252-1.823,1.051Zm7.461-.411a.117.117,0,0,1-.049-.009l-2.155-1.244,1.824-1.054,2.229,1.253L230.9,226.65Zm7.144-.229a.11.11,0,0,1-.047-.008l-2.157-1.245,1.826-1.053,2.228,1.253-1.822,1.051Zm-21.6-.049a.117.117,0,0,1-.049-.009l-2.156-1.244,1.825-1.054,2.229,1.253-1.823,1.052Zm9.98-1.034a.126.126,0,0,1-.049-.009l-2.154-1.245,1.825-1.053,2.229,1.253-1.822,1.051Zm27.482-.282a.1.1,0,0,1-.046-.009l-2.158-1.245,1.825-1.052,2.228,1.253-1.822,1.05Zm-20.021-.13a.146.146,0,0,1-.049-.008l-2.156-1.245,1.825-1.052,2.228,1.252-1.821,1.051ZM241,224.7a.1.1,0,0,1-.046-.009l-2.157-1.245,1.667-.962a.354.354,0,0,0,.186-.3.366.366,0,0,0-.2-.318l-2.831-1.634,2.14-1.234,5.6,3.2-4.337,2.5Zm-21.6-.05a.115.115,0,0,1-.048-.009L217.2,223.4l1.825-1.054,2.229,1.253-1.822,1.052Zm9.983-1.034a.111.111,0,0,1-.048-.009l-2.155-1.244L229,221.309l2.228,1.253-1.822,1.051Zm27.481-.282a.117.117,0,0,1-.049-.009l-2.156-1.244,1.825-1.053,2.229,1.253-1.823,1.051Zm-20.021-.129a.113.113,0,0,1-.049-.009l-2.156-1.244,1.825-1.053,2.228,1.253-1.821,1.051Zm-13.158-1.029a.113.113,0,0,1-.048-.008l-2.156-1.245,1.825-1.053,2.228,1.253-1.822,1.051Zm8.682-.284a.126.126,0,0,1-.049-.009l-2.153-1.244,1.824-1.053,2.229,1.252-1.823,1.051Zm27.483-.281a.109.109,0,0,1-.051-.01l-2.155-1.244,1.826-1.053,2.228,1.253-1.822,1.051Zm-6.361-.225a.134.134,0,0,1-.05-.008l-2.154-1.246,1.825-1.052,2.229,1.253-1.823,1.051Zm-26.818-.933a.113.113,0,0,1-.049-.009l-2.156-1.244,1.825-1.053,2.228,1.252-1.821,1.052Zm8.681-.284a.115.115,0,0,1-.048-.009l-2.154-1.244,3.238-1.87,2.229,1.252-3.236,1.868Zm28.111-.645a.111.111,0,0,1-.048-.009l-2.156-1.244,4.81-2.777,2.229,1.253-4.808,2.775Zm-19.707-.311a.13.13,0,0,1-.05-.008l-2.154-1.244,1.825-1.054,2.228,1.252-1.822,1.053Zm-14.1-.484a.117.117,0,0,1-.049-.009l-2.156-1.244,1.825-1.053,2.229,1.252-1.822,1.052Zm30.433-1.153a.123.123,0,0,1-.05-.009l-2.154-1.244,1.825-1.054,2.228,1.252-1.822,1.053Zm-13.348-.086a.128.128,0,0,1-.05-.009l-2.153-1.244,1.823-1.054,2.23,1.253-1.823,1.052Zm-6.359-.225a.146.146,0,0,1-.049-.008l-2.156-1.245L240,214.959l2.228,1.253-1.821,1.051Zm-7.741-.259a.107.107,0,0,1-.048-.009l-2.157-1.244,1.826-1.053,2.228,1.252L232.668,217Zm36.792-.929a.121.121,0,0,1-.049-.009l-2.154-1.244,1.825-1.054,2.228,1.253-1.822,1.052Zm-6.359-.225a.128.128,0,0,1-.05-.009l-2.154-1.244,1.824-1.053,2.229,1.252L263.1,215.85Zm-13.348-.086a.122.122,0,0,1-.049-.009l-2.155-1.244,1.825-1.053,2.229,1.252-1.822,1.052Zm6.989-.138a.113.113,0,0,1-.049-.009l-2.156-1.244,1.825-1.053,2.228,1.252-1.821,1.052Zm-13.348-.086a.128.128,0,0,1-.05-.009l-2.154-1.244,1.824-1.054,2.229,1.253-1.822,1.052Zm-7.08-.641a.117.117,0,0,1-.049-.009l-2.156-1.244,1.825-1.054,2.229,1.253-1.822,1.052Zm36.132-.548a.123.123,0,0,1-.05-.009l-5.528-3.192,1.824-1.054,5.6,3.2-1.823,1.053Zm-6.36-.225a.123.123,0,0,1-.049-.008l-2.155-1.244,1.825-1.054,2.229,1.253-1.822,1.052ZM259.7,213.9a.117.117,0,0,1-.049-.009l-2.156-1.244,1.825-1.053,2.229,1.252-1.822,1.052Zm-13.348-.086a.117.117,0,0,1-.049-.009l-2.155-1.244,1.824-1.054,2.229,1.253-1.821,1.052Zm6.989-.138a.13.13,0,0,1-.047-.008l-2.158-1.246,1.825-1.052,2.228,1.253-1.821,1.05Zm-14.069-.5a.123.123,0,0,1-.049-.008l-2.156-1.245,1.825-1.053,2.229,1.253-1.821,1.051Zm23.413-1a.133.133,0,0,1-.048-.008l-2.157-1.245,1.826-1.052,2.229,1.252-1.822,1.051Zm-6.359-.223a.109.109,0,0,1-.047-.009L254.12,210.7l1.825-1.053,2.229,1.253-1.822,1.051Zm-6.36-.225a.111.111,0,0,1-.048-.009l-2.155-1.244,1.824-1.054,2.228,1.253-1.822,1.051Zm-7.708-.278a.113.113,0,0,1-.049-.009l-2.156-1.244,1.825-1.054L244.1,210.4l-1.822,1.052Zm23.413-1a.123.123,0,0,1-.05-.009l-5.529-3.192,1.825-1.053,5.6,3.2-1.823,1.053Zm-6.361-.224a.1.1,0,0,1-.045-.009l-2.159-1.245,1.826-1.053,2.228,1.253-1.822,1.051Zm-6.359-.225A.112.112,0,0,1,252.9,210l-2.157-1.244,1.824-1.054,2.229,1.253-1.823,1.051ZM245,208.867a.113.113,0,0,1-.049-.009l-.936-.528,1.825-1.054,1,.541-1.814,1.048Zm10.931-.582a.1.1,0,0,1-.047-.009l-2.156-1.244,1.825-1.054,2.228,1.253-1.822,1.051Zm-7.946-1.142a.128.128,0,0,1-.05-.009l-.934-.528,1.824-1.054,1,.541-1.814,1.048Zm10.932-.582a.111.111,0,0,1-.048-.009l-2.155-1.244,1.824-1.053,2.228,1.252-1.821,1.051Zm-7.947-1.141a.121.121,0,0,1-.049-.009l-.935-.529,1.824-1.053,1,.541L251,205.418Zm2.987-1.723a.124.124,0,0,1-.051-.01l-.936-.528L254.8,202.1l1,.541-1.815,1.048Z" opacity="0.5"/>
          </g>
        </g>
        <g id="PC">
          <path id="Shadow-4" data-name="Shadow" d="M162.354,211.145l-24.372-14.071,121.861-70.356,24.373,14.071Z" opacity="0.05"/>
          <g id="Monitor">
            <g id="Group_234" data-name="Group 234">
              <g id="Group_233" data-name="Group 233">
                <path id="Path_483" data-name="Path 483" d="M235.927,190.809l17.4-10.061c1.794-1.035,2.69-2.392,2.691-3.749s.007-2.421.007-2.421l-20.939-11.863a3.829,3.829,0,0,1-1.732-3V138.263l-30.391,17.561v21.452a3.826,3.826,0,0,0,1.732,3l18.243,10.533A14.358,14.358,0,0,0,235.927,190.809Z" fill="#e6e6e6"/>
              </g>
              <path id="Path_484" data-name="Path 484" d="M210.258,181.075v2.41l-5.57-3.21a3.832,3.832,0,0,1-1.73-3v-21.45l5.79-3.34c.12,1.47.25,2.99.37,4.47l-4.06,2.35v16.76a3.805,3.805,0,0,0,1.73,3Z" fill="#e0e0e0"/>
              <path id="Path_485" data-name="Path 485" d="M205.057,176.069a3.83,3.83,0,0,0,1.732,3l16.145,9.321a14.361,14.361,0,0,0,12.991,0l17.408-10.06c3.588-2.07,3.589-5.427,0-7.5l-16.152-9.326a3.829,3.829,0,0,1-1.732-3V141.745l-30.392,17.561Z" fill="#f5f5f5"/>
              <path id="Path_486" data-name="Path 486" d="M240.709,163.546v0l-3.527-2.036a3.829,3.829,0,0,1-1.732-3V141.745l-30.392,17.561v16.763a3.829,3.829,0,0,0,1.733,3l3.466,2Z" fill="#ebebeb"/>
              <path id="Path_487" data-name="Path 487" d="M256.021,174.58V177c0,1.36-.9,2.71-2.69,3.75l-17.4,10.055a13.025,13.025,0,0,1-6.2,1.54v-2.41a13.025,13.025,0,0,0,6.2-1.54l17.4-10.065C255.121,177.3,256.021,175.94,256.021,174.58Z" fill="#ebebeb"/>
            </g>
            <path id="Path_488" data-name="Path 488" d="M156.26,199.212a4.645,4.645,0,0,0,4.2-.078l117.533-67.856a4.784,4.784,0,0,0,2.165-3.749V24.653a4.643,4.643,0,0,0-2.031-3.672,4.639,4.639,0,0,0-4.2.078L156.4,88.915a4.784,4.784,0,0,0-2.165,3.75l0,102.874A4.645,4.645,0,0,0,156.26,199.212Z" fill="#455a64"/>
            <path id="Path_489" data-name="Path 489" d="M160.457,199.132l117.532-67.856a4.785,4.785,0,0,0,2.165-3.75V24.651c0-1.381-.969-1.941-2.165-1.25L160.458,91.257a4.786,4.786,0,0,0-2.165,3.75V197.882C158.292,199.262,159.261,199.822,160.457,199.132Z" fill="#640000"/>
            <path id="Path_490" data-name="Path 490" d="M160.457,199.132l117.532-67.856a4.785,4.785,0,0,0,2.165-3.75V24.651c0-1.381-.969-1.941-2.165-1.25L160.458,91.257a4.786,4.786,0,0,0-2.165,3.75V197.882C158.292,199.262,159.261,199.822,160.457,199.132Z" fill="#37474f"/>
            <path id="Path_491" data-name="Path 491" d="M160.138,199.295a4.047,4.047,0,0,1-5.91-3.76v-11.57l4.06,2.35v11.57C158.288,199.145,159.088,199.715,160.138,199.295Z" fill="#e0e0e0"/>
            <path id="Path_492" data-name="Path 492" d="M158.292,186.312v11.57c0,1.38.969,1.94,2.165,1.25l117.532-67.856a4.785,4.785,0,0,0,2.165-3.75v-11.57Z" fill="#fff"/>
            <path id="Path_493" data-name="Path 493" d="M162.353,177.777V96.355a2.87,2.87,0,0,1,1.3-2.25L274.791,29.94c.717-.415,1.3-.079,1.3.75l0,81.423a2.867,2.867,0,0,1-1.3,2.25L163.652,178.527C162.935,178.941,162.353,178.6,162.353,177.777Z" fill="#640000"/>
            <path id="Path_494" data-name="Path 494" d="M162.353,177.777V96.355a2.87,2.87,0,0,1,1.3-2.25L274.791,29.94c.717-.415,1.3-.079,1.3.75l0,81.423a2.867,2.867,0,0,1-1.3,2.25L163.652,178.527C162.935,178.941,162.353,178.6,162.353,177.777Z" fill="#fff" opacity="0.5"/>
            <path id="Path_495" data-name="Path 495" d="M168.926,95.679,267.88,38.548c.718-.414,1.3-.078,1.3.75v72.049a2.869,2.869,0,0,1-1.3,2.248l-98.952,57.132c-.718.413-1.3.077-1.3-.752V97.929A2.872,2.872,0,0,1,168.926,95.679Z" fill="#455a64"/>
            <g id="Group_236" data-name="Group 236">
              <path id="Path_496" data-name="Path 496" d="M171.691,104.833v45.3c0,.276.194.387.433.25l7.258-4.191a.958.958,0,0,0,.433-.75v-45.3c0-.276-.194-.388-.433-.25l-7.258,4.19A.958.958,0,0,0,171.691,104.833Z" fill="#263238"/>
              <g id="Group_235" data-name="Group 235">
                <path id="Path_497" data-name="Path 497" d="M172.7,105.9l2.4-1.384c.179-.1.324-.019.324.187v2.768a.717.717,0,0,1-.325.562l-2.4,1.384c-.179.1-.325.02-.325-.187v-2.768A.715.715,0,0,1,172.7,105.9Z" fill="#37474f"/>
                <path id="Path_498" data-name="Path 498" d="M176.407,103.762l2.4-1.384c.18-.1.325-.02.325.187v2.768a.717.717,0,0,1-.325.562l-2.4,1.384c-.18.1-.325.02-.325-.187v-2.768A.715.715,0,0,1,176.407,103.762Z" fill="#37474f"/>
                <path id="Path_499" data-name="Path 499" d="M172.7,110.1l2.4-1.384c.179-.1.324-.019.324.188v2.767a.717.717,0,0,1-.325.562l-2.4,1.384c-.179.1-.325.02-.325-.187v-2.768A.715.715,0,0,1,172.7,110.1Z" fill="#37474f"/>
                <path id="Path_500" data-name="Path 500" d="M176.407,107.96l2.4-1.384c.18-.1.325-.019.325.188v2.767a.717.717,0,0,1-.325.562l-2.4,1.384c-.18.1-.325.02-.325-.187v-2.768A.715.715,0,0,1,176.407,107.96Z" fill="#37474f"/>
                <path id="Path_501" data-name="Path 501" d="M172.7,114.3l2.4-1.383c.179-.1.324-.02.324.187v2.767a.721.721,0,0,1-.325.563l-2.4,1.384c-.179.1-.325.019-.325-.188V114.86A.718.718,0,0,1,172.7,114.3Z" fill="#37474f"/>
                <path id="Path_502" data-name="Path 502" d="M176.407,112.158l2.4-1.384c.18-.1.325-.019.325.188v2.767a.721.721,0,0,1-.325.563l-2.4,1.384c-.18.1-.325.019-.325-.188v-2.767A.717.717,0,0,1,176.407,112.158Z" fill="#37474f"/>
                <path id="Path_503" data-name="Path 503" d="M172.7,118.5l2.4-1.384c.179-.1.324-.02.324.187v2.768a.719.719,0,0,1-.325.562l-2.4,1.384c-.179.1-.325.02-.325-.188v-2.767A.715.715,0,0,1,172.7,118.5Z" fill="#37474f"/>
                <path id="Path_504" data-name="Path 504" d="M176.407,116.356l2.4-1.383c.18-.1.325-.02.325.187v2.767a.719.719,0,0,1-.325.563l-2.4,1.384c-.18.1-.325.02-.325-.188v-2.767A.718.718,0,0,1,176.407,116.356Z" fill="#37474f"/>
                <path id="Path_505" data-name="Path 505" d="M172.7,122.694l2.4-1.384c.179-.1.324-.019.324.188v2.767a.717.717,0,0,1-.325.562l-2.4,1.384c-.179.1-.325.02-.325-.187v-2.768A.715.715,0,0,1,172.7,122.694Z" fill="#37474f"/>
                <path id="Path_506" data-name="Path 506" d="M176.407,120.555l2.4-1.384c.18-.1.325-.02.325.188v2.767a.717.717,0,0,1-.325.562l-2.4,1.384c-.18.1-.325.02-.325-.187v-2.768A.715.715,0,0,1,176.407,120.555Z" fill="#37474f"/>
                <path id="Path_507" data-name="Path 507" d="M172.7,126.892l2.4-1.384c.179-.1.324-.019.324.188v2.767a.717.717,0,0,1-.325.562l-2.4,1.384c-.179.1-.325.02-.325-.187v-2.768A.716.716,0,0,1,172.7,126.892Z" fill="#37474f"/>
                <path id="Path_508" data-name="Path 508" d="M176.407,124.753l2.4-1.384c.18-.1.325-.019.325.188v2.767a.717.717,0,0,1-.325.562l-2.4,1.384c-.18.1-.325.02-.325-.187v-2.768A.715.715,0,0,1,176.407,124.753Z" fill="#37474f"/>
                <path id="Path_509" data-name="Path 509" d="M172.7,131.09l2.4-1.383c.179-.1.324-.02.324.187v2.767a.719.719,0,0,1-.325.563l-2.4,1.384c-.179.1-.325.019-.325-.188v-2.767A.718.718,0,0,1,172.7,131.09Z" fill="#37474f"/>
                <path id="Path_510" data-name="Path 510" d="M176.407,128.951l2.4-1.383c.18-.1.325-.02.325.187v2.767a.721.721,0,0,1-.325.563l-2.4,1.384c-.18.1-.325.019-.325-.188v-2.767A.717.717,0,0,1,176.407,128.951Z" fill="#37474f"/>
                <path id="Path_511" data-name="Path 511" d="M172.7,135.289l2.4-1.384c.179-.1.324-.02.324.187v2.768a.717.717,0,0,1-.325.562l-2.4,1.384c-.179.1-.325.02-.325-.187v-2.768A.715.715,0,0,1,172.7,135.289Z" fill="#37474f"/>
                <path id="Path_512" data-name="Path 512" d="M176.407,133.149l2.4-1.383c.18-.1.325-.02.325.187v2.768a.719.719,0,0,1-.325.562l-2.4,1.384c-.18.1-.325.02-.325-.187v-2.768A.718.718,0,0,1,176.407,133.149Z" fill="#37474f"/>
              </g>
              <path id="Path_513" data-name="Path 513" d="M172.859,140.55l3.575-2.064c.267-.154.484-.029.484.28v4.128a1.071,1.071,0,0,1-.485.839L172.86,145.8c-.268.155-.485.03-.485-.279v-4.129A1.071,1.071,0,0,1,172.859,140.55Z" fill="#e0e0e0"/>
              <path id="Path_514" data-name="Path 514" d="M178.44,141.253v3.384a.372.372,0,0,1-.109.193l-2.934,1.695V143.14a.383.383,0,0,1,.109-.193l2.934-1.694m.482-1.086a.438.438,0,0,0-.217.066l-3.574,2.064a1.072,1.072,0,0,0-.484.839v4.129c0,.219.109.346.268.346a.437.437,0,0,0,.216-.067l3.575-2.064a1.07,1.07,0,0,0,.484-.839v-4.128c0-.219-.11-.346-.268-.346Z" fill="#455a64"/>
            </g>
            <path id="Path_515" data-name="Path 515" d="M186.041,103.388l56.6-32.679c1.2-.69,2.165-.13,2.165,1.25v41.929a4.782,4.782,0,0,1-2.165,3.749l-56.6,32.656c-1.2.69-2.165.13-2.165-1.251v-41.9A4.784,4.784,0,0,1,186.041,103.388Z" fill="#37474f"/>
            <path id="Path_516" data-name="Path 516" d="M269.179,39.288c0-.821-.584-1.152-1.3-.74L168.926,95.679a2.872,2.872,0,0,0-1.3,2.25v5.536L269.179,44.834Z" fill="#37474f"/>
            <path id="Path_517" data-name="Path 517" d="M219.221,155.825a4.492,4.492,0,0,0-2.031,3.518c0,1.3.91,1.821,2.032,1.173A4.49,4.49,0,0,0,221.253,157C221.253,155.7,220.343,155.177,219.221,155.825Z" fill="#455a64"/>
            <path id="Path_518" data-name="Path 518" d="M158.928,92.865a4.6,4.6,0,0,0-.64,2.14v91.31l-4.06-2.35v-91.3a4.483,4.483,0,0,1,.64-2.14Z" fill="#263238"/>
          </g>
        </g>
        <g id="Tablet">
          <path id="Shadow-5" data-name="Shadow" d="M266.546,194.915l52.523-30.324a1.968,1.968,0,0,1,1.781,0l31.638,18.266a.543.543,0,0,1,0,1.028l-52.524,30.324a1.962,1.962,0,0,1-1.781,0l-31.637-18.265A.543.543,0,0,1,266.546,194.915Z" opacity="0.05"/>
          <g id="Tablet-2" data-name="Tablet">
            <g id="Group_237" data-name="Group 237">
              <path id="Path_519" data-name="Path 519" d="M267.413,191.65l51.075-29.487a1.909,1.909,0,0,1,1.732,0l30.764,17.761a1.915,1.915,0,0,1,.866,1.5v.345a1.91,1.91,0,0,1-.865,1.5l-51.076,29.488a1.915,1.915,0,0,1-1.732,0l-30.764-17.762a1.913,1.913,0,0,1-.866-1.5v-.346A1.915,1.915,0,0,1,267.413,191.65Z" fill="#640000"/>
            </g>
            <g id="Group_238" data-name="Group 238">
              <path id="Path_520" data-name="Path 520" d="M267.413,191.65l51.075-29.487a1.909,1.909,0,0,1,1.732,0l30.764,17.761a.528.528,0,0,1,0,1L299.91,210.412a1.915,1.915,0,0,1-1.732,0L267.413,192.65A.528.528,0,0,1,267.413,191.65Z" fill="#640000"/>
            </g>
            <g id="Group_239" data-name="Group 239" opacity="0.2">
              <path id="Path_521" data-name="Path 521" d="M267.413,191.65l51.075-29.487a1.909,1.909,0,0,1,1.732,0l30.764,17.761a.528.528,0,0,1,0,1L299.91,210.412a1.915,1.915,0,0,1-1.732,0L267.413,192.65A.528.528,0,0,1,267.413,191.65Z"/>
            </g>
            <g id="Group_240" data-name="Group 240">
              <path id="Path_522" data-name="Path 522" d="M318.484,166.857a1.927,1.927,0,0,1,1.735,0c3.81,2.171,18.858,10.886,22.639,13.076a.529.529,0,0,1,0,1c-4.976,2.871-29.873,17.235-34.827,20.1a1.909,1.909,0,0,1-1.732,0l-22.64-13.07a.528.528,0,0,1,0-1Z" fill="#455a64"/>
            </g>
            <g id="Group_241" data-name="Group 241">
              <path id="Path_523" data-name="Path 523" d="M286.857,195.995c-1.52.878-1.52,2.3,0,3.18a6.08,6.08,0,0,0,5.507,0c1.521-.878,1.521-2.3,0-3.18A6.086,6.086,0,0,0,286.857,195.995Z" fill="#37474f"/>
            </g>
            <g id="Group_242" data-name="Group 242">
              <path id="Path_524" data-name="Path 524" d="M295.414,199.3l-2.471,1.442c-.717.414-.844,1.011-.284,1.335a2.607,2.607,0,0,0,2.316-.162l2.47-1.442c.718-.414.845-1.011.284-1.335A2.6,2.6,0,0,0,295.414,199.3Z" fill="#37474f"/>
              <path id="Path_525" data-name="Path 525" d="M298.3,200.97l-2.471,1.442c-.717.414-.845,1.011-.284,1.335a2.6,2.6,0,0,0,2.315-.162l2.471-1.442c.718-.414.845-1.011.284-1.335A2.6,2.6,0,0,0,298.3,200.97Z" fill="#37474f"/>
              <path id="Path_526" data-name="Path 526" d="M301.184,202.642l-2.471,1.442c-.718.414-.845,1.011-.284,1.335a2.6,2.6,0,0,0,2.315-.162l2.471-1.442c.718-.414.845-1.011.284-1.335A2.6,2.6,0,0,0,301.184,202.642Z" fill="#37474f"/>
            </g>
            <g id="Group_243" data-name="Group 243">
              <path id="Path_527" data-name="Path 527" d="M278.831,189.765l-2.471,1.442c-.718.413-.845,1.011-.284,1.335a2.6,2.6,0,0,0,2.315-.163l2.471-1.441c.718-.414.845-1.012.284-1.336A2.6,2.6,0,0,0,278.831,189.765Z" fill="#37474f"/>
              <path id="Path_528" data-name="Path 528" d="M281.716,191.437l-2.471,1.442c-.718.413-.845,1.011-.284,1.335a2.6,2.6,0,0,0,2.315-.163l2.471-1.441c.717-.414.845-1.012.284-1.336A2.608,2.608,0,0,0,281.716,191.437Z" fill="#37474f"/>
              <path id="Path_529" data-name="Path 529" d="M284.6,193.109l-2.47,1.442c-.718.413-.845,1.011-.285,1.335a2.6,2.6,0,0,0,2.316-.163l2.47-1.441c.718-.414.846-1.012.285-1.335A2.6,2.6,0,0,0,284.6,193.109Z" fill="#37474f"/>
            </g>
            <g id="Group_244" data-name="Group 244" opacity="0.3">
              <path id="Path_530" data-name="Path 530" d="M299.043,210.622v2.34a1.889,1.889,0,0,1-.869-.2l-30.76-17.77a1.894,1.894,0,0,1-.871-1.5v-.34a1.937,1.937,0,0,1,.711-1.39c-.31.27-.26.64.16.89l30.76,17.76A1.75,1.75,0,0,0,299.043,210.622Z"/>
            </g>
            <g id="Group_245" data-name="Group 245" opacity="0.5">
              <path id="Path_531" data-name="Path 531" d="M351.854,181.422v.35a1.923,1.923,0,0,1-.87,1.5l-51.07,29.49a1.748,1.748,0,0,1-.871.2v-2.34a1.752,1.752,0,0,0,.871-.21l51.07-29.49c.42-.24.47-.61.16-.89A1.958,1.958,0,0,1,351.854,181.422Z"/>
            </g>
          </g>
        </g>
        <g id="Palettes">
          <path id="Shadow-6" data-name="Shadow" d="M338.055,128.825a.822.822,0,0,0-.616-.4l-44.033-6.812-.173-.013a.849.849,0,0,0-.8.445l-1.9,4.1-2.357,2.357a.662.662,0,0,0-.14.232l-1.311.756a.652.652,0,0,0,0,1.162l32.236,18.611a1.07,1.07,0,0,0,1.011,0l6.678-3.856a.652.652,0,0,0,0-1.16l-7.846-4.53,9.179,3.06a1.084,1.084,0,0,0,.339.053.943.943,0,0,0,.666-.25l4.722-4.722a.641.641,0,0,0,.177-.6.725.725,0,0,0-.506-.511l-10.421-3.474,11.7,1.81.17.013a.849.849,0,0,0,.8-.444l2.444-5.265A.625.625,0,0,0,338.055,128.825Z" opacity="0.05"/>
          <g id="Palette">
            <g id="Group_253" data-name="Group 253">
              <g id="Group_252" data-name="Group 252">
                <path id="Path_532" data-name="Path 532" d="M326.5,142.875a.179.179,0,0,0-.1-.148l-32.236-18.611a.561.561,0,0,0-.511,0l-6.677,3.855a.178.178,0,0,0-.105.147v1a.177.177,0,0,0,.105.148l32.236,18.612a.568.568,0,0,0,.511,0l6.677-3.855a.18.18,0,0,0,.1-.148Z" fill="#37474f"/>
                <path id="Path_533" data-name="Path 533" d="M319.457,146.942v1a.514.514,0,0,1-.25-.06l-32.24-18.62a.166.166,0,0,1-.1-.14v-1c0,.06.03.1.1.14l32.24,18.61A.489.489,0,0,0,319.457,146.942Z" fill="#263238"/>
                <path id="Path_534" data-name="Path 534" d="M294.158,124.116l32.236,18.611a.156.156,0,0,1,0,.295l-6.677,3.855a.568.568,0,0,1-.511,0L286.97,128.266a.156.156,0,0,1,0-.3l6.677-3.855A.561.561,0,0,1,294.158,124.116Z" fill="#455a64"/>
                <g id="Group_251" data-name="Group 251">
                  <path id="Path_535" data-name="Path 535" d="M293.9,125.813l-3.993,2.306,3.994,2.305,3.992-2.305Z" fill="#ffa8a7"/>
                  <g id="Group_246" data-name="Group 246">
                    <path id="Path_536" data-name="Path 536" d="M304.126,131.715l-3.992,2.305,3.994,2.305,3.992-2.305Z" fill="#ffa8a7"/>
                    <path id="Path_537" data-name="Path 537" d="M304.126,131.715l-3.992,2.305,3.994,2.305,3.992-2.305Z" fill="#f0f0f0" opacity="0.7"/>
                  </g>
                  <g id="Group_247" data-name="Group 247">
                    <path id="Path_538" data-name="Path 538" d="M309.237,134.667l-3.992,2.306,3.994,2.305,3.992-2.305Z" fill="#ffa8a7"/>
                    <path id="Path_539" data-name="Path 539" d="M309.237,134.667l-3.992,2.306,3.994,2.305,3.992-2.305Z" fill="#f0f0f0" opacity="0.6"/>
                  </g>
                  <g id="Group_248" data-name="Group 248">
                    <path id="Path_540" data-name="Path 540" d="M314.349,137.618l-3.992,2.306,3.994,2.306,3.992-2.305Z" fill="#ffa8a7"/>
                    <path id="Path_541" data-name="Path 541" d="M314.349,137.618l-3.992,2.306,3.994,2.306,3.992-2.305Z" fill="#f0f0f0" opacity="0.8"/>
                  </g>
                  <g id="Group_249" data-name="Group 249">
                    <path id="Path_542" data-name="Path 542" d="M319.461,140.569l-3.992,2.305,3.994,2.305,3.992-2.305Z" fill="#ffa8a7"/>
                    <path id="Path_543" data-name="Path 543" d="M319.461,140.569l-3.992,2.305,3.994,2.305,3.992-2.305Z" fill="#f0f0f0"/>
                  </g>
                  <g id="Group_250" data-name="Group 250">
                    <path id="Path_544" data-name="Path 544" d="M299.014,128.764l-3.992,2.306,3.994,2.306,3.992-2.305Z" fill="#ffa8a7"/>
                    <path id="Path_545" data-name="Path 545" d="M299.014,128.764l-3.992,2.306,3.994,2.306,3.992-2.305Z" fill="#f0f0f0" opacity="0.6"/>
                  </g>
                </g>
              </g>
            </g>
            <g id="Group_254" data-name="Group 254">
              <path id="Path_546" data-name="Path 546" d="M294.307,125.27a.9.9,0,0,1-.81,0,.247.247,0,0,1,0-.468.9.9,0,0,1,.81,0A.247.247,0,0,1,294.307,125.27Z" fill="#263238"/>
            </g>
          </g>
          <g id="Palette-2" data-name="Palette">
            <g id="Group_261" data-name="Group 261">
              <path id="Path_547" data-name="Path 547" d="M333.4,135.447c0-.072-.065-.141-.18-.179l-39.481-13.161a.528.528,0,0,0-.493.077l-4.721,4.721a.144.144,0,0,0-.048.109v.991c0,.074.062.146.181.185l39.48,13.161a.53.53,0,0,0,.494-.077l4.721-4.721a.149.149,0,0,0,.048-.107C333.4,136.375,333.4,135.483,333.4,135.447Z" fill="#37474f"/>
              <path id="Path_548" data-name="Path 548" d="M328.417,140.362v1.01a.666.666,0,0,1-.28-.02l-39.48-13.16c-.12-.04-.19-.11-.18-.19v-.99c0,.07.07.14.18.18l39.48,13.16A.448.448,0,0,0,328.417,140.362Z" fill="#263238"/>
              <path id="Path_549" data-name="Path 549" d="M293.737,122.107l39.48,13.16c.173.058.232.186.133.285l-4.721,4.722a.53.53,0,0,1-.494.076l-39.48-13.16c-.173-.058-.232-.185-.133-.285l4.721-4.721A.53.53,0,0,1,293.737,122.107Z" fill="#455a64"/>
              <g id="Group_260" data-name="Group 260">
                <path id="Path_550" data-name="Path 550" d="M294.251,123.785l-2.823,2.824,4.891,1.63,2.823-2.823Z" fill="#640000"/>
                <g id="Group_255" data-name="Group 255">
                  <path id="Path_551" data-name="Path 551" d="M306.772,127.958l-2.823,2.824,4.891,1.63,2.823-2.823Z" fill="#640000"/>
                  <path id="Path_552" data-name="Path 552" d="M306.772,127.958l-2.823,2.824,4.891,1.63,2.823-2.823Z" opacity="0.25"/>
                </g>
                <g id="Group_256" data-name="Group 256">
                  <path id="Path_553" data-name="Path 553" d="M313.032,130.045l-2.823,2.824,4.891,1.63,2.823-2.823Z" fill="#640000"/>
                  <path id="Path_554" data-name="Path 554" d="M313.032,130.045l-2.823,2.824,4.891,1.63,2.823-2.823Z" opacity="0.35"/>
                </g>
                <g id="Group_257" data-name="Group 257">
                  <path id="Path_555" data-name="Path 555" d="M319.293,132.132l-2.823,2.824,4.891,1.63,2.823-2.823Z" fill="#640000"/>
                  <path id="Path_556" data-name="Path 556" d="M319.293,132.132l-2.823,2.824,4.891,1.63,2.823-2.823Z" opacity="0.35"/>
                </g>
                <g id="Group_258" data-name="Group 258">
                  <path id="Path_557" data-name="Path 557" d="M325.553,134.219l-2.823,2.824,4.891,1.63,2.823-2.823Z" fill="#640000"/>
                  <path id="Path_558" data-name="Path 558" d="M325.553,134.219l-2.823,2.824,4.891,1.63,2.823-2.823Z" opacity="0.5"/>
                </g>
                <g id="Group_259" data-name="Group 259">
                  <path id="Path_559" data-name="Path 559" d="M300.511,125.871l-2.823,2.824,4.891,1.63L305.4,127.5Z" fill="#640000"/>
                  <path id="Path_560" data-name="Path 560" d="M300.511,125.871l-2.823,2.824,4.891,1.63L305.4,127.5Z" opacity="0.15"/>
                </g>
              </g>
            </g>
            <g id="Group_262" data-name="Group 262">
              <path id="Path_561" data-name="Path 561" d="M294.4,123.2a.839.839,0,0,1-.783.121c-.273-.092-.367-.294-.209-.452a.837.837,0,0,1,.782-.121C294.462,122.839,294.556,123.041,294.4,123.2Z" fill="#263238"/>
            </g>
          </g>
          <g id="Palette-3" data-name="Palette">
            <g id="Group_270" data-name="Group 270">
              <g id="Group_269" data-name="Group 269">
                <path id="Path_562" data-name="Path 562" d="M337.63,127.165c0-.091-.108-.173-.268-.2l-44.035-6.812a.432.432,0,0,0-.442.147l-2.444,5.266a.128.128,0,0,0-.012.053v1c0,.093.106.177.268.2l44.035,6.812a.433.433,0,0,0,.442-.147l2.444-5.266a.134.134,0,0,0,.012-.058Z" fill="#37474f"/>
                <path id="Path_563" data-name="Path 563" d="M334.947,132.632v.99a.537.537,0,0,1-.22.01l-44.03-6.81c-.16-.02-.27-.11-.27-.2v-1c0,.09.11.17.27.2l44.03,6.81A.81.81,0,0,0,334.947,132.632Z" fill="#263238"/>
                <path id="Path_564" data-name="Path 564" d="M293.327,120.155l44.035,6.812c.193.03.307.144.256.255l-2.444,5.266a.435.435,0,0,1-.442.148L290.7,125.823c-.193-.029-.308-.144-.256-.255l2.444-5.266A.432.432,0,0,1,293.327,120.155Z" fill="#455a64"/>
                <g id="Group_268" data-name="Group 268">
                  <path id="Path_565" data-name="Path 565" d="M294.576,121.7l-1.461,3.149,5.455.844,1.461-3.149Z" fill="#640000"/>
                  <g id="Group_263" data-name="Group 263">
                    <path id="Path_566" data-name="Path 566" d="M308.541,123.859l-1.461,3.149,5.455.844L314,124.7Z" fill="#640000"/>
                    <path id="Path_567" data-name="Path 567" d="M308.541,123.859l-1.461,3.149,5.455.844L314,124.7Z" fill="#fff" opacity="0.7"/>
                  </g>
                  <g id="Group_264" data-name="Group 264">
                    <path id="Path_568" data-name="Path 568" d="M315.524,124.939l-1.461,3.149,5.455.844,1.461-3.149Z" fill="#640000"/>
                    <path id="Path_569" data-name="Path 569" d="M315.524,124.939l-1.461,3.149,5.455.844,1.461-3.149Z" fill="#fff" opacity="0.6"/>
                  </g>
                  <g id="Group_265" data-name="Group 265">
                    <path id="Path_570" data-name="Path 570" d="M322.506,126.019l-1.461,3.149,5.455.844,1.461-3.149Z" fill="#640000"/>
                    <path id="Path_571" data-name="Path 571" d="M322.506,126.019l-1.461,3.149,5.455.844,1.461-3.149Z" fill="#fff" opacity="0.8"/>
                  </g>
                  <g id="Group_266" data-name="Group 266">
                    <path id="Path_572" data-name="Path 572" d="M329.489,127.1l-1.461,3.149,5.455.844,1.461-3.149Z" fill="#640000"/>
                    <path id="Path_573" data-name="Path 573" d="M329.489,127.1l-1.461,3.149,5.455.844,1.461-3.149Z" fill="#fff"/>
                  </g>
                  <g id="Group_267" data-name="Group 267">
                    <path id="Path_574" data-name="Path 574" d="M301.558,122.778l-1.461,3.149,5.455.844,1.461-3.149Z" fill="#640000"/>
                    <path id="Path_575" data-name="Path 575" d="M301.558,122.778l-1.461,3.149,5.455.844,1.461-3.149Z" fill="#fff" opacity="0.6"/>
                  </g>
                </g>
              </g>
            </g>
            <g id="Group_271" data-name="Group 271">
              <path id="Path_576" data-name="Path 576" d="M294.456,121.111a.688.688,0,0,1-.7.234c-.3-.047-.487-.229-.4-.4a.686.686,0,0,1,.7-.234C294.356,120.753,294.538,120.935,294.456,121.111Z" fill="#263238"/>
            </g>
          </g>
        </g>
        <g id="Printer">
          <path id="Shadow-7" data-name="Shadow" d="M160,238.043l-44.933-25.981a2.87,2.87,0,0,0-2.6,0L48.593,249.01a.793.793,0,0,0,0,1.5l44.862,25.951a2.867,2.867,0,0,0,2.6,0l10.4-6.008a2.869,2.869,0,0,1,2.6,0l15.421,8.914a2.867,2.867,0,0,0,2.6,0l32.568-18.846a.8.8,0,0,0,0-1.5L144.3,250.11a.794.794,0,0,1,0-1.5l15.7-9.063A.793.793,0,0,0,160,238.043Z" opacity="0.05"/>
          <g id="Printer-2" data-name="Printer">
            <path id="Path_577" data-name="Path 577" d="M96.9,273.284l57.754-33.344a5.263,5.263,0,0,0,2.38-4.123V215.533a5.261,5.261,0,0,0-2.38-4.122l-39.894-23.033a5.26,5.26,0,0,0-4.76,0L52.244,221.723a5.261,5.261,0,0,0-2.38,4.122v20.284a5.261,5.261,0,0,0,2.38,4.122l39.894,23.033A5.26,5.26,0,0,0,96.9,273.284Z" fill="#640000"/>
            <path id="Path_578" data-name="Path 578" d="M94.518,271.91V251.626a5.263,5.263,0,0,0-2.38-4.123L52.244,224.471c-1.314-.759-2.38-.144-2.38,1.374v20.284a5.261,5.261,0,0,0,2.38,4.122l39.894,23.033C93.452,274.043,94.518,273.427,94.518,271.91Z" opacity="0.45"/>
            <path id="Path_579" data-name="Path 579" d="M155.928,212.585l-62.51,36.09a4.4,4.4,0,0,0-1.28-1.17l-39.89-23.03c-1.19-.69-2.17-.26-2.35.95a5.283,5.283,0,0,1,2.35-3.7L110,188.375a5.254,5.254,0,0,1,4.76,0l39.89,23.04A4.278,4.278,0,0,1,155.928,212.585Z" fill="#640000"/>
            <path id="Path_580" data-name="Path 580" d="M155.928,212.585l-62.51,36.09a4.4,4.4,0,0,0-1.28-1.17l-39.89-23.03c-1.19-.69-2.17-.26-2.35.95a5.283,5.283,0,0,1,2.35-3.7L110,188.375a5.254,5.254,0,0,1,4.76,0l39.89,23.04A4.278,4.278,0,0,1,155.928,212.585Z" opacity="0.35"/>
            <path id="Path_581" data-name="Path 581" d="M157.028,215.535v20.28a5.225,5.225,0,0,1-2.38,4.12L96.9,273.285a5.316,5.316,0,0,1-4.4.17c1.14.47,2.02-.17,2.02-1.55v-20.28a5.124,5.124,0,0,0-1.1-2.95l62.51-36.09A5.1,5.1,0,0,1,157.028,215.535Z" opacity="0.55"/>
            <path id="Path_582" data-name="Path 582" d="M74.1,226.774l26.973,15.573a4.761,4.761,0,0,1,2.38,4.123v5.365c0,1.214.853,1.706,1.9,1.1L146.2,229.352a4.206,4.206,0,0,0,1.9-3.3v-5.366a4.759,4.759,0,0,0-2.38-4.122l-26.973-15.573a4.209,4.209,0,0,0-3.808,0L74.1,224.576A1.16,1.16,0,0,0,74.1,226.774Z" fill="#640000" opacity="0.8"/>
            <path id="Path_583" data-name="Path 583" d="M103.448,264.346v-2.578l44.653-25.78v2.578Z" fill="#e0e0e0"/>
            <path id="Path_584" data-name="Path 584" d="M103.448,264.346v-2.578l44.653-25.78v2.578Z" fill="#640000"/>
            <path id="Path_585" data-name="Path 585" d="M103.448,264.346v-2.578l44.653-25.78v2.578Z" opacity="0.8"/>
            <path id="Path_586" data-name="Path 586" d="M106.792,262.418l18.031,10.41a2.1,2.1,0,0,0,1.9,0L160.545,253.3a1.23,1.23,0,0,0,0-2.4l-18.03-10.414-35.723,20.624Z" fill="#e0e0e0"/>
            <path id="Path_587" data-name="Path 587" d="M161.5,252.1a1.831,1.831,0,0,1-.95,1.2l-33.82,19.52a1.964,1.964,0,0,1-.95.23v-1.29a1.992,1.992,0,0,0,.95-.23l33.82-19.53a.583.583,0,0,0,0-1.1A1.809,1.809,0,0,1,161.5,252.1Z" fill="#ebebeb"/>
            <path id="Path_588" data-name="Path 588" d="M124.823,271.53a2.1,2.1,0,0,0,1.9,0l33.818-19.525a.58.58,0,0,0,0-1.1l-18.03-10.414-35.723,20.624Z" fill="#fff"/>
            <path id="Path_589" data-name="Path 589" d="M63.26,220.519l44.653-25.781L110.1,196,65.452,221.785Z" fill="#e0e0e0"/>
            <path id="Path_590" data-name="Path 590" d="M63.26,220.519l44.653-25.781L110.1,196,65.452,221.785Z" fill="#640000"/>
            <path id="Path_591" data-name="Path 591" d="M63.26,220.519l44.653-25.781L110.1,196,65.452,221.785Z" opacity="0.8"/>
            <path id="Path_592" data-name="Path 592" d="M63.26,220.519l-2.069-9.146,44.653-25.781,2.069,9.146Z" fill="#e0e0e0"/>
            <path id="Path_593" data-name="Path 593" d="M64.3,221.128l-2.069-9.146L106.879,186.2l2.07,9.146Z" fill="#640000"/>
            <path id="Path_594" data-name="Path 594" d="M64.3,221.128l-2.069-9.146L106.879,186.2l2.07,9.146Z" opacity="0.55"/>
            <path id="Path_595" data-name="Path 595" d="M62.226,211.982l-1.035-.609,2.069,9.146,1.035.609Z" fill="#640000"/>
            <path id="Path_596" data-name="Path 596" d="M62.226,211.982l-1.035-.609,2.069,9.146,1.035.609Z" opacity="0.45"/>
            <path id="Path_597" data-name="Path 597" d="M61.191,211.373l1.035.609L106.879,186.2l-1.035-.609Z" fill="#640000"/>
            <path id="Path_598" data-name="Path 598" d="M61.191,211.373l1.035.609L106.879,186.2l-1.035-.609Z" opacity="0.35"/>
            <path id="Path_599" data-name="Path 599" d="M107.913,220.519c-2.466,1.424-2.466,3.751,0,5.2a9.837,9.837,0,0,0,8.967.021c2.487-1.435,2.487-3.763,0-5.2A9.908,9.908,0,0,0,107.913,220.519Z" fill="#f0f0f0"/>
          </g>
        </g>
        <g id="Pencil">
          <path id="Shadow-8" data-name="Shadow" d="M174.268,225.795l3.068,1.771,24.2-14.171,2.673-3.147-5.569,1.475Z" fill="#455a64" opacity="0.1"/>
          <g id="Group_273" data-name="Group 273">
            <g id="Group_272" data-name="Group 272">
              <path id="Path_600" data-name="Path 600" d="M198.863,209.567l5.156-1.01a.16.16,0,0,1,.15.263l-3.5,3.961Z" fill="#ffa8a7"/>
              <path id="Path_601" data-name="Path 601" d="M204.169,208.82a.16.16,0,0,0-.15-.263l-1.007.2h0a.884.884,0,0,1,.416.822l-.007.09Z" fill="#263238"/>
              <path id="Path_602" data-name="Path 602" d="M181.445,223.806l.422-.242.51-.29,18.294-10.492a2.353,2.353,0,0,0-.143-1.711,2.409,2.409,0,0,0-1.664-1.5l-18.283,10.487-.973.558C180.258,220.288,182.093,223.47,181.445,223.806Z" fill="#640000"/>
              <path id="Path_603" data-name="Path 603" d="M183.054,222.891l.941-.542c.278-.149.119-.831-.206-1.537-.43-.939-1.276-1.848-1.645-1.652l-.694.4-.246.147c.369-.2,1.216.713,1.646,1.652.31.677.468,1.335.232,1.514l0,0A.06.06,0,0,1,183.054,222.891Z" fill="#ebebeb"/>
              <path id="Path_604" data-name="Path 604" d="M183.288,222.753c.646-.342-1.2-3.529-1.85-3.186l-.944.539c.646-.342,2.5,2.844,1.85,3.186Z" fill="#640000"/>
              <path id="Path_605" data-name="Path 605" d="M181.445,223.806l.932-.532c.637-.331-1.122-3.421-1.8-3.218a.166.166,0,0,0-.038.015l-.935.543C180.258,220.288,182.093,223.47,181.445,223.806Z" fill="#ebebeb"/>
              <path id="Path_606" data-name="Path 606" d="M204.193,208.646l-.174-.089-3.742,2.047-19.344,11.1c-.036-.057-.066-.061-.09-.022.549.858.965,1.937.6,2.125l.422-.242.51-.29,18.294-10.492h0l3.5-3.961A.157.157,0,0,0,204.193,208.646Z" opacity="0.15"/>
              <path id="Path_607" data-name="Path 607" d="M177.493,226.068l3.952-2.262c.278-.143.124-.819-.2-1.522-.427-.94-1.27-1.857-1.642-1.67l-.005,0-3.964,2.27c-.787.454-.063,2.165.815,2.929A.941.941,0,0,0,177.493,226.068Z" fill="#f28f8f"/>
            </g>
            <path id="Path_608" data-name="Path 608" d="M177.729,224.842a2.851,2.851,0,0,0-1.612-1.951.645.645,0,0,0-.592.08c-.594.551.1,2.121.929,2.844a.948.948,0,0,0,1.019.26C177.769,225.9,177.883,225.446,177.729,224.842Z" opacity="0.1"/>
          </g>
        </g>
        <g id="Papers">
          <path id="Shadow-9" data-name="Shadow" d="M172.139,307.248a3.145,3.145,0,0,1-1.55-.377l-25.837-14.917a1.281,1.281,0,0,1,0-2.365l4.611-2.662-2.208-1.275a1.281,1.281,0,0,1,0-2.365l38.023-21.954a3.363,3.363,0,0,1,3.1,0l25.837,14.917a1.283,1.283,0,0,1,0,2.366l-4.611,2.662,2.208,1.275a1.282,1.282,0,0,1,0,2.365l-38.023,21.953A3.143,3.143,0,0,1,172.139,307.248Z" opacity="0.05"/>
          <g id="Group_274" data-name="Group 274">
            <path id="Path_609" data-name="Path 609" d="M212,281.734a.911.911,0,0,0-.538-.75l-25.836-14.917a2.873,2.873,0,0,0-2.6,0L145,288.02a.912.912,0,0,0-.537.749v1.18a.917.917,0,0,0,.537.744l25.837,14.916a2.872,2.872,0,0,0,2.6,0l38.023-21.952a.922.922,0,0,0,.538-.74Z" fill="#ebebeb"/>
            <path id="Path_610" data-name="Path 610" d="M145,288.02l38.024-21.953a2.873,2.873,0,0,1,2.6,0l25.836,14.917a.792.792,0,0,1,0,1.5l-38.022,21.952a2.875,2.875,0,0,1-2.6,0L145,289.52A.792.792,0,0,1,145,288.02Z" fill="#fff"/>
            <path id="Path_611" data-name="Path 611" d="M172.136,304.747v1.17a2.631,2.631,0,0,1-1.3-.31l-25.83-14.91a.918.918,0,0,1-.54-.75v-1.18a.906.906,0,0,0,.54.75l25.83,14.92A2.631,2.631,0,0,0,172.136,304.747Z" fill="#e0e0e0"/>
          </g>
          <g id="Group_275" data-name="Group 275">
            <path id="Path_612" data-name="Path 612" d="M214.4,275.432a.914.914,0,0,0-.538-.751l-25.836-14.916a2.872,2.872,0,0,0-2.6,0L147.4,281.718a.912.912,0,0,0-.537.749v1.18a.915.915,0,0,0,.537.744l25.837,14.916a2.872,2.872,0,0,0,2.6,0l38.023-21.953a.919.919,0,0,0,.538-.739Z" fill="#ebebeb"/>
            <path id="Path_613" data-name="Path 613" d="M147.4,281.718l38.024-21.953a2.872,2.872,0,0,1,2.6,0l25.836,14.916a.792.792,0,0,1,0,1.5l-38.023,21.953a2.872,2.872,0,0,1-2.6,0L147.4,283.218A.792.792,0,0,1,147.4,281.718Z" fill="#fff"/>
            <path id="Path_614" data-name="Path 614" d="M193.725,271.423c-.019-.376-.673-.232-.685.1-.087,2.179-1.127,4.623-3.565,4.629a3.425,3.425,0,0,1-1.713-.474c.559-1.782,1.038-6.179-1.455-4.963-1.967.96-.976,3.717.541,5.188-2.482,2.993-3.869.468-4.141-1.441-.016-.143-.03-.281-.043-.413-.042-.429-.774-.161-.754.217a6.666,6.666,0,0,0,.077.686,10.461,10.461,0,0,1,.008,3.617l-.034.146a3.389,3.389,0,0,1-.946,1.984c-.82.616-1.808-.284-2.232-.972a5.658,5.658,0,0,1-.616-1.593,4.347,4.347,0,0,1-.131-1.027c-.009-.395-.724-.207-.72.15.075,3.213-1.534,5.741-3.665,8.011-.47.5-.968.953-1.444,1.416-.476-1.565-1.025-3.111-1.49-4.679-.148-.5-.289-.973-.411-1.454a5.336,5.336,0,0,0,1.307-2.061c.3-.895.637-2.953-.7-3.28-1.294-.316-1.712,1.322-1.849,2.237a8.464,8.464,0,0,0,.231,3.245,11.763,11.763,0,0,1-6.394,2.439c-.02,0,0,.031.018.031a11.25,11.25,0,0,0,6.527-1.881c.317,1.128.74,2.237,1.079,3.317.2.64.639,1.668,1.038,2.754a6.349,6.349,0,0,0-1.361,2.124c-.446,1.218-.529,2.766.844,3.423a1.232,1.232,0,0,0,1.755-.413c.636-.935.214-2.747-.026-3.76-.114-.478-.247-.952-.383-1.424.272-.258.552-.511.822-.777a23.288,23.288,0,0,0,2.67-2.954,11.32,11.32,0,0,0,1.891-3.964c.583,1.558,1.74,2.791,3.55,1.612,1.257-.819,1.581-2.367,1.59-3.932a2.347,2.347,0,0,0,1.5.941,3.157,3.157,0,0,0,3.035-1.84,2.632,2.632,0,0,0,.976.44C191.758,277.44,193.881,274.6,193.725,271.423Zm-23.774,6.19a2.509,2.509,0,0,1,.312-1.089.434.434,0,0,1,.339-.255.413.413,0,0,1,.321.237,3.022,3.022,0,0,1-.14,2.211,3.816,3.816,0,0,1-.623,1.091c-.039-.2-.094-.4-.121-.61A7.819,7.819,0,0,1,169.951,277.613Zm1.013,12.311a5.567,5.567,0,0,1,.358-1.156,4.245,4.245,0,0,1,.236-.54c.034-.057.229-.234.209-.293.367,1.073.868,2.382.355,3.483a.772.772,0,0,1-.477.475.563.563,0,0,1-.5-.162,1.022,1.022,0,0,1-.258-.477A3.159,3.159,0,0,1,170.964,289.924Zm15.6-15.664a3.861,3.861,0,0,1-.333-1.679,1.291,1.291,0,0,1,.13-.589.565.565,0,0,1,.486-.311c.675.022.75.951.7,1.431a12.241,12.241,0,0,1-.451,2A3.57,3.57,0,0,1,186.563,274.26Z" fill="#455a64"/>
            <path id="Path_615" data-name="Path 615" d="M174.538,298.445v1.17a2.631,2.631,0,0,1-1.3-.31l-25.83-14.91a.918.918,0,0,1-.54-.75v-1.18a.906.906,0,0,0,.54.75l25.83,14.92A2.631,2.631,0,0,0,174.538,298.445Z" fill="#e0e0e0"/>
          </g>
        </g>
        <g id="Image">
          <g id="Group_276" data-name="Group 276">
            <path id="Path_616" data-name="Path 616" d="M288.39,37.635,232.821,69.726a2.87,2.87,0,0,0-1.3,2.25v52.943a2.869,2.869,0,0,0,1.3,2.25l.827.477a2.875,2.875,0,0,0,2.6,0l55.569-32.091a2.873,2.873,0,0,0,1.3-2.25l0-52.943a2.87,2.87,0,0,0-1.3-2.25l-.826-.477A2.872,2.872,0,0,0,288.39,37.635Z" fill="#e0e0e0"/>
            <path id="Path_617" data-name="Path 617" d="M293.063,39.975c-.16-.54-.66-.71-1.25-.36L236.249,71.706a2.61,2.61,0,0,0-.919.97l-3.421-1.98a2.594,2.594,0,0,1,.91-.97l55.574-32.09a2.9,2.9,0,0,1,2.6,0l.82.479A2.859,2.859,0,0,1,293.063,39.975Z" fill="#fff"/>
            <path id="Path_618" data-name="Path 618" d="M291.814,39.612,236.246,71.7a2.871,2.871,0,0,0-1.3,2.25V126.9c0,.828.581,1.164,1.3.75l55.569-32.091a2.873,2.873,0,0,0,1.3-2.25l0-52.943C293.113,39.534,292.532,39.2,291.814,39.612Z" fill="#f5f5f5"/>
          </g>
          <g id="Group_277" data-name="Group 277">
            <path id="Path_619" data-name="Path 619" d="M238.371,74.429l51.318-29.636V92.231l-51.319,29.637Z" fill="#640000"/>
            <path id="Path_620" data-name="Path 620" d="M238.371,74.429l51.318-29.636V92.231l-51.319,29.637Z" fill="#fff" opacity="0.75"/>
          </g>
          <path id="Path_621" data-name="Path 621" d="M238.371,106.051,252.959,80.86l19.981,14.9-4.859-5.383,10.594-14.044,11.016,7v8.9l-51.319,29.637Z" fill="#640000"/>
          <path id="Path_622" data-name="Path 622" d="M274.272,62.109a7.569,7.569,0,0,0-3.424,5.931c0,2.183,1.533,3.068,3.424,1.977a7.57,7.57,0,0,0,3.424-5.931C277.7,61.9,276.163,61.017,274.272,62.109Z" fill="#640000"/>
        </g>
      </g>
      <g id="Character">
        <g id="Character-2" data-name="Character">
          <g id="Group_283" data-name="Group 283">
            <g id="Group_280" data-name="Group 280">
              <g id="Group_278" data-name="Group 278">
                <path id="Path_623" data-name="Path 623" d="M334.984,324.639c0-.2,1.143-11.856,1.143-11.856s-.828,1.2-7.559.6a36.965,36.965,0,0,1-7.505-1.74l-.444,8.456c-1.178,3.427-7.111,2.958-13.46,3.315-1.068.061-2.174.07-3.282.068l-.066,0c-3.4.391-6.425,2.989-2.437,5.259s9.941,2.367,15.422,2.417C323.388,331.223,334.925,331.18,334.984,324.639Z" fill="#ffa8a7"/>
              </g>
              <g id="Group_279" data-name="Group 279">
                <path id="Path_624" data-name="Path 624" d="M290.1,331.31a6.63,6.63,0,0,0,.121,3.5c.334,1.22,4.122,4.9,9.981,6.551s12.593.673,15.886,1.039,6.475,1.675,10.326,1.942c3.969.275,7.59.118,10.878-2.957.5-1.17.842-3.731.582-3.93C337.18,336.92,290.1,331.31,290.1,331.31Z" fill="#263238" opacity="0.9"/>
                <path id="Path_625" data-name="Path 625" d="M319.827,321.352c-2.1,2.057-7.232,1.757-12.668,2.063-5.125.289-11.089-.508-14.3,1.262s-3.769,5.767,1.732,10.133c1.592,1.263,3.377,2.931,5.111,3.612,5.758,2.261,11.816,1.085,15.665,1.364,5.008.363,8,2.041,12.531,1.795,5.867-.317,9.252-2.419,9.983-4.125s-.465-14.247-2.887-13.568c0,0-.351,4.184-10.413,1.9C320.185,324.794,319.822,322.281,319.827,321.352Z" fill="#640000"/>
                <path id="Path_626" data-name="Path 626" d="M319.827,321.352c-2.1,2.057-7.232,1.757-12.668,2.063-5.125.289-11.089-.508-14.3,1.262s-3.769,5.767,1.732,10.133c1.592,1.263,3.377,2.931,5.111,3.612,5.758,2.261,11.816,1.085,15.665,1.364,5.008.363,8,2.041,12.531,1.795,5.867-.317,9.252-2.419,9.983-4.125s-.465-14.247-2.887-13.568c0,0-.351,4.184-10.413,1.9C320.185,324.794,319.822,322.281,319.827,321.352Z" opacity="0.5"/>
                <path id="Path_627" data-name="Path 627" d="M299.7,338.422s-1.956-13.031,5.409-14.941l.957-.037s-.151-.89-3.064-1.118c-5.6-.438-9.122.265-11.473,2.671a7.233,7.233,0,0,0-1.466,6.178C290.781,333.7,293.668,336.6,299.7,338.422Z" fill="#fff"/>
                <path id="Path_628" data-name="Path 628" d="M305.021,330.728s-.356-5.323,3.271-7.369a2.056,2.056,0,0,1,2.177-.084s-3.5,1.134-3.622,7.469c0,0-.115.437-.92.43C305.655,331.171,305.058,331.166,305.021,330.728Z" fill="#fff"/>
                <path id="Path_629" data-name="Path 629" d="M313.835,323.117s-.025-.174-.967-.188a1.641,1.641,0,0,0-1.039.3s-2.669,1.742-2.272,7.3a.991.991,0,0,0,1.032.689.806.806,0,0,0,.939-.712S311.136,324.651,313.835,323.117Z" fill="#fff"/>
                <path id="Path_630" data-name="Path 630" d="M316.947,322.7s-.218-.3-.9-.182c-.854.151-.995.515-.995.515s-1.692,2.455-.933,7.027c0,0,.048.789,1.137.683s.787-.953.787-.953S315.421,323.907,316.947,322.7Z" fill="#fff"/>
              </g>
            </g>
            <g id="Group_282" data-name="Group 282">
              <g id="Group_281" data-name="Group 281">
                <path id="Path_631" data-name="Path 631" d="M320.015,249.292c-.483,11.667-.091,65.919-.091,65.919s7.164,6.02,16.2,2.9l5.616-62.272Z" fill="#37474f"/>
              </g>
            </g>
          </g>
          <g id="Group_288" data-name="Group 288">
            <g id="Group_286" data-name="Group 286">
              <g id="Group_284" data-name="Group 284">
                <path id="Path_632" data-name="Path 632" d="M302.884,344.632c0-.2,2.128-11.335,2.128-11.335s-2.12,1.422-8.866,1.03a30.188,30.188,0,0,1-6.656-1.246l-1.086,8.2c-1.073,3.462-7.018,3.172-13.354,3.722-1.065.093-2.17.135-3.278.168l-.066.005c-3.381.494-6.331,3.183-2.276,5.33s10.007,2.065,15.487,1.949C291.509,352.315,303.023,351.172,302.884,344.632Z" fill="#ffa8a7"/>
              </g>
              <g id="Group_285" data-name="Group 285">
                <path id="Path_633" data-name="Path 633" d="M258.243,353.411a6.626,6.626,0,0,0,.226,3.5c.371,1.209,4.269,4.776,10.176,6.246s12.607.29,15.909.556,6.523,1.479,10.381,1.628c3.976.155,7.59-.111,10.783-3.285.466-1.184.729-3.754.463-3.946C305.467,357.592,258.243,353.411,258.243,353.411Z" fill="#263238" opacity="0.9"/>
                <path id="Path_634" data-name="Path 634" d="M287.651,342.557c-2.04,2.12-7.177,1.976-12.6,2.446-5.114.444-11.1-.172-14.257,1.694s-3.594,5.879,2.038,10.077c1.629,1.214,3.464,2.827,5.217,3.455,5.825,2.086,11.844.726,15.7.889,5.017.21,8.057,1.8,12.581,1.414,5.854-.5,9.174-2.7,9.853-4.426s-.9-14.226-3.3-13.474c0,0-.224,4.193-10.351,2.217C288.112,345.986,287.673,343.486,287.651,342.557Z" fill="#640000"/>
                <path id="Path_635" data-name="Path 635" d="M287.651,342.557c-2.04,2.12-7.177,1.976-12.6,2.446-5.114.444-11.1-.172-14.257,1.694s-3.594,5.879,2.038,10.077c1.629,1.214,3.464,2.827,5.217,3.455,5.825,2.086,11.844.726,15.7.889,5.017.21,8.057,1.8,12.581,1.414,5.854-.5,9.174-2.7,9.853-4.426s-.9-14.226-3.3-13.474c0,0-.224,4.193-10.351,2.217C288.112,345.986,287.673,343.486,287.651,342.557Z" opacity="0.5"/>
                <path id="Path_636" data-name="Path 636" d="M268.048,360.229s-2.349-12.966,4.955-15.1l.955-.066s-.178-.885-3.1-1.025c-5.608-.268-9.109.541-11.386,3.018a7.226,7.226,0,0,0-1.278,6.22C258.992,355.784,261.965,358.593,268.048,360.229Z" fill="#fff"/>
                <path id="Path_637" data-name="Path 637" d="M273.135,352.377s-.517-5.309,3.046-7.464a2.058,2.058,0,0,1,2.174-.151s-3.461,1.241-3.394,7.576c0,0-.1.44-.907.457C273.782,352.8,273.185,352.814,273.135,352.377Z" fill="#fff"/>
                <path id="Path_638" data-name="Path 638" d="M281.714,344.5s-.03-.173-.972-.159a1.645,1.645,0,0,0-1.03.329s-2.615,1.822-2.049,7.366a.991.991,0,0,0,1.052.657.806.806,0,0,0,.917-.74S279.063,346.118,281.714,344.5Z" fill="#fff"/>
                <path id="Path_639" data-name="Path 639" d="M284.812,343.992s-.227-.3-.9-.155c-.849.177-.979.546-.979.546s-1.616,2.505-.72,7.052c0,0,.072.787,1.158.648s.757-.977.757-.977S283.323,345.244,284.812,343.992Z" fill="#fff"/>
              </g>
            </g>
            <g id="Group_287" data-name="Group 287">
              <path id="Path_640" data-name="Path 640" d="M291.577,271.951c-1.362,12.087-2.644,47.059-3.544,64.532a24.107,24.107,0,0,0,17.441,1.939l12.45-62.764Z" fill="#455a64"/>
            </g>
          </g>
          <g id="Group_298" data-name="Group 298">
            <g id="Group_289" data-name="Group 289">
              <path id="Path_641" data-name="Path 641" d="M369.9,415.122a1.457,1.457,0,0,1-1.457-1.458V319.94a1.458,1.458,0,1,1,2.915,0v93.724A1.457,1.457,0,0,1,369.9,415.122Z" fill="#455a64"/>
            </g>
            <g id="Group_290" data-name="Group 290">
              <path id="Path_642" data-name="Path 642" d="M427.889,381.007a1.456,1.456,0,0,1-1.355-.922l-28.74-72.743a1.457,1.457,0,1,1,2.711-1.071l28.74,72.743a1.458,1.458,0,0,1-1.356,1.993Z" fill="#455a64"/>
            </g>
            <g id="Group_291" data-name="Group 291">
              <path id="Path_643" data-name="Path 643" d="M424.437,372.27a1.449,1.449,0,0,1-1.059-.457L369.9,315.223l-53.381,56.351a1.457,1.457,0,1,1-2.115-2l54.44-57.47a1.454,1.454,0,0,1,1.057-.456h0a1.453,1.453,0,0,1,1.058.457L425.5,369.812a1.457,1.457,0,0,1-1.059,2.458Z" fill="#455a64"/>
            </g>
            <g id="Group_292" data-name="Group 292">
              <path id="Path_644" data-name="Path 644" d="M311.915,381.007a1.439,1.439,0,0,1-.535-.1,1.457,1.457,0,0,1-.82-1.891l28.74-72.743a1.457,1.457,0,1,1,2.71,1.071l-28.74,72.743A1.454,1.454,0,0,1,311.915,381.007Z" fill="#455a64"/>
            </g>
            <g id="Group_293" data-name="Group 293">
              <path id="Path_645" data-name="Path 645" d="M311.211,287.8c-1.045-5.879,3.745-10.467,12.755-16.548a212.562,212.562,0,0,1,26.109-14.669c7.537-3.46,15.25-3.141,24.9,1.817,13.408,6.89,53.758,31.359,53.758,31.359s-60.325,34.057-71.932,32.53-40.617-20.392-42.915-27.032S311.211,287.8,311.211,287.8Z" fill="#640000"/>
            </g>
            <g id="Group_294" data-name="Group 294">
              <path id="Path_646" data-name="Path 646" d="M362.629,315.123c-8.66,7.84-17.713,1.092-32.033-8.2C314.389,296.4,311.211,287.8,311.211,287.8s0,6.448,1.21,9.471,3.828,6.448,15.517,14.509,20.151,12.091,28.011,13.588l6.2-.857" fill="#640000"/>
            </g>
            <path id="Path_647" data-name="Path 647" d="M330.6,306.922C314.389,296.4,311.211,287.8,311.211,287.8s0,6.448,1.21,9.471,3.828,6.448,15.517,14.509,20.151,12.091,28.011,13.588l6.2-.857.48-9.386C353.969,322.963,344.916,316.215,330.6,306.922Z" opacity="0.5"/>
            <g id="Group_295" data-name="Group 295">
              <path id="Path_648" data-name="Path 648" d="M425.908,370.023l3.8,10.027a.988.988,0,0,1,.034.257.925.925,0,0,1,0,.182,1.186,1.186,0,0,1-.572.632,2.543,2.543,0,0,1-2.313,0,1,1,0,0,1-.45-.472.019.019,0,0,0-.006-.017l-.028-.137-3.523-9.4Z" fill="#640000"/>
            </g>
            <g id="Group_296" data-name="Group 296">
              <path id="Path_649" data-name="Path 649" d="M313.9,370.023l-3.8,10.027a.986.986,0,0,0-.034.257.92.92,0,0,0,0,.182,1.184,1.184,0,0,0,.573.632,2.54,2.54,0,0,0,2.312,0,1,1,0,0,0,.45-.472.019.019,0,0,1,.006-.017l.028-.137,3.523-9.4Z" fill="#640000"/>
            </g>
            <g id="Group_297" data-name="Group 297">
              <path id="Path_650" data-name="Path 650" d="M371.583,406.407V414.7a.835.835,0,0,1-.492.686,2.627,2.627,0,0,1-2.377,0,.836.836,0,0,1-.493-.686v-8.295A3.568,3.568,0,0,1,371.583,406.407Z" fill="#640000"/>
            </g>
          </g>
          <g id="Group_313" data-name="Group 313">
            <g id="Group_299" data-name="Group 299">
              <path id="Path_651" data-name="Path 651" d="M409.8,264.483s-48.4-14.6-56.81-16.906-24.553-6.183-29.268-4.07-7.111,4.562-7.544,11.366c-.089,1.279,0,7.5,0,7.5s24.512,9.973,43.677,9.973S409.8,264.483,409.8,264.483Z" fill="#37474f"/>
            </g>
            <g id="Group_300" data-name="Group 300">
              <path id="Path_652" data-name="Path 652" d="M409.971,258.422c3.038,10.36,3.987,20.495-3.27,27.973-5.276,5.436-27.15,24.832-46.324,18.952-21.423-6.568-47.006-25.168-47.006-25.168s-16.543.507-16.626-4.352c-.021-1.189-5.229-2.66-5.169-3.948.671-14.254,10.264-20.19,24.566-17.6,15,2.719,48.552,12.282,48.552,12.282Z" fill="#455a64"/>
            </g>
            <path id="Path_653" data-name="Path 653" d="M386.025,301.558c3.609-13.164,7.922-29.877,7.922-29.877l-19.77,6.234c-4.09,12.928-6.154,19.947-16.363,18.28s-44.443-16.016-44.443-16.016,25.583,18.6,47.006,25.168C368.964,307.98,378.089,305.539,386.025,301.558Z" fill="#37474f"/>
            <g id="Group_301" data-name="Group 301">
              <path id="Path_654" data-name="Path 654" d="M377.608,189.54c-4.522-1.7-8.647-.123-19.77,3.908-12.993,4.709-27.891,10.089-27.891,10.089l-16.881-33.88c-2.131-4.556-3.705-7.588-7.551-10.832a11.929,11.929,0,0,0-5.484-1.425c-5.909.215-17.369,6.3-11.351,12.165,3.579,3.492,9.755,4.9,13.148,7.025,1.8,1.13,2.746,3.973,3.524,6.125,3.408,9.428,9.622,29.036,11.248,33.32,1.766,4.649,5.977,5.932,11.817,4.606,8.525-1.937,47.2-12.459,47.2-12.459Z" fill="#ffa8a7"/>
              <path id="Path_655" data-name="Path 655" d="M300.03,165.312l-10.316,5.17a3.835,3.835,0,0,1,.88.671s3.739-1.44,5.8-2.222c1.885-.716,4.2-1.726,4.2-1.726s4.316.542,6.408-.419S300.03,165.312,300.03,165.312Z" fill="#f28f8f"/>
            </g>
            <path id="Path_656" data-name="Path 656" d="M377.608,188.622s-1.591-1.709-9.251.292S343.216,198,343.216,198s-7.616,8.86,2.352,19.487l28.623-7.482,3.417-11.074V188.622" fill="#455a64"/>
            <g id="Group_302" data-name="Group 302">
              <path id="Path_657" data-name="Path 657" d="M412.986,199.315c-1.6-5.253-5.489-9.84-11.827-10.4-1.545.251-4.193.5-5.657.76-2.6,1.267-9.394,1.868-17.894-.134a18.251,18.251,0,0,0-7.706,4.066c-4.867,4.214-7.753,10.577-10.475,30.321,0,0-3.67,31.024-3.908,40.012,5.925,17.088,34.247,16.652,42.548,13.394,17.359-6.812,17.847-17.478,17.847-17.478s-.383-26.3-.6-40.749C415.123,206.832,414.083,202.923,412.986,199.315Z" fill="#f5f5f5"/>
              <path id="Path_658" data-name="Path 658" d="M404.443,193.448c-1.436-.531-8.35,6.386-8.35,6.386s-3.017,10.267.393,18.547,4.4,11.135,4.4,11.135-14.33,7.678-20.438,27.309c-2.894,9.3-4.931,16.3-6.273,21.09,9.37,2.086,19.469,1.153,23.89-.582,17.359-6.812,17.847-17.478,17.847-17.478s-.383-26.3-.6-40.749c-.049-3.245-.16-5.893-.314-8.118C410.144,202.344,405.155,193.711,404.443,193.448Z" fill="#e0e0e0"/>
            </g>
            <g id="Group_312" data-name="Group 312">
              <g id="Group_311" data-name="Group 311">
                <g id="Group_304" data-name="Group 304">
                  <g id="Group_303" data-name="Group 303">
                    <path id="Path_659" data-name="Path 659" d="M279.1,172.976a.256.256,0,0,0,.31.049l2.185-1.2a.258.258,0,0,0-.247-.452l-2.185,1.2a.259.259,0,0,0-.1.349A.316.316,0,0,0,279.1,172.976Z" fill="#263238"/>
                  </g>
                </g>
                <g id="Group_309" data-name="Group 309">
                  <g id="Group_305" data-name="Group 305">
                    <path id="Path_660" data-name="Path 660" d="M286.753,171.958l-5.6.75a.868.868,0,0,1-.729-1.473l4.016-4.03Z" fill="#640000"/>
                  </g>
                  <g id="Group_306" data-name="Group 306" opacity="0.2">
                    <path id="Path_661" data-name="Path 661" d="M286.753,171.958l-5.6.75a.868.868,0,0,1-.729-1.473l4.016-4.03Z"/>
                  </g>
                  <g id="Group_307" data-name="Group 307">
                    <path id="Path_662" data-name="Path 662" d="M313.653,152.676a1.35,1.35,0,0,1,1.464.452c1.19,1.169,1.853,3.931.488,4.472l-28.853,14.355a3.448,3.448,0,0,1-2.25-2.292,3.36,3.36,0,0,1-.058-2.459Z" fill="#640000"/>
                  </g>
                  <g id="Group_308" data-name="Group 308" opacity="0.5">
                    <path id="Path_663" data-name="Path 663" d="M313.653,152.676a1.35,1.35,0,0,1,1.464.452c1.19,1.169,1.853,3.931.488,4.472l-28.853,14.355a3.448,3.448,0,0,1-2.25-2.292,3.36,3.36,0,0,1-.058-2.459Z"/>
                  </g>
                </g>
                <g id="Group_310" data-name="Group 310">
                  <path id="Path_664" data-name="Path 664" d="M317.052,152.685a1.121,1.121,0,1,1,1.013,2l-2.314,1.148h0a.558.558,0,0,1-.557-.086,1.753,1.753,0,0,1-.716-1.413.558.558,0,0,1,.26-.5h0Z" fill="#37474f"/>
                </g>
              </g>
              <path id="Path_665" data-name="Path 665" d="M303.186,157.882a14.255,14.255,0,0,0-2.2-1.528,9.366,9.366,0,0,0-3.742-1.33,2.978,2.978,0,0,0-1.506.136,4.517,4.517,0,0,0-1.235.943c-2,1.845-4.776,2.459-6.763,4.28-1.759,1.613-4.7,6.817-3.527,8.548.73,1.077,3.141-.615,4.261-2.055,0,1.329,1.956,1.274,3.872-1.032,1.583-1.9,3.483-4.436,3.483-4.436Z" fill="#ffa8a7"/>
              <path id="Path_666" data-name="Path 666" d="M295.974,159.143a1.582,1.582,0,0,0-.957,1.295,4.1,4.1,0,0,0,.15,1.839l.661-.869Z" fill="#f28f8f"/>
              <path id="Path_667" data-name="Path 667" d="M313.066,169.657c-1.767-3.68-1.651-6.787-5.026-8.213s-5.007-1-8.89-2.3c-5.516-1.851-4.152,3.6.342,5.907s7.515,1.738,7.515,1.738S309.726,174.358,313.066,169.657Z" fill="#ffa8a7"/>
            </g>
          </g>
          <g id="Group_321" data-name="Group 321">
            <g id="Group_316" data-name="Group 316">
              <g id="Group_314" data-name="Group 314">
                <path id="Path_668" data-name="Path 668" d="M403.071,146.3c-2.02-3.155-3.922-2.68-3.922-2.68l-.458,3.618c-5.516-6.742-20-12.929-26.4-12.929-8,0-14.477,6.751-14.477,15.078s6.481,15.079,14.477,15.079c5.935,0,18.812-2.128,25.056-6.63l-.473,3.726-1.372-.158.094,18.7s3.118-.748,4.182-2.881,2.7-15.012,2.7-15.012C405.2,155.087,404.8,149.01,403.071,146.3Z" fill="#640000"/>
                <path id="Path_669" data-name="Path 669" d="M403.071,146.3c-2.02-3.155-3.922-2.68-3.922-2.68l-.458,3.618-1.344,10.6-.473,3.726-1.372-.158.094,18.7s3.118-.748,4.182-2.881,2.7-15.012,2.7-15.012C405.2,155.087,404.8,149.01,403.071,146.3Z" opacity="0.5"/>
                <path id="Path_670" data-name="Path 670" d="M372.291,134.313c-8,0-14.477,6.751-14.477,15.078s6.481,15.079,14.477,15.079c5.935,0,18.812-2.128,25.056-6.63l1.344-10.6C393.175,140.5,378.694,134.313,372.291,134.313Z" opacity="0.6"/>
              </g>
              <path id="Path_671" data-name="Path 671" d="M395.985,162.815c1,.623,1.542-1.532,2.777-2.878s4.831-3.077,7.347,1.343c2.446,4.3-1.969,9.856-4.179,10.675-4.247,1.575-6.243-1.024-6.243-1.024l-.185,18.743c-5.552,4.852-22.13,4.7-18.031,1.4l.015-6.393s-4.956.783-7.375.394c-4.023-.648-6.554-3.954-7.774-8.489-1.96-7.286-2.705-13.168-1.042-27.5,1.823-15.7,19.36-15.868,28.831-9.659S395.985,162.815,395.985,162.815Z" fill="#ffa8a7"/>
              <g id="Group_315" data-name="Group 315">
                <path id="Path_672" data-name="Path 672" d="M405.2,141.021a3.277,3.277,0,0,0-4.584-1.579,3.458,3.458,0,0,0-1.107,1,7.98,7.98,0,0,0-2.021-4.314c-2.367-2.713-6.322-3.014-13.075-4.12a72.562,72.562,0,0,1-8-1.443c-2.746-.778-5.448-2.6-8-3.9a3.944,3.944,0,0,0-2.709-.623A2.648,2.648,0,0,0,363.968,128a7.8,7.8,0,0,0-.051,2.718c-1.564-1.728-4.621-1.474-6.219.222a6.347,6.347,0,0,0-.971,6.554,11.641,11.641,0,0,0,4.531,5.181c8.487,5.73,18.5,4.14,28,3.014a2.551,2.551,0,0,1,1.354.089c1.486.675,1.8,5.3,2.067,6.631.879,4.5,1.609,12.124,3.3,12.158.5.01,1.532-3.451,2.779-4.633,1.494-1.416.693-12.579.449-15.571Z" fill="#640000"/>
                <path id="Path_673" data-name="Path 673" d="M405.2,141.021a3.277,3.277,0,0,0-4.584-1.579,3.458,3.458,0,0,0-1.107,1,7.98,7.98,0,0,0-2.021-4.314c-2.367-2.713-6.322-3.014-13.075-4.12a72.562,72.562,0,0,1-8-1.443c-2.746-.778-5.448-2.6-8-3.9a3.944,3.944,0,0,0-2.709-.623A2.648,2.648,0,0,0,363.968,128a7.8,7.8,0,0,0-.051,2.718c-1.564-1.728-4.621-1.474-6.219.222a6.347,6.347,0,0,0-.971,6.554,11.641,11.641,0,0,0,4.531,5.181c8.487,5.73,18.5,4.14,28,3.014a2.551,2.551,0,0,1,1.354.089c1.486.675,1.8,5.3,2.067,6.631.879,4.5,1.609,12.124,3.3,12.158.5.01,1.532-3.451,2.779-4.633,1.494-1.416.693-12.579.449-15.571Z" opacity="0.5"/>
              </g>
              <path id="Path_674" data-name="Path 674" d="M377.486,184.685s8.981-1.884,12.121-3.623a10.579,10.579,0,0,0,4.34-4.472,15.022,15.022,0,0,1-2.466,5.275c-2.3,3.057-13.995,5.309-13.995,5.309Z" fill="#f28f8f"/>
            </g>
            <g id="Group_317" data-name="Group 317">
              <path id="Path_675" data-name="Path 675" d="M380.735,159.942a1.805,1.805,0,1,0,1.8-1.953A1.873,1.873,0,0,0,380.735,159.942Z" fill="#263238"/>
              <path id="Path_676" data-name="Path 676" d="M383.825,152.152l3.85,2.213a2.456,2.456,0,0,0-.9-3.192A2.105,2.105,0,0,0,383.825,152.152Z" fill="#263238"/>
              <path id="Path_677" data-name="Path 677" d="M381.084,172.716l-5.746,2.245a2.988,2.988,0,0,0,3.9,1.983A3.391,3.391,0,0,0,381.084,172.716Z" fill="#f28f8f"/>
              <path id="Path_678" data-name="Path 678" d="M362.756,153.954l4.047-1.971a2.075,2.075,0,0,0-2.869-1.15A2.494,2.494,0,0,0,362.756,153.954Z" fill="#263238"/>
              <path id="Path_679" data-name="Path 679" d="M364.758,159.942a1.805,1.805,0,1,0,1.8-1.953A1.871,1.871,0,0,0,364.758,159.942Z" fill="#263238"/>
              <path id="Path_680" data-name="Path 680" d="M374.272,158.513l1.066,11.319-6.577-.748Z" fill="#f28f8f"/>
            </g>
            <g id="Group_320" data-name="Group 320">
              <g id="Group_318" data-name="Group 318">
                <path id="Path_681" data-name="Path 681" d="M382.3,155.3a4.787,4.787,0,0,0,0,9.572h.873a4.787,4.787,0,0,0,0-9.572Zm.873,10.543H382.3a5.758,5.758,0,0,1,0-11.513h.873a5.757,5.757,0,0,1,0,11.513Z" fill="#263238"/>
              </g>
              <g id="Group_319" data-name="Group 319">
                <path id="Path_682" data-name="Path 682" d="M365.076,155.3a4.787,4.787,0,0,0,0,9.572h.873a4.787,4.787,0,0,0,0-9.572Zm.873,10.543h-.873a5.758,5.758,0,0,1,0-11.513h.873a5.757,5.757,0,0,1,0,11.513Z" fill="#263238"/>
              </g>
              <path id="Path_683" data-name="Path 683" d="M376.725,158.952a3.71,3.71,0,0,0-2.985-1.549,3.011,3.011,0,0,0-2.6,1l-.759-.587a3.876,3.876,0,0,1,3.412-1.384,4.611,4.611,0,0,1,3.75,2.014Z" fill="#263238"/>
              <path id="Path_684" data-name="Path 684" d="M399.191,159.54H388.336v-.912h12.552A5.358,5.358,0,0,0,399.191,159.54Z" fill="#263238"/>
            </g>
          </g>
          <g id="Group_323" data-name="Group 323">
            <path id="Path_685" data-name="Path 685" d="M362.149,324.509c4.931-.248,8.791-3.869,20.516-8.754,21.65-9.021,37.888-16.238,44.074-27.578s10.567-44.074,9.02-58.249a18.723,18.723,0,0,0-1.06-4.7l1.522-.223-3.944-3.358v.01c-4.045-3.3-10.629-.358-15.589,2.342-14.174,7.714-25.259,15.206-34.022,42.269-6.591,20.356-10.938,38.925-20.036,48.854" fill="#640000"/>
            <path id="Path_686" data-name="Path 686" d="M434.7,225.229l1.522-.223-3.944-3.358v.01c-4.045-3.3-10.629-.358-15.589,2.342-14.174,7.714-25.259,15.206-34.022,42.269-6.591,20.356-10.938,38.925-20.036,48.854l-.48,9.386c4.931-.248,8.791-3.869,20.516-8.754,21.65-9.021,37.888-16.238,44.074-27.578s10.567-44.074,9.02-58.249A18.713,18.713,0,0,0,434.7,225.229Z" opacity="0.3"/>
            <g id="Group_322" data-name="Group 322">
              <path id="Path_687" data-name="Path 687" d="M420.8,227.485c-14.174,7.714-25.259,15.207-34.022,42.269s-13.556,50.972-30.824,55.612c0,0,7.807,3.1,31.735-7.018,7.613-3.22,16.851-9.09,22.921-12.5,11.892-6.674,19.1-12.143,20.241-14.189,6.286-11.285,10.568-44.073,9.021-58.249S427.893,223.622,420.8,227.485Z" fill="#640000"/>
            </g>
            <path id="Path_688" data-name="Path 688" d="M408.09,235.493l1.962,4.693-5.146,29.157c-1.219,2.254-5.13,4.39-6.981,7.159a47.455,47.455,0,0,0-3.546,5.906c-.638,1.417-1.163,5.035,1.978,2.885,2.609-1.786,4.41-4.51,5.108-4.784.518-.2.272,2.184.251,2.355-.438,3.6-2.485,7.262-4.279,10.357-.861,1.485-2.641,3.851-.739,5.215a6.365,6.365,0,0,0,1.632.755,10.592,10.592,0,0,0,11.584-2.909c3.71-4.311,5.033-9.8,5.519-15.355a87.329,87.329,0,0,1,4.249-19.8c3.3-9.641,6.57-24.7,5.957-27.264-.2-.834-1.349-3.711-2.891-7.4-.672.337-1.326.682-1.953,1.023A89.723,89.723,0,0,0,408.09,235.493Z" fill="#37474f" opacity="0.1"/>
          </g>
          <g id="Group_324" data-name="Group 324">
            <path id="Path_689" data-name="Path 689" d="M428.229,232.819c-.7-2.942-13.2-31.262-13.2-31.262L400.792,210.8l11.851,28.336L407.5,268.3c-1.219,2.254-5.131,4.389-6.981,7.158a47.324,47.324,0,0,0-3.546,5.907c-.638,1.417-1.164,5.034,1.977,2.884,2.61-1.785,4.41-4.509,5.109-4.784.517-.2.271,2.184.25,2.356-.438,3.6-2.484,7.262-4.278,10.357-.861,1.485-2.641,3.85-.74,5.215a6.371,6.371,0,0,0,1.633.755,10.592,10.592,0,0,0,11.584-2.909c3.709-4.311,5.033-9.8,5.519-15.355a87.206,87.206,0,0,1,4.249-19.8C425.578,250.442,428.842,235.385,428.229,232.819Z" fill="#ffa8a7"/>
            <path id="Path_690" data-name="Path 690" d="M401.159,188.914c4.87-.314,8.035.666,11.652,6.623S425.9,222.156,425.9,222.156s-2.732,7.5-18.4,10.663l-9.43-20.007S391.992,195.752,401.159,188.914Z" fill="#455a64"/>
          </g>
        </g>
      </g>
    </g>
    <g id="Group_798" data-name="Group 798" transform="translate(357.467 42.173)">
      <g id="Group_795" data-name="Group 795" transform="translate(0.241 0.207)">
        <path id="Path_1483" data-name="Path 1483" d="M166.786,139.1c-3.807-14.723-19.918-24.77-34.9-26.216a342.872,342.872,0,0,0-48.234-1.137c-20.812-.369-41.9,7.394-49,22.584s-4.37,34.418,9.663,44.768c9.235,6.811,21.39,9.148,33.322,10.039a18.2,18.2,0,0,1-8.991,13.4,31.266,31.266,0,0,0,18.127-6.957,27.365,27.365,0,0,0,5.279-5.9,221.615,221.615,0,0,0,35.166-2.64c9.848-1.538,19.977-3.927,27.534-9.875C166.143,168.194,170.534,153.6,166.786,139.1Z" transform="translate(-30.863 -111.38)" fill="#fff"/>
      </g>
      <g id="Group_797" data-name="Group 797">
        <g id="Group_796" data-name="Group 796">
          <path id="Path_1484" data-name="Path 1484" d="M166.966,139.1s.025.169.092.5.173.822.306,1.456c.159.638.265,1.446.406,2.4.173.952.238,2.071.342,3.333a38.816,38.816,0,0,1-.59,9.261,35.018,35.018,0,0,1-4.432,11.658,35.548,35.548,0,0,1-4.474,5.873,36.276,36.276,0,0,1-2.9,2.7,20.046,20.046,0,0,1-1.6,1.278c-.546.422-1.125.809-1.716,1.191a51.476,51.476,0,0,1-16.891,6.569,180.254,180.254,0,0,1-20.454,3.07,223.505,223.505,0,0,1-22.828,1.055H92.1l-.068.1c-4.792,7.4-13.735,12.227-23.225,12.736l.136.463a18.536,18.536,0,0,0,9.12-13.578l.034-.265-.267-.021a88.349,88.349,0,0,1-20.323-3.6,47.156,47.156,0,0,1-9.688-4.3,34.807,34.807,0,0,1-8.271-6.814,31.34,31.34,0,0,1-5.254-8.338,33.565,33.565,0,0,1-2.618-9.38,38.418,38.418,0,0,1-.1-9.61,41.879,41.879,0,0,1,2.171-9.211,31.987,31.987,0,0,1,4.358-8.179c.439-.63.987-1.174,1.472-1.763l.749-.866c.263-.276.549-.529.822-.794.555-.521,1.1-1.055,1.657-1.563l1.777-1.408a18.544,18.544,0,0,1,1.834-1.312c.629-.409,1.239-.845,1.878-1.23,1.315-.708,2.566-1.519,3.925-2.107l2-.946,2.041-.814c1.345-.576,2.742-.986,4.111-1.444a71.776,71.776,0,0,1,16.577-3.035c1.369-.058,2.722-.2,4.076-.176,1.352-.019,2.691,0,4.026-.072,2.669-.12,5.283-.191,7.861-.253,10.3-.212,19.912.02,28.659.568,4.369.3,8.548.558,12.449,1.072a45.108,45.108,0,0,1,10.691,2.945,42.313,42.313,0,0,1,14.69,9.846,30.2,30.2,0,0,1,6.23,9.307,21.709,21.709,0,0,1,1.014,2.749c.208.628.327.946.327.946s-.085-.327-.276-.962a19.966,19.966,0,0,0-.969-2.773,29.823,29.823,0,0,0-6.178-9.406,42.334,42.334,0,0,0-14.727-9.976,45.271,45.271,0,0,0-10.754-3c-3.931-.531-8.1-.8-12.473-1.112-8.756-.571-18.374-.825-28.692-.632-2.577.057-5.207.124-7.862.24-1.327.075-2.675.048-4.028.065-1.354-.025-2.72.115-4.1.171a72.2,72.2,0,0,0-16.688,3.033c-1.38.461-2.787.873-4.145,1.451l-2.059.82L52,117.969c-1.371.593-2.638,1.41-3.966,2.124-.647.389-1.265.829-1.9,1.243a18.666,18.666,0,0,0-1.857,1.327l-1.8,1.425c-.57.514-1.119,1.055-1.682,1.583-.277.269-.567.526-.835.806l-.762.879c-.494.6-1.049,1.151-1.5,1.791a32.444,32.444,0,0,0-4.435,8.309,42.272,42.272,0,0,0-2.2,9.328,38.925,38.925,0,0,0,.1,9.739,34.065,34.065,0,0,0,2.654,9.518,31.861,31.861,0,0,0,5.338,8.471,35.33,35.33,0,0,0,8.4,6.918,47.59,47.59,0,0,0,9.795,4.343,88.714,88.714,0,0,0,20.444,3.62l-.233-.286A18.041,18.041,0,0,1,68.7,202.319l-.934.522,1.07-.059c9.634-.523,18.716-5.434,23.586-12.973l-.195.1a222.89,222.89,0,0,0,22.872-1.094,179.566,179.566,0,0,0,20.5-3.121c6.356-1.436,12.226-3.533,16.988-6.664.6-.388,1.179-.781,1.729-1.209a20.487,20.487,0,0,0,1.61-1.3,37.06,37.06,0,0,0,2.917-2.735,35.78,35.78,0,0,0,4.488-5.941,35.1,35.1,0,0,0,4.406-11.761,38.568,38.568,0,0,0,.526-9.311c-.117-1.265-.194-2.386-.379-3.34-.153-.957-.271-1.765-.442-2.4-.15-.631-.264-1.113-.344-1.45S166.966,139.1,166.966,139.1Z" transform="translate(-30.802 -111.173)" fill="#263238"/>
        </g>
      </g>
    </g>
    <g id="Group_790" data-name="Group 790" transform="translate(41.099 -64.419)">
      <path id="Path_1471" data-name="Path 1471" d="M361.005,137.89l-3.879,19.4h-1.414l1.83-9.2H344.573l-1.829,9.2h-1.413l3.88-19.4h1.413l-1.774,8.9h12.968l1.773-8.9Z" fill="#640000"/>
      <path id="Path_1472" data-name="Path 1472" d="M368.931,139.165l-1.524,7.647h10.307l-.249,1.247H367.158l-1.608,7.954h11.971l-.277,1.274H363.887l3.88-19.4h12.968l-.276,1.275Z" fill="#640000"/>
      <path id="Path_1473" data-name="Path 1473" d="M386.306,137.89h1.413l-3.63,18.123h11.167l-.277,1.274H382.426Z" fill="#640000"/>
      <path id="Path_1474" data-name="Path 1474" d="M402.517,137.89h1.413l-3.63,18.123h11.167l-.277,1.274H398.637Z" fill="#640000"/>
      <path id="Path_1475" data-name="Path 1475" d="M414.378,149.445c0-6.29,4.461-11.694,11.61-11.694,5.709,0,8.895,3.215,8.895,7.981a11.324,11.324,0,0,1-11.638,11.694C417.537,157.426,414.378,154.211,414.378,149.445Zm19.064-3.658c0-4.018-2.577-6.733-7.564-6.733-6.124,0-10.087,4.738-10.087,10.336,0,4.018,2.605,6.733,7.592,6.733C429.507,156.123,433.442,151.385,433.442,145.787Z" fill="#640000"/>
      <path id="Path_1476" data-name="Path 1476" d="M436.851,156.317a1.177,1.177,0,0,1,1.164-1.191,1.112,1.112,0,0,1,1.136,1.08,1.183,1.183,0,0,1-1.191,1.192A1.107,1.107,0,0,1,436.851,156.317Zm4.018-18.427h1.607l-3.048,13.827h-1.052Z" fill="#640000"/>
    </g>
  </g>
</svg>
