<svg xmlns="http://www.w3.org/2000/svg" width="438.402" height="374.903" viewBox="0 0 438.402 374.903">
  <g id="OBJECTS" transform="translate(-30.799 -55.667)">
    <path id="Path_1" data-name="Path 1" d="M433.968,205.494a172.883,172.883,0,0,0-3.728-34.452,144.4,144.4,0,0,0-7.3-23.61,135.078,135.078,0,0,0-11.2-21.914,146.789,146.789,0,0,0-32.43-36.225A158.908,158.908,0,0,0,359.372,75.6c-3.468-2.044-7.032-3.918-10.649-5.667a110.684,110.684,0,0,0-11.108-4.7.5.5,0,0,0-.36.932l.019.008a109.694,109.694,0,0,1,10.644,5.309c3.46,1.948,6.852,4.01,10.136,6.231a155.669,155.669,0,0,1,18.671,14.6,141.308,141.308,0,0,1,29.019,36.726,114.118,114.118,0,0,1,5.619,11.63C380.019,95.137,319.512,64.286,250,64.286c-60.039,0-113.36,23.017-146.977,58.628A122.74,122.74,0,0,1,120.657,94.8c10.356-12.591,23.778-22.65,38.652-30.057l.01-.005a.5.5,0,0,0-.4-.915,121.173,121.173,0,0,0-42.57,26.985c-12.287,11.935-21.82,26.637-28.977,42.294a195.146,195.146,0,0,0-9.4,25.972,121.6,121.6,0,0,0-12.114,52.689c0,33.08,13.6,63.617,36.565,88.22H397.58c22.966-24.6,36.565-55.14,36.565-88.22C434.145,209.664,434.077,207.574,433.968,205.494Z" fill="#acc3eb" opacity="0.43"/>
    <g id="Group_7" data-name="Group 7">
      <g id="Group_5" data-name="Group 5">
        <path id="Path_2" data-name="Path 2" d="M131.042,264.737c5.966-13.981,9.295-30.934,8.929-49.157-.592-29.415-10.664-55.155-25.481-70.168-5.354-5.425-10.884,12.387-16.908,27.471-3.986,10-8.175,18.8-12.678,18.893-13.19.265-26.34-52.513-35.528-40.168-11.819,15.863-19.085,39.674-18.549,66.167.945,47.057,26.143,84.715,56.282,84.114C105.576,301.522,121.618,286.87,131.042,264.737ZM53.326,202.354a10.951,10.951,0,1,1,10.728-11.18A10.959,10.959,0,0,1,53.326,202.354Z" fill="#e8ebe4"/>
        <path id="Path_3" data-name="Path 3" d="M53.326,202.354a10.959,10.959,0,0,1-11.174-10.736,10.848,10.848,0,0,1,3-7.73,10.817,10.817,0,0,0-1.1,4.992A10.958,10.958,0,0,0,62.954,196.2,10.941,10.941,0,0,1,53.326,202.354Z" fill="#d8dbd5"/>
        <path id="Path_4" data-name="Path 4" d="M87.109,301.889c-30.139.6-55.337-37.057-56.282-84.114-.536-26.493,6.73-50.3,18.549-66.167a6.9,6.9,0,0,1,.531-.642C40.26,166.607,34.523,188.107,35,211.75c.945,47.058,26.143,84.715,56.287,84.106,12.846-.26,24.511-7.421,33.6-19.2C115.345,291.989,102.016,301.586,87.109,301.889Z" fill="#eff2eb"/>
        <path id="Path_5" data-name="Path 5" d="M131.042,264.737c.079-35.069-18.888-70.113-33.46-91.854,6.024-15.084,11.554-32.9,16.908-27.471,14.817,15.013,24.889,40.753,25.481,70.168C140.337,233.8,137.008,250.756,131.042,264.737Z" fill="#d8dbd5"/>
        <g id="Group_1" data-name="Group 1">
          <path id="Path_6" data-name="Path 6" d="M63.742,263.066c-5.568.112-10.2-5.878-10.354-13.378S57.629,236.017,63.2,235.9s10.2,5.878,10.354,13.378S69.31,262.955,63.742,263.066Z" fill="#ed6a5a"/>
          <path id="Path_7" data-name="Path 7" d="M63.74,263.066c-5.563.111-10.2-5.875-10.353-13.379a15.335,15.335,0,0,1,4.12-11.246,17.107,17.107,0,0,0-1.488,7.449c.159,7.495,4.789,13.489,10.358,13.371a8.393,8.393,0,0,0,5.694-2.528C70.336,260.483,67.27,262.994,63.74,263.066Z" fill="#e65847"/>
          <path id="Path_8" data-name="Path 8" d="M61.517,246.458c-3.308-5.031,4.137-10.353,7.922-5.671a8.211,8.211,0,0,1,1.607,6.391C70.42,252.506,64.215,250.561,61.517,246.458Z" fill="#f77c6d"/>
        </g>
        <g id="Group_2" data-name="Group 2">
          <ellipse id="Ellipse_1" data-name="Ellipse 1" cx="10.083" cy="13.583" rx="10.083" ry="13.583" transform="matrix(1, -0.02, 0.02, 1, 88.398, 256.298)" fill="#1f487e"/>
          <path id="Path_9" data-name="Path 9" d="M99.023,283.257c-5.564.111-10.2-5.876-10.354-13.379a15.343,15.343,0,0,1,4.12-11.247,17.112,17.112,0,0,0-1.488,7.45c.159,7.495,4.789,13.489,10.359,13.37a8.385,8.385,0,0,0,5.693-2.527C105.618,280.674,102.552,283.185,99.023,283.257Z" fill="#1a3c69"/>
          <path id="Path_10" data-name="Path 10" d="M96.8,266.649c-3.308-5.031,4.137-10.353,7.922-5.671a8.211,8.211,0,0,1,1.607,6.391C105.7,272.7,99.5,270.752,96.8,266.649Z" fill="#245594"/>
        </g>
        <g id="Group_3" data-name="Group 3">
          <path id="Path_11" data-name="Path 11" d="M120.541,251.525c-5.568.112-10.2-5.878-10.354-13.378s4.241-13.671,9.809-13.783,10.2,5.878,10.354,13.379S126.109,251.414,120.541,251.525Z" fill="#99b2dd"/>
          <path id="Path_12" data-name="Path 12" d="M120.54,251.525c-5.564.111-10.2-5.875-10.354-13.379a15.339,15.339,0,0,1,4.12-11.246,17.107,17.107,0,0,0-1.488,7.449c.159,7.495,4.789,13.489,10.359,13.371a8.391,8.391,0,0,0,5.693-2.528C127.135,248.942,124.069,251.453,120.54,251.525Z" fill="#7095d4"/>
          <path id="Path_13" data-name="Path 13" d="M118.316,234.917c-3.308-5.031,4.137-10.353,7.922-5.671a8.207,8.207,0,0,1,1.607,6.391C127.219,240.966,121.014,239.02,118.316,234.917Z" fill="#acc3eb"/>
        </g>
        <g id="Group_4" data-name="Group 4">
          <path id="Path_14" data-name="Path 14" d="M115.316,208.668c-5.567.112-10.2-5.878-10.353-13.378s4.241-13.671,9.808-13.783,10.2,5.878,10.354,13.379S120.884,208.557,115.316,208.668Z" fill="#48284a"/>
          <path id="Path_15" data-name="Path 15" d="M115.315,208.668c-5.564.111-10.2-5.876-10.353-13.379a15.338,15.338,0,0,1,4.119-11.247,17.129,17.129,0,0,0-1.488,7.45c.159,7.495,4.789,13.489,10.359,13.371a8.391,8.391,0,0,0,5.693-2.528C121.911,206.085,118.845,208.6,115.315,208.668Z" fill="#341936"/>
          <path id="Path_16" data-name="Path 16" d="M113.091,192.06c-3.308-5.031,4.137-10.353,7.923-5.671a8.211,8.211,0,0,1,1.606,6.391C121.994,198.109,115.789,196.163,113.091,192.06Z" fill="#643766"/>
        </g>
      </g>
      <g id="Group_6" data-name="Group 6">
        <path id="Path_17" data-name="Path 17" d="M101.733,103.395c-1.33,8.54-2.99,17-4.72,25.42-.87,4.21-1.77,8.43-2.71,12.62-.92,4.19-1.89,8.38-2.88,12.55-1,4.19-1.92,8.39-3.15,12.5-.28.97-.57,1.94-.88,2.9-.79,2.47-1.67,4.91-2.55,7.35-.23.66-.48,1.31-.71,1.96-1.31,3.58-2.61,7.17-3.97,10.73-1.71,4.49-3.53,8.95-5.59,13.34a1.7,1.7,0,0,1-2.25.81,1.683,1.683,0,0,1-.96-1.71c.18-1.69.39-3.36.63-5.03.97-6.91,2.34-13.7,3.69-20.5.14-.68.27-1.37.4-2.05.71-3.54,1.46-7.07,2.39-10.54,1.09-4.15,2.48-8.22,3.8-12.32,1.32-4.08,2.66-8.16,4.07-12.22,1.35-4.08,2.77-8.15,4.22-12.2,2.9-8.09,5.87-16.18,9.16-24.17a1.059,1.059,0,0,1,1.38-.57.169.169,0,0,0,.05.02A1.061,1.061,0,0,1,101.733,103.395Z" fill="#1f487e"/>
        <path id="Path_18" data-name="Path 18" d="M87.393,169.385c-.79,2.47-1.67,4.91-2.55,7.35-.23.66-.48,1.31-.71,1.96-1.31,3.58-2.61,7.17-3.97,10.73a33.213,33.213,0,0,1-8.17,7.41c.97-6.91,2.34-13.7,3.69-20.5.14-.68.27-1.37.4-2.05.71-3.54,1.46-7.07,2.39-10.54,1.09-4.15,2.48-8.22,3.8-12.32,1.32-4.08,2.66-8.16,4.07-12.22,1.35-4.08,2.77-8.15,4.22-12.2,2.9-8.09,5.87-16.18,9.16-24.17a1.059,1.059,0,0,1,1.38-.57.169.169,0,0,0,.05.02C96.9,114.235,83.1,154.995,87.393,169.385Z" fill="#1a3c69"/>
        <path id="Path_19" data-name="Path 19" d="M73.933,217.005a29.841,29.841,0,0,0-1.39,3.88c-1.29,4.62-.72,7.58-.35,8.8.04.13-.14.21-.23.1a31.846,31.846,0,0,1-6.27-11.52c-1.37-5.14-.89-11.1,5.06-16.12a2.466,2.466,0,0,1,3.87,1.15A20.25,20.25,0,0,1,73.933,217.005Z" fill="#48284a"/>
        <path id="Path_20" data-name="Path 20" d="M84.923,175.762a.384.384,0,0,1,.258.5c-.207.574-.422,1.142-.623,1.711-2.43,6.657-4.827,13.325-7.621,19.886-.824,1.97-1.7,3.928-2.612,5.877a1.824,1.824,0,0,1-2.408.867,1.8,1.8,0,0,1-1.027-1.831c.535-5.02,1.327-9.964,2.215-14.877.75-4.164,1.584-8.306,2.409-12.448.122-.593.237-1.193.35-1.789a.38.38,0,0,1,.476-.294Z" fill="#e8ebe4"/>
        <path id="Path_21" data-name="Path 21" d="M73.105,187.892c.685,3.885,1.863,7.5,3.832,9.964-.824,1.97-1.7,3.928-2.612,5.877a1.824,1.824,0,0,1-2.408.867,1.8,1.8,0,0,1-1.027-1.831C71.425,197.749,72.217,192.8,73.105,187.892Z" fill="#c4c7c1"/>
        <path id="Path_22" data-name="Path 22" d="M72.193,229.685c.04.13-.14.21-.23.1a31.846,31.846,0,0,1-6.27-11.52,26.752,26.752,0,0,0,6.85,2.62C71.253,225.505,71.823,228.465,72.193,229.685Z" fill="#ed6a5a"/>
      </g>
    </g>
    <g id="Group_9" data-name="Group 9">
      <rect id="Rectangle_2" data-name="Rectangle 2" width="1.9" height="2.115" transform="translate(267.962 320.913) rotate(2.691)" fill="#404040"/>
      <path id="Path_23" data-name="Path 23" d="M268.843,320.568l-.135,2.877-7.766,2.077-66.986-3.149a2.835,2.835,0,0,1-2.694-2.969l.1-2.078a2.82,2.82,0,0,1,2.508-2.675,2.285,2.285,0,0,1,.452-.019l66.986,3.149Z" fill="#4f4f4f"/>
      <g id="Group_8" data-name="Group 8">
        <rect id="Rectangle_3" data-name="Rectangle 3" width="13.671" height="1.864" rx="0.609" transform="translate(234.685 319.474) rotate(2.691)" fill="#787878"/>
        <rect id="Rectangle_4" data-name="Rectangle 4" width="0.538" height="1.864" transform="matrix(0.999, 0.047, -0.047, 0.999, 241.244, 319.782)" fill="#4f4f4f"/>
      </g>
      <path id="Path_24" data-name="Path 24" d="M193.868,314.651a303.359,303.359,0,0,0,45.038,9.835l-44.95-2.113a2.835,2.835,0,0,1-2.694-2.969l.1-2.078A2.82,2.82,0,0,1,193.868,314.651Z" fill="#404040"/>
      <path id="Path_25" data-name="Path 25" d="M269.632,325.931a1.5,1.5,0,0,1-.161.012C269.522,325.936,269.582,325.939,269.632,325.931Z" fill="#4f4f4f"/>
      <path id="Path_26" data-name="Path 26" d="M218.3,317.455a.783.783,0,0,0-.154,1.535c4.158,1.181,10.753,2.49,13.982.125C235.74,316.468,224.517,316.99,218.3,317.455Z" fill="#5c5c5c"/>
    </g>
    <g id="Group_18" data-name="Group 18">
      <g id="Group_10" data-name="Group 10">
        <path id="Path_27" data-name="Path 27" d="M328.47,343.151a15.777,15.777,0,0,1,8.185-21.869c4.37-1.523,8.884-.933,13.25-.365.531.069,1.06.139,1.586.2a91.554,91.554,0,0,0,13.623.646c4.392-.121,10.032-.588,14.712-3.149a14.567,14.567,0,0,0,6.868-7.726,39.638,39.638,0,0,1-4.092-.82c-2.763-.69-5.9-1.711-8.213-4.05a6.575,6.575,0,0,1-1.878-3.243,5.331,5.331,0,0,1,.983-4.274,7.908,7.908,0,0,1,5.449-3.06,10.43,10.43,0,0,1,8.071,2.822,12.843,12.843,0,0,1,4.251,8.884,14.726,14.726,0,0,0,2.448-.331c3.272-.733,5.976-2.871,6.89-5.446,1.166-3.281-.426-7.049-2.3-9.482-5.127-6.639-14.087-9.082-23.6-11.191l-21.731-4.818.865-3.9,21.731,4.818c10.255,2.273,19.952,4.952,25.9,12.65,3.267,4.233,4.354,9.192,2.908,13.265-1.384,3.9-5.133,6.969-9.785,8.011a18.914,18.914,0,0,1-3.8.438,18.358,18.358,0,0,1-9.041,10.967c-5.43,2.97-11.681,3.5-16.52,3.638A95.116,95.116,0,0,1,351,325.091q-.8-.1-1.615-.207c-4.084-.533-7.941-1.037-11.415.175a11.193,11.193,0,0,0-6.5,6.749,11.041,11.041,0,0,0,.472,9.359Zm51.444-43.756a5.542,5.542,0,0,0-.561.028,3.958,3.958,0,0,0-2.626,1.437,1.281,1.281,0,0,0-.3,1.092,2.777,2.777,0,0,0,.806,1.256c1.62,1.638,4.114,2.427,6.34,2.982,1.324.331,2.541.577,3.672.742a8.964,8.964,0,0,0-2.906-5.693A6.659,6.659,0,0,0,379.914,299.395Z" fill="#2b2b2b"/>
      </g>
      <path id="Path_28" data-name="Path 28" d="M348.048,339.739v71.48a5.012,5.012,0,0,1-5.01,5.01H204.918a5.006,5.006,0,0,1-5.01-5.01v-71.48a5.006,5.006,0,0,1,5.01-5.01h138.12a5.048,5.048,0,0,1,5.01,5.01Z" fill="#3b3b3b"/>
      <path id="Path_29" data-name="Path 29" d="M210.222,337.711a7.285,7.285,0,0,0-6.551,6.827c-.79,13.736-2.345,46.052.374,48.066,3.458,2.563,23.5-51.128,22.666-54.168C226.169,336.459,216.746,337.054,210.222,337.711Z" fill="#454545"/>
      <circle id="Ellipse_2" data-name="Ellipse 2" cx="9.625" cy="9.625" r="9.625" transform="translate(205.878 365.979)" fill="#242424"/>
      <circle id="Ellipse_3" data-name="Ellipse 3" cx="4.375" cy="4.375" r="4.375" transform="translate(211.128 371.229)" fill="#3b3b3b"/>
      <path id="Rectangle_5" data-name="Rectangle 5" d="M.563,0h14.25a.562.562,0,0,1,.562.562V5.688a.562.562,0,0,1-.562.562H.563A.563.563,0,0,1,0,5.687V.563A.563.563,0,0,1,.563,0Z" transform="translate(207.503 355.479)" fill="#242424"/>
      <path id="Rectangle_6" data-name="Rectangle 6" d="M.563,0h14.25a.562.562,0,0,1,.562.562V5.688a.562.562,0,0,1-.562.562H.563A.563.563,0,0,1,0,5.687V.563A.563.563,0,0,1,.563,0Z" transform="translate(207.503 346.229)" fill="#242424"/>
      <path id="Rectangle_7" data-name="Rectangle 7" d="M.563,0h14.25a.562.562,0,0,1,.562.562V5.688a.562.562,0,0,1-.562.562H.563A.563.563,0,0,1,0,5.687V.563A.563.563,0,0,1,.563,0Z" transform="translate(207.503 398.729)" fill="#242424"/>
      <path id="Rectangle_8" data-name="Rectangle 8" d="M.563,0h14.25a.562.562,0,0,1,.562.562V5.688a.562.562,0,0,1-.562.562H.563A.563.563,0,0,1,0,5.687V.563A.563.563,0,0,1,.563,0Z" transform="translate(207.503 389.479)" fill="#242424"/>
      <g id="Group_17" data-name="Group 17">
        <rect id="Rectangle_9" data-name="Rectangle 9" width="112.718" height="72.785" rx="3.21" transform="translate(229.188 338.436)" fill="#242424"/>
        <g id="Group_16" data-name="Group 16">
          <g id="Group_15" data-name="Group 15">
            <g id="Group_11" data-name="Group 11">
              <path id="Path_30" data-name="Path 30" d="M236.234,349.838h-1V343.13h6.792v1h-5.792Z" fill="#5e5e5e"/>
            </g>
            <g id="Group_12" data-name="Group 12">
              <path id="Path_31" data-name="Path 31" d="M241.984,405.526v1h-6.708v-6.792h1v5.792Z" fill="#5e5e5e"/>
            </g>
            <g id="Group_13" data-name="Group 13">
              <path id="Path_32" data-name="Path 32" d="M334.86,349.838h1V343.13h-6.792v1h5.792Z" fill="#5e5e5e"/>
            </g>
            <g id="Group_14" data-name="Group 14">
              <path id="Path_33" data-name="Path 33" d="M329.11,405.526v1h6.708v-6.792h-1v5.792Z" fill="#5e5e5e"/>
            </g>
          </g>
        </g>
      </g>
      <path id="Path_34" data-name="Path 34" d="M348.048,339.739v71.48a5.012,5.012,0,0,1-5.01,5.01h-91.56c30.46-7.39,82.72-27.57,94.87-80.23A4.93,4.93,0,0,1,348.048,339.739Z" opacity="0.25"/>
      <path id="Path_35" data-name="Path 35" d="M257.482,388.8a16.281,16.281,0,0,1-19.347-14.075c-1.228-10.178-1.96-23.3,1.9-26.09,6.5-4.694,62.25-1.651,67.75,1.849C312.2,353.287,282.81,383.629,257.482,388.8Z" fill="#2b2b2b"/>
    </g>
    <g id="Group_22" data-name="Group 22">
      <path id="Path_36" data-name="Path 36" d="M430.285,282.666c-.7.774-1.438,1.49-2.164,2.205-.273.352-.549.657-.774.986a6.6,6.6,0,0,0-.549,1.02,5.74,5.74,0,0,0-.314,3.856,4.508,4.508,0,0,0,1.673,2.545,3,3,0,0,0,.552.321,2.129,2.129,0,0,0,.565.23,3.308,3.308,0,0,0,.606.139l1.246.392c.931.3,1.872.575,2.8.892l1.388.469c.133.051.191.057.385.144l.524.232,1.042.486a15.02,15.02,0,0,1,6.551,6.677,15.456,15.456,0,0,1-6.521,20.449l-.5.282c-.19.108-.242.12-.37.185l-.659.314-1.333.6-4.288,1.959a3.7,3.7,0,0,0-1.548,1.7,4.533,4.533,0,0,0-.273,2.769,4.776,4.776,0,0,0,1.549,2.655,5.779,5.779,0,0,0,.724.541,2.571,2.571,0,0,0,.555.3l.666.318,2.651,1.312c3.526,1.781,7.021,3.66,10.429,5.816a.517.517,0,0,1-.3.954c-4.029-.172-7.971-.622-11.883-1.17l-2.926-.433-.729-.119a5.573,5.573,0,0,1-.824-.174,13.671,13.671,0,0,1-1.951-.622,12.584,12.584,0,0,1-6.229-5.756,14.12,14.12,0,0,1-1.41-4.173,19.629,19.629,0,0,1-.159-2.229,15.49,15.49,0,0,1,.209-2.256,13.748,13.748,0,0,1,4.527-8.017,12.763,12.763,0,0,1,1.87-1.395l.492-.313.357-.21.634-.365,2.535-1.461,1.268-.73.64-.353a2.47,2.47,0,0,0,.274-.159l.121-.1a3.423,3.423,0,0,0,.847-.761,3.955,3.955,0,0,0,.825-1.938,4.612,4.612,0,0,0-.285-2.187,4.2,4.2,0,0,0-1.324-1.706,3.08,3.08,0,0,1-.258-.181l-.127-.1a2.183,2.183,0,0,0-.283-.151l-1.3-.671c-.87-.444-1.723-.927-2.586-1.389l-1.427-.783a13.18,13.18,0,0,1-1.93-1.3,11.288,11.288,0,0,1-1.689-1.618,10.116,10.116,0,0,1-1.35-1.887,11.952,11.952,0,0,1-1.4-8.484,10.561,10.561,0,0,1,4.294-6.614,9.538,9.538,0,0,1,1.642-.9,13.587,13.587,0,0,1,1.713-.541c1.017-.156,2.026-.3,3.069-.4a.538.538,0,0,1,.583.487A.546.546,0,0,1,430.285,282.666Z" fill="#e8ebe4"/>
      <g id="Group_21" data-name="Group 21">
        <g id="Group_20" data-name="Group 20">
          <g id="Group_19" data-name="Group 19">
            <path id="Path_37" data-name="Path 37" d="M443.544,385.371a23.635,23.635,0,0,1-10.66,2.31v.01h-.85v-.01c-25.68-.23-21.68-28.16-18.48-41,.75-3.02,1.46-5.21,1.72-6a.475.475,0,0,1,.45-.32h33.46a.488.488,0,0,1,.46.32C450.854,344.271,461.1,376.421,443.544,385.371Z" fill="#ed6a5a"/>
            <path id="Path_38" data-name="Path 38" d="M446.327,350.639a15.553,15.553,0,0,1,2.854-2.835,13.917,13.917,0,0,1,3.572-2.045,12.474,12.474,0,0,1,2.087-.617c.361-.077.742-.1,1.115-.142a6.03,6.03,0,0,1,1.133-.055,9.766,9.766,0,0,1,2.274.3c.371.093.747.181,1.113.29l1.035.446a9.156,9.156,0,0,1,1.907,1.105c.293.209.615.4.88.63l.769.7a11.375,11.375,0,0,1,2.724,3.5,12.611,12.611,0,0,1,1.273,4.213,15.248,15.248,0,0,1-.013,4.188,20.219,20.219,0,0,1-2.644,7.563,19.108,19.108,0,0,1-2.377,3.23,16.062,16.062,0,0,1-3.068,2.69,12.824,12.824,0,0,1-8.013,2.354A13.611,13.611,0,0,1,445.4,373.2l2.161-3.1a10.215,10.215,0,0,0,5.485,1.632,7.661,7.661,0,0,0,2.651-.545,8.812,8.812,0,0,0,2.429-1.376,12.3,12.3,0,0,0,2.094-2.029,14,14,0,0,0,1.665-2.485,15.106,15.106,0,0,0,1.814-5.637,9.2,9.2,0,0,0-.777-5.264,6.645,6.645,0,0,0-1.582-1.978l-.507-.5c-.172-.158-.364-.257-.542-.392l-.54-.388a4.508,4.508,0,0,0-.559-.29l-.554-.294-.578-.173a4.791,4.791,0,0,0-1.181-.232,2.378,2.378,0,0,0-.615-.025c-.208.011-.416-.014-.63.014a9.661,9.661,0,0,0-1.3.255,11.281,11.281,0,0,0-2.674,1.092,19.353,19.353,0,0,0-2.51,1.66Z" fill="#ed6a5a"/>
          </g>
        </g>
        <path id="Path_39" data-name="Path 39" d="M455.744,350.141a.4.4,0,0,0-.11,0,10.826,10.826,0,0,0-1.31.26,9.831,9.831,0,0,0-1.97.73c-.33-1.72-.7-3.3-1.05-4.7a10.078,10.078,0,0,1,1.45-.67,9.847,9.847,0,0,1,1.82-.55C454.954,346.631,455.364,348.3,455.744,350.141Z" fill="#ed5947"/>
        <path id="Path_40" data-name="Path 40" d="M456.774,370.7a26.786,26.786,0,0,1-1.46,5.36,11.046,11.046,0,0,1-2.37.09,12.086,12.086,0,0,1-1.21-.12,25.374,25.374,0,0,0,1.25-4.3h.06a7.551,7.551,0,0,0,2.65-.54A6.523,6.523,0,0,0,456.774,370.7Z" fill="#ed5947"/>
        <path id="Path_41" data-name="Path 41" d="M443.544,385.371a23.635,23.635,0,0,1-10.66,2.31v.01h-.85v-.01c-25.68-.23-21.68-28.16-18.48-41C416.314,356.8,424.764,380.871,443.544,385.371Z" fill="#ed5947"/>
        <path id="Path_42" data-name="Path 42" d="M431.926,345.867a2.505,2.505,0,0,1,2.449-2.521c3.43-.077,10.523.008,13.39,1.865,2.659,1.722,1.98,12.426,1.3,18.883a2.491,2.491,0,0,1-4.228,1.512C439.981,360.793,431.953,351.929,431.926,345.867Z" fill="#ed8174"/>
      </g>
    </g>
    <g id="Group_36" data-name="Group 36">
      <g id="Group_28" data-name="Group 28">
        <path id="Path_43" data-name="Path 43" d="M309,301.9h-93.25l9.5-35.333H299.5Z" fill="#1f1f1f"/>
        <rect id="Rectangle_10" data-name="Rectangle 10" width="283.333" height="165" rx="2.667" transform="translate(120.711 118.396)" fill="#3b3b3b"/>
        <path id="Rectangle_11" data-name="Rectangle 11" d="M2.667,0h278a2.667,2.667,0,0,1,2.667,2.667V152.833a0,0,0,0,1,0,0H0a0,0,0,0,1,0,0V2.667A2.667,2.667,0,0,1,2.667,0Z" transform="translate(120.711 118.396)" fill="#1f1f1f"/>
        <path id="Path_44" data-name="Path 44" d="M313,301.9H211.753a5.833,5.833,0,0,1,5.833-5.833H307.17A5.833,5.833,0,0,1,313,301.9Z" fill="#3b3b3b"/>
        <g id="Group_27" data-name="Group 27">
          <rect id="Rectangle_12" data-name="Rectangle 12" width="267.818" height="139.333" transform="translate(128.469 125.146)" fill="#606060"/>
          <g id="Group_26" data-name="Group 26">
            <path id="Path_45" data-name="Path 45" d="M377.878,125.146H128.469V264.479h12.409v-126.5h237v11h-38v35h38v80.5h18.409V125.146Z" fill="#828282"/>
            <g id="Group_24" data-name="Group 24">
              <g id="Group_23" data-name="Group 23">
                <rect id="Rectangle_13" data-name="Rectangle 13" width="8.167" height="8.167" transform="translate(130.878 147.229)" fill="#696969"/>
                <rect id="Rectangle_14" data-name="Rectangle 14" width="8.167" height="8.167" transform="translate(130.878 160.229)" fill="#696969"/>
                <rect id="Rectangle_15" data-name="Rectangle 15" width="8.167" height="8.167" transform="translate(130.878 173.229)" fill="#696969"/>
                <rect id="Rectangle_16" data-name="Rectangle 16" width="8.167" height="8.167" transform="translate(130.878 186.229)" fill="#696969"/>
                <rect id="Rectangle_17" data-name="Rectangle 17" width="8.167" height="8.167" transform="translate(130.878 199.229)" fill="#696969"/>
              </g>
            </g>
            <rect id="Rectangle_18" data-name="Rectangle 18" width="70.5" height="5.25" transform="translate(199.128 129.229)" fill="#696969"/>
            <rect id="Rectangle_19" data-name="Rectangle 19" width="70.5" height="5.25" transform="translate(284.878 129.229)" fill="#696969"/>
            <g id="Group_25" data-name="Group 25">
              <rect id="Rectangle_20" data-name="Rectangle 20" width="6.75" height="6.75" transform="translate(343.503 158.582)" fill="#696969"/>
              <rect id="Rectangle_21" data-name="Rectangle 21" width="6.75" height="6.75" transform="translate(357.128 158.582)" fill="#696969"/>
              <rect id="Rectangle_22" data-name="Rectangle 22" width="6.75" height="6.75" transform="translate(370.753 158.582)" fill="#696969"/>
              <rect id="Rectangle_23" data-name="Rectangle 23" width="6.75" height="6.75" transform="translate(343.503 170.457)" fill="#696969"/>
              <rect id="Rectangle_24" data-name="Rectangle 24" width="6.75" height="6.75" transform="translate(357.128 170.457)" fill="#696969"/>
              <rect id="Rectangle_25" data-name="Rectangle 25" width="6.75" height="6.75" transform="translate(370.753 170.457)" fill="#696969"/>
            </g>
          </g>
        </g>
      </g>
      <g id="Group_34" data-name="Group 34">
        <g id="Group_30" data-name="Group 30">
          <g id="Group_29" data-name="Group 29">
            <rect id="Rectangle_26" data-name="Rectangle 26" width="103.833" height="103.833" transform="translate(210.23 149.37)" fill="#fff"/>
          </g>
        </g>
        <g id="Group_33" data-name="Group 33">
          <path id="Path_46" data-name="Path 46" d="M281.4,187.993a19.16,19.16,0,0,1-3.99,11.73,29.563,29.563,0,0,0-5.89,18.12v1.4h-18.75v-2.18c0-.35-.01-.69-.03-1.04a29.673,29.673,0,0,0-6.05-16.57,19.25,19.25,0,1,1,34.71-11.46Z" fill="#e8ebe4"/>
          <path id="Path_47" data-name="Path 47" d="M281.4,187.993a19.16,19.16,0,0,1-3.99,11.73,29.563,29.563,0,0,0-5.89,18.12v1.4h-18.75v-2.18c0-.35-.01-.69-.03-1.04,18.1-5.09,24.87-23.91,27.33-35.07A19.121,19.121,0,0,1,281.4,187.993Z" fill="#d8dbd5"/>
          <g id="Group_31" data-name="Group 31">
            <path id="Path_48" data-name="Path 48" d="M264.639,218.568l-.871-.067,1.573-20.731c.087-1.005.134-2.068.181-3.109.027-.629.055-1.244.09-1.832a3.737,3.737,0,0,1-1.346-.048,4.377,4.377,0,0,1-1.656-.78,4.512,4.512,0,0,1-2.792,2.578,3.434,3.434,0,0,1-.855.131,21.42,21.42,0,0,1,.619,3.3l1.348,20.5-.87.057-1.346-20.471a18.441,18.441,0,0,0-.693-3.483,3.221,3.221,0,0,1-2.218-1.759,1.458,1.458,0,0,1-.093-1.1,1.009,1.009,0,0,1,.545-.576.835.835,0,0,1,.67,0,1.145,1.145,0,0,1,.436.376,9.128,9.128,0,0,1,1.3,2.28,2.6,2.6,0,0,0,.914-.089,3.7,3.7,0,0,0,2.349-2.381,4.246,4.246,0,0,1-.563-.835,4.415,4.415,0,0,1-.15-3.673.853.853,0,0,1,.518-.53.668.668,0,0,1,.515.057,1.145,1.145,0,0,1,.476.677,7.942,7.942,0,0,1,.186,4.063,3.509,3.509,0,0,0,1.552.812,2.959,2.959,0,0,0,1.212.012c.036-.454.081-.887.138-1.288.122-.876.613-1.732,1.451-1.628a1.037,1.037,0,0,1,.776.5,1.741,1.741,0,0,1,.119,1.44,2.821,2.821,0,0,1-1.656,1.625c-.044.666-.075,1.377-.108,2.108-.047,1.053-.1,2.128-.182,3.141Zm-8.068-26.6c.016.01-.027.042-.041.08a.669.669,0,0,0,.073.449,2.155,2.155,0,0,0,.967,1.007,8.5,8.5,0,0,0-.9-1.426A.546.546,0,0,0,256.571,191.971Zm10.58-2.079c-.211,0-.415.449-.477.884-.036.256-.066.527-.093.81a1.839,1.839,0,0,0,.755-.917.876.876,0,0,0-.04-.681c-.053-.087-.1-.092-.13-.1Zm-5.244-2.516a3.747,3.747,0,0,0,.232,2.749l.046.086A7.678,7.678,0,0,0,261.907,187.376Z" fill="#102642"/>
          </g>
          <path id="Rectangle_27" data-name="Rectangle 27" d="M.682,0H19.734a.682.682,0,0,1,.682.682v8A7.818,7.818,0,0,1,12.6,16.5H7.818A7.818,7.818,0,0,1,0,8.682v-8A.682.682,0,0,1,.682,0Z" transform="translate(251.939 217.326)" fill="#163359"/>
          <rect id="Rectangle_28" data-name="Rectangle 28" width="21.76" height="4.333" transform="translate(251.267 218.535)" fill="#102642"/>
          <rect id="Rectangle_29" data-name="Rectangle 29" width="21.76" height="4.333" transform="translate(251.267 224.285)" fill="#102642"/>
          <g id="Group_32" data-name="Group 32">
            <path id="Path_49" data-name="Path 49" d="M258.778,171.96a39.3,39.3,0,0,0-8.262,8.137,27.21,27.21,0,0,0-2.783,4.861,50.757,50.757,0,0,0-2.034,5.459l-.017.048a.512.512,0,0,1-.982-.077c-.1-.522-.17-1.054-.229-1.592a7.081,7.081,0,0,1-.034-1.619c.037-.54.078-1.086.143-1.63.1-.533.242-1.062.382-1.591a16.373,16.373,0,0,1,3.019-5.77,22.019,22.019,0,0,1,4.682-4.394,19.287,19.287,0,0,1,5.708-2.745.5.5,0,0,1,.439.888Z" fill="#fff"/>
            <path id="Path_50" data-name="Path 50" d="M260.866,170.847a.6.6,0,1,1-.6-.6A.6.6,0,0,1,260.866,170.847Z" fill="#fff"/>
          </g>
        </g>
      </g>
      <g id="Group_35" data-name="Group 35" opacity="0.39">
        <path id="Path_51" data-name="Path 51" d="M260.6,271.229h-29L128.469,118.4h29Z" fill="#fff" opacity="0.13"/>
        <path id="Path_52" data-name="Path 52" d="M295.692,271.229h-29L163.564,118.4h29Z" fill="#fff" opacity="0.13"/>
        <path id="Path_53" data-name="Path 53" d="M401.484,271.229h-14.5L283.856,118.4h14.5Z" fill="#fff" opacity="0.13"/>
      </g>
    </g>
    <g id="Group_41" data-name="Group 41">
      <g id="Group_37" data-name="Group 37">
        <path id="Path_54" data-name="Path 54" d="M152.29,343.517v87.053H69.118V325.647H137.8Z" fill="#e8ebe4"/>
        <path id="Path_55" data-name="Path 55" d="M137.8,325.647l14.487,17.873H133.373Z" fill="#d8dbd5"/>
        <path id="Path_56" data-name="Path 56" d="M138.757,430.569H69.118V367.584C77.8,389.715,97.247,421.535,138.757,430.569Z" fill="#e0e3dc"/>
      </g>
      <g id="Group_40" data-name="Group 40">
        <g id="Group_39" data-name="Group 39">
          <path id="Path_57" data-name="Path 57" d="M119.489,396.377a29.407,29.407,0,0,1,3.719-14.246,30.824,30.824,0,0,1,2.062-3.092,17.644,17.644,0,0,0,3.418-9.854,18.392,18.392,0,0,0-1.176-6.9,17.555,17.555,0,0,0-28.941-6.025,18.238,18.238,0,0,0-3.821,5.827,17.953,17.953,0,0,0-1.238,6.861,17.748,17.748,0,0,0,3.254,9.864c.705.987,1.419,2.032,2.037,3.1a27.818,27.818,0,0,1,3.837,14.225h-.949a27.4,27.4,0,0,0-3.985-13.58c-.616-1.031-1.29-1.989-2.015-2.975a19,19,0,0,1-1.915-3.261,18.692,18.692,0,0,1-1.688-7.345,19.412,19.412,0,0,1,1.306-7.432,18.946,18.946,0,0,1,35.327.277,19.663,19.663,0,0,1,1.225,7.409,18.763,18.763,0,0,1-1.772,7.293,17.958,17.958,0,0,1-1.942,3.229,29.313,29.313,0,0,0-2.031,2.955,28.362,28.362,0,0,0-3.763,13.685Z" fill="#1f487e"/>
          <line id="Line_1" data-name="Line 1" y1="1.642" transform="translate(101.375 401.643)" fill="#1f487e"/>
          <path id="Path_58" data-name="Path 58" d="M120.7,407.46a7.75,7.75,0,0,1-3.936,4.417,7.767,7.767,0,0,1-2.94.777c-1.017.041-1.9.026-2.862.03l-1.412-.008c-.461,0-.943,0-1.466-.04a7.967,7.967,0,0,1-2.917-.858,7.772,7.772,0,0,1-3.816-4.519l.894-.317a7.147,7.147,0,0,0,3.466,3.765,7.325,7.325,0,0,0,2.482.682c.417.028.877.026,1.357.02l1.412-.007c.924-.012,1.921.024,2.786-.005a6.929,6.929,0,0,0,2.5-.618,7.142,7.142,0,0,0,3.57-3.66Z" fill="#1f487e"/>
          <line id="Line_2" data-name="Line 2" y2="1.215" transform="translate(120.75 401.773)" fill="#1f487e"/>
          <path id="Path_59" data-name="Path 59" d="M101.375,397.531v-.5a.648.648,0,0,1,.647-.648H120.1a.647.647,0,0,1,.647.648v.53" fill="#1f487e"/>
          <path id="Path_60" data-name="Path 60" d="M121.724,401.979c-6.96.083-13.991.144-20.987.139h-.472l0-.475-.019-4.112,0-.494h.5l20.651.019h.473l0,.474C121.867,399.014,121.806,400.532,121.724,401.979Zm-.672-.671c-.082-1.3-.143-2.518-.138-3.777l.474.474-20.651.019.493-.493-.018,4.112-.475-.474C107.509,401.164,114.245,401.225,121.052,401.308Z" fill="#1f487e"/>
          <path id="Path_61" data-name="Path 61" d="M121.724,407.436c-6.947.094-13.978.177-20.987.189h-.531l.006-.526.051-4.112,0-.475h21.593l0,.475C121.867,404.471,121.806,405.989,121.724,407.436Zm-.672-.671c-.082-1.3-.143-2.519-.138-3.777l.474.474H100.737l.475-.474.05,4.112-.525-.524C107.5,406.587,114.232,406.67,121.052,406.765Z" fill="#1f487e"/>
          <g id="Group_38" data-name="Group 38">
            <path id="Path_62" data-name="Path 62" d="M113.427,397.562l-.826-.063,1.493-19.674c.082-.953.127-1.963.171-2.95.026-.6.052-1.181.085-1.739a3.562,3.562,0,0,1-1.277-.045,4.155,4.155,0,0,1-1.571-.74,4.284,4.284,0,0,1-2.65,2.446,3.22,3.22,0,0,1-.811.124,20.364,20.364,0,0,1,.588,3.13l1.279,19.453-.827.054L107.8,378.13a17.485,17.485,0,0,0-.657-3.3,3.056,3.056,0,0,1-2.105-1.669,1.387,1.387,0,0,1-.089-1.041.961.961,0,0,1,.518-.546.791.791,0,0,1,.636,0,1.087,1.087,0,0,1,.413.356,8.648,8.648,0,0,1,1.237,2.164,2.477,2.477,0,0,0,.867-.084,3.518,3.518,0,0,0,2.23-2.26,4.036,4.036,0,0,1-.535-.792,4.192,4.192,0,0,1-.142-3.486.81.81,0,0,1,.491-.5.634.634,0,0,1,.489.054,1.084,1.084,0,0,1,.452.643,7.541,7.541,0,0,1,.176,3.856,3.339,3.339,0,0,0,1.474.77,2.8,2.8,0,0,0,1.15.011c.034-.431.077-.841.131-1.222.115-.832.582-1.644,1.377-1.545a.981.981,0,0,1,.736.476,1.654,1.654,0,0,1,.113,1.366,2.678,2.678,0,0,1-1.571,1.542c-.042.633-.072,1.307-.1,2-.045,1-.09,2.02-.173,2.98Zm-7.657-25.241c.016.011-.025.041-.038.076a.636.636,0,0,0,.069.427,2.051,2.051,0,0,0,.917.955,8.092,8.092,0,0,0-.854-1.353A.547.547,0,0,0,105.77,372.321Zm10.041-1.972c-.2,0-.394.426-.452.838-.035.244-.063.5-.089.77a1.749,1.749,0,0,0,.717-.871.83.83,0,0,0-.038-.646c-.051-.082-.1-.088-.123-.09Zm-4.977-2.388a3.558,3.558,0,0,0,.221,2.609c.015.027.029.054.043.081A7.285,7.285,0,0,0,110.834,367.961Z" fill="#1f487e"/>
          </g>
          <path id="Path_63" data-name="Path 63" d="M129.532,376.825a23.476,23.476,0,0,1,4.733,1.826,41.2,41.2,0,0,1,4.44,2.455.479.479,0,0,1-.4.86,41.473,41.473,0,0,1-4.733-1.827,23.492,23.492,0,0,1-4.441-2.455.484.484,0,0,1,.4-.859Z" fill="#1f487e"/>
          <path id="Path_64" data-name="Path 64" d="M83.082,352.39a23.54,23.54,0,0,1,4.733,1.827,41.3,41.3,0,0,1,4.441,2.455.479.479,0,0,1-.4.859,41.276,41.276,0,0,1-4.733-1.826,23.508,23.508,0,0,1-4.44-2.455.484.484,0,0,1,.4-.86Z" fill="#1f487e"/>
          <path id="Path_65" data-name="Path 65" d="M82.918,383.2a23.565,23.565,0,0,1,4.117-2.965,41.486,41.486,0,0,1,4.482-2.377.479.479,0,0,1,.5.807A41.307,41.307,0,0,1,87.9,381.63a23.53,23.53,0,0,1-4.482,2.376.484.484,0,0,1-.5-.806Z" fill="#1f487e"/>
          <path id="Path_66" data-name="Path 66" d="M127.915,355.088a23.529,23.529,0,0,1,4.117-2.965,41.309,41.309,0,0,1,4.482-2.377.479.479,0,0,1,.5.806,41.156,41.156,0,0,1-4.117,2.966,23.568,23.568,0,0,1-4.483,2.376.484.484,0,0,1-.5-.806Z" fill="#1f487e"/>
          <path id="Path_67" data-name="Path 67" d="M110.521,346.565a23.563,23.563,0,0,1-.279-5.066,41.188,41.188,0,0,1,.413-5.056.479.479,0,0,1,.949.012,41.2,41.2,0,0,1,.279,5.066,23.5,23.5,0,0,1-.413,5.057.484.484,0,0,1-.949-.013Z" fill="#1f487e"/>
        </g>
      </g>
    </g>
    <g id="Group_43" data-name="Group 43">
      <g id="Group_42" data-name="Group 42">
        <path id="Path_68" data-name="Path 68" d="M231.728,169.368l-3.83-.67-5.53-.971-2.93-.51a2.678,2.678,0,0,1-.92-.349,1.452,1.452,0,0,1-.21-.141l-66.8-49.409a3.476,3.476,0,0,1-.72-4.851l2.21-2.99,1.26-1.7a3.464,3.464,0,0,1,4.84-.721l59.83,44.25,6.97,5.16c.07.05.13.111.19.16a2.674,2.674,0,0,1,.6.781l1.27,2.49,2.18,4.279,2.21,4.351A.587.587,0,0,1,231.728,169.368Z" fill="#99b2dd"/>
        <path id="Path_69" data-name="Path 69" d="M227.958,159.9a89.763,89.763,0,0,1-5.59,7.829l-2.93-.51a2.678,2.678,0,0,1-.92-.349,1.452,1.452,0,0,1-.21-.141l-66.8-49.409a3.476,3.476,0,0,1-.72-4.851l2.21-2.99c9.38,9.811,39.93,39.681,65.93,41.83l6.97,5.16c.07.05.13.111.19.16a2.674,2.674,0,0,1,.6.781Z" fill="#86a5d9"/>
        <rect id="Rectangle_30" data-name="Rectangle 30" width="12.763" height="1.731" transform="matrix(0.595, -0.804, 0.804, 0.595, 157.271, 121.577)" fill="#5084dd"/>
        <path id="Path_70" data-name="Path 70" d="M226.092,156.63a2.746,2.746,0,0,1,.6.782l3.444,6.77,2.209,4.347a.58.58,0,0,1-.618.834l-3.831-.67-8.457-1.478a2.721,2.721,0,0,1-.923-.344Z" fill="#e4e8f0"/>
        <path id="Path_71" data-name="Path 71" d="M230.136,164.182l2.209,4.347a.58.58,0,0,1-.618.834l-3.831-.67Z" fill="#99b2dd"/>
        <path id="Path_72" data-name="Path 72" d="M171.766,120.162a1.263,1.263,0,0,0-1.411,2.068c6.25,5.642,17.652,15.244,20.515,12.978C193.756,132.923,179.9,124.131,171.766,120.162Z" fill="#a2bdeb"/>
      </g>
    </g>
    <g id="Group_48" data-name="Group 48">
      <g id="Group_44" data-name="Group 44">
        <path id="Path_73" data-name="Path 73" d="M373.647,149.351a1.662,1.662,0,0,1-2.48.81l-4.38-2.92s-4.14,12.15-12.52,16.86a4.136,4.136,0,0,1-4.3-.21l-3.18-2.12-7.24,5.57a.7.7,0,0,1-1.11-.74l2.34-8.83-3.17-2.12a4.121,4.121,0,0,1-1.86-3.89c1.12-9.55,10.73-18.04,10.73-18.04l-4.38-2.92a1.656,1.656,0,0,1-.21-2.6,22.88,22.88,0,0,1,10.03-5.39,18.308,18.308,0,0,1,4.38-.51,18.968,18.968,0,0,1,16.67,10.24,18.565,18.565,0,0,1,1.79,5.48A22.859,22.859,0,0,1,373.647,149.351Z" fill="#ed6a5a"/>
        <path id="Path_74" data-name="Path 74" d="M372.967,132.541c-8.1,14.41-22.25,33.95-29.57,25.63-7.1-8.06,4.32-25.26,12.9-35.87A18.968,18.968,0,0,1,372.967,132.541Z" fill="#f57969"/>
      </g>
      <g id="Group_45" data-name="Group 45">
        <path id="Path_75" data-name="Path 75" d="M367.437,92.211c-.55,3.65-11.54,20.18-11.54,20.18a10.562,10.562,0,0,0-6.17-4.65,19.223,19.223,0,0,0-3.96-.84.671.671,0,0,1-.51-1c4.81-8.21,10.94-11.53,15.54-12.86A19.1,19.1,0,0,1,367.437,92.211Z" fill="#4468a6"/>
        <path id="Path_76" data-name="Path 76" d="M367.437,92.211c-.55,3.65-11.54,20.18-11.54,20.18a10.562,10.562,0,0,0-6.17-4.65,25.826,25.826,0,0,0,11.07-14.7A19.1,19.1,0,0,1,367.437,92.211Z" fill="#3b5a8f"/>
      </g>
      <g id="Group_46" data-name="Group 46">
        <path id="Path_77" data-name="Path 77" d="M392.6,137.431a.67.67,0,0,1-1.12-.08,18.056,18.056,0,0,0-3.43-4.51,9.781,9.781,0,0,0-5.54-2.72s11.02-16.51,14.17-18.43a19.668,19.668,0,0,1,1.89,7.41C398.907,123.811,397.947,130.341,392.6,137.431Z" fill="#4468a6"/>
        <path id="Path_78" data-name="Path 78" d="M398.567,119.1c-4.29,3.51-8.71,8.23-10.52,13.74a9.781,9.781,0,0,0-5.54-2.72s11.02-16.51,14.17-18.43A19.668,19.668,0,0,1,398.567,119.1Z" fill="#3b5a8f"/>
      </g>
      <path id="Path_79" data-name="Path 79" d="M359.763,114.716s-4.139,4.088-3.811,5.722,17.329,12.959,19.29,12.849,3.811-5.722,3.811-5.722Z" fill="#4468a6"/>
      <path id="Path_80" data-name="Path 80" d="M405.757,87.061c-.39,9.07-4.75,22.39-20.07,40.07-.91,1.05-1.87,2.12-2.86,3.21a3.389,3.389,0,0,1-4.36.54l-21.38-14.25a3.381,3.381,0,0,1-1.19-4.24c6.84-14.75,13.83-24.21,20.24-30.22a41.706,41.706,0,0,1,10.87-7.6c6.46-3.03,11.43-2.79,13.67-2.43a2.894,2.894,0,0,1,2.04,1.36C403.917,75.421,406.057,79.931,405.757,87.061Z" fill="#99b2dd"/>
      <path id="Path_81" data-name="Path 81" d="M385.687,127.131c-.91,1.05-1.87,2.12-2.86,3.21a3.389,3.389,0,0,1-4.36.54l-21.38-14.25a3.381,3.381,0,0,1-1.19-4.24c6.84-14.75,13.83-24.21,20.24-30.22C373.757,93.841,370.957,117.881,385.687,127.131Z" fill="#89a7dd"/>
      <path id="Path_82" data-name="Path 82" d="M369.014,123l5.041-.607a1.258,1.258,0,0,0,1.026-.8l7.29-19.264a.276.276,0,0,0-.447-.3l-14.97,14.149a1.258,1.258,0,0,0-.346,1.257l1.385,4.887A.945.945,0,0,0,369.014,123Z" fill="#4468a6"/>
      <path id="Path_83" data-name="Path 83" d="M390.685,90.1a4.924,4.924,0,0,1,6.806-3.838c3.061,1.328,6.173,3.315,6.236,5.922.123,5.153-12.167,27.447-15,27.614C386.618,119.918,389.218,100.193,390.685,90.1Z" fill="#a2bdeb"/>
      <path id="Path_84" data-name="Path 84" d="M396.572,93.1a6.973,6.973,0,1,1-1.938-9.669A6.973,6.973,0,0,1,396.572,93.1Z" fill="#e8ebe4"/>
      <g id="Group_47" data-name="Group 47">
        <path id="Path_85" data-name="Path 85" d="M405.757,87.061,387,74.561c.47-.22.93-.42,1.38-.61a23.077,23.077,0,0,1,12.3-1.81,2.894,2.894,0,0,1,2.04,1.36,18.236,18.236,0,0,1,1.81,3.98A26.542,26.542,0,0,1,405.757,87.061Z" fill="#4468a6"/>
        <path id="Path_86" data-name="Path 86" d="M405.757,87.061,387,74.561c.47-.22.93-.42,1.38-.61,4.49,2.05,10.75,4.21,16.15,3.53A26.542,26.542,0,0,1,405.757,87.061Z" fill="#3b5a8f"/>
      </g>
    </g>
    <g id="Group_52" data-name="Group 52">
      <g id="Group_51" data-name="Group 51">
        <g id="Group_49" data-name="Group 49">
          <path id="Path_87" data-name="Path 87" d="M432.03,182.657a1.009,1.009,0,0,1-.13.16l-28.52,28.52a1.074,1.074,0,0,1-1.53,0,1.213,1.213,0,0,0-1.71,0l-.37.37a2.041,2.041,0,0,1-3.03-.15,2.133,2.133,0,0,1,.23-2.82l.28-.28a1.219,1.219,0,0,0,0-1.71,1.086,1.086,0,0,1,0-1.53l14.98-14.98,11.98-11.98,1.56-1.56a1.069,1.069,0,0,1,1.53,0l4.6,4.59A1.092,1.092,0,0,1,432.03,182.657Z" fill="#e8ebe4"/>
          <path id="Path_88" data-name="Path 88" d="M432.03,182.657a1.009,1.009,0,0,1-.13.16l-18.64,18.64a27.594,27.594,0,0,0-1.03-11.22l11.98-11.98Z" fill="#d8dbd5"/>
        </g>
        <g id="Group_50" data-name="Group 50">
          <path id="Path_89" data-name="Path 89" d="M427.86,189.627l1.13,1.13a.634.634,0,0,1,0,.9l-.68.68-1.62,1.63a.646.646,0,0,1-.91,0l-11.15-11.15a.646.646,0,0,1,0-.91l2.31-2.31a.652.652,0,0,1,.9,0l1.13,1.14a1.539,1.539,0,0,0,2.53-.55c.19-.55.42-1.11.67-1.65a19.906,19.906,0,0,1,3.54-5.61,7.039,7.039,0,1,1,9.96,9.95,21.611,21.611,0,0,1-7.26,4.22A1.533,1.533,0,0,0,427.86,189.627Z" fill="#1f487e"/>
          <path id="Path_90" data-name="Path 90" d="M428.31,192.337l-1.62,1.63a.646.646,0,0,1-.91,0l-11.15-11.15a.646.646,0,0,1,0-.91l2.31-2.31a.652.652,0,0,1,.9,0l1.13,1.14a1.539,1.539,0,0,0,2.53-.55c.19-.55.42-1.11.67-1.65A13.412,13.412,0,0,0,428.31,192.337Z" fill="#1c4070"/>
          <path id="Path_91" data-name="Path 91" d="M431.525,174.8a7.8,7.8,0,0,1,1.328,3.812,1.057,1.057,0,0,0,1.974.423c1.317-2.349,1.832-5.088-2.2-5.847A1.06,1.06,0,0,0,431.525,174.8Z" fill="#255696"/>
        </g>
      </g>
    </g>
    <path id="Path_92" data-name="Path 92" d="M220.542,236.545l-17.8,7.032a.3.3,0,0,0,.013.571l7.73,2.664a.3.3,0,0,1,.188.189l2.665,7.729a.3.3,0,0,0,.57.013l7.032-17.8A.3.3,0,0,0,220.542,236.545Z" fill="#ed6a5a"/>
    <g id="Group_95" data-name="Group 95">
      <g id="Group_56" data-name="Group 56">
        <g id="Group_53" data-name="Group 53">
          <path id="Path_93" data-name="Path 93" d="M337.1,138.412c-1.651,2.594-3.371,5.139-5.115,7.665-1.713,2.55-3.544,5.014-5.311,7.524s-3.615,4.961-5.471,7.406c-1.885,2.425-3.764,4.854-5.76,7.2a.5.5,0,0,1-.809-.588c1.614-2.622,3.344-5.159,5.069-7.7,1.753-2.52,3.522-5.029,5.357-7.49s3.621-4.957,5.518-7.372c1.865-2.44,3.755-4.86,5.713-7.231a.5.5,0,0,1,.809.588Z" fill="#acc3eb"/>
        </g>
        <g id="Group_54" data-name="Group 54">
          <path id="Path_94" data-name="Path 94" d="M372.022,157.337c-2.768,4.273-5.618,8.49-8.472,12.7l-8.669,12.566c-2.938,4.155-5.834,8.34-8.807,12.47s-5.932,8.272-8.966,12.359a.5.5,0,0,1-.821-.571c2.785-4.262,5.63-8.482,8.491-12.691,2.846-4.219,5.77-8.384,8.651-12.579l8.787-12.484c2.966-4.136,5.935-8.269,8.985-12.346a.5.5,0,0,1,.821.572Z" fill="#acc3eb"/>
        </g>
        <g id="Group_55" data-name="Group 55">
          <path id="Path_95" data-name="Path 95" d="M351.115,173.878c-1.083,1.858-2.241,3.664-3.408,5.464s-2.385,3.564-3.588,5.339c-1.246,1.745-2.457,3.515-3.731,5.24s-2.55,3.451-3.9,5.126a.5.5,0,0,1-.823-.568c1.09-1.853,2.246-3.66,3.415-5.459s2.39-3.561,3.581-5.344c1.235-1.753,2.46-3.512,3.724-5.245s2.551-3.45,3.9-5.121a.5.5,0,0,1,.822.568Z" fill="#acc3eb"/>
        </g>
      </g>
      <g id="Group_57" data-name="Group 57">
        <path id="Path_96" data-name="Path 96" d="M208.228,93.238a7.278,7.278,0,1,1,7.277-7.279A7.287,7.287,0,0,1,208.228,93.238Zm0-13.324a6.045,6.045,0,1,0,6.045,6.045A6.052,6.052,0,0,0,208.228,79.914Z" fill="#fff"/>
      </g>
      <g id="Group_58" data-name="Group 58">
        <path id="Path_97" data-name="Path 97" d="M221,77.4a3.617,3.617,0,1,1-3.617-3.617A3.616,3.616,0,0,1,221,77.4Z" fill="#fff"/>
      </g>
      <g id="Group_59" data-name="Group 59">
        <path id="Path_98" data-name="Path 98" d="M108.492,132.276a2.557,2.557,0,1,1-2.557-2.558A2.557,2.557,0,0,1,108.492,132.276Z" fill="#fff"/>
      </g>
      <g id="Group_61" data-name="Group 61" opacity="0.43">
        <g id="Group_60" data-name="Group 60">
          <path id="Path_99" data-name="Path 99" d="M83.142,94.295a8.739,8.739,0,1,1,8.739-8.739A8.749,8.749,0,0,1,83.142,94.295Zm0-15.478a6.739,6.739,0,1,0,6.739,6.739A6.747,6.747,0,0,0,83.142,78.817Z" fill="#acc3eb"/>
        </g>
      </g>
      <g id="Group_63" data-name="Group 63" opacity="0.43">
        <g id="Group_62" data-name="Group 62">
          <path id="Path_100" data-name="Path 100" d="M446.653,144.913a6.179,6.179,0,1,1,6.18-6.179A6.186,6.186,0,0,1,446.653,144.913Zm0-10.944a4.765,4.765,0,1,0,4.765,4.765A4.771,4.771,0,0,0,446.653,133.969Z" fill="#acc3eb"/>
        </g>
      </g>
      <g id="Group_65" data-name="Group 65" opacity="0.43">
        <g id="Group_64" data-name="Group 64">
          <path id="Path_101" data-name="Path 101" d="M461.4,145.316a4.822,4.822,0,1,1-4.821-4.821A4.82,4.82,0,0,1,461.4,145.316Z" fill="#acc3eb"/>
        </g>
      </g>
      <g id="Group_67" data-name="Group 67" opacity="0.43">
        <g id="Group_66" data-name="Group 66">
          <path id="Path_102" data-name="Path 102" d="M321.105,69.245a5.031,5.031,0,1,1,5.031-5.03A5.036,5.036,0,0,1,321.105,69.245Zm0-8.647a3.617,3.617,0,1,0,3.617,3.617A3.622,3.622,0,0,0,321.105,60.6Z" fill="#acc3eb"/>
        </g>
      </g>
      <g id="Group_69" data-name="Group 69" opacity="0.43">
        <g id="Group_68" data-name="Group 68">
          <path id="Path_103" data-name="Path 103" d="M467.466,218.649a3.137,3.137,0,1,1-3.137-3.137A3.137,3.137,0,0,1,467.466,218.649Z" fill="#acc3eb"/>
        </g>
      </g>
      <g id="Group_71" data-name="Group 71" opacity="0.43">
        <g id="Group_70" data-name="Group 70">
          <path id="Path_104" data-name="Path 104" d="M197.341,336.274a3.138,3.138,0,1,1-3.137-3.137A3.137,3.137,0,0,1,197.341,336.274Z" fill="#acc3eb"/>
        </g>
      </g>
      <g id="Group_73" data-name="Group 73" opacity="0.43">
        <g id="Group_72" data-name="Group 72">
          <path id="Path_105" data-name="Path 105" d="M186.829,334.732a2.718,2.718,0,1,1,2.718-2.719A2.722,2.722,0,0,1,186.829,334.732Zm0-4.437a1.718,1.718,0,1,0,1.718,1.718A1.721,1.721,0,0,0,186.829,330.3Z" fill="#acc3eb"/>
        </g>
      </g>
      <g id="Group_74" data-name="Group 74">
        <path id="Path_106" data-name="Path 106" d="M446.374,328.774a3.137,3.137,0,1,1-3.138-3.137A3.138,3.138,0,0,1,446.374,328.774Z" fill="#e8ebe4"/>
      </g>
      <g id="Group_75" data-name="Group 75">
        <path id="Path_107" data-name="Path 107" d="M420.987,311.623a3.637,3.637,0,1,1,3.637-3.637A3.641,3.641,0,0,1,420.987,311.623Zm0-6.275a2.637,2.637,0,1,0,2.637,2.638A2.641,2.641,0,0,0,420.987,305.348Z" fill="#e8ebe4"/>
      </g>
      <g id="Group_76" data-name="Group 76">
        <path id="Path_108" data-name="Path 108" d="M434.42,289.026a2.06,2.06,0,1,1-2.06-2.06A2.061,2.061,0,0,1,434.42,289.026Z" fill="#e8ebe4"/>
      </g>
      <g id="Group_78" data-name="Group 78" opacity="0.43">
        <g id="Group_77" data-name="Group 77">
          <circle id="Ellipse_4" data-name="Ellipse 4" cx="2.557" cy="2.557" r="2.557" transform="translate(326.762 55.667)" fill="#acc3eb"/>
        </g>
      </g>
      <g id="Group_80" data-name="Group 80" opacity="0.43">
        <g id="Group_79" data-name="Group 79">
          <circle id="Ellipse_5" data-name="Ellipse 5" cx="2.557" cy="2.557" r="2.557" transform="translate(70.333 95.394)" fill="#acc3eb"/>
        </g>
      </g>
      <g id="Group_82" data-name="Group 82" opacity="0.43">
        <g id="Group_81" data-name="Group 81">
          <path id="Path_109" data-name="Path 109" d="M364.106,354.4a7.29,7.29,0,1,1,7.29-7.29A7.3,7.3,0,0,1,364.106,354.4Zm0-12.58a5.29,5.29,0,1,0,5.29,5.29A5.3,5.3,0,0,0,364.106,341.817Z" fill="#acc3eb"/>
        </g>
      </g>
      <g id="Group_84" data-name="Group 84" opacity="0.43">
        <g id="Group_83" data-name="Group 83">
          <circle id="Ellipse_6" data-name="Ellipse 6" cx="2.834" cy="2.834" r="2.834" transform="translate(409.35 391.569)" fill="#acc3eb"/>
        </g>
      </g>
      <g id="Group_86" data-name="Group 86" opacity="0.43">
        <g id="Group_85" data-name="Group 85">
          <path id="Path_110" data-name="Path 110" d="M51.106,328.536a7.29,7.29,0,1,1,7.29-7.29A7.3,7.3,0,0,1,51.106,328.536Zm0-12.58a5.29,5.29,0,1,0,5.29,5.29A5.3,5.3,0,0,0,51.106,315.956Z" fill="#acc3eb"/>
        </g>
      </g>
      <g id="Group_88" data-name="Group 88" opacity="0.43">
        <g id="Group_87" data-name="Group 87">
          <path id="Path_111" data-name="Path 111" d="M63.735,310.651A3.755,3.755,0,1,1,59.98,306.9,3.755,3.755,0,0,1,63.735,310.651Z" fill="#acc3eb"/>
        </g>
      </g>
      <g id="Group_89" data-name="Group 89">
        <circle id="Ellipse_7" data-name="Ellipse 7" cx="2.94" cy="2.94" r="2.94" transform="translate(417.78 146.456)" fill="#fff"/>
      </g>
      <g id="Group_90" data-name="Group 90">
        <path id="Path_112" data-name="Path 112" d="M360.343,189.977a3.389,3.389,0,1,1,3.39-3.389A3.393,3.393,0,0,1,360.343,189.977Zm0-6.072a2.683,2.683,0,1,0,2.683,2.683A2.685,2.685,0,0,0,360.343,183.9Z" fill="#acc3eb"/>
      </g>
      <g id="Group_91" data-name="Group 91">
        <path id="Path_113" data-name="Path 113" d="M355.456,190.748a1.137,1.137,0,1,1,.96-1.289A1.136,1.136,0,0,1,355.456,190.748Z" fill="#acc3eb"/>
      </g>
      <g id="Group_92" data-name="Group 92">
        <path id="Path_114" data-name="Path 114" d="M328.283,159.343a1.7,1.7,0,1,1-1.7-1.7A1.7,1.7,0,0,1,328.283,159.343Z" fill="#acc3eb"/>
      </g>
      <g id="Group_93" data-name="Group 93">
        <path id="Path_115" data-name="Path 115" d="M333.388,137.593a1.2,1.2,0,1,1-1.2-1.2A1.2,1.2,0,0,1,333.388,137.593Z" fill="#acc3eb"/>
      </g>
      <g id="Group_94" data-name="Group 94">
        <path id="Path_116" data-name="Path 116" d="M329.644,158.387a1.085,1.085,0,1,1,1.085-1.085A1.085,1.085,0,0,1,329.644,158.387Zm0-1.677a.592.592,0,1,0,.593.592A.593.593,0,0,0,329.644,156.71Z" fill="#acc3eb"/>
      </g>
    </g>
  </g>
</svg>
